<svg width="165" height="170" viewBox="0 0 165 170" fill="none" xmlns="http://www.w3.org/2000/svg">
<path d="M81.3264 169.998C78.5606 169.905 76.3758 167.577 76.4621 164.811V164.792C71.4783 162.979 62.022 159.482 54.1694 156.285L22.1713 152.237C20.4879 152.025 19.0535 150.949 18.3629 149.428C16.042 148.054 14.166 146.357 12.7714 144.368C4.49385 132.574 0.462964 96.655 0.0279997 92.5975C-0.194463 90.5256 0.92781 88.6031 2.71415 87.7299C3.09267 87.5439 3.50107 87.4045 3.92939 87.3215L4.03896 87.3016C3.70693 85.7709 3.28193 83.8053 2.8536 81.7699C1.56199 78.8181 0.917849 75.5575 0.974295 72.2671C0.459643 71.1581 0.366674 69.9196 0.711989 68.7343C0.997538 67.7448 1.53211 66.0979 2.25926 64.6502C2.7872 59.693 3.97588 58.0029 5.21436 57.0201C5.29405 56.6283 5.3837 56.2299 5.48995 55.8314C5.37706 55.5924 5.25421 55.3433 5.13135 55.0877C4.90225 54.6228 4.67647 54.158 4.46729 53.6865C2.33563 48.8753 2.33231 43.0946 4.46065 37.8219C6.26027 33.3561 9.39135 29.6606 13.2562 27.3463C15.5472 16.4323 25.1165 8.50338 36.5517 8.50338C37.2622 8.50338 37.9728 8.53658 38.6833 8.59967C41.8543 4.73148 46.1873 1.91251 50.9586 0.69395C52.7748 0.235744 54.6674 0 56.5833 0C62.5964 0 68.4933 2.31759 72.7633 6.35512C76.3094 9.70866 78.4377 13.7628 80.4996 17.6874C81.2467 19.1085 81.9539 20.4533 82.7077 21.7316C83.4016 21.7914 83.8831 21.8478 84.0856 21.871C84.6335 21.8677 86.3368 21.8644 86.5692 21.8644C87.0175 21.4394 87.4723 20.9613 87.9438 20.4699C88.4718 19.9154 89.003 19.3642 89.5542 18.8363C94.4683 14.1147 101.119 11.4053 107.796 11.4053C110.569 11.4053 113.245 11.8735 115.752 12.8032C125.457 16.3892 131.497 26.7785 129.504 36.4506C129.435 36.7926 129.355 37.1379 129.272 37.4833C129.196 37.8087 129.093 38.2436 129.036 38.5657C129.773 38.9542 131.384 39.346 132.307 39.5718L132.871 39.7112C136.464 40.6044 139.887 42.3874 142.543 44.7116C154.709 45.7609 164.292 56.0041 164.292 68.4354C164.292 77.2542 159.441 85.1766 151.983 89.2905C153.175 93.1487 153.195 97.744 152.05 103.196C151.286 106.832 149.845 112.144 146.153 116.278C145.897 116.564 145.631 116.843 145.356 117.115C146.461 125.382 146.644 134.928 145.844 143.757C144.353 160.196 140.787 162.471 139.446 163.327C138.011 164.247 135.601 165.791 109.217 167.939C98.0675 168.846 86.9112 169.506 83.1526 169.719C82.6346 169.898 82.0768 169.995 81.4991 169.995C81.4957 170.001 81.3795 170.001 81.3264 169.998Z" fill="white"/>
<path d="M38.3333 99.3048C37.2077 96.4759 36.8922 93.0427 34.4784 91.1866C31.6959 89.045 27.7514 90.164 24.2451 90.3466C18.1157 90.6653 11.9233 87.4878 8.6063 82.3213C5.28929 77.1549 4.97718 70.2021 7.81939 64.7601C9.1276 62.2566 11.1065 59.8228 10.8973 57.0071C10.7612 55.1842 9.7153 53.5772 8.97154 51.9038C5.28597 43.5863 10.5188 32.5827 19.2945 30.1921C25.2843 28.5585 32.9809 29.9862 36.6233 24.9526C38.1208 22.884 38.4362 20.2178 39.2231 17.7873C41.1323 11.8804 46.2157 7.1058 52.2322 5.56848C58.2486 4.03117 64.9989 5.78099 69.5079 10.0476C73.738 14.0519 75.8198 19.753 78.8314 24.7401C79.605 26.0184 80.5015 27.31 81.8363 27.9841C83.8252 28.9868 86.2988 28.336 88.1383 27.0843C89.9778 25.8292 91.3823 24.0495 92.986 22.5055C98.4944 17.2129 106.981 14.8754 114.146 17.525C121.312 20.1746 126.372 28.1667 124.831 35.6507C124.516 37.1748 123.958 38.7486 124.38 40.2461C125.193 43.148 128.856 43.8652 131.781 44.5924C137.651 46.05 143.478 50.6022 143.541 56.6518C143.624 64.1658 134.982 70.6537 137.392 77.7692C138.773 81.8499 143.272 83.9483 145.756 87.4745C148.721 91.6814 148.442 97.3459 147.383 102.383C146.563 106.294 145.275 110.252 142.615 113.234C139.099 117.168 133.594 118.862 128.314 118.848C123.038 118.835 117.892 117.314 112.862 115.721C111.304 115.226 109.694 114.718 108.067 114.887C103.531 115.362 101.313 120.439 98.4845 124.015C95.1708 128.202 89.9844 130.848 84.6486 131.067C79.3128 131.29 73.9239 129.082 70.2782 125.184C67.944 122.69 66.3801 119.632 65.0586 116.511C64.0061 114.024 63.2889 110.963 61.3133 108.994C59.7395 107.423 57.7572 107.084 55.6056 107.224C51.9666 107.463 48.8554 108.21 45.3525 106.616C42.2081 105.185 39.6116 102.526 38.3333 99.3048Z" fill="#00B0DC"/>
<path d="M4.92578 92.2593L37.0799 86.0237L51.3042 147.991C51.3042 147.991 24.6054 152.862 16.8126 141.756C9.01643 130.649 4.92578 92.2593 4.92578 92.2593Z" fill="#FFE9E1"/>
<path d="M37.0772 86.0237C37.0772 86.0237 34.3379 89.0153 28.7896 91.572C26.5849 92.588 23.2347 91.2964 20.1269 91.9704C15.3423 92.9931 12.3872 94.9853 9.80062 94.381C6.49689 93.6107 4.92969 92.2593 4.92969 92.2593L9.62464 91.3495L28.2484 87.7304L37.0772 86.0237Z" fill="black"/>
<path d="M28.7854 91.571C26.5807 92.5871 23.9145 93.54 20.8099 94.2107C16.0253 95.2334 12.3829 94.981 9.79639 94.38L9.62042 91.3486L9.50752 89.4327C9.50752 89.4327 6.08094 73.9832 5.72898 70.7625C5.6991 70.5035 5.69246 70.3209 5.70574 70.2346C5.85184 69.3348 6.69852 67.4554 7.08036 66.6386C7.08036 66.622 7.087 66.6088 7.09696 66.5988C7.19657 66.3763 7.2663 66.2402 7.2663 66.2402C7.2663 66.2402 7.2663 66.2236 7.27294 66.1871C7.32606 65.7687 7.70126 62.9265 8.0831 61.7079C8.08974 61.6913 8.0997 61.6781 8.10634 61.6548C8.18271 61.4091 8.26572 61.2365 8.34209 61.1734C8.37861 61.1435 8.41846 61.1202 8.45498 61.097C8.4915 61.0738 8.53799 61.0572 8.58447 61.0372C9.13233 60.838 9.99561 60.9841 9.99561 60.9841C9.99561 60.9841 10.0023 60.8613 10.0321 60.662C10.1151 59.7988 10.3907 57.4015 10.8323 56.0899C10.8323 56.0733 10.839 56.0601 10.8489 56.0534C10.9319 55.8077 11.0183 55.6018 11.1146 55.4591C11.1312 55.4192 11.1611 55.3893 11.1909 55.3595C11.2142 55.3296 11.2441 55.2997 11.2673 55.2831C11.2972 55.2599 11.3204 55.2433 11.3503 55.23C12.2269 54.8415 13.9833 55.0407 13.9833 55.0407C13.9833 55.0407 18.074 45.0033 19.2427 44.8041C20.3484 44.6215 21.7164 46.6137 21.2051 49.871C21.1752 50.0602 21.1453 50.2594 21.0988 50.4587C20.4513 53.4503 20.1459 55.0308 20.0529 55.4823C20.0529 55.4989 20.0529 55.5056 20.0463 55.5122C20.0396 55.5819 20.0297 55.6185 20.0297 55.6185L21.3644 59.0616L21.3943 59.138L21.723 59.9847L23.0445 63.3814C23.0445 63.388 23.0445 63.388 23.0445 63.388L25.7772 70.4338L26.2188 73.525L26.5408 75.7994L27.1352 79.9432C27.1352 79.9499 27.1352 79.9499 27.1352 79.9598L28.2409 87.7294L28.7854 91.571Z" fill="#DCA29E"/>
<path d="M19.6387 70.3374C19.6387 70.3374 27.3352 53.7722 29.188 54.0644C31.0407 54.3566 27.043 80.5673 27.043 80.5673L22.5606 83.3929L19.6387 70.3374Z" fill="#DCA29E"/>
<path d="M24.5091 61.177L24.3929 51.6941H25.0935V49.8746H16.9088V51.6941H17.9249L17.6891 61.5024L10.8027 74.6243L11.5166 76.5734L31.7839 75.5341L32.4978 73.6482L24.5091 61.177Z" fill="white"/>
<path d="M17.784 59.9115L22.7546 60.0078L30.5474 73.1629L12.2324 74.7202L17.784 59.9115Z" fill="#058AAA"/>
<path d="M21.3976 59.1381C21.298 59.2444 21.1918 59.3373 21.0689 59.4203C19.5051 60.526 17.4298 60.8547 17.4298 60.8547H18.9041C19.7939 60.8547 20.5144 61.6118 20.4281 62.495C20.375 63.0495 20.1658 63.6438 19.6345 64.0987C18.2765 65.2674 14.3751 65.3339 14.3751 65.3339L16.7724 65.9448C17.5095 66.1307 18.0109 66.8346 17.9146 67.5884C17.7951 68.5413 17.4166 69.73 16.3209 70.2048C14.3751 71.0515 11.0017 70.7925 11.0017 70.7925L7.88056 73.2562L5.72898 70.7593C5.6991 70.5003 5.69246 70.3177 5.70574 70.2314C5.895 69.0626 7.26298 66.2403 7.26298 66.2403C7.26298 66.2403 7.85068 61.562 8.33877 61.1735C8.82022 60.785 9.896 60.5891 9.896 60.5891C9.896 60.5891 10.4771 55.6152 11.3536 55.2268C12.2302 54.8383 13.9867 55.0375 13.9867 55.0375L20.0529 55.4791L20.8963 55.5422C21.8326 55.6119 22.4867 56.5018 22.2709 57.4149C22.1281 58.0225 21.8691 58.6633 21.3976 59.1381Z" fill="#DCA29E"/>
<path d="M9.89258 60.5926C9.89258 60.5926 10.3309 55.446 11.6557 55.1339C12.9838 54.8218 21.2813 55.6287 21.2813 55.6287C21.2813 55.6287 23.3101 56.9568 21.62 58.8029C19.93 60.649 17.692 60.8051 17.692 60.8051" stroke="black" stroke-width="1.1493" stroke-miterlimit="10" stroke-linecap="round" stroke-linejoin="round"/>
<path d="M7.26367 66.2435C7.26367 66.2435 7.62891 61.7411 8.45899 61.1169C9.2924 60.4927 11.268 60.6222 13.2735 60.6487C15.2756 60.6753 19.6983 61.014 19.6983 61.014C19.6983 61.014 21.0497 62.3653 19.778 63.823C18.503 65.2806 15.5379 65.2009 15.5379 65.2009L13.8745 65.254L13.8479 65.6691" stroke="black" stroke-width="1.1493" stroke-miterlimit="10" stroke-linecap="round" stroke-linejoin="round"/>
<path d="M5.62305 70.3276C5.62305 70.3276 6.87149 66.0344 7.86095 65.802C8.85041 65.5663 16.0057 65.6725 17.2807 66.1673C18.5558 66.662 17.8286 69.0825 16.7329 69.9657C15.6405 70.8489 12.7518 70.8489 12.7518 70.8489L10.0989 70.6663" stroke="black" stroke-width="1.1493" stroke-miterlimit="10" stroke-linecap="round" stroke-linejoin="round"/>
<path d="M22.332 98.8865L22.8566 97.0968C23.3182 95.5263 24.7326 94.4239 26.3662 94.3609L38.0073 93.9027C39.3255 93.8495 40.5773 94.4837 41.3177 95.5761L43.1173 98.2357L22.332 98.8865Z" fill="#004556"/>
<path d="M105.665 57.1532L104.778 78.5926L90.4774 90.3068L79.1484 79.104L79.9188 67.9476L94.3522 61.898L105.665 57.1532Z" fill="#DCA29E"/>
<path d="M94.2337 69.8242C93.1911 71.2088 91.8165 72.3111 90.3954 73.3072C88.7385 74.4727 86.9655 75.502 85.0762 76.2457C83.5688 76.8368 81.2279 77.6071 79.2656 77.4012L79.9197 67.9449L94.3532 61.8953C94.7616 62.204 95.1136 62.5759 95.3759 63.0275C95.7146 63.6218 95.8706 64.3125 95.9005 64.9998C95.9736 66.7363 95.2763 68.4396 94.2337 69.8242Z" fill="black"/>
<path d="M83.6484 26.8694C83.6484 26.8694 65.9477 24.6216 62.9992 31.395C60.8476 36.3357 66.4026 39.5664 66.4026 39.5664C66.4026 39.5664 61.5914 41.7146 63.9256 45.2475C66.2598 48.7803 71.5125 51.7254 71.5125 51.7254L85.9792 29.0144L83.6484 26.8694Z" fill="black"/>
<path d="M106.048 46.3399C106.274 36.7839 97.2257 28.7321 88.0616 28.0979C78.8875 27.4638 70.8788 34.5427 69.7964 44.0521L69.8329 45.8816L69.5474 59.6411C69.481 62.8718 70.7693 65.963 73.0702 68.088C74.7869 69.6752 76.9584 70.6181 79.2461 70.7775L96.7476 71.9861L105.666 57.1509L106.048 46.3399Z" fill="#DCA29E"/>
<path d="M76.3834 52.1438C76.3203 53.0436 75.54 53.721 74.6402 53.6612C73.7404 53.5981 73.063 52.8179 73.1228 51.9181C73.1859 51.0182 73.9662 50.3409 74.866 50.4007C75.7658 50.4637 76.4465 51.244 76.3834 52.1438Z" fill="black"/>
<path d="M91.6256 53.5951C91.5625 54.4949 90.7822 55.1722 89.8824 55.1125C88.9826 55.0494 88.3052 54.2691 88.365 53.3693C88.4281 52.4695 89.2084 51.7922 90.1082 51.8519C91.008 51.915 91.6887 52.6953 91.6256 53.5951Z" fill="black"/>
<path d="M81.9729 60.7102C81.4384 60.6737 80.9303 60.4878 80.5253 60.1591C80.4423 60.0926 80.429 59.9698 80.4954 59.8868C80.5618 59.8038 80.6846 59.7905 80.7676 59.8569C81.3786 60.3483 82.3149 60.4645 83.1018 60.1458C83.8356 59.8503 84.4632 59.1829 84.7819 58.3694C84.8218 58.2698 84.9347 58.22 85.0343 58.2598C85.1339 58.2997 85.1837 58.4126 85.1439 58.5122C84.7819 59.4385 84.0913 60.169 83.2479 60.5077C82.8362 60.6737 82.3979 60.7401 81.9729 60.7102Z" fill="black"/>
<path d="M80.8672 26.9421C80.8672 26.9421 81.4615 39.8814 89.0252 45.2637C96.589 50.6493 99.4976 51.642 99.4976 51.642L102.486 57.2069L105.992 52.3891C105.992 52.3891 108.937 51.403 111.912 54.285C111.912 54.285 116.189 34.0443 112.689 30.1329C109.193 26.2182 80.8672 26.9421 80.8672 26.9421Z" fill="black"/>
<path d="M101.955 56.0581C103.204 53.5412 106.063 51.6088 108.902 51.6088C112.079 51.6088 114.573 54.4112 114.151 57.5887C113.616 61.6063 108.782 65.6073 104.784 63.4591C99.6578 60.7065 101.949 56.0713 101.955 56.0581Z" fill="#DCA29E"/>
<path d="M105.267 61.4966C105.251 61.4966 105.231 61.4933 105.214 61.4867C105.095 61.4502 105.028 61.3207 105.065 61.2011C105.901 58.5415 107.621 56.1974 109.906 54.597C110.889 53.9097 111.742 53.5378 112.589 53.4315C112.711 53.4149 112.828 53.5046 112.844 53.6274C112.861 53.7536 112.771 53.8665 112.648 53.8831C111.875 53.9827 111.088 54.328 110.168 54.9689C107.967 56.5095 106.307 58.7706 105.503 61.3373C105.47 61.4402 105.37 61.5066 105.267 61.4966Z" fill="black"/>
<path d="M71.9067 47.1888C71.7805 47.5009 71.724 47.8761 71.8901 48.1683C71.9797 48.3277 72.1291 48.4472 72.2885 48.5335C72.5641 48.6796 72.8795 48.7361 73.1883 48.7759C74.3438 48.9253 75.5491 48.8788 76.6282 48.4405C76.8606 48.3443 77.0963 48.2247 77.2557 48.0288C77.3553 47.906 77.4217 47.7532 77.4583 47.6005C77.6342 46.88 77.1926 46.0997 76.5352 45.7544C75.134 45.014 72.5242 45.6681 71.9067 47.1888Z" fill="black"/>
<path d="M93.7448 47.9025C93.8709 48.2146 93.9274 48.5898 93.7614 48.882C93.6717 49.0414 93.5223 49.1609 93.3629 49.2473C93.0873 49.3934 92.7719 49.4498 92.4631 49.4897C91.3076 49.6391 90.1023 49.5926 89.0232 49.1543C88.7908 49.058 88.5551 48.9385 88.3957 48.7426C88.2961 48.6197 88.2297 48.467 88.1932 48.3142C88.0172 47.5937 88.4588 46.8135 89.1162 46.4681C90.5207 45.7277 93.1272 46.3818 93.7448 47.9025Z" fill="black"/>
<path d="M80.2583 50.7584C79.82 51.5918 79.4016 52.4352 79.0098 53.2919C78.8737 53.5874 78.7375 53.8895 78.6844 54.2083C78.5682 54.8856 78.8239 55.5862 79.2256 56.144C79.6307 56.7018 80.1719 57.1401 80.7098 57.5718" stroke="black" stroke-width="1.1493" stroke-miterlimit="10" stroke-linecap="round" stroke-linejoin="round"/>
<path d="M132.241 149.164C127.569 152.155 81.5726 165.141 81.5726 165.141V158.906L81.5128 158.882L72.2457 155.22L57.4105 135.002C57.4105 135.002 50.9159 99.0133 64.5559 90.5731C75.0215 84.0918 76.0608 79.9181 77.7343 79.3536C78.239 79.1777 78.4581 79.1411 78.4581 79.1411L79.3679 75.8972L87.6787 84.0785L104.699 74.2005L108.019 79.3536L108.208 79.6591C108.208 79.6591 113.146 89.7928 121.974 107.723C130.816 125.649 136.919 146.179 132.241 149.164Z" fill="#BCD0E6"/>
<path d="M77.7367 79.35C77.6604 80.0738 77.5608 80.8143 77.491 81.5414C77.0494 86.16 76.7904 90.7919 76.6377 95.4337C76.4551 100.653 76.4086 105.883 76.3555 111.112C76.2725 119.546 76.1861 127.986 76.1031 136.43C76.1031 136.782 76.0965 137.13 76.0965 137.482C76.0965 137.841 76.0899 138.2 76.0799 138.565C76.0434 142.021 75.9205 145.511 75.0805 148.845C74.516 151.102 73.5398 153.281 72.2482 155.216L45.7188 144.744C45.7188 144.744 47.1531 96.805 60.7931 88.3647C62.0614 87.5778 63.2435 86.8606 64.3492 86.2032C64.4554 86.1434 64.5617 86.0737 64.6712 86.0139C72.4773 81.3887 76.2858 79.8414 77.7367 79.35Z" fill="#FFE9E1"/>
<path d="M136.917 159.424C132.245 162.415 81.5734 165.141 81.5734 165.141V158.906L81.5137 158.882C81.7029 151.289 82.2541 143.632 82.4832 136.108H101.748C102.106 116.884 102.482 97.7087 108.023 79.3538L108.212 79.6593C108.212 79.6593 114.342 80.7517 121.255 84.9951C121.361 85.0549 121.477 85.1246 121.583 85.1943C126.737 88.415 132.285 93.3922 136.01 100.969C144.846 118.896 141.595 156.439 136.917 159.424Z" fill="#FFE9E1"/>
<path d="M119.453 87.5181C112.494 94.969 105.807 102.576 104.83 103.685L113.34 111.873C113.41 111.933 113.417 112.026 113.37 112.102C113.294 112.238 105.395 125.649 102.416 135.703C102.387 135.786 102.31 135.839 102.234 135.839C102.211 135.839 102.197 135.839 102.181 135.832C102.074 135.802 102.021 135.703 102.051 135.597C104.883 126.024 112.142 113.457 112.965 112.042L104.439 103.831C104.362 103.761 104.356 103.648 104.422 103.572C104.498 103.489 111.68 95.2844 119.174 87.2625C119.961 86.4158 120.655 85.6687 121.249 84.9947C121.356 85.0545 121.472 85.1242 121.578 85.1939C120.974 85.8779 120.263 86.6482 119.453 87.5181Z" fill="black"/>
<path d="M76.3089 138.366C76.3155 138.472 76.2391 138.565 76.1329 138.572C76.1329 138.572 76.1263 138.572 76.1163 138.572C76.0997 138.572 76.0864 138.572 76.0764 138.565C75.9934 138.548 75.9303 138.482 75.9237 138.396C74.5192 121.641 66.308 111.703 66.2317 111.614C66.1719 111.537 66.1719 111.431 66.2317 111.361L75.0936 101.082L64.3457 86.2066C64.452 86.1468 64.5582 86.0771 64.6678 86.0173L75.4921 100.985C75.5452 101.055 75.5452 101.155 75.4854 101.221L66.6235 111.494C67.5465 112.653 74.3764 121.714 76.103 136.43C76.186 137.061 76.2557 137.708 76.3089 138.366Z" fill="black"/>
<path d="M79.3707 75.894L76.9004 90.9617L87.6516 84.1749L96.6464 94.7303L108.022 79.3505" stroke="black" stroke-width="1.1493" stroke-miterlimit="10" stroke-linecap="round" stroke-linejoin="round"/>
<path d="M87.5046 84.175C85.2999 101.424 84.2507 118.355 85.2568 135.717" stroke="black" stroke-width="1.1493" stroke-miterlimit="10" stroke-linecap="round" stroke-linejoin="round"/>
<path d="M7.65234 97.9111L56.3716 97.1341L70.5959 153.646L22.8528 147.603L7.65234 97.9111Z" fill="#4D7D88"/>
<path d="M82.3854 137.08C82.3854 137.08 62.8984 124.609 61.6334 125.193C60.3683 125.778 66.5043 134.643 66.5043 134.643C66.5043 134.643 42.9266 127.239 41.6582 128.7C40.3932 130.161 45.7489 133.378 45.7489 133.378C45.7489 133.378 39.0252 131.137 38.4408 133.574C37.8564 136.011 47.7942 139.713 47.7942 139.713C47.7942 139.713 39.4137 137.083 38.733 139.617C38.0523 142.15 54.2257 147.217 54.2257 147.217C54.2257 147.217 44.4838 143.611 43.7998 145.756C43.1192 147.901 81.572 161.637 81.572 161.637L82.3854 137.08Z" fill="#DCA29E"/>
<path d="M70.2687 135.911C70.2687 135.911 42.9224 127.401 41.6873 128.441C40.4521 129.48 43.0519 132.272 45.748 133.378L59.1954 138.202" stroke="black" stroke-width="1.1493" stroke-miterlimit="10" stroke-linecap="round" stroke-linejoin="round"/>
<path d="M44.483 132.89C44.483 132.89 39.6121 131.233 38.7355 133.182C37.8589 135.131 43.2345 137.638 47.5543 139.614C52.6709 141.951 56.8579 143.462 56.8579 143.462" stroke="black" stroke-width="1.1493" stroke-miterlimit="10" stroke-linecap="round" stroke-linejoin="round"/>
<path d="M49.45 140.636C49.45 140.636 39.9505 136.692 38.878 139.418C37.9384 141.812 54.6629 147.36 54.6629 147.36" stroke="black" stroke-width="1.1493" stroke-miterlimit="10" stroke-linecap="round" stroke-linejoin="round"/>
<path d="M120.419 103.174L110.418 135.783L82.484 136.108L81.5742 165.141" stroke="black" stroke-width="1.1493" stroke-miterlimit="10" stroke-linecap="round" stroke-linejoin="round"/>
<path d="M50.0348 45.9097C57.4413 38.5032 57.4413 26.4949 50.0348 19.0884C42.6283 11.6818 30.6199 11.6818 23.2134 19.0884C15.8069 26.4949 15.8069 38.5032 23.2134 45.9097C30.6199 53.3162 42.6283 53.3162 50.0348 45.9097Z" fill="#058AAA"/>
<path d="M159.138 72.4288C161.245 62.1662 154.635 52.1391 144.374 50.0327C134.113 47.9263 124.087 54.5382 121.981 64.8008C119.874 75.0634 126.484 85.0905 136.745 87.1969C147.006 89.3033 157.032 82.6914 159.138 72.4288Z" fill="#058AAA"/>
<path d="M43.9024 52.3227C47.5516 52.3227 50.5099 44.163 50.5099 34.0974C50.5099 24.0318 47.5516 15.8721 43.9024 15.8721C40.2532 15.8721 37.2949 24.0318 37.2949 34.0974C37.2949 44.163 40.2532 52.3227 43.9024 52.3227Z" stroke="black" stroke-width="1.5749" stroke-miterlimit="10"/>
<path d="M48.5732 38.7688C55.6906 31.6514 59.3685 23.7899 56.7882 21.2095C54.2078 18.6292 46.3463 22.3072 39.2289 29.4245C32.1116 36.5419 28.4336 44.4034 31.0139 46.9838C33.5943 49.5641 41.4558 45.8862 48.5732 38.7688Z" stroke="black" stroke-width="1.5749" stroke-miterlimit="10"/>
<path d="M40.2853 39.6288C31.8616 34.1203 26.6487 27.1808 28.6475 24.1261C30.643 21.0714 39.0933 23.057 47.5203 28.5654C55.944 34.0739 61.1569 41.0134 59.1581 44.0681C57.1592 47.1228 48.709 45.1339 40.2853 39.6288Z" stroke="black" stroke-width="1.5749" stroke-miterlimit="10"/>
<path d="M45.7833 35.9766C46.748 35.0119 46.748 33.4478 45.7833 32.4831C44.8186 31.5184 43.2545 31.5184 42.2897 32.4831C41.325 33.4478 41.325 35.0119 42.2897 35.9766C43.2545 36.9413 44.8186 36.9413 45.7833 35.9766Z" fill="black"/>
<path d="M58.7043 21.6129C58.7043 22.546 57.9473 23.303 57.0143 23.303C56.0813 23.303 55.3242 22.546 55.3242 21.6129C55.3242 20.6799 56.0813 19.9229 57.0143 19.9229C57.9473 19.9229 58.7043 20.6799 58.7043 21.6129Z" fill="black"/>
<path d="M32.6242 47.0697C32.6242 48.0027 31.8672 48.7598 30.9342 48.7598C30.0012 48.7598 29.2441 48.0027 29.2441 47.0697C29.2441 46.1367 30.0012 45.3797 30.9342 45.3797C31.8672 45.3797 32.6242 46.1367 32.6242 47.0697Z" fill="black"/>
<path d="M45.8457 61.3405V73.4232" stroke="black" stroke-width="2.2987" stroke-miterlimit="10"/>
<path d="M51.8854 67.3803H39.8027" stroke="black" stroke-width="2.2987" stroke-miterlimit="10"/>
<path d="M126.717 46.7239V58.8066" stroke="black" stroke-width="2.2987" stroke-miterlimit="10"/>
<path d="M132.757 52.7667H120.678" stroke="black" stroke-width="2.2987" stroke-miterlimit="10"/>
<path d="M64.3862 72.068C63.3868 70.8428 62.8854 69.2889 62.487 67.7549C62.487 67.7416 62.4836 67.725 62.4803 67.7117C62.4803 67.7184 62.477 67.7217 62.477 67.7283C62.477 67.7217 62.4737 67.7151 62.4737 67.7084C62.4737 67.7283 62.4737 67.7449 62.4737 67.7615C62.2213 69.3254 61.8694 70.9192 60.9895 72.234C60.0963 73.5655 58.4926 74.4919 56.9121 74.7376C60.0963 75.4846 62.7094 77.9085 63.1145 81.1525C63.1211 81.1558 63.1211 81.1525 63.1245 81.1458C63.2241 77.8753 65.5815 75.2223 68.6827 74.1764C67.0856 74.0801 65.4022 73.3098 64.3862 72.068Z" fill="#FFE9E1"/>
<path d="M134.734 82.7865C133.734 81.5613 133.233 80.0074 132.835 78.4734C132.831 78.4601 132.831 78.4435 132.828 78.4302C132.828 78.4369 132.825 78.4402 132.825 78.4468C132.825 78.4402 132.821 78.4335 132.821 78.4302C132.821 78.4501 132.821 78.4667 132.821 78.4833C132.569 80.0472 132.217 81.641 131.337 82.9558C130.444 84.2873 128.84 85.2137 127.26 85.4594C130.444 86.2065 133.057 88.6303 133.462 91.8743C133.469 91.8776 133.469 91.8743 133.472 91.8676C133.572 88.5971 135.929 85.9441 139.03 84.8982C137.433 84.7986 135.75 84.0283 134.734 82.7865Z" fill="#FFE9E1"/>
</svg>
