<svg width="23" height="58" viewBox="0 0 23 58" fill="none" xmlns="http://www.w3.org/2000/svg">
<path d="M10.3894 43.5164C10.3894 43.5164 13.1965 37.3938 9.98749 31.354C6.77848 25.3143 5.85064 23.8959 7.89543 22.6549C9.94021 21.4197 10.8799 27.4831 10.8799 27.4831C10.8799 27.4831 12.6055 23.3108 11.1813 18.9435C9.75701 14.5762 8.86463 7.46081 10.809 6.69845C12.7533 5.93609 11.1813 15.5749 12.8656 18.8608C12.8656 18.8608 14.2839 15.2026 14.5144 11.6922C14.7449 8.18181 14.3844 2.57934 15.9209 1.14326C17.4575 -0.292817 18.4385 0.700025 16.9315 8.44184C15.4245 16.1836 15.4363 22.4776 15.4363 22.4776C15.4363 22.4776 18.7694 12.3187 21.0033 12.0232C23.2372 11.7277 23.2372 15.0135 21.3224 17.8679C19.4077 20.7224 15.72 25.8343 15.1113 28.4642C15.1113 28.4642 18.7694 20.8228 22.0553 23.1631C25.347 25.5034 19.1949 30.1248 16.4528 31.7914C13.7107 33.4579 11.8077 43.9182 11.8077 43.9182L10.3894 43.5164Z" fill="#00B0DC"/>
<path opacity="0.2" d="M10.3894 43.5164C10.3894 43.5164 13.1965 37.3938 9.98749 31.354C6.77848 25.3143 5.85064 23.8959 7.89543 22.6549C9.94021 21.4197 10.8799 27.4831 10.8799 27.4831C10.8799 27.4831 12.6055 23.3108 11.1813 18.9435C9.75701 14.5762 8.86463 7.46081 10.809 6.69845C12.7533 5.93609 11.1813 15.5749 12.8656 18.8608C12.8656 18.8608 14.2839 15.2026 14.5144 11.6922C14.7449 8.18181 14.3844 2.57934 15.9209 1.14326C17.4575 -0.292817 18.4385 0.700025 16.9315 8.44184C15.4245 16.1836 15.4363 22.4776 15.4363 22.4776C15.4363 22.4776 18.7694 12.3187 21.0033 12.0232C23.2372 11.7277 23.2372 15.0135 21.3224 17.8679C19.4077 20.7224 15.72 25.8343 15.1113 28.4642C15.1113 28.4642 18.7694 20.8228 22.0553 23.1631C25.347 25.5034 19.1949 30.1248 16.4528 31.7914C13.7107 33.4579 11.8077 43.9182 11.8077 43.9182L10.3894 43.5164Z" fill="#042128"/>
<path d="M12.6052 46.028C12.6052 46.028 9.86895 39.8641 13.1489 33.8716C16.4288 27.8791 17.3744 26.4726 15.3473 25.2079C13.3203 23.9432 12.3097 29.9948 12.3097 29.9948C12.3097 29.9948 10.6372 25.793 12.1147 21.4434C13.5921 17.0938 14.5672 9.99611 12.6347 9.2042C10.7022 8.41229 12.156 18.0748 10.4304 21.3311C10.4304 21.3311 9.05931 17.6552 8.86429 14.1389C8.66927 10.6226 9.10659 5.0319 7.58778 3.57218C6.06897 2.11247 5.07612 3.09349 6.48856 10.8589C7.901 18.6244 7.81826 24.9183 7.81826 24.9183C7.81826 24.9183 4.60925 14.7121 2.37536 14.3812C0.141459 14.0502 0.106 17.342 1.98531 20.22C3.86462 23.104 7.49322 28.2691 8.06647 30.9049C8.06647 30.9049 4.50288 23.2104 1.18749 25.5034C-2.1279 27.7964 3.96509 32.5065 6.68949 34.2144C9.4139 35.9223 11.1868 46.4063 11.1868 46.4063L12.6052 46.028Z" fill="#00B0DC"/>
<path d="M0 41.6312H22.5813L20.7551 57.7885H1.82612L0 41.6312Z" fill="#042128"/>
</svg>
