<svg width="283" height="303" viewBox="0 0 283 303" fill="none" xmlns="http://www.w3.org/2000/svg">
<g opacity="0.15" clip-path="url(#clip0_133_17600)">
<path d="M209.888 167.269L208.626 166.931L208.786 165.636C209.345 161.229 209.789 157.366 210.17 153.969C211.934 138.39 212.665 131.945 219.165 125.972C225.868 119.82 233.661 116.915 241.212 114.101C249.182 111.119 257.422 108.055 264.361 101.08C271.037 94.3917 273.146 85.5934 269.864 78.1038C265.944 69.1676 255.486 64.1411 241.858 64.6735C233.733 64.9851 228.192 66.1601 224.136 67.0175C212.232 69.5359 211.796 68.1437 204.336 44.9608C203.564 42.5608 202.715 39.9226 201.77 37.0095L201.361 35.7489L202.569 35.1862C234.757 20.1847 268.796 22.011 293.606 40.0594C311.751 53.2582 321.174 72.5967 318.814 91.7952C316.126 113.612 298.598 132.122 269.472 143.884C250.509 151.557 249.036 159.841 248.051 165.317C247.569 167.987 247.122 170.527 244.816 171.993C240.933 174.468 232.439 173.312 209.888 167.269ZM255.085 63.0229C263.401 65.2509 269.639 70.0643 272.629 76.9003C276.412 85.5353 274.071 95.6089 266.501 103.193C259.099 110.619 250.543 113.817 242.266 116.903C234.66 119.749 227.472 122.427 221.202 128.181C215.513 133.392 214.874 139.084 213.16 154.303C212.817 157.384 212.424 160.825 211.943 164.709C231.589 169.927 240.393 171.259 243.222 169.466C244.364 168.746 244.657 167.362 245.112 164.793C246.21 158.664 247.871 149.388 268.367 141.099C296.448 129.757 313.308 112.111 315.85 91.421C318.068 73.3352 309.097 55.0357 291.834 42.4932C268.234 25.3288 235.865 23.4213 205.04 37.3414C205.823 39.7598 206.547 41.9914 207.198 44.0322C210.762 55.1125 212.722 61.206 214.784 63.6095C216.386 65.4695 218.168 65.2007 223.526 64.07C227.681 63.1923 233.372 61.9798 241.763 61.6617C246.587 61.4769 251.08 61.9497 255.085 63.0229Z" fill="#268EA8"/>
<path d="M207.59 232.15C196.039 229.055 185.562 218.409 189.859 202.373C194.144 186.381 208.532 182.429 220.084 185.524C232.07 188.736 242.074 199.986 237.98 215.267C233.874 230.592 219.591 235.366 207.59 232.15ZM219.324 188.416C209.166 185.694 196.528 189.151 192.779 203.14C189.015 217.188 198.228 226.515 208.386 229.237C218.617 231.979 231.332 228.526 235.096 214.479C238.83 200.486 229.541 191.153 219.324 188.416Z" fill="#268EA8"/>
<path d="M208.087 173.988L200.962 172.079L201.894 164.77C202.445 160.391 202.877 156.572 203.269 153.193C205.127 136.8 206.052 128.586 214.488 120.846C214.691 120.667 214.899 120.473 215.102 120.295L217.098 122.54L216.524 123.055C208.918 130.023 208.042 137.876 206.259 153.528C205.882 156.911 205.442 160.759 204.891 165.137L204.298 169.847L208.883 171.075C233.292 177.616 241.84 178.569 246.957 175.32C248.515 174.322 249.67 173.03 250.482 171.334L253.183 172.633C252.121 174.853 250.606 176.562 248.565 177.851C242.495 181.699 233.802 180.879 208.087 173.988Z" fill="#268EA8"/>
<path d="M266.281 91.2978L263.483 90.1903C263.685 89.6689 263.868 89.1581 264.008 88.6357C264.572 86.5315 264.581 84.4653 264.043 82.4701C262.616 77.1728 257.241 73.2595 249.609 72.0233L250.092 69.0577C258.949 70.4822 265.211 75.2085 266.942 81.6916C267.621 84.2067 267.611 86.8013 266.911 89.4134C266.743 90.0374 266.543 90.6681 266.281 91.2978Z" fill="#268EA8"/>
<path d="M214.011 74.4456C205.812 72.2486 203.602 65.4039 197.729 47.0945C196.957 44.6945 196.108 42.0563 195.159 39.1577L192.837 32.0341L199.624 28.8757C214.695 21.8552 230.004 18.2425 245.104 18.1358L245.122 21.1426C230.456 21.2567 215.579 24.7673 200.898 31.6122L196.527 33.645L198.02 38.2292C198.966 41.1423 199.815 43.7805 200.587 46.1805C206.263 63.8306 208.186 69.774 214.789 71.5432C216.443 71.9865 218.202 72.0379 220.482 71.7155L220.898 74.689C218.199 75.0699 216.072 74.9977 214.011 74.4456Z" fill="#268EA8"/>
<path d="M205.938 238.894L205.793 238.855C190.541 234.768 177.855 220.294 183.143 200.558C184.115 196.93 185.577 193.621 187.484 190.741L189.997 192.394C188.269 195.011 186.95 198.017 186.06 201.34C181.281 219.175 192.77 232.254 206.585 235.956L205.938 238.894ZM237.73 230.303L235.497 228.305C238.423 225.045 240.546 221.01 241.81 216.294C243.459 210.141 243.265 204.303 241.227 198.966L244.033 197.898C246.298 203.84 246.528 210.294 244.712 217.071C243.314 222.234 240.968 226.691 237.73 230.303Z" fill="#268EA8"/>
</g>
<g filter="url(#filter0_d_133_17600)">
<path d="M14.8578 101.14C14.8578 103.46 14.2178 105.34 12.9378 106.78C11.7578 108.12 10.1978 108.79 8.25781 108.79C6.99781 108.79 5.76781 108.47 4.56781 107.83V104.53C5.60781 105.11 6.62781 105.4 7.62781 105.4C8.72781 105.4 9.57781 105.04 10.1778 104.32C10.7978 103.62 11.1078 102.64 11.1078 101.38V91.69L14.8578 89.68V101.14ZM27.0484 102.13C26.4284 102.25 25.7884 102.31 25.1284 102.31C23.2884 102.31 21.8184 101.62 20.7184 100.24C19.8184 99.08 19.3684 97.68 19.3684 96.04C19.3684 93.84 19.9684 92.11 21.1684 90.85C22.2284 89.73 23.6284 89.17 25.3684 89.17C27.1484 89.17 28.5384 89.74 29.5384 90.88C30.3984 91.86 30.8284 93.14 30.8284 94.72V101.14C30.8284 103.5 30.2084 105.36 28.9684 106.72C27.8084 108 26.2284 108.64 24.2284 108.64C22.9684 108.64 21.7384 108.3 20.5384 107.62V104.35C21.6184 104.97 22.6984 105.28 23.7784 105.28C25.7184 105.28 26.8084 104.23 27.0484 102.13ZM27.0784 94.66C27.0784 93.34 26.5084 92.68 25.3684 92.68C24.6484 92.68 24.0784 92.97 23.6584 93.55C23.2584 94.13 23.0584 94.92 23.0584 95.92C23.0584 98.04 23.8184 99.1 25.3384 99.1C26.1384 99.1 26.7184 98.9 27.0784 98.5V94.66ZM45.4351 99.37H48.1351V103H45.0751C44.3951 103 43.7651 102.91 43.1851 102.73C42.9251 104.65 42.1551 106.17 40.8751 107.29C39.7151 108.29 38.3251 108.79 36.7051 108.79C35.4451 108.79 34.2151 108.47 33.0151 107.83V104.53C34.0551 105.11 35.0751 105.4 36.0751 105.4C37.1751 105.4 38.0251 105.04 38.6251 104.32C39.2451 103.62 39.5551 102.64 39.5551 101.38V91.66L42.0151 90.37L43.3051 89.68V89.71L43.3351 89.68V97.21C43.3351 97.99 43.4951 98.55 43.8151 98.89C44.1351 99.21 44.6751 99.37 45.4351 99.37ZM65.4261 99.37H68.0961V103H65.0361C63.5961 103 62.4161 102.63 61.4961 101.89C60.4161 103.03 58.9961 103.6 57.2361 103.6C55.4361 103.6 54.0161 103.03 52.9761 101.89C52.0161 102.63 50.8261 103 49.4061 103H46.3461V99.37H49.0461C49.8061 99.37 50.3461 99.21 50.6661 98.89C50.9861 98.55 51.1461 97.99 51.1461 97.21V96.34C51.1461 94 51.7561 92.18 52.9761 90.88C54.0361 89.74 55.4561 89.17 57.2361 89.17C59.2561 89.17 60.8161 89.91 61.9161 91.39C62.8361 92.65 63.2961 94.3 63.2961 96.34V97.21C63.2961 97.99 63.4561 98.55 63.7761 98.89C64.1161 99.21 64.6661 99.37 65.4261 99.37ZM57.2361 99.97C58.7561 99.97 59.5161 98.73 59.5161 96.25C59.5161 93.87 58.7561 92.68 57.2361 92.68C55.6961 92.68 54.9261 93.87 54.9261 96.25C54.9261 98.73 55.6961 99.97 57.2361 99.97ZM66.2973 103V99.37H68.1873C69.1073 99.37 69.7573 99.17 70.1373 98.77C70.5373 98.37 70.7373 97.69 70.7373 96.73V85.66L74.4873 83.65V96.76C74.4873 98.7 73.8973 100.25 72.7173 101.41C71.6373 102.47 70.1973 103 68.3973 103H66.2973ZM79.8875 103V85.66L83.6675 83.65V103H79.8875ZM98.3645 86.05C97.7645 86.05 97.2845 85.87 96.9245 85.51C96.5645 85.15 96.3845 84.66 96.3845 84.04C96.3845 82.74 97.0445 82.09 98.3645 82.09C98.9645 82.09 99.4345 82.27 99.7745 82.63C100.134 82.97 100.314 83.44 100.314 84.04C100.314 85.38 99.6645 86.05 98.3645 86.05ZM102.984 86.05C102.384 86.05 101.904 85.87 101.544 85.51C101.184 85.15 101.004 84.66 101.004 84.04C101.004 82.74 101.664 82.09 102.984 82.09C103.584 82.09 104.054 82.27 104.394 82.63C104.754 82.97 104.934 83.44 104.934 84.04C104.934 85.38 104.284 86.05 102.984 86.05ZM108.054 99.37H110.754V103H107.694C105.834 103 104.394 102.38 103.374 101.14C102.514 101.8 101.464 102.13 100.224 102.13C98.3845 102.13 96.9145 101.44 95.8145 100.06C94.9145 98.92 94.4645 97.55 94.4645 95.95C94.4645 93.97 95.1045 92.36 96.3845 91.12C97.4645 90.08 98.7145 89.56 100.134 89.56C100.874 89.56 101.554 89.7 102.174 89.98V89.2L105.924 87.22V97.21C105.924 97.99 106.084 98.55 106.404 98.89C106.744 99.21 107.294 99.37 108.054 99.37ZM102.174 93.76C101.654 93.32 101.064 93.1 100.404 93.1C99.7445 93.1 99.2045 93.37 98.7845 93.91C98.3845 94.45 98.1845 95.16 98.1845 96.04C98.1845 96.92 98.3845 97.62 98.7845 98.14C99.1845 98.66 99.7345 98.92 100.434 98.92C101.194 98.92 101.784 98.66 102.204 98.14C102.184 97.98 102.174 97.73 102.174 97.39V93.76ZM128.034 99.37H130.704V103H127.644C126.204 103 125.024 102.63 124.104 101.89C123.024 103.03 121.604 103.6 119.844 103.6C118.044 103.6 116.624 103.03 115.584 101.89C114.624 102.63 113.434 103 112.014 103H108.954V99.37H111.654C112.414 99.37 112.954 99.21 113.274 98.89C113.594 98.55 113.754 97.99 113.754 97.21V96.34C113.754 94 114.364 92.18 115.584 90.88C116.644 89.74 118.064 89.17 119.844 89.17C121.864 89.17 123.424 89.91 124.524 91.39C125.444 92.65 125.904 94.3 125.904 96.34V97.21C125.904 97.99 126.064 98.55 126.384 98.89C126.724 99.21 127.274 99.37 128.034 99.37ZM119.844 99.97C121.364 99.97 122.124 98.73 122.124 96.25C122.124 93.87 121.364 92.68 119.844 92.68C118.304 92.68 117.534 93.87 117.534 96.25C117.534 98.73 118.304 99.97 119.844 99.97ZM139.225 99.37H141.925V103H138.865C137.305 103 136.035 102.56 135.055 101.68C133.955 102.56 132.605 103 131.005 103H128.905V99.37H130.795C131.715 99.37 132.365 99.17 132.745 98.77C133.145 98.37 133.345 97.69 133.345 96.73V85.66L137.095 83.65V89.71L137.125 89.68V97.21C137.125 97.99 137.285 98.55 137.605 98.89C137.925 99.21 138.465 99.37 139.225 99.37ZM147.175 89.77C148.675 89.89 149.995 90.34 151.135 91.12C153.175 92.5 154.195 94.49 154.195 97.09V97.48C154.195 99.28 153.635 100.69 152.515 101.71C151.535 102.57 150.265 103 148.705 103H140.125V99.37H148.315C149.715 99.37 150.415 98.68 150.415 97.3V97.12C150.415 96.04 149.995 95.16 149.155 94.48C148.335 93.8 147.255 93.46 145.915 93.46C144.915 93.46 143.855 93.66 142.735 94.06V90.43L148.825 83.65H152.635L147.175 89.77ZM173.433 99.37H176.133V103H173.073C172.393 103 171.763 102.91 171.183 102.73C170.923 104.65 170.153 106.17 168.873 107.29C167.713 108.29 166.323 108.79 164.703 108.79C163.443 108.79 162.213 108.47 161.013 107.83V104.53C162.053 105.11 163.073 105.4 164.073 105.4C165.173 105.4 166.023 105.04 166.623 104.32C167.243 103.62 167.553 102.64 167.553 101.38V91.66L170.013 90.37L171.303 89.68V89.71L171.333 89.68V97.21C171.333 97.99 171.493 98.55 171.813 98.89C172.133 99.21 172.673 99.37 173.433 99.37ZM185.024 99.37H187.724V103H184.664C183.204 103 181.994 102.61 181.034 101.83C180.074 102.61 178.864 103 177.404 103H174.344V99.37H177.044C177.804 99.37 178.344 99.21 178.664 98.89C178.984 98.55 179.144 97.99 179.144 97.21V91.66L182.924 89.68V97.21C182.924 97.99 183.084 98.55 183.404 98.89C183.724 99.21 184.264 99.37 185.024 99.37ZM177.254 105.73C177.854 105.73 178.324 105.9 178.664 106.24C179.024 106.6 179.204 107.08 179.204 107.68C179.204 109.02 178.554 109.69 177.254 109.69C176.654 109.69 176.174 109.51 175.814 109.15C175.454 108.79 175.274 108.3 175.274 107.68C175.274 106.38 175.934 105.73 177.254 105.73ZM181.874 105.73C182.474 105.73 182.944 105.9 183.284 106.24C183.644 106.6 183.824 107.08 183.824 107.68C183.824 109.02 183.174 109.69 181.874 109.69C181.274 109.69 180.794 109.51 180.434 109.15C180.074 108.79 179.894 108.3 179.894 107.68C179.894 106.38 180.554 105.73 181.874 105.73ZM196.596 99.37H199.296V103H196.236C194.776 103 193.566 102.61 192.606 101.83C191.646 102.61 190.436 103 188.976 103H185.916V99.37H188.616C189.376 99.37 189.916 99.21 190.236 98.89C190.556 98.55 190.716 97.99 190.716 97.21V91.66L194.496 89.68V97.21C194.496 97.99 194.656 98.55 194.976 98.89C195.296 99.21 195.836 99.37 196.596 99.37ZM188.826 105.73C189.426 105.73 189.896 105.9 190.236 106.24C190.596 106.6 190.776 107.08 190.776 107.68C190.776 109.02 190.126 109.69 188.826 109.69C188.226 109.69 187.746 109.51 187.386 109.15C187.026 108.79 186.846 108.3 186.846 107.68C186.846 106.38 187.506 105.73 188.826 105.73ZM193.446 105.73C194.046 105.73 194.516 105.9 194.856 106.24C195.216 106.6 195.396 107.08 195.396 107.68C195.396 109.02 194.746 109.69 193.446 109.69C192.846 109.69 192.366 109.51 192.006 109.15C191.646 108.79 191.466 108.3 191.466 107.68C191.466 106.38 192.126 105.73 193.446 105.73ZM208.919 86.65C208.319 86.65 207.839 86.47 207.479 86.11C207.119 85.75 206.939 85.26 206.939 84.64C206.939 84.06 207.119 83.59 207.479 83.23C207.839 82.87 208.319 82.69 208.919 82.69C209.519 82.69 209.989 82.87 210.329 83.23C210.689 83.57 210.869 84.04 210.869 84.64C210.869 85.98 210.219 86.65 208.919 86.65ZM212.219 99.37H220.469L220.529 103H211.859C210.839 103 209.879 102.75 208.979 102.25C208.039 102.75 207.079 103 206.099 103H197.489V99.37H205.649C204.749 98.75 203.999 98.16 203.399 97.6C203.059 97.3 202.539 96.74 201.839 95.92C201.619 95.66 201.439 95.45 201.299 95.29V93.58C202.179 92.24 203.309 91.17 204.689 90.37C206.089 89.57 207.519 89.17 208.979 89.17C210.419 89.17 211.839 89.58 213.239 90.4C214.639 91.2 215.799 92.28 216.719 93.64V95.29C215.379 96.91 213.879 98.27 212.219 99.37ZM208.949 97.93C210.449 96.75 211.559 95.56 212.279 94.36C211.079 93.24 209.949 92.68 208.889 92.68C207.869 92.68 206.809 93.24 205.709 94.36C206.489 95.74 207.569 96.93 208.949 97.93ZM220.889 86.65C220.289 86.65 219.809 86.47 219.449 86.11C219.089 85.75 218.909 85.26 218.909 84.64C218.909 83.34 219.569 82.69 220.889 82.69C221.489 82.69 221.959 82.87 222.299 83.23C222.659 83.57 222.839 84.04 222.839 84.64C222.839 85.98 222.189 86.65 220.889 86.65ZM225.509 86.65C224.909 86.65 224.429 86.47 224.069 86.11C223.709 85.75 223.529 85.26 223.529 84.64C223.529 83.34 224.189 82.69 225.509 82.69C226.109 82.69 226.579 82.87 226.919 83.23C227.279 83.57 227.459 84.04 227.459 84.64C227.459 85.98 226.809 86.65 225.509 86.65ZM218.729 103V99.37H221.429C222.189 99.37 222.729 99.21 223.049 98.89C223.369 98.55 223.529 97.99 223.529 97.21V91.66L227.309 89.68V97.39C227.309 99.21 226.749 100.63 225.629 101.65C224.649 102.55 223.369 103 221.789 103H218.729Z" fill="#004556"/>
</g>
<defs>
<filter id="filter0_d_133_17600" x="0.568359" y="82.09" width="230.891" height="35.6" filterUnits="userSpaceOnUse" color-interpolation-filters="sRGB">
<feFlood flood-opacity="0" result="BackgroundImageFix"/>
<feColorMatrix in="SourceAlpha" type="matrix" values="0 0 0 0 0 0 0 0 0 0 0 0 0 0 0 0 0 0 127 0" result="hardAlpha"/>
<feOffset dy="4"/>
<feGaussianBlur stdDeviation="2"/>
<feComposite in2="hardAlpha" operator="out"/>
<feColorMatrix type="matrix" values="0 0 0 0 0 0 0 0 0 0 0 0 0 0 0 0 0 0 0.05 0"/>
<feBlend mode="normal" in2="BackgroundImageFix" result="effect1_dropShadow_133_17600"/>
<feBlend mode="normal" in="SourceGraphic" in2="effect1_dropShadow_133_17600" result="shape"/>
</filter>
<clipPath id="clip0_133_17600">
<rect width="144.618" height="223.372" fill="white" transform="translate(199.812 6) rotate(15)"/>
</clipPath>
</defs>
</svg>
