<svg width="144" height="198" viewBox="0 0 144 198" fill="none" xmlns="http://www.w3.org/2000/svg">
<path d="M76.7978 0H55.7987C52.2245 0 49.3301 2.89442 49.3301 6.46859V24.7414C49.3301 28.3156 52.2245 31.21 55.7987 31.21H61.931L56.7927 41.3697L66.28 31.21H76.7978C80.372 31.21 83.2664 28.3156 83.2664 24.7414V6.46859C83.2664 2.89442 80.372 0 76.7978 0Z" fill="#00647C"/>
<path d="M76.7978 0H55.7987C52.2245 0 49.3301 2.89442 49.3301 6.46859V24.7414C49.3301 28.3156 52.2245 31.21 55.7987 31.21H61.931L56.7927 41.3697L66.28 31.21H76.7978C80.372 31.21 83.2664 28.3156 83.2664 24.7414V6.46859C83.2664 2.89442 80.372 0 76.7978 0Z" fill="#66D0EA"/>
<path d="M73.6705 22.8929C77.7408 18.8226 77.7408 12.2233 73.6705 8.15296C69.6002 4.08263 63.0009 4.08263 58.9305 8.15296C54.8602 12.2233 54.8602 18.8226 58.9305 22.8929C63.0009 26.9633 69.6002 26.9633 73.6705 22.8929Z" fill="#007490"/>
<path d="M65.2049 20.1806C64.9271 20.1806 64.6567 20.0563 64.474 19.8444L60.3882 15.0276C60.0446 14.6256 60.0958 14.019 60.4978 13.6754C60.8998 13.3319 61.5065 13.3831 61.85 13.7851L65.2122 17.7393L70.7598 11.2049C71.1034 10.8029 71.71 10.7518 72.112 11.0953C72.514 11.4388 72.5652 12.0455 72.2217 12.4475L65.9431 19.8444C65.7531 20.0563 65.4826 20.1806 65.2049 20.1806Z" fill="white"/>
<path d="M94.1347 196.514H136.674C137.134 196.514 137.507 196.141 137.507 195.68V192.961C137.507 192.501 137.134 192.128 136.674 192.128H96.3274V105.281H135.987C136.827 105.281 137.514 104.601 137.514 103.753V100.895H94.142C92.9287 100.895 91.9493 101.875 91.9493 103.088V194.321C91.942 195.527 92.9214 196.514 94.1347 196.514Z" fill="#263238"/>
<g opacity="0.3">
<path d="M91.9434 103.088V194.314C91.9434 195.527 92.9228 196.506 94.1361 196.506H136.675C137.136 196.506 137.509 196.134 137.509 195.673V192.961C137.509 192.501 137.136 192.121 136.675 192.121H96.3288V105.281H135.988C136.829 105.281 137.509 104.594 137.509 103.753V100.895H94.1361C92.9228 100.895 91.9434 101.875 91.9434 103.088Z" fill="white"/>
</g>
<path opacity="0.2" d="M91.9434 103.088V126.353C93.4052 126.726 94.867 127.084 96.3288 127.428V105.281H135.988C136.829 105.281 137.509 104.594 137.509 103.753V100.895H94.1361C92.9228 100.895 91.9434 101.875 91.9434 103.088Z" fill="black"/>
<path d="M15.0139 184.271L32.4608 182.75V159.844H38.5932V182.743L56.0986 184.271C57.6408 184.424 58.8176 185.718 58.8176 187.267V189.592H36.1227H34.9825H12.2949V187.267C12.2949 185.718 13.4717 184.424 15.0139 184.271Z" fill="#263238"/>
<path opacity="0.1" d="M15.0139 184.271L32.4608 182.75V159.844H38.5932V182.743L56.0986 184.271C57.6408 184.424 58.8176 185.718 58.8176 187.267V189.592H36.1227H34.9825H12.2949V187.267C12.2949 185.718 13.4717 184.424 15.0139 184.271Z" fill="white"/>
<path d="M53.168 192.472C53.168 194.686 54.966 196.484 57.1807 196.484C59.3954 196.484 61.1934 194.686 61.1934 192.472C61.1934 190.257 59.3954 188.459 57.1807 188.459C54.966 188.466 53.168 190.264 53.168 192.472Z" fill="#263238"/>
<path d="M17.9454 192.472C17.9454 194.686 16.1473 196.484 13.9326 196.484C11.718 196.484 9.91992 194.686 9.91992 192.472C9.91992 190.257 11.718 188.459 13.9326 188.459C16.1473 188.466 17.9454 190.264 17.9454 192.472Z" fill="#263238"/>
<path d="M34.1121 164.514H36.9261C38.4245 164.514 39.6378 163.301 39.6378 161.802V142.09H31.4004V161.802C31.4004 163.301 32.6137 164.514 34.1121 164.514Z" fill="#263238"/>
<path opacity="0.2" d="M34.1121 164.514H36.9261C38.4245 164.514 39.6378 163.301 39.6378 161.802V142.09H31.4004V161.802C31.4004 163.301 32.6137 164.514 34.1121 164.514Z" fill="white"/>
<path d="M17.4332 96.773C17.4332 96.773 19.319 134.656 27.4833 141.176H18.7562C18.7562 141.176 10.972 128.268 10.3945 96.773H17.4332Z" fill="#263238"/>
<path opacity="0.1" d="M17.4332 96.773C17.4332 96.773 19.319 134.656 27.4833 141.176H18.7562C18.7562 141.176 10.972 128.268 10.3945 96.773H17.4332Z" fill="white"/>
<path d="M55.4032 138.033H16.7232C14.9105 138.033 13.4414 139.502 13.4414 141.315V144.312H58.6923V141.315C58.6923 139.502 57.2159 138.033 55.4032 138.033Z" fill="#263238"/>
<path d="M59.0873 141.176H13.0398C12.3088 141.176 11.7168 141.768 11.7168 142.499V142.996C11.7168 143.727 12.3088 144.319 13.0398 144.319H59.0947C59.8256 144.319 60.4176 143.727 60.4176 142.996V142.499C60.4103 141.768 59.8183 141.176 59.0873 141.176Z" fill="#263238"/>
<path opacity="0.6" d="M59.0873 141.176H13.0398C12.3088 141.176 11.7168 141.768 11.7168 142.499V142.996C11.7168 143.727 12.3088 144.319 13.0398 144.319H59.0947C59.8256 144.319 60.4176 143.727 60.4176 142.996V142.499C60.4103 141.768 59.8183 141.176 59.0873 141.176Z" fill="white"/>
<path d="M8.86656 105.069H22.8416C26.9348 105.069 29.895 101.392 29.4491 96.8534L28.8498 90.7941C28.4039 86.2552 24.7201 82.5787 20.627 82.5787H6.6519C2.55878 82.5787 -0.401426 86.2552 0.0444317 90.7941L0.643781 96.8534C1.08964 101.385 4.77345 105.069 8.86656 105.069Z" fill="#263238"/>
<path d="M55.0025 72.3824L55.6749 74.4436C55.9088 75.1453 56.1573 75.847 56.4132 76.5487C56.9175 77.9447 57.4584 79.3188 58.0212 80.6418C58.5913 81.9647 59.2126 83.2438 59.8704 84.3914C60.5282 85.5243 61.2737 86.5622 61.8658 87.0957C62.2386 87.5051 63.3495 88.0094 64.614 88.3456C65.8931 88.6672 67.3184 88.9377 68.7802 89.1058C71.7039 89.4712 74.8249 89.6174 77.8582 89.7417L78.3991 93.8275C75.1684 94.6973 71.967 95.2016 68.5829 95.3843C66.8945 95.4501 65.1622 95.4574 63.3349 95.2162C62.414 95.0919 61.4711 94.9165 60.4697 94.6168C59.9727 94.4707 59.4538 94.2733 58.9202 94.0248C58.4086 93.7982 57.78 93.4328 57.3268 93.0966C55.4045 91.7078 54.2277 90.1802 53.1752 88.6672C52.13 87.1542 51.2895 85.6266 50.5366 84.0844C49.7765 82.5495 49.126 80.9926 48.5412 79.4285C48.2562 78.6464 47.9784 77.857 47.7153 77.0603C47.4449 76.2563 47.2183 75.4961 46.9844 74.5971L55.0025 72.3824Z" fill="#FFC3BD"/>
<path d="M51.4146 68.5305C53.717 69.3199 55.8147 72.6309 61.5962 85.9117C61.5962 85.9117 62.5391 87.5416 67.2316 88.5503L66.8003 96.0129C66.8003 96.0129 60.0905 95.7205 58.5337 94.6388C56.9842 93.557 47.6504 78.2078 47.6504 78.2078L51.4146 68.5305Z" fill="#263238"/>
<path d="M67.2389 88.5503L66.8076 96.0056C66.8076 96.0056 61.4281 95.7717 59.1842 94.9457C58.9211 94.8507 58.7018 94.7484 58.541 94.6388C57.642 94.0102 54.1336 88.6087 51.3415 84.1648C49.3023 80.9341 47.6504 78.2078 47.6504 78.2078L51.4146 68.5305C53.717 69.3199 55.8147 72.6309 61.6035 85.9043C61.6035 85.9043 62.5391 87.5343 67.2389 88.5503Z" fill="#C9D9EB"/>
<path opacity="0.2" d="M59.1826 94.9458C58.9194 94.8508 58.7001 94.7484 58.5393 94.6388C57.6403 94.0102 54.1319 88.6088 51.3398 84.1648C52.5385 79.9986 53.9127 76.7387 53.9127 76.7387C53.9127 76.7387 59.2849 87.4612 59.1826 94.9458Z" fill="black"/>
<path d="M76.2571 90.1144L81.4978 88.2213L80.8546 95.2381C80.8546 95.2381 76.0452 95.8521 75.4531 93.3231L76.2571 90.1144Z" fill="#FFC3BD"/>
<path d="M85.8389 89.6466L85.0422 95.4208L80.8613 95.2454L81.4972 88.2286L85.8389 89.6466Z" fill="#FFC3BD"/>
<path d="M67.2749 88.2286L69.95 89.0253L68.9779 96.2833L66.3027 96.7438L67.2749 88.2286Z" fill="#004556"/>
<path d="M55.2148 114.629C55.2148 114.629 90.5837 128.582 98.8065 134.415C107.029 140.248 127.773 179.571 127.773 179.571L119.199 186.178C119.199 186.178 94.4649 150.261 91.4462 147.827C88.4275 145.393 49.0312 133.311 49.0312 133.311L55.2148 114.629Z" fill="#263238"/>
<path d="M127.773 179.571L119.199 186.178C119.199 186.178 113.425 177.795 107.117 168.856C100.371 159.288 93.0103 149.085 91.4462 147.827C89.2388 146.044 67.5818 139.1 56.0992 135.504C51.8745 134.174 49.0312 133.304 49.0312 133.304L55.2148 114.629C55.2148 114.629 90.5764 128.582 98.8065 134.415C107.029 140.248 127.773 179.571 127.773 179.571Z" fill="#007490"/>
<path d="M129.336 193.641L133.459 189.489L126.705 179.045L122.59 183.196L129.336 193.641Z" fill="#FFC3BD"/>
<path opacity="0.2" d="M122.59 183.196L126.712 179.052L130.571 185.016L126.303 188.956L122.59 183.196Z" fill="black"/>
<path d="M134.182 189.036C134.197 189.044 134.212 189.058 134.226 189.051C134.241 189.044 134.256 189.029 134.263 189.014C134.753 188.839 135.22 188.605 135.659 188.327C136.01 188.145 136.273 187.845 136.412 187.48C136.463 187.202 136.353 186.917 136.127 186.756C136.002 186.632 135.827 186.573 135.652 186.61C135.25 186.705 134.855 187.275 134.555 187.823C134.57 187.246 134.475 186.654 134.219 186.398C134.044 186.23 133.788 186.193 133.583 186.325C133.393 186.42 133.269 186.581 133.225 186.785C133.057 187.575 134.124 188.846 134.175 188.919C134.182 188.927 134.117 189 134.124 189.007C134.139 189.029 134.161 189.036 134.182 189.036ZM134.219 188.496C134.197 188.539 134.182 188.583 134.168 188.62C133.846 188.167 133.371 187.37 133.473 186.902C133.488 186.792 133.554 186.697 133.649 186.639L133.707 186.602C133.883 186.515 133.978 186.566 134.029 186.624C134.292 186.917 134.351 187.852 134.219 188.496ZM134.46 188.671C134.782 187.933 135.323 186.983 135.717 186.895C135.805 186.873 135.893 186.902 135.951 186.968C136.09 187.078 136.163 187.253 136.141 187.428C136.061 187.808 135.447 188.262 134.46 188.671Z" fill="#263238"/>
<path d="M133.378 188.664L127.925 192.318C127.728 192.435 127.67 192.691 127.786 192.888V192.896L130.418 197.391C130.732 197.858 131.368 197.99 131.843 197.683C133.721 196.375 134.555 195.658 136.945 194.028C138.414 193.034 141.411 191.214 143.209 189.548C145.007 187.874 143.304 186.149 142.397 186.697C140.241 187.991 136.492 188.547 134.401 188.386C134.043 188.357 133.678 188.459 133.378 188.664Z" fill="#263238"/>
<path d="M119.585 189.051L130.293 181.925L127.83 176.889L116.23 184.936L119.585 189.051Z" fill="#263238"/>
<path opacity="0.2" d="M119.585 189.051L130.293 181.925L127.83 176.889L116.23 184.936L119.585 189.051Z" fill="white"/>
<path opacity="0.2" d="M107.117 168.856C100.371 159.288 93.0105 149.085 91.4463 147.827C89.2389 146.044 67.582 139.1 56.0993 135.504L54.7617 121.58L58.9572 120.835L59.4323 121.902C59.4323 121.902 85.6428 127.844 93.047 131.557C97.8272 133.955 104.237 157.402 107.117 168.856Z" fill="black"/>
<path d="M105.553 190.425C105.568 190.432 105.575 190.454 105.59 190.454C105.604 190.454 105.619 190.447 105.633 190.432C106.152 190.425 106.671 190.367 107.176 190.25C107.563 190.198 107.921 190.001 108.17 189.694C108.309 189.453 108.301 189.146 108.14 188.912C108.067 188.751 107.914 188.634 107.738 188.612C107.329 188.568 106.766 188.978 106.299 189.394C106.503 188.854 106.613 188.269 106.452 187.94C106.342 187.728 106.116 187.604 105.882 187.655C105.67 187.684 105.502 187.794 105.385 187.969C104.968 188.664 105.546 190.213 105.575 190.301L105.663 190.25L105.575 190.308C105.575 190.315 105.495 190.367 105.502 190.374C105.516 190.396 105.531 190.41 105.553 190.425ZM105.765 189.921C105.728 189.957 105.699 189.986 105.67 190.023C105.516 189.489 105.334 188.576 105.582 188.166C105.633 188.071 105.728 187.998 105.831 187.976L105.897 187.962C106.094 187.933 106.167 188.013 106.196 188.086C106.357 188.459 106.108 189.358 105.765 189.921ZM105.933 190.169C106.481 189.584 107.3 188.861 107.709 188.912C107.797 188.919 107.87 188.978 107.907 189.058C108.002 189.204 108.009 189.394 107.936 189.555C107.738 189.884 107 190.111 105.933 190.169Z" fill="#263238"/>
<path d="M99.4491 193.159L104.719 190.608L101.583 178.043L96.3281 180.602L99.4491 193.159Z" fill="#FFC3BD"/>
<path opacity="0.2" d="M96.3281 180.602L101.591 178.051L103.381 185.236L98.0458 187.523L96.3281 180.602Z" fill="black"/>
<path d="M104.917 189.804L98.5582 191.448C98.3316 191.492 98.1927 191.719 98.2366 191.938V191.945L99.2306 197.062C99.3695 197.61 99.925 197.939 100.48 197.807C102.688 197.201 103.711 196.799 106.503 196.053C108.221 195.607 111.649 194.884 113.9 193.897C116.151 192.917 115.121 190.717 114.083 190.937C111.62 191.441 107.899 190.717 105.977 189.877C105.641 189.738 105.268 189.709 104.917 189.804Z" fill="#263238"/>
<path d="M104.149 180.433C104.149 180.433 95.2388 135.694 93.4188 133.026C90.444 128.67 54.7607 121.58 54.7607 121.58L58.9489 120.827L54.1029 107.985L22.3301 109.235C22.3301 109.235 22.9952 130.227 26.2259 135.855C29.4565 141.483 77.2583 144.07 80.3573 145.342C83.4564 146.614 92.951 181.72 92.951 181.72L104.149 180.433Z" fill="#263238"/>
<path d="M104.149 180.433C104.149 180.433 95.2388 135.694 93.4188 133.026C90.444 128.67 54.7607 121.58 54.7607 121.58L58.9489 120.827L54.1029 107.985L22.3301 109.235C22.3301 109.235 22.9952 130.227 26.2259 135.855C29.4565 141.483 77.2583 144.07 80.3573 145.342C83.4564 146.614 92.951 181.72 92.951 181.72L104.149 180.433Z" fill="#007490"/>
<path d="M93.1413 185.696L105.603 182.517L104.946 176.954L91.3359 180.704L93.1413 185.696Z" fill="#263238"/>
<path opacity="0.2" d="M93.1413 185.696L105.603 182.517L104.946 176.954L91.3359 180.704L93.1413 185.696Z" fill="white"/>
<path d="M32.3873 109.725L23.1778 109.564L22.9805 112.356L32.7893 112.59L32.3873 109.725Z" fill="#004556"/>
<path d="M33.8047 109.674L34.214 112.568L54.76 112.276L54.0949 109.637L33.8047 109.674Z" fill="#004556"/>
<path d="M43.6938 110.2L43.9642 112.108C44.03 112.575 44.4685 112.941 44.9509 112.926L48.2401 112.824C48.7152 112.809 49.0514 112.422 48.9856 111.954L48.7152 110.039C48.6494 109.571 48.2108 109.206 47.7284 109.221L44.4393 109.323C43.9642 109.345 43.628 109.732 43.6938 110.2Z" fill="white"/>
<path d="M23.1338 109.162H53.3205C54.0734 109.162 54.7093 108.599 54.8043 107.861C58.5319 78.6537 51.4128 68.5306 51.4128 68.5306C48.7011 67.7558 45.9383 67.193 43.1389 66.8495C39.0531 66.5279 34.9526 66.4329 30.8522 66.5863C28.0528 66.6594 25.2607 66.9372 22.5052 67.4123C21.0068 68.0409 19.523 74.5606 21.0068 94.8508C21.3942 100.165 21.46 104.755 21.4161 107.444C21.4161 108.387 22.1836 109.162 23.1338 109.162Z" fill="#BCD0E6"/>
<path d="M47.1875 78.8729H52.9983L53.4441 85.8166L50.3231 87.8339L47.1875 86.2844V78.8729Z" fill="#BCD0E6"/>
<path opacity="0.2" d="M54.8048 107.861C54.7098 108.607 54.0739 109.162 53.3211 109.162H23.1343C22.1841 109.162 21.4094 108.387 21.424 107.437C21.4605 104.747 21.4021 100.157 21.0147 94.8434C20.8027 91.9271 20.6492 89.2885 20.5542 86.9203C20.3057 81.1826 20.3788 76.9799 20.6273 73.9685C20.9928 69.5684 21.7456 67.7338 22.5057 67.4049C25.2686 66.9298 28.0607 66.6521 30.8601 66.579C34.9532 66.4328 39.0536 66.5205 43.1394 66.8421C45.9388 67.1929 48.7017 67.7557 51.4134 68.5305C51.4134 68.5305 58.5325 78.6537 54.8048 107.861Z" fill="white"/>
<path d="M31.1309 66.2793L40.8813 69.605L41.2759 66.8129C40.3258 65.1464 40.0846 64.0939 40.8886 62.157L34.3834 54.6724C34.5588 58.5097 33.8645 63.7431 31.1309 66.2793Z" fill="#FFC3BD"/>
<path d="M37.2988 71.0522L39.2138 71.8416L40.8876 72.8941C40.8876 72.8941 43.1096 85.6559 42.4883 96.4222L44.3595 97.9572L46.3329 96.3711C46.3329 96.3711 43.8771 76.5925 42.9926 72.7333L43.3727 71.8124L44.2717 69.8974L42.6053 69.0276L39.974 69.605H38.1321L37.2988 71.0522Z" fill="white"/>
<path opacity="0.2" d="M37.0372 57.7276L40.8891 62.1569C40.5967 62.8367 40.3628 63.5384 40.1947 64.2547C38.5648 63.765 36.5547 61.5941 36.6351 59.8253C36.6351 59.109 36.774 58.3927 37.0372 57.7276Z" fill="black"/>
<path d="M31.737 64.5105C31.737 64.5105 35.5232 67.1491 40.5226 69.0787C40.5226 69.0787 41.1146 66.864 40.5226 64.9344L44.8277 67.0833C44.8277 67.0833 45.1858 70.4236 44.1918 72.1632L41.0342 69.8535L37.482 72.7479C37.482 72.7479 30.7576 70.1532 29.7051 66.6301L31.737 64.5105Z" fill="#004556"/>
<path opacity="0.2" d="M53.6719 90.4726L43.6876 98.5053C29.3763 101.692 23.0832 92.7677 20.5542 86.9203C20.3057 81.1827 20.3788 76.9799 20.6273 73.9685C24.0626 73.8077 28.3384 73.8078 29.4933 74.6922C31.5033 76.2344 38.5055 87.0446 39.5507 87.834C40.6032 88.6307 53.6719 90.4726 53.6719 90.4726Z" fill="black"/>
<path d="M59.3431 90.0559L64.5837 88.1628L63.9405 95.1796C63.9405 95.1796 59.1311 95.7936 58.5391 93.2646L59.3431 90.0559Z" fill="#FFC3BD"/>
<path d="M68.9262 89.5881L68.1295 95.3697L63.9414 95.1869L64.5846 88.1702L68.9262 89.5881Z" fill="#FFC3BD"/>
<path d="M28.858 75.9054L30.0421 78.1566C30.4514 78.9241 30.8753 79.6769 31.3139 80.4298C32.1617 81.9354 33.0534 83.4046 33.9744 84.8006C34.9026 86.182 35.8675 87.5123 36.8615 88.5502C37.3439 89.0765 37.8336 89.515 38.2283 89.8001C38.3526 89.8951 38.3745 89.8951 38.411 89.9243C38.4403 89.9609 38.5791 89.9974 38.6595 90.0413C38.7692 90.0851 38.9154 90.1217 39.0396 90.1655L39.5074 90.2825C40.8596 90.5821 42.5699 90.6772 44.273 90.7064C45.9906 90.7356 47.7594 90.6772 49.5355 90.5968C53.0878 90.414 56.7277 90.1363 60.3092 89.8147L61.179 93.8493C57.5829 95.0115 53.9868 95.9471 50.2592 96.6487C48.4026 97.0142 46.5096 97.2773 44.5653 97.482C42.6065 97.6501 40.633 97.767 38.3526 97.5185C38.0529 97.4747 37.7751 97.4381 37.4682 97.3797C37.1539 97.3066 36.8542 97.2554 36.518 97.1604C36.1671 97.0507 35.8601 96.9776 35.4728 96.8095C35.0927 96.6487 34.698 96.4733 34.4349 96.3198C33.2435 95.6693 32.3152 94.9457 31.4674 94.2075C29.8155 92.7018 28.4852 91.1523 27.2938 89.5443C26.0951 87.9436 25.0353 86.3063 24.0413 84.6471C23.5589 83.8066 23.0911 82.966 22.6379 82.1182C22.1774 81.2557 21.7608 80.4371 21.3223 79.4723L28.858 75.9054Z" fill="#FFC3BD"/>
<path d="M22.5132 67.4049C13.0845 70.8037 25.3126 94.2952 30.451 96.9265C35.5893 99.5578 44.2872 98.4395 44.2872 98.4395L44.9011 90.2752C44.9011 90.2752 40.3987 89.727 39.0538 89.4054C36.9196 88.8938 32.5852 79.4358 29.6762 74.2901C26.7672 69.1445 22.5132 67.4049 22.5132 67.4049Z" fill="#263238"/>
<path d="M22.5132 67.4049C13.0845 70.8037 25.3126 94.2952 30.451 96.9265C35.5893 99.5578 44.2872 98.4395 44.2872 98.4395L44.9011 90.2752C44.9011 90.2752 40.3987 89.727 39.0538 89.4054C36.9196 88.8938 32.5852 79.4358 29.6762 74.2901C26.7672 69.1445 22.5132 67.4049 22.5132 67.4049Z" fill="#C9D9EB"/>
<path d="M43.6874 89.7051L42.9199 99.185L45.6243 98.6807L46.3406 90.2094L43.6874 89.7051Z" fill="#004556"/>
<path d="M51.1435 46.9759C51.5162 49.1613 50.5733 53.4226 47.8324 51.6245C45.0915 49.8265 50.5003 43.219 51.1435 46.9759Z" fill="#263238"/>
<path d="M35.6475 47.7579C34.595 53.1082 33.7033 56.1853 35.6694 59.5549C38.6223 64.6274 45.778 63.8599 48.4166 58.919C50.7921 54.475 52.115 46.4788 47.4883 43.08C42.9274 39.7398 36.7 42.4149 35.6475 47.7579Z" fill="#FFC3BD"/>
<path d="M33.09 41.8595L39.1493 41.5817L39.3101 45.0609C39.1931 44.9951 39.0689 44.9293 38.9592 44.8635C38.9592 44.8635 38.5719 49.9434 35.6774 51.6756C31.7451 48.6789 30.5976 43.7818 33.09 41.8595Z" fill="#263238"/>
<path d="M32.4695 51.6171C32.5353 53.079 33.2735 54.3727 34.1872 55.1694C35.554 56.3608 37.0304 55.3229 37.3155 53.6271C37.5713 52.0995 37.1693 49.6363 35.4809 49.1028C33.8071 48.5692 32.3964 49.936 32.4695 51.6171Z" fill="#FFC3BD"/>
<path d="M43.2787 51.2444C43.1691 51.6757 43.3006 52.0777 43.5857 52.1507C43.8708 52.2238 44.185 51.9315 44.302 51.5002C44.4116 51.069 44.2801 50.667 43.995 50.5939C43.7099 50.5281 43.3957 50.8205 43.2787 51.2444Z" fill="#263238"/>
<path d="M48.1459 52.465C48.0363 52.8962 48.1678 53.2982 48.4529 53.3713C48.7379 53.4444 49.0522 53.1521 49.1692 52.7208C49.2788 52.2896 49.1472 51.8876 48.8622 51.8145C48.5771 51.7487 48.2555 52.0411 48.1459 52.465Z" fill="#263238"/>
<path d="M46.5463 52.2896C46.5463 52.2896 46.9264 54.9209 47.7085 56.3535C46.7802 56.8359 45.5742 56.1854 45.5742 56.1854L46.5463 52.2896Z" fill="#EA968D"/>
<path d="M42.8327 57.2452C43.0008 57.311 43.1835 57.3768 43.3809 57.4206C43.4539 57.4352 43.5197 57.3987 43.5417 57.3256C43.5636 57.2525 43.5197 57.1867 43.4466 57.1648C41.5536 56.6897 41.02 55.1548 41.0127 55.1402C40.9908 55.0744 40.9177 55.0379 40.8446 55.0598C40.7788 55.0817 40.7423 55.1548 40.7642 55.2279C40.7934 55.2937 41.2539 56.6166 42.8327 57.2452Z" fill="#263238"/>
<path d="M42.19 49.3075C42.2777 49.344 42.3727 49.3294 42.4531 49.2709C43.3667 48.5473 44.2804 48.8324 44.295 48.8397C44.4339 48.8835 44.5801 48.8104 44.6239 48.6716C44.6678 48.5327 44.5947 48.3865 44.4631 48.3427C44.4119 48.328 43.2644 47.9626 42.1315 48.8616C42.0145 48.9493 41.9999 49.1174 42.0876 49.2271C42.1169 49.2636 42.1534 49.2855 42.19 49.3075Z" fill="#263238"/>
<path d="M50.6751 51.3248C50.7189 51.3467 50.7701 51.3467 50.8286 51.3394C50.9674 51.3102 51.0625 51.1713 51.0332 51.0324C50.7482 49.6218 49.6372 49.1832 49.586 49.1613C49.4544 49.1101 49.301 49.1759 49.2498 49.3075C49.1986 49.439 49.2644 49.5925 49.396 49.6437C49.4398 49.6583 50.295 50.0091 50.5216 51.1421C50.5362 51.2298 50.602 51.2956 50.6751 51.3248Z" fill="#263238"/>
<path d="M37.088 46.1646C37.088 46.1646 37.2196 46.2888 37.4535 46.4204C37.9212 46.6908 38.791 47.0124 39.7924 46.5154C41.2981 45.7772 41.7732 41.494 46.0636 43.6721C46.0636 43.6721 47.5328 43.2263 48.6364 44.5785C49.7401 45.9307 48.98 50.8643 51.3335 50.1846C53.6871 49.5048 53.2778 48.7739 53.2778 48.7739C53.2778 48.7739 52.6199 49.1905 52.2252 48.8616C52.2252 48.8616 53.4605 47.8384 52.8684 46.3985C52.8684 46.3985 52.2983 47.0709 51.9109 46.9393C51.9109 46.9393 52.6272 44.4177 51.2604 41.0116C49.9009 37.6056 41.532 38.3657 41.532 38.3657C41.532 38.3657 40.4794 36.6042 36.7006 37.8321C32.9218 39.0601 31.1968 43.6137 31.7962 45.5944" fill="#263238"/>
<path d="M86.9723 94.6314L86.4388 92.5995H64.2701L54.0593 93.6155L53.6719 94.6314H86.9723Z" fill="#263238"/>
<path opacity="0.5" d="M86.9723 94.6314L86.4388 92.5995H64.2701L54.0593 93.6155L53.6719 94.6314H86.9723Z" fill="white"/>
<path opacity="0.2" d="M64.2695 92.5995V94.6314H86.9717L86.4382 92.5995H64.2695Z" fill="black"/>
<path d="M71.7695 82.8346C71.6745 83.909 72.4566 84.7861 73.531 84.7861H107.489C108.564 84.7861 109.514 83.909 109.616 82.8346L111.634 61.0972C111.656 60.8706 111.641 60.6586 111.59 60.4613C111.4 59.6938 110.727 59.1456 109.872 59.1456H75.9138C74.8394 59.1456 73.8892 60.0227 73.7869 61.0972L71.7695 82.8346Z" fill="#263238"/>
<path opacity="0.5" d="M71.7695 82.8346C71.6745 83.909 72.4566 84.7861 73.531 84.7861H107.489C108.564 84.7861 109.514 83.909 109.616 82.8346L111.634 61.0972C111.656 60.8706 111.641 60.6586 111.59 60.4613C111.4 59.6938 110.727 59.1456 109.872 59.1456H75.9138C74.8394 59.1456 73.8892 60.0227 73.7869 61.0972L71.7695 82.8346Z" fill="white"/>
<path opacity="0.1" d="M73.6475 84.7861H107.481C108.556 84.7861 109.506 83.909 109.608 82.8346L111.626 61.0972C111.648 60.8706 111.633 60.6587 111.582 60.4613H77.7479C76.6735 60.4613 75.7233 61.3384 75.6209 62.4128L73.6036 84.1502C73.5817 84.3768 73.5963 84.5888 73.6475 84.7861Z" fill="black"/>
<path d="M96.9777 71.4542H89.9536L91.8247 91.5689L80.7148 93.2354V94.6314H104.111V93.2354L99.3166 91.5689L96.9777 71.4542Z" fill="#263238"/>
<path opacity="0.5" d="M96.9777 71.4542H89.9536L91.8247 91.5689L80.7148 93.2354V94.6314H104.111V93.2354L99.3166 91.5689L96.9777 71.4542Z" fill="white"/>
<path opacity="0.2" d="M89.9551 71.4542L95.1592 94.3171L99.3181 94.1929L96.9792 71.4542H89.9551Z" fill="white"/>
<path d="M31.972 196.513H74.5112C74.9717 196.513 75.3445 196.141 75.3445 195.68V192.961C75.3445 192.501 74.9717 192.128 74.5112 192.128H34.1648V105.281H73.8242C74.6647 105.281 75.3518 104.601 75.3518 103.753V100.895H31.972C30.7587 100.895 29.7793 101.875 29.7793 103.088V194.321C29.7793 195.527 30.7587 196.513 31.972 196.513Z" fill="#263238"/>
<g opacity="0.4">
<path d="M31.972 196.513H74.5112C74.9717 196.513 75.3445 196.141 75.3445 195.68V192.961C75.3445 192.501 74.9717 192.128 74.5112 192.128H34.1648V105.281H73.8242C74.6647 105.281 75.3518 104.601 75.3518 103.753V100.895H31.972C30.7587 100.895 29.7793 101.875 29.7793 103.088V194.321C29.7793 195.527 30.7587 196.513 31.972 196.513Z" fill="white"/>
</g>
<path d="M26.5195 101.619H138.656C139.438 101.619 140.074 100.983 140.074 100.201V96.7511H25.1016V100.201C25.1016 100.983 25.7375 101.619 26.5195 101.619Z" fill="#263238"/>
<path opacity="0.2" d="M25.1034 99.1836L140.076 99.1836V96.7496L25.1034 96.7496V99.1836Z" fill="black"/>
<path d="M22.6886 97.3797H142.485C143.246 97.3797 143.86 96.7657 143.86 96.0056C143.86 95.2454 143.246 94.6315 142.485 94.6315H22.6886C21.9284 94.6315 21.3145 95.2454 21.3145 96.0056C21.3145 96.7657 21.9284 97.3797 22.6886 97.3797Z" fill="#263238"/>
</svg>
