<svg width="266" height="225" viewBox="0 0 266 225" fill="none" xmlns="http://www.w3.org/2000/svg">
<path d="M137.5 233.005C208.469 233.005 266 229.646 266 225.502C266 221.359 208.469 218 137.5 218C66.5314 218 9 221.359 9 225.502C9 229.646 66.5314 233.005 137.5 233.005Z" fill="#F0F6FF"/>
<path d="M142.973 217.19L147.522 220.107L149.1 222.425C149.1 222.425 147.482 223.235 146.574 223.463C145.665 223.687 138.455 222.918 138.455 222.918L138.26 218.696L142.973 217.19Z" fill="#273140"/>
<path d="M120.243 220.374L122.493 222.894C122.493 222.894 124.323 226.31 123.404 226.26C122.486 226.207 117.502 226.475 117.168 225.903C116.831 225.332 114.185 223.34 113.842 222.954C113.495 222.567 113.849 219.36 113.849 219.36L120.243 220.374Z" fill="#273140"/>
<path d="M133.098 153.318L127.45 187.663L120.243 220.377L113.821 220.01L115.06 185.483C115.06 185.483 110.433 153.751 110.416 144.367L133.098 153.318Z" fill="#263238"/>
<path d="M147.267 155.01L144.684 218.399L138.078 218.702L134.564 186.498L129.447 158.075L143.102 140.489L147.267 155.01Z" fill="#263238"/>
<path d="M143.807 121.635C140.342 104.776 144.741 96.6509 137.157 91.9639C137.157 91.9639 124.804 88.5716 116.936 94.2166C116.827 94.2958 116.718 94.3751 116.612 94.4544L113.752 100.397L111.582 127.062C111.582 127.062 105.511 162.071 108.735 162.352C112.384 162.673 129.144 154.864 132.325 155.046C135.506 155.231 145.24 156.975 154.429 153.847C162.307 151.171 147.268 138.494 143.807 121.635Z" fill="#3E6897"/>
<path d="M128.443 91.4451L126.041 91.5376L125.797 93.9555L134.623 118.639L136.601 107.944L134.441 92.4063L128.443 91.4451Z" fill="white"/>
<path d="M135.701 128.126L132.299 155.003L139.47 156.017L144.431 155.631L138.158 132.314L135.701 128.126Z" fill="white"/>
<path d="M131.699 92.5155C130.051 92.5848 128.406 92.6509 126.757 92.7203C126.559 91.4222 126.463 90.1075 126.473 88.7929C125.053 88.5089 123.388 88.0134 122.952 86.6327C122.814 86.1967 122.827 85.731 122.843 85.2752C122.903 83.3891 122.374 81.4766 123.018 79.617C123.233 78.9993 123.065 78.2925 123.332 77.6979C123.804 76.6542 124.924 76.0695 126.014 75.7194C128.795 74.8243 131.989 75.0026 134.463 76.5584C135.121 76.9713 135.738 77.4964 136.098 78.1835C136.657 79.2438 136.531 80.522 136.389 81.7112C136.26 82.8111 136.131 83.911 136.003 85.0076C135.854 86.2727 135.586 87.7227 134.477 88.347C133.889 88.6773 133.142 88.7103 132.627 89.1496C131.725 89.9226 132.065 91.3825 131.699 92.5155Z" fill="#E7CAAD"/>
<path d="M138.777 68.0137C138.407 67.9806 138.03 67.9344 137.637 67.8023C136.405 67.3861 135.484 66.4183 134.182 66.0417C131.546 65.2754 128.356 65.6883 125.938 66.9567C123.622 68.1689 120.382 68.8361 118.347 70.372C117.498 71.0128 116.877 71.9179 116.428 72.8857C114.876 76.2317 115.46 80.4596 117.862 83.2573C118.4 83.8849 119.018 84.4398 119.659 84.965C120.983 86.0484 122.575 87.396 124.223 87.6338C124.062 86.2135 122.146 81.9361 123.067 80.6214C124.293 78.8807 126.968 78.6958 128.897 78.7123C131.196 78.7321 133.013 77.8403 135.299 77.761C136.461 77.7214 137.792 77.8436 138.618 77.0211C139.573 76.0698 141.512 73.1466 141.925 71.8981C142.288 70.808 141.875 69.5364 141.02 68.7668C140.29 68.1061 139.55 68.0863 138.777 68.0137Z" fill="#263238"/>
<path d="M154.265 105.143L139.302 91.5872L135.705 94.6194L148.092 115.303L153.684 115.838C153.684 115.838 155.296 110.081 155.626 109.47L154.265 105.143Z" fill="#3E6897"/>
<path d="M118.69 154.385C115.823 151.799 112.444 150.587 108.652 150.782C104.86 150.976 101.623 152.529 99.0366 155.396C96.447 158.266 95.2348 161.645 95.433 165.434C95.6279 169.226 97.1803 172.463 100.047 175.049C101.184 176.073 102.402 176.882 103.694 177.474C105.659 178.372 107.796 178.765 110.085 178.649C113.881 178.455 117.114 176.902 119.701 174.032C122.284 171.168 123.496 167.789 123.304 163.994C123.109 160.205 121.557 156.968 118.69 154.385Z" fill="#00B0DC"/>
<path d="M123.309 163.998C123.11 160.203 121.558 156.969 118.694 154.386C117.769 153.55 116.788 152.863 115.761 152.315C117.33 154.452 118.199 156.919 118.341 159.684C118.532 163.483 117.32 166.858 114.737 169.722C112.151 172.589 108.917 174.142 105.122 174.34C102.833 174.455 100.696 174.062 98.7304 173.164C98.4893 173.055 98.2515 172.933 98.0137 172.807C98.5983 173.6 99.2721 174.353 100.052 175.053C101.188 176.077 102.407 176.886 103.698 177.478C105.664 178.376 107.801 178.769 110.09 178.654C113.885 178.459 117.119 176.906 119.705 174.036C122.288 171.175 123.5 167.796 123.309 163.998Z" fill="#058AAA"/>
<path d="M226.849 104.057C225.798 92.5393 220.011 81.9596 209.653 72.6152C199.295 63.2742 188.133 58.5607 176.47 58.6036C166.333 58.6433 157.2 62.3955 149.323 69.7614C147.995 71.0033 147.242 72.7572 147.258 74.5739C147.275 76.3906 148.057 78.1313 149.405 79.3502L155.572 84.9125C158.033 87.1322 161.765 87.1454 164.252 84.9422C168.662 81.0347 173.256 79.1156 178.3 79.0793C184.404 79.0331 190.512 81.7284 196.454 87.0859C202.376 92.427 205.587 98.2635 206 104.424C206.403 110.564 203.952 116.625 198.716 122.432C191.496 130.435 184.342 133.761 177.445 132.315C170.185 130.789 161.478 125.388 151.549 116.255L148.88 113.847C146.214 111.443 142.092 111.657 139.691 114.32L118.723 137.567C117.56 138.858 116.966 140.523 117.058 142.26C117.147 143.998 117.907 145.593 119.199 146.756L125.455 152.397C125.96 152.853 126.515 153.213 127.103 153.481C129.62 154.63 132.698 154.082 134.647 151.922L148.226 136.866C148.394 136.678 148.685 136.662 148.873 136.82C160.814 147.023 172.107 152.513 182.436 153.137C193.422 153.798 203.955 148.632 213.742 137.781C223.489 126.984 227.899 115.634 226.849 104.057Z" fill="#00B0DC"/>
<path d="M226.848 104.057C225.798 92.539 220.011 81.9593 209.653 72.6149C203.241 66.8312 196.516 62.8246 189.56 60.6182C192.837 62.5934 196.047 64.998 199.185 67.8254C209.544 77.1698 215.33 87.7462 216.381 99.2673C217.431 110.845 213.022 122.194 203.274 133.001C193.487 143.852 182.954 149.018 171.968 148.357C168.794 148.166 165.53 147.515 162.188 146.409C169.256 150.501 176.034 152.76 182.439 153.147C193.425 153.807 203.958 148.641 213.745 137.791C223.489 126.983 227.899 115.634 226.848 104.057Z" fill="#058AAA"/>
<path d="M119.557 92.72L112.468 94.9033L95.5039 123.822L96.66 129.414L118.635 140.4L121.72 134.424L107.841 123.822L116.323 112.254L119.6 93.7472L119.557 92.72Z" fill="#3E6897"/>
<path d="M139.013 91.8336L135.411 87.964L131.938 88.9289L130.977 92.402L134.06 92.9803L136.961 93.5652L139.013 91.8336Z" fill="#EAC1A4"/>
<path d="M121.419 135.016L124.883 135.726L124.327 137.768L127.328 141.278L123.214 142.775L119.186 139.341L121.419 135.016Z" fill="#E7CAAD"/>
</svg>
