<svg width="257" height="230" viewBox="0 0 257 230" fill="none" xmlns="http://www.w3.org/2000/svg">
<path d="M128.5 237.131C199.469 237.131 257 233.772 257 229.629C257 225.485 199.469 222.126 128.5 222.126C57.5314 222.126 0 225.485 0 229.629C0 233.772 57.5314 237.131 128.5 237.131Z" fill="#F0F6FF"/>
<path d="M146.023 66.9772L146.454 67.3417C146.613 67.4742 146.792 67.6068 146.958 67.7459C147.302 68.0177 147.653 68.2894 148.018 68.5412C148.734 69.0648 149.502 69.542 150.265 70.0192C151.796 70.9669 153.413 71.7953 155.076 72.4846C156.74 73.1805 158.45 73.7902 160.206 74.2342C160.643 74.3535 161.087 74.4331 161.531 74.5325L162.194 74.6783C162.333 74.7048 162.221 74.6915 162.154 74.7114C162.075 74.7379 161.955 74.7777 161.902 74.8307C161.843 74.8904 161.843 74.8837 161.869 74.8705C161.929 74.7976 162.068 74.559 162.174 74.2475C162.393 73.6179 162.532 72.7629 162.612 71.8947C162.691 71.0199 162.718 70.1119 162.711 69.1841C162.698 67.335 162.565 65.4462 162.419 63.5508C162.26 61.6553 162.042 59.7532 161.796 57.8511C161.571 55.949 161.279 54.0337 161.001 52.1515L163.493 51.5815C164.593 55.3725 165.461 59.1766 166.124 63.0868C166.462 65.0353 166.714 67.0103 166.853 69.0383C166.919 70.0523 166.953 71.0796 166.926 72.1466C166.886 73.2136 166.813 74.3005 166.489 75.5332C166.316 76.1496 166.091 76.8189 165.594 77.5413C165.322 77.9058 165.011 78.2836 164.54 78.6084C164.09 78.9265 163.513 79.1849 162.956 79.2711C162.413 79.3838 161.81 79.3308 161.472 79.2777L160.71 79.1518C160.199 79.0657 159.689 78.9994 159.179 78.8867C157.151 78.4758 155.149 77.9125 153.214 77.1768C151.279 76.4345 149.41 75.5266 147.614 74.4861C146.726 73.9492 145.851 73.3859 145.002 72.7696C144.578 72.4647 144.161 72.1466 143.743 71.8152C143.538 71.6429 143.332 71.4838 143.127 71.2983C142.915 71.1127 142.736 70.9536 142.471 70.7018L146.023 66.9772Z" fill="#FFC3BD"/>
<path d="M138.818 63.9617C146.088 62.9742 151.967 68.8527 151.967 68.8527L145.3 79.1386C145.3 79.1386 138.155 74.5656 136.903 71.4507C135.597 68.2099 135.087 64.4653 138.818 63.9617Z" fill="#9FC6FF"/>
<path d="M161.086 53.0396L158.674 48.1883L165.016 48.1353C165.016 48.1353 165.142 51.5219 163.538 53.4637L161.086 53.0396Z" fill="#FFC3BD"/>
<path d="M159.795 42.9724L164.513 43.814L165.01 48.1352L158.668 48.1882L159.795 42.9724Z" fill="#FFC3BD"/>
<path d="M113.037 224.081L118.975 224.651L123.084 210.7L117.146 210.13L113.037 224.081Z" fill="#FFC3BD"/>
<path d="M75.2812 203.457L79.6819 207.592L89.1857 197.147L84.785 193.012L75.2812 203.457Z" fill="#FFC3BD"/>
<path d="M81.7152 205.611L78.4081 199.652C78.2888 199.434 78.037 199.341 77.8117 199.427L72.7218 201.362C72.1916 201.561 71.9662 202.244 72.2512 202.734C73.4375 204.795 74.1202 205.723 75.5716 208.348C76.4663 209.958 78.2093 213.656 79.442 215.883C80.6482 218.064 82.9479 217.003 82.6298 215.969C81.2182 211.317 81.4833 208.725 81.8809 206.671C81.9538 206.306 81.8876 205.922 81.7152 205.611Z" fill="#14365B"/>
<path d="M119.671 222.842H112.474C112.209 222.842 111.977 223.021 111.904 223.279L110.34 228.972C110.181 229.562 110.612 230.106 111.215 230.112C113.753 230.132 114.953 230.126 118.121 230.126C120.069 230.126 125.106 230.126 127.797 230.126C130.428 230.126 130.978 227.468 129.891 227.223C125.013 226.142 122.196 224.651 120.692 223.233C120.42 222.981 120.056 222.842 119.671 222.842Z" fill="#14365B"/>
<path d="M123.085 210.707L120.964 217.898H114.854L117.14 210.137L123.085 210.707Z" fill="#FFC3BD"/>
<path d="M84.7766 193.018L89.1839 197.147L84.2795 202.529L79.8789 198.4L84.7766 193.018Z" fill="#FFC3BD"/>
<path d="M146.003 59.8459C145.956 55.0278 141.602 53.3444 141.602 53.3444C141.602 53.3444 147.057 43.0188 144.24 36.166C141.423 29.3198 132.198 28.1004 129.262 31.3081C124.119 31.0894 122.475 38.4856 122.475 38.4856C122.475 38.4856 118.167 39.2014 117.008 42.3362C115.848 45.471 119.38 49.0034 119.38 49.0034C119.38 49.0034 114.463 49.6927 112.653 53.4504C110.844 57.2082 111.951 62.2583 117.392 66.5927C125.292 72.8888 139.813 64.9889 139.813 64.9889C139.813 64.9889 146.056 65.3865 146.003 59.8459Z" fill="#0F264C"/>
<path d="M145.041 64.6377C145.041 64.6377 147.672 65.7975 138.837 100.764C129.095 99.9223 119.028 99.0475 114.289 98.6432C115.568 88.6887 116.112 82.5252 113.109 61.6089C113.109 61.6089 118.352 60.9329 123.654 61.1384C127.802 61.2974 131.196 61.4565 134.801 62.106C139.546 62.9543 145.041 64.6377 145.041 64.6377Z" fill="#9FC6FF"/>
<path d="M138.712 62.9277C137.439 62.6228 136.094 62.3312 134.802 62.0992C131.196 61.4564 127.803 61.2973 123.654 61.1383C122.375 61.0919 121.096 61.0919 119.896 61.1184L120.718 62.6825C120.864 62.9608 124.363 69.4889 131.011 73.1936L132.84 74.2143L134.543 73.0014C138.838 69.9462 139.474 65.9564 138.712 62.9277Z" fill="white"/>
<path d="M125.841 48.6786C126.232 52.3238 126.365 58.9579 123.654 61.1383C123.654 61.1383 126.763 67.0301 132.628 70.2975C137.83 66.5993 134.802 62.0993 134.802 62.0993C130.885 60.8003 131.243 57.8378 132.184 55.1139L125.841 48.6786Z" fill="#FFC3BD"/>
<path d="M128.426 51.3098L132.177 55.114C131.951 55.7568 131.766 56.4196 131.66 57.0625C130.149 56.7112 127.968 55.1405 127.942 53.53C127.929 52.7215 128.26 51.6677 128.426 51.3098Z" fill="#EA7063"/>
<path d="M125.69 40.3943C124.974 46.3722 124.543 48.8907 126.969 52.4695C130.627 57.8577 138.129 57.4269 140.615 51.7869C142.855 46.7102 143.65 37.783 138.295 34.3699C133.02 31.0098 126.405 34.4163 125.69 40.3943Z" fill="#FFC3BD"/>
<path d="M130.315 33.0445C134.921 34.2374 130.368 48.2479 122.998 44.1853C122.998 44.1853 123.329 38.2669 125.371 35.7551C127.412 33.2433 130.315 33.0445 130.315 33.0445Z" fill="#0F264C"/>
<path d="M129.818 33.8199C131.807 37.0541 146.553 43.1779 141.595 36.2191C136.638 29.2669 129.818 33.8199 129.818 33.8199Z" fill="#0F264C"/>
<path d="M123.792 45.5572C123.693 46.8032 124.17 47.9762 124.846 48.7516C125.86 49.9114 127.212 49.2089 127.636 47.8039C128.014 46.5447 127.948 44.4239 126.583 43.7744C125.244 43.1382 123.912 44.1389 123.792 45.5572Z" fill="#FFC3BD"/>
<path d="M138.839 100.771C138.839 100.771 147.143 137.513 141.602 163.42C137.891 180.771 124.497 215.817 124.497 215.817L114.025 215.545C114.025 215.545 124.165 178.763 126.26 164.302C129.845 139.561 120.865 99.2131 120.865 99.2131L138.839 100.771Z" fill="#0F264C"/>
<path d="M129.261 108.187L124.025 116.445C125.358 125.007 126.683 135.717 127.021 146.023C134.384 132.841 130.898 115.165 129.261 108.187Z" fill="#0A1B35"/>
<path d="M125.357 216.354L112.42 216.029L113.169 212.052L127.292 212.722L125.357 216.354Z" fill="#9FC6FF"/>
<path d="M133.469 100.38C133.469 100.38 128.598 139.349 118.034 160.623C109.504 177.808 86.7388 202.27 86.7388 202.27L80.9199 196.272C80.9199 196.272 96.2956 169.69 102.638 158.277C118.186 130.289 105.481 108.929 114.289 98.6564L133.469 100.38Z" fill="#0F264C"/>
<path d="M87.33 203.066L79.8145 195.742L82.3064 192.349L90.4979 200.812L87.33 203.066Z" fill="#9FC6FF"/>
<path d="M114.045 97.1718L112.746 99.2727C112.646 99.4384 112.832 99.624 113.117 99.6505L138.865 101.877C139.083 101.897 139.276 101.804 139.302 101.665L139.713 99.4848C139.74 99.3324 139.561 99.1866 139.322 99.1667L114.462 97.0194C114.277 97.0062 114.111 97.0658 114.045 97.1718Z" fill="#00B0DC"/>
<path d="M117.146 100.24L116.483 100.181C116.35 100.167 116.258 100.095 116.271 100.008L116.827 97.1785C116.841 97.0989 116.967 97.0393 117.099 97.0459L117.762 97.1056C117.895 97.1188 117.987 97.1917 117.974 97.2779L117.417 100.108C117.397 100.194 117.278 100.254 117.146 100.24Z" fill="#0F264C"/>
<path d="M136.976 101.957L136.313 101.897C136.18 101.884 136.088 101.811 136.101 101.725L136.658 98.8951C136.671 98.8155 136.797 98.7559 136.929 98.7625L137.592 98.8222C137.725 98.8354 137.817 98.9083 137.804 98.9945L137.247 101.824C137.228 101.911 137.108 101.964 136.976 101.957Z" fill="#0F264C"/>
<path d="M127.06 101.095L126.397 101.036C126.264 101.022 126.172 100.949 126.185 100.863L126.742 98.0334C126.755 97.9539 126.881 97.8942 127.013 97.9008L127.676 97.9605C127.809 97.9737 127.901 98.0466 127.888 98.1328L127.331 100.963C127.312 101.049 127.192 101.109 127.06 101.095Z" fill="#0F264C"/>
<path d="M134.352 43.6882C134.265 44.172 134.444 44.6094 134.763 44.6624C135.074 44.722 135.405 44.3774 135.492 43.8936C135.578 43.4098 135.399 42.9724 135.081 42.9194C134.769 42.8597 134.438 43.2043 134.352 43.6882Z" fill="#0F264C"/>
<path d="M139.793 44.6823C139.707 45.1661 139.886 45.6035 140.204 45.6565C140.515 45.7162 140.847 45.3716 140.933 44.8877C141.019 44.4039 140.84 43.9665 140.522 43.9135C140.211 43.8539 139.879 44.1985 139.793 44.6823Z" fill="#0F264C"/>
<path d="M140.375 43.9136L141.594 43.7943C141.594 43.7943 140.839 44.5896 140.375 43.9136Z" fill="#0F264C"/>
<path d="M138.201 45.2457C138.201 45.2457 138.639 47.4659 139.354 48.6323C138.612 49.1095 137.578 48.6389 137.578 48.6389L138.201 45.2457Z" fill="#FF5652"/>
<path d="M135.571 50.203C135.565 50.203 135.558 50.203 135.551 50.203C133.298 49.7921 132.549 48.0623 132.516 47.9894C132.49 47.9298 132.516 47.8569 132.582 47.8303C132.642 47.8038 132.715 47.8303 132.741 47.8966C132.748 47.9165 133.477 49.58 135.598 49.971C135.664 49.9843 135.704 50.0439 135.697 50.1102C135.677 50.1632 135.624 50.203 135.571 50.203Z" fill="#0F264C"/>
<path d="M133.059 39.9371C132.986 39.9371 132.913 39.904 132.867 39.8443C132.787 39.7383 132.807 39.5925 132.913 39.5063C134.159 38.5586 135.385 38.9761 135.438 38.996C135.564 39.0424 135.624 39.1749 135.584 39.3009C135.538 39.4268 135.405 39.4864 135.279 39.4467C135.24 39.4334 134.232 39.0954 133.205 39.8841C133.159 39.9172 133.106 39.9371 133.059 39.9371Z" fill="#0F264C"/>
<path d="M142.868 42.853C142.802 42.853 142.729 42.8265 142.682 42.7669C141.854 41.7595 140.774 41.8589 140.76 41.8589C140.628 41.8722 140.509 41.7794 140.495 41.6468C140.482 41.5143 140.575 41.395 140.707 41.3817C140.76 41.3751 142.059 41.2492 143.047 42.4554C143.133 42.5548 143.113 42.7072 143.014 42.7934C142.974 42.8332 142.921 42.853 142.868 42.853Z" fill="#0F264C"/>
<path d="M114.973 70.3902C113.959 72.458 112.866 74.2739 111.693 76.1429C110.5 77.9721 109.24 79.7615 107.875 81.4846C106.523 83.2144 105.032 84.8514 103.474 86.4221C102.659 87.1842 101.877 87.9663 101.009 88.6754L100.373 89.2189L100.214 89.3581L100.002 89.5237C99.8559 89.6298 99.7167 89.7491 99.5643 89.8419C98.9612 90.2528 98.2984 90.5841 97.6224 90.8161C96.2572 91.2867 94.8588 91.3662 93.5863 91.2601C92.3072 91.1408 91.1209 90.8559 90.0074 90.4781C87.7806 89.7159 85.7791 88.6688 83.9168 87.4759C80.1922 85.0767 76.9116 82.3064 73.8828 79.165L75.6391 77.3093C77.2231 78.5818 78.8998 79.8476 80.6031 81.0008C82.2997 82.1739 84.0427 83.2608 85.8255 84.2085C87.6083 85.1364 89.4242 85.9847 91.2335 86.4685C93.0296 86.9722 94.8256 87.0583 96.0649 86.5348C96.7343 86.2697 97.0723 85.9781 97.9008 85.1828C98.6364 84.52 99.319 83.7844 100.022 83.0686C101.38 81.5907 102.639 80.0067 103.872 78.4029C105.098 76.7858 106.238 75.0891 107.318 73.366C107.868 72.511 108.392 71.6362 108.909 70.7548C109.406 69.8799 109.923 68.9587 110.354 68.1369L114.973 70.3902Z" fill="#FFC3BD"/>
<path d="M77.2555 78.1179L74.8961 73.2401L70.9727 78.2239C70.9727 78.2239 73.5706 80.3977 76.0957 80.3182L77.2555 78.1179Z" fill="#FFC3BD"/>
<path d="M72.3179 71.8151L70.0977 76.0633L70.9725 78.2239L74.8959 73.24L72.3179 71.8151Z" fill="#FFC3BD"/>
<path d="M113.111 61.6089C110.102 62.1391 105.887 70.7746 105.887 70.7746L114.145 78.2438C114.145 78.2438 119.506 71.053 119.181 67.1295C118.91 63.8026 116.941 60.9329 113.111 61.6089Z" fill="#9FC6FF"/>
<path d="M82.8751 208.812C82.7956 208.812 82.7161 208.798 82.6432 208.772C81.9208 208.527 81.4502 207.194 81.2315 206.426C81.2183 206.379 81.2315 206.333 81.2713 206.3C81.3111 206.267 81.3575 206.267 81.4038 206.287C81.6226 206.399 83.5445 207.426 83.6108 208.189C83.6174 208.301 83.5909 208.474 83.4053 208.613C83.2264 208.745 83.0475 208.812 82.8751 208.812ZM81.543 206.638C81.8744 207.705 82.3052 208.407 82.7161 208.546C82.895 208.606 83.0673 208.566 83.2595 208.421C83.3656 208.341 83.3722 208.262 83.3722 208.208C83.3258 207.745 82.1991 207.009 81.543 206.638Z" fill="#407BFF"/>
<path d="M83.1731 206.936C82.4905 206.936 81.6554 206.717 81.2843 206.492C81.2445 206.472 81.2246 206.432 81.2246 206.386C81.2246 206.346 81.2511 206.306 81.2843 206.287C81.3505 206.253 82.8682 205.412 83.69 205.703C83.9021 205.776 84.0545 205.922 84.1407 206.127C84.2732 206.446 84.1274 206.631 84.0347 206.717C83.8491 206.876 83.531 206.936 83.1731 206.936ZM81.609 206.393C82.2585 206.671 83.5243 206.843 83.8822 206.538C83.9419 206.485 84.0015 206.406 83.922 206.22C83.8623 206.081 83.7629 205.982 83.6171 205.929C83.0538 205.736 82.0398 206.181 81.609 206.393Z" fill="#407BFF"/>
<path d="M122.865 224.008C122.176 224.008 121.42 223.876 120.897 223.757C120.844 223.743 120.81 223.704 120.804 223.651C120.797 223.597 120.824 223.551 120.87 223.531C121.168 223.392 123.773 222.186 124.436 222.63C124.522 222.69 124.615 222.796 124.608 223.001C124.595 223.279 124.469 223.511 124.25 223.677C123.932 223.922 123.415 224.008 122.865 224.008ZM121.314 223.597C122.089 223.743 123.521 223.929 124.111 223.485C124.277 223.359 124.363 223.2 124.369 222.988C124.376 222.888 124.336 222.855 124.303 222.829C123.939 222.577 122.394 223.12 121.314 223.597Z" fill="#407BFF"/>
<path d="M120.93 223.757C120.903 223.757 120.877 223.75 120.85 223.73C120.817 223.704 120.804 223.657 120.81 223.611C120.837 223.498 121.433 220.92 122.845 221.092C123.203 221.132 123.296 221.311 123.315 221.45C123.402 222.106 121.758 223.425 120.969 223.75C120.956 223.757 120.943 223.757 120.93 223.757ZM122.719 221.324C121.818 221.324 121.287 222.822 121.108 223.425C121.957 222.981 123.137 221.907 123.077 221.483C123.07 221.45 123.057 221.357 122.812 221.331C122.785 221.324 122.752 221.324 122.719 221.324Z" fill="#407BFF"/>
<path d="M134.934 42.9195L136.153 42.8002C136.153 42.8002 135.398 43.5888 134.934 42.9195Z" fill="#0F264C"/>
<path opacity="0.6" d="M85.0833 5.14954L65.6582 130.7L174.958 147.607L194.384 22.0562L85.0833 5.14954ZM129.991 76.5738C115.987 74.4066 106.391 61.2975 108.558 47.2936C110.725 33.2831 123.834 23.6932 137.838 25.8604C151.848 28.0276 161.438 41.1301 159.271 55.1405C157.104 69.1444 143.995 78.741 129.991 76.5738Z" fill="#00B0DC"/>
<path opacity="0.3" d="M171.657 142.842L171.491 142.815L62.0254 125.882L62.0519 125.716L81.4969 0L81.6626 0.0265099L191.129 16.9597L191.102 17.1254L171.657 142.842ZM62.4032 125.604L171.379 142.464L190.751 17.238L81.7753 0.377766L62.4032 125.604Z" fill="#00B0DC"/>
<path d="M133.926 77.8727C132.574 77.8727 131.209 77.7667 129.837 77.5546C115.316 75.3079 105.329 61.662 107.575 47.1412C108.662 40.1028 112.427 33.9127 118.173 29.7109C123.919 25.5091 130.957 23.7926 137.989 24.8795C152.51 27.1262 162.497 40.7722 160.251 55.293C158.216 68.4419 146.837 77.8727 133.926 77.8727ZM130.142 75.5929C143.582 77.6739 156.208 68.4286 158.289 54.9881C160.37 41.5476 151.125 28.9223 137.684 26.8412C131.176 25.8339 124.661 27.4245 119.346 31.3148C114.031 35.2051 110.545 40.9379 109.537 47.446C107.456 60.8865 116.701 73.5119 130.142 75.5929Z" fill="white"/>
<path d="M108.86 84.3515L84.7852 80.6265L83.9481 86.0362L108.023 89.7612L108.86 84.3515Z" fill="#9FC6FF"/>
<path d="M128.317 87.3613L112.029 84.8411L111.192 90.2508L127.48 92.771L128.317 87.3613Z" fill="#9FC6FF"/>
<path d="M170.145 105.056L83.0859 91.5856L82.2489 96.9953L169.308 110.466L170.145 105.056Z" fill="white"/>
<path d="M124.597 109.788L81.3066 103.09L80.4696 108.5L123.76 115.198L124.597 109.788Z" fill="white"/>
<path d="M160.967 115.413L132.006 110.932L131.169 116.342L160.13 120.823L160.967 115.413Z" fill="white"/>
<path d="M149.128 125.363L79.5293 114.595L78.6923 120.004L148.291 130.773L149.128 125.363Z" fill="white"/>
<path d="M195.55 147.607H194.887C194.887 145.957 194.681 144.313 194.284 142.729L194.927 142.57C195.344 144.207 195.55 145.904 195.55 147.607ZM192.952 139.044C191.5 136.009 189.287 133.364 186.543 131.396L186.927 130.859C189.764 132.894 192.05 135.624 193.555 138.759L192.952 139.044Z" fill="#9FC6FF"/>
<path d="M174.957 129.335C164.864 129.335 156.686 137.513 156.686 147.607C156.686 157.701 164.864 165.879 174.957 165.879C185.051 165.879 193.229 157.701 193.229 147.607C193.229 137.513 185.051 129.335 174.957 129.335ZM174.957 163.513C166.176 163.513 159.058 156.395 159.058 147.614C159.058 138.832 166.176 131.714 174.957 131.714C183.739 131.714 190.857 138.832 190.857 147.614C190.863 156.388 183.739 163.513 174.957 163.513Z" fill="#9FC6FF"/>
<path opacity="0.9" d="M174.958 163.506C183.739 163.506 190.857 156.388 190.857 147.607C190.857 138.826 183.739 131.708 174.958 131.708C166.177 131.708 159.059 138.826 159.059 147.607C159.059 156.388 166.177 163.506 174.958 163.506Z" fill="#007490"/>
<path d="M172.486 157.667L163.154 148.343L165.5 145.996L172.486 152.982L184.422 141.052L186.761 143.392L172.486 157.667Z" fill="white"/>
</svg>
