<svg width="235" height="303" viewBox="0 0 235 303" fill="none" xmlns="http://www.w3.org/2000/svg">
<g opacity="0.15" clip-path="url(#clip0_133_17540)">
<path d="M161.888 167.269L160.626 166.931L160.786 165.636C161.345 161.229 161.789 157.366 162.17 153.969C163.934 138.39 164.665 131.945 171.165 125.972C177.868 119.82 185.661 116.915 193.212 114.101C201.182 111.119 209.422 108.055 216.361 101.08C223.037 94.3917 225.146 85.5934 221.864 78.1038C217.944 69.1676 207.486 64.1411 193.858 64.6735C185.733 64.9851 180.192 66.1601 176.136 67.0175C164.232 69.5359 163.796 68.1437 156.336 44.9608C155.564 42.5608 154.715 39.9226 153.77 37.0095L153.361 35.7489L154.569 35.1862C186.757 20.1847 220.796 22.011 245.606 40.0594C263.751 53.2582 273.174 72.5967 270.814 91.7952C268.126 113.612 250.598 132.122 221.472 143.884C202.509 151.557 201.036 159.841 200.051 165.317C199.569 167.987 199.122 170.527 196.816 171.993C192.933 174.468 184.439 173.312 161.888 167.269ZM207.085 63.0229C215.401 65.2509 221.639 70.0643 224.629 76.9003C228.412 85.5353 226.071 95.6089 218.501 103.193C211.099 110.619 202.543 113.817 194.266 116.903C186.66 119.749 179.472 122.427 173.202 128.181C167.513 133.392 166.874 139.084 165.16 154.303C164.817 157.384 164.424 160.825 163.943 164.709C183.589 169.927 192.393 171.259 195.222 169.466C196.364 168.746 196.657 167.362 197.112 164.793C198.21 158.664 199.871 149.388 220.367 141.099C248.448 129.757 265.308 112.111 267.85 91.421C270.068 73.3352 261.097 55.0357 243.834 42.4932C220.234 25.3288 187.865 23.4213 157.04 37.3414C157.823 39.7598 158.547 41.9914 159.198 44.0322C162.762 55.1125 164.722 61.206 166.784 63.6095C168.386 65.4695 170.168 65.2007 175.526 64.07C179.681 63.1923 185.372 61.9798 193.763 61.6617C198.587 61.4769 203.08 61.9497 207.085 63.0229Z" fill="#268EA8"/>
<path d="M159.59 232.15C148.039 229.055 137.562 218.409 141.859 202.373C146.144 186.381 160.532 182.429 172.084 185.524C184.07 188.736 194.074 199.986 189.98 215.267C185.874 230.592 171.591 235.366 159.59 232.15ZM171.324 188.416C161.166 185.694 148.528 189.151 144.779 203.14C141.015 217.188 150.228 226.515 160.386 229.237C170.617 231.979 183.332 228.526 187.096 214.479C190.83 200.486 181.541 191.153 171.324 188.416Z" fill="#268EA8"/>
<path d="M160.087 173.988L152.962 172.079L153.894 164.77C154.445 160.391 154.877 156.572 155.269 153.193C157.127 136.8 158.052 128.586 166.488 120.846C166.691 120.667 166.899 120.473 167.102 120.295L169.098 122.54L168.524 123.055C160.918 130.023 160.042 137.876 158.259 153.528C157.882 156.911 157.442 160.759 156.891 165.137L156.298 169.847L160.883 171.075C185.292 177.616 193.84 178.569 198.957 175.32C200.515 174.322 201.67 173.03 202.482 171.334L205.183 172.633C204.121 174.853 202.606 176.562 200.565 177.851C194.495 181.699 185.802 180.879 160.087 173.988Z" fill="#268EA8"/>
<path d="M218.281 91.2978L215.483 90.1903C215.685 89.6689 215.868 89.1581 216.008 88.6357C216.572 86.5315 216.581 84.4653 216.043 82.4701C214.616 77.1728 209.241 73.2595 201.609 72.0233L202.092 69.0577C210.949 70.4822 217.211 75.2085 218.942 81.6916C219.621 84.2067 219.611 86.8013 218.911 89.4134C218.743 90.0374 218.543 90.6681 218.281 91.2978Z" fill="#268EA8"/>
<path d="M166.011 74.4456C157.812 72.2486 155.602 65.4039 149.729 47.0945C148.957 44.6945 148.108 42.0563 147.159 39.1577L144.837 32.0341L151.624 28.8757C166.695 21.8552 182.004 18.2425 197.104 18.1358L197.122 21.1426C182.456 21.2567 167.579 24.7673 152.898 31.6122L148.527 33.645L150.02 38.2292C150.966 41.1423 151.815 43.7805 152.587 46.1805C158.263 63.8306 160.186 69.774 166.789 71.5432C168.443 71.9865 170.202 72.0379 172.482 71.7155L172.898 74.689C170.199 75.0699 168.072 74.9977 166.011 74.4456Z" fill="#268EA8"/>
<path d="M157.938 238.894L157.793 238.855C142.541 234.768 129.855 220.294 135.143 200.558C136.115 196.93 137.577 193.621 139.484 190.741L141.997 192.394C140.269 195.011 138.95 198.017 138.06 201.34C133.281 219.175 144.77 232.254 158.585 235.956L157.938 238.894ZM189.73 230.303L187.497 228.305C190.423 225.045 192.546 221.01 193.81 216.294C195.459 210.141 195.265 204.303 193.227 198.966L196.033 197.898C198.298 203.84 198.528 210.294 196.712 217.071C195.314 222.234 192.968 226.691 189.73 230.303Z" fill="#268EA8"/>
</g>
<g filter="url(#filter0_d_133_17540)">
<path d="M9.92141 103C8.22141 103 6.89141 102.43 5.93141 101.29C5.07141 100.29 4.64141 99 4.64141 97.42V94.36L8.39141 92.38V97.18C8.39141 97.98 8.55141 98.55 8.87141 98.89C9.21141 99.21 9.76141 99.37 10.5214 99.37H20.3014C21.0614 99.37 21.6014 99.2 21.9214 98.86C22.2414 98.52 22.4014 97.96 22.4014 97.18V91.66L26.1814 89.68V97.42C26.1814 99.24 25.6114 100.66 24.4714 101.68C23.4714 102.56 22.1914 103 20.6314 103H9.92141ZM15.0514 109.69C14.4514 109.69 13.9714 109.51 13.6114 109.15C13.2514 108.79 13.0714 108.3 13.0714 107.68C13.0714 107.1 13.2514 106.63 13.6114 106.27C13.9714 105.91 14.4514 105.73 15.0514 105.73C15.6514 105.73 16.1214 105.9 16.4614 106.24C16.8214 106.6 17.0014 107.08 17.0014 107.68C17.0014 109.02 16.3514 109.69 15.0514 109.69ZM37.1145 103C35.2945 103 33.8845 102.42 32.8845 101.26C32.0245 100.26 31.5945 98.97 31.5945 97.39V85.63L35.3745 83.65V97.21C35.3745 97.99 35.5345 98.55 35.8545 98.89C36.1745 99.21 36.7145 99.37 37.4745 99.37H40.1745V103H37.1145ZM38.3656 103V99.37H41.5456C42.3056 99.37 42.8456 99.21 43.1656 98.89C43.5056 98.55 43.6756 97.99 43.6756 97.21V93.25L47.4556 91.27V97.21C47.4556 97.99 47.6156 98.55 47.9356 98.89C48.2556 99.21 48.7956 99.37 49.5556 99.37H51.5956C52.3556 99.37 52.8956 99.21 53.2156 98.89C53.5356 98.55 53.6956 97.99 53.6956 97.21V92.47L57.4756 90.46V97.21C57.4756 97.99 57.6356 98.55 57.9556 98.89C58.2956 99.21 58.8456 99.37 59.6056 99.37H61.6456C62.4056 99.37 62.9456 99.21 63.2656 98.89C63.5856 98.55 63.7456 97.99 63.7456 97.21V91.66L67.5256 89.68V96.73C67.5256 97.69 67.7156 98.37 68.0956 98.77C68.4956 99.17 69.1556 99.37 70.0756 99.37H72.8356V103H69.8656C68.1856 103 66.8356 102.52 65.8156 101.56C64.9156 102.5 63.7056 102.98 62.1856 103H59.2156C57.7356 103 56.5256 102.56 55.5856 101.68C54.7256 102.54 53.5856 102.98 52.1656 103H49.1956C47.7156 103 46.5056 102.56 45.5656 101.68C44.6256 102.56 43.4156 103 41.9356 103H38.3656ZM90.5916 99.37H93.1116V103H90.5616C88.9816 103 87.7116 102.83 86.7516 102.49C85.8116 102.13 84.9316 101.51 84.1116 100.63C81.6116 102.21 78.7316 103 75.4716 103H71.0316V99.37H75.5016C79.0216 99.37 81.8216 98.32 83.9016 96.22C82.5416 93.84 80.8916 92.65 78.9516 92.65C77.3516 92.65 75.6016 93.52 73.7016 95.26V91.93C75.3816 90.09 77.2816 89.17 79.4016 89.17C80.9616 89.17 82.4816 89.74 83.9616 90.88C85.4416 92.02 86.7516 93.64 87.8916 95.74V97.24C87.5716 97.66 87.1516 98.13 86.6316 98.65C87.4316 99.13 88.7516 99.37 90.5916 99.37ZM91.3051 103V99.37H93.1951C94.1151 99.37 94.7651 99.17 95.1451 98.77C95.5451 98.37 95.7451 97.69 95.7451 96.73V85.66L99.4951 83.65V96.76C99.4951 98.7 98.9051 100.25 97.7251 101.41C96.6451 102.47 95.2051 103 93.4051 103H91.3051ZM104.895 103V85.66L108.675 83.65V103H104.895ZM118.872 103L120.762 99.37H125.502C126.522 99.37 127.032 98.78 127.032 97.6C127.032 95.4 125.972 93.71 123.852 92.53L125.712 89.32C128.832 91.14 130.512 93.61 130.752 96.73C130.832 97.73 131.052 98.42 131.412 98.8C131.792 99.18 132.432 99.37 133.332 99.37H135.612V103H133.122C131.642 103 130.392 102.59 129.372 101.77C128.632 102.59 127.572 103 126.192 103H118.872ZM144.495 99.37H147.195V103H144.135C142.675 103 141.465 102.61 140.505 101.83C139.545 102.61 138.335 103 136.875 103H133.815V99.37H136.515C137.275 99.37 137.815 99.21 138.135 98.89C138.455 98.55 138.615 97.99 138.615 97.21V91.66L142.395 89.68V97.21C142.395 97.99 142.555 98.55 142.875 98.89C143.195 99.21 143.735 99.37 144.495 99.37ZM136.725 105.73C137.325 105.73 137.795 105.9 138.135 106.24C138.495 106.6 138.675 107.08 138.675 107.68C138.675 109.02 138.025 109.69 136.725 109.69C136.125 109.69 135.645 109.51 135.285 109.15C134.925 108.79 134.745 108.3 134.745 107.68C134.745 106.38 135.405 105.73 136.725 105.73ZM141.345 105.73C141.945 105.73 142.415 105.9 142.755 106.24C143.115 106.6 143.295 107.08 143.295 107.68C143.295 109.02 142.645 109.69 141.345 109.69C140.745 109.69 140.265 109.51 139.905 109.15C139.545 108.79 139.365 108.3 139.365 107.68C139.365 106.38 140.025 105.73 141.345 105.73ZM152.437 89.77C153.937 89.89 155.257 90.34 156.397 91.12C158.437 92.5 159.457 94.49 159.457 97.09V97.48C159.457 99.28 158.897 100.69 157.777 101.71C156.797 102.57 155.527 103 153.967 103H145.387V99.37H153.577C154.977 99.37 155.677 98.68 155.677 97.3V97.12C155.677 96.04 155.257 95.16 154.417 94.48C153.597 93.8 152.517 93.46 151.177 93.46C150.177 93.46 149.117 93.66 147.997 94.06V90.43L154.087 83.65H157.897L152.437 89.77ZM162.818 81.97L163.778 80.23H164.678C164.458 79.83 164.348 79.42 164.348 79C164.348 78.36 164.578 77.81 165.038 77.35C165.518 76.89 166.088 76.66 166.748 76.66C167.348 76.66 167.908 76.87 168.428 77.29V79.03C167.948 78.61 167.468 78.4 166.988 78.4C166.328 78.4 165.998 78.7 165.998 79.3C165.998 79.6 166.128 79.91 166.388 80.23H169.358L168.398 81.97H162.818ZM169.478 103C167.658 103 166.248 102.42 165.248 101.26C164.388 100.26 163.958 98.97 163.958 97.39V85.63L167.738 83.65V97.21C167.738 97.99 167.898 98.55 168.218 98.89C168.538 99.21 169.078 99.37 169.838 99.37H172.538V103H169.478ZM172.889 86.65C172.289 86.65 171.809 86.47 171.449 86.11C171.089 85.75 170.909 85.26 170.909 84.64C170.909 83.34 171.569 82.69 172.889 82.69C173.489 82.69 173.959 82.87 174.299 83.23C174.659 83.57 174.839 84.04 174.839 84.64C174.839 85.98 174.189 86.65 172.889 86.65ZM177.509 86.65C176.909 86.65 176.429 86.47 176.069 86.11C175.709 85.75 175.529 85.26 175.529 84.64C175.529 83.34 176.189 82.69 177.509 82.69C178.109 82.69 178.579 82.87 178.919 83.23C179.279 83.57 179.459 84.04 179.459 84.64C179.459 85.98 178.809 86.65 177.509 86.65ZM170.729 103V99.37H173.429C174.189 99.37 174.729 99.21 175.049 98.89C175.369 98.55 175.529 97.99 175.529 97.21V91.66L179.309 89.68V97.39C179.309 99.21 178.749 100.63 177.629 101.65C176.649 102.55 175.369 103 173.789 103H170.729Z" fill="#004556"/>
</g>
<defs>
<filter id="filter0_d_133_17540" x="0.640625" y="76.66" width="182.818" height="41.0299" filterUnits="userSpaceOnUse" color-interpolation-filters="sRGB">
<feFlood flood-opacity="0" result="BackgroundImageFix"/>
<feColorMatrix in="SourceAlpha" type="matrix" values="0 0 0 0 0 0 0 0 0 0 0 0 0 0 0 0 0 0 127 0" result="hardAlpha"/>
<feOffset dy="4"/>
<feGaussianBlur stdDeviation="2"/>
<feComposite in2="hardAlpha" operator="out"/>
<feColorMatrix type="matrix" values="0 0 0 0 0 0 0 0 0 0 0 0 0 0 0 0 0 0 0.05 0"/>
<feBlend mode="normal" in2="BackgroundImageFix" result="effect1_dropShadow_133_17540"/>
<feBlend mode="normal" in="SourceGraphic" in2="effect1_dropShadow_133_17540" result="shape"/>
</filter>
<clipPath id="clip0_133_17540">
<rect width="144.618" height="223.372" fill="white" transform="translate(151.812 6) rotate(15)"/>
</clipPath>
</defs>
</svg>
