<svg width="228" height="303" viewBox="0 0 228 303" fill="none" xmlns="http://www.w3.org/2000/svg">
<g opacity="0.15" clip-path="url(#clip0_133_17560)">
<path d="M154.888 167.269L153.626 166.931L153.786 165.636C154.345 161.229 154.789 157.366 155.17 153.969C156.934 138.39 157.665 131.945 164.165 125.972C170.868 119.82 178.661 116.915 186.212 114.101C194.182 111.119 202.422 108.055 209.361 101.08C216.037 94.3917 218.146 85.5934 214.864 78.1038C210.944 69.1676 200.486 64.1411 186.858 64.6735C178.733 64.9851 173.192 66.1601 169.136 67.0175C157.232 69.5359 156.796 68.1437 149.336 44.9608C148.564 42.5608 147.715 39.9226 146.77 37.0095L146.361 35.7489L147.569 35.1862C179.757 20.1847 213.796 22.011 238.606 40.0594C256.751 53.2582 266.174 72.5967 263.814 91.7952C261.126 113.612 243.598 132.122 214.472 143.884C195.509 151.557 194.036 159.841 193.051 165.317C192.569 167.987 192.122 170.527 189.816 171.993C185.933 174.468 177.439 173.312 154.888 167.269ZM200.085 63.0229C208.401 65.2509 214.639 70.0643 217.629 76.9003C221.412 85.5353 219.071 95.6089 211.501 103.193C204.099 110.619 195.543 113.817 187.266 116.903C179.66 119.749 172.472 122.427 166.202 128.181C160.513 133.392 159.874 139.084 158.16 154.303C157.817 157.384 157.424 160.825 156.943 164.709C176.589 169.927 185.393 171.259 188.222 169.466C189.364 168.746 189.657 167.362 190.112 164.793C191.21 158.664 192.871 149.388 213.367 141.099C241.448 129.757 258.308 112.111 260.85 91.421C263.068 73.3352 254.097 55.0357 236.834 42.4932C213.234 25.3288 180.865 23.4213 150.04 37.3414C150.823 39.7598 151.547 41.9914 152.198 44.0322C155.762 55.1125 157.722 61.206 159.784 63.6095C161.386 65.4695 163.168 65.2007 168.526 64.07C172.681 63.1923 178.372 61.9798 186.763 61.6617C191.587 61.4769 196.08 61.9497 200.085 63.0229Z" fill="#268EA8"/>
<path d="M152.59 232.15C141.039 229.055 130.562 218.409 134.859 202.373C139.144 186.381 153.532 182.429 165.084 185.524C177.07 188.736 187.074 199.986 182.98 215.267C178.874 230.592 164.591 235.366 152.59 232.15ZM164.324 188.416C154.166 185.694 141.528 189.151 137.779 203.14C134.015 217.188 143.228 226.515 153.386 229.237C163.617 231.979 176.332 228.526 180.096 214.479C183.83 200.486 174.541 191.153 164.324 188.416Z" fill="#268EA8"/>
<path d="M153.087 173.988L145.962 172.079L146.894 164.77C147.445 160.391 147.877 156.572 148.269 153.193C150.127 136.8 151.052 128.586 159.488 120.846C159.691 120.667 159.899 120.473 160.102 120.295L162.098 122.54L161.524 123.055C153.918 130.023 153.042 137.876 151.259 153.528C150.882 156.911 150.442 160.759 149.891 165.137L149.298 169.847L153.883 171.075C178.292 177.616 186.84 178.569 191.957 175.32C193.515 174.322 194.67 173.03 195.482 171.334L198.183 172.633C197.121 174.853 195.606 176.562 193.565 177.851C187.495 181.699 178.802 180.879 153.087 173.988Z" fill="#268EA8"/>
<path d="M211.281 91.2978L208.483 90.1903C208.685 89.6689 208.868 89.1581 209.008 88.6357C209.572 86.5315 209.581 84.4653 209.043 82.4701C207.616 77.1728 202.241 73.2595 194.609 72.0233L195.092 69.0577C203.949 70.4822 210.211 75.2085 211.942 81.6916C212.621 84.2067 212.611 86.8013 211.911 89.4134C211.743 90.0374 211.543 90.6681 211.281 91.2978Z" fill="#268EA8"/>
<path d="M159.011 74.4456C150.812 72.2486 148.602 65.4039 142.729 47.0945C141.957 44.6945 141.108 42.0563 140.159 39.1577L137.837 32.0341L144.624 28.8757C159.695 21.8552 175.004 18.2425 190.104 18.1358L190.122 21.1426C175.456 21.2567 160.579 24.7673 145.898 31.6122L141.527 33.645L143.02 38.2292C143.966 41.1423 144.815 43.7805 145.587 46.1805C151.263 63.8306 153.186 69.774 159.789 71.5432C161.443 71.9865 163.202 72.0379 165.482 71.7155L165.898 74.689C163.199 75.0699 161.072 74.9977 159.011 74.4456Z" fill="#268EA8"/>
<path d="M150.938 238.894L150.793 238.855C135.541 234.768 122.855 220.294 128.143 200.558C129.115 196.93 130.577 193.621 132.484 190.741L134.997 192.394C133.269 195.011 131.95 198.017 131.06 201.34C126.281 219.175 137.77 232.254 151.585 235.956L150.938 238.894ZM182.73 230.303L180.497 228.305C183.423 225.045 185.546 221.01 186.81 216.294C188.459 210.141 188.265 204.303 186.227 198.966L189.033 197.898C191.298 203.84 191.528 210.294 189.712 217.071C188.314 222.234 185.968 226.691 182.73 230.303Z" fill="#268EA8"/>
</g>
<g filter="url(#filter0_d_133_17560)">
<path d="M97.2044 103C95.3844 103 93.9744 102.42 92.9744 101.26C92.1144 100.26 91.6844 98.97 91.6844 97.39V85.63L95.4644 83.65V97.21C95.4644 97.99 95.6244 98.55 95.9444 98.89C96.2644 99.21 96.8044 99.37 97.5644 99.37H100.264V103H97.2044ZM104.335 86.65C103.735 86.65 103.255 86.47 102.895 86.11C102.535 85.75 102.355 85.26 102.355 84.64C102.355 84.06 102.535 83.59 102.895 83.23C103.255 82.87 103.735 82.69 104.335 82.69C104.935 82.69 105.405 82.87 105.745 83.23C106.105 83.57 106.285 84.04 106.285 84.64C106.285 85.98 105.635 86.65 104.335 86.65ZM109.135 99.37H111.835V103H108.775C107.315 103 106.105 102.61 105.145 101.83C104.185 102.61 102.975 103 101.515 103H98.4555V99.37H101.155C101.915 99.37 102.455 99.21 102.775 98.89C103.095 98.55 103.255 97.99 103.255 97.21V91.66L107.035 89.68V97.21C107.035 97.99 107.195 98.55 107.515 98.89C107.835 99.21 108.375 99.37 109.135 99.37ZM120.708 99.37H123.408V103H120.348C118.888 103 117.678 102.61 116.718 101.83C115.758 102.61 114.548 103 113.088 103H110.028V99.37H112.728C113.488 99.37 114.028 99.21 114.348 98.89C114.668 98.55 114.828 97.99 114.828 97.21V91.66L118.608 89.68V97.21C118.608 97.99 118.768 98.55 119.088 98.89C119.408 99.21 119.948 99.37 120.708 99.37ZM112.938 105.73C113.538 105.73 114.008 105.9 114.348 106.24C114.708 106.6 114.888 107.08 114.888 107.68C114.888 109.02 114.238 109.69 112.938 109.69C112.338 109.69 111.858 109.51 111.498 109.15C111.138 108.79 110.958 108.3 110.958 107.68C110.958 106.38 111.618 105.73 112.938 105.73ZM117.558 105.73C118.158 105.73 118.628 105.9 118.968 106.24C119.328 106.6 119.508 107.08 119.508 107.68C119.508 109.02 118.858 109.69 117.558 109.69C116.958 109.69 116.478 109.51 116.118 109.15C115.758 108.79 115.578 108.3 115.578 107.68C115.578 106.38 116.238 105.73 117.558 105.73ZM128.38 86.65C127.78 86.65 127.3 86.47 126.94 86.11C126.58 85.75 126.4 85.26 126.4 84.64C126.4 84.06 126.58 83.59 126.94 83.23C127.3 82.87 127.78 82.69 128.38 82.69C128.98 82.69 129.45 82.87 129.79 83.23C130.15 83.57 130.33 84.04 130.33 84.64C130.33 85.98 129.68 86.65 128.38 86.65ZM121.6 103V99.37H124.3C125.06 99.37 125.6 99.21 125.92 98.89C126.24 98.55 126.4 97.99 126.4 97.21V91.66L130.18 89.68V97.39C130.18 99.21 129.62 100.63 128.5 101.65C127.52 102.55 126.24 103 124.66 103H121.6ZM141.091 103C139.271 103 137.861 102.42 136.861 101.26C136.001 100.26 135.571 98.97 135.571 97.39V85.63L139.351 83.65V97.21C139.351 97.99 139.511 98.55 139.831 98.89C140.151 99.21 140.691 99.37 141.451 99.37H144.151V103H141.091ZM162.832 99.37H165.532V103H162.472C160.992 103 159.772 102.6 158.812 101.8C157.852 102.6 156.612 103 155.092 103H151.312C150.632 103 149.992 102.9 149.392 102.7C148.772 102.9 148.132 103 147.472 103H142.342V99.37H145.402C145.062 98.63 144.892 97.82 144.892 96.94C144.892 95.7 145.222 94.66 145.882 93.82C146.382 92.14 147.272 90.82 148.552 89.86C149.852 88.9 151.352 88.42 153.052 88.42C155.332 88.42 157.202 89.17 158.662 90.67C160.022 92.07 160.702 93.88 160.702 96.1V97.21C160.702 97.99 160.862 98.55 161.182 98.89C161.522 99.21 162.072 99.37 162.832 99.37ZM155.032 99.37C155.772 99.37 156.272 99.22 156.532 98.92C156.812 98.6 156.952 98.02 156.952 97.18V96.1C156.952 94.84 156.582 93.83 155.842 93.07C155.122 92.31 154.162 91.93 152.962 91.93C152.142 91.93 151.432 92.11 150.832 92.47C151.772 92.75 152.512 93.29 153.052 94.09C153.612 94.89 153.892 95.84 153.892 96.94C153.892 97.82 153.722 98.63 153.382 99.37H155.032ZM149.392 99.1C150.672 98.68 151.312 97.85 151.312 96.61C151.312 95.99 151.132 95.5 150.772 95.14C150.432 94.76 149.972 94.57 149.392 94.57C148.812 94.57 148.342 94.76 147.982 95.14C147.642 95.5 147.472 95.99 147.472 96.61C147.472 97.85 148.112 98.68 149.392 99.1ZM165.889 86.65C165.289 86.65 164.809 86.47 164.449 86.11C164.089 85.75 163.909 85.26 163.909 84.64C163.909 83.34 164.569 82.69 165.889 82.69C166.489 82.69 166.959 82.87 167.299 83.23C167.659 83.57 167.839 84.04 167.839 84.64C167.839 85.98 167.189 86.65 165.889 86.65ZM170.509 86.65C169.909 86.65 169.429 86.47 169.069 86.11C168.709 85.75 168.529 85.26 168.529 84.64C168.529 83.34 169.189 82.69 170.509 82.69C171.109 82.69 171.579 82.87 171.919 83.23C172.279 83.57 172.459 84.04 172.459 84.64C172.459 85.98 171.809 86.65 170.509 86.65ZM163.729 103V99.37H166.429C167.189 99.37 167.729 99.21 168.049 98.89C168.369 98.55 168.529 97.99 168.529 97.21V91.66L172.309 89.68V97.39C172.309 99.21 171.749 100.63 170.629 101.65C169.649 102.55 168.369 103 166.789 103H163.729Z" fill="#004556"/>
</g>
<defs>
<filter id="filter0_d_133_17560" x="87.6836" y="82.6899" width="88.7754" height="35" filterUnits="userSpaceOnUse" color-interpolation-filters="sRGB">
<feFlood flood-opacity="0" result="BackgroundImageFix"/>
<feColorMatrix in="SourceAlpha" type="matrix" values="0 0 0 0 0 0 0 0 0 0 0 0 0 0 0 0 0 0 127 0" result="hardAlpha"/>
<feOffset dy="4"/>
<feGaussianBlur stdDeviation="2"/>
<feComposite in2="hardAlpha" operator="out"/>
<feColorMatrix type="matrix" values="0 0 0 0 0 0 0 0 0 0 0 0 0 0 0 0 0 0 0.05 0"/>
<feBlend mode="normal" in2="BackgroundImageFix" result="effect1_dropShadow_133_17560"/>
<feBlend mode="normal" in="SourceGraphic" in2="effect1_dropShadow_133_17560" result="shape"/>
</filter>
<clipPath id="clip0_133_17560">
<rect width="144.618" height="223.372" fill="white" transform="translate(144.812 6) rotate(15)"/>
</clipPath>
</defs>
</svg>
