<svg width="217" height="196" viewBox="0 0 217 196" fill="none" xmlns="http://www.w3.org/2000/svg">
<g filter="url(#filter0_d_133_15086)">
<path d="M43.3252 68.344C39.6015 68.344 37.8469 64.5922 37.7679 64.4286C37.5987 64.0562 37.7623 63.6161 38.1346 63.4469C38.507 63.2776 38.9471 63.4412 39.1163 63.8136C39.1389 63.8587 40.6001 66.9392 43.438 66.8602C43.8499 66.8376 44.1884 67.1705 44.1997 67.5824C44.2109 67.9942 43.8894 68.3327 43.4775 68.344C43.4267 68.344 43.3759 68.344 43.3252 68.344Z" fill="#00B0DC"/>
<path d="M8.33908 44.4902C6.18388 44.4902 4.42362 43.2998 4.32206 43.2321C3.98355 43.0008 3.89892 42.5381 4.13024 42.1996C4.36156 41.8611 4.82419 41.7765 5.15706 42.0078C5.18527 42.0247 8.03442 43.9317 10.4322 42.4027C10.7764 42.1827 11.2334 42.2843 11.4534 42.6284C11.6734 42.9726 11.5719 43.4296 11.2277 43.6496C10.263 44.2758 9.26435 44.4902 8.33908 44.4902Z" fill="#3E6897"/>
<path opacity="0.6" d="M8.33908 44.4902C6.18388 44.4902 4.42362 43.2998 4.32206 43.2321C3.98355 43.0008 3.89892 42.5381 4.13024 42.1996C4.36156 41.8611 4.82419 41.7765 5.15706 42.0078C5.18527 42.0247 8.03442 43.9317 10.4322 42.4027C10.7764 42.1827 11.2334 42.2843 11.4534 42.6284C11.6734 42.9726 11.5719 43.4296 11.2277 43.6496C10.263 44.2758 9.26435 44.4902 8.33908 44.4902Z" fill="white"/>
<path d="M201.874 24.7097C199.719 24.7097 197.959 23.5193 197.857 23.4516C197.519 23.2203 197.434 22.7576 197.665 22.4191C197.897 22.0806 198.359 21.996 198.692 22.2273C198.72 22.2442 201.57 24.1512 203.967 22.6222C204.312 22.4022 204.769 22.5037 204.989 22.8479C205.209 23.192 205.107 23.649 204.763 23.8691C203.792 24.4897 202.794 24.7097 201.874 24.7097Z" fill="#3E6897"/>
<path opacity="0.6" d="M201.874 24.7097C199.719 24.7097 197.959 23.5193 197.857 23.4516C197.519 23.2203 197.434 22.7576 197.665 22.4191C197.897 22.0806 198.359 21.996 198.692 22.2273C198.72 22.2442 201.57 24.1512 203.967 22.6222C204.312 22.4022 204.769 22.5037 204.989 22.8479C205.209 23.192 205.107 23.649 204.763 23.8691C203.792 24.4897 202.794 24.7097 201.874 24.7097Z" fill="white"/>
<path d="M111.139 82.9792C107.68 82.9792 105.796 79.6279 105.711 79.4756C105.514 79.1145 105.644 78.6688 106.005 78.4713C106.36 78.2739 106.812 78.4036 107.009 78.7647C107.032 78.8099 108.724 81.7606 111.545 81.4785C111.951 81.439 112.318 81.7324 112.357 82.1386C112.397 82.5448 112.104 82.9115 111.697 82.951C111.506 82.9736 111.319 82.9792 111.139 82.9792Z" fill="#3E6897"/>
<path opacity="0.6" d="M111.139 82.9792C107.68 82.9792 105.796 79.6279 105.711 79.4756C105.514 79.1145 105.644 78.6688 106.005 78.4713C106.36 78.2739 106.812 78.4036 107.009 78.7647C107.032 78.8099 108.724 81.7606 111.545 81.4785C111.951 81.439 112.318 81.7324 112.357 82.1386C112.397 82.5448 112.104 82.9115 111.697 82.951C111.506 82.9736 111.319 82.9792 111.139 82.9792Z" fill="white"/>
<path d="M16.464 98.0542C16.1312 98.0542 15.8265 97.8285 15.7475 97.49C15.6516 97.0951 15.8942 96.6945 16.2891 96.593C16.323 96.5873 19.6348 95.7185 20.0861 92.9145C20.1538 92.5082 20.5318 92.2374 20.938 92.2995C21.3443 92.3616 21.6151 92.7452 21.553 93.1458C20.9437 96.9315 16.8251 97.9865 16.6502 98.0316C16.5825 98.0486 16.5261 98.0542 16.464 98.0542Z" fill="#3E6897"/>
<path opacity="0.6" d="M16.464 98.0542C16.1312 98.0542 15.8265 97.8285 15.7475 97.49C15.6516 97.0951 15.8942 96.6945 16.2891 96.593C16.323 96.5873 19.6348 95.7185 20.0861 92.9145C20.1538 92.5082 20.5318 92.2374 20.938 92.2995C21.3443 92.3616 21.6151 92.7452 21.553 93.1458C20.9437 96.9315 16.8251 97.9865 16.6502 98.0316C16.5825 98.0486 16.5261 98.0542 16.464 98.0542Z" fill="black"/>
<path d="M181.183 46.6286C180.85 46.6286 180.545 46.4029 180.466 46.0644C180.37 45.6694 180.613 45.2689 181.008 45.1673C181.042 45.1617 184.354 44.2928 184.805 41.4888C184.867 41.0826 185.251 40.8118 185.657 40.8738C186.063 40.9359 186.334 41.3195 186.272 41.7201C185.662 45.5058 181.544 46.5608 181.369 46.606C181.301 46.6229 181.239 46.6286 181.183 46.6286Z" fill="#3E6897"/>
<path opacity="0.6" d="M181.183 46.6286C180.85 46.6286 180.545 46.4029 180.466 46.0644C180.37 45.6694 180.613 45.2689 181.008 45.1673C181.042 45.1617 184.354 44.2928 184.805 41.4888C184.867 41.0826 185.251 40.8118 185.657 40.8738C186.063 40.9359 186.334 41.3195 186.272 41.7201C185.662 45.5058 181.544 46.5608 181.369 46.606C181.301 46.6229 181.239 46.6286 181.183 46.6286Z" fill="black"/>
<path d="M211.523 74.7532C211.483 74.7532 211.438 74.7476 211.393 74.7419C211.213 74.7137 207.032 73.9408 206.163 70.2059C206.073 69.8053 206.321 69.4103 206.716 69.3144C207.117 69.2242 207.511 69.4724 207.607 69.8673C208.251 72.6375 211.613 73.2694 211.647 73.275C212.048 73.3484 212.318 73.732 212.245 74.1326C212.189 74.4993 211.878 74.7532 211.523 74.7532Z" fill="#3E6897"/>
<path d="M198.296 101.953C197.162 101.953 195.893 101.659 194.747 100.706C194.431 100.446 194.392 99.9781 194.651 99.6621C194.911 99.3462 195.379 99.3067 195.695 99.5662C197.878 101.383 200.942 99.8596 200.976 99.8427C201.343 99.6565 201.788 99.8032 201.974 100.164C202.161 100.525 202.02 100.971 201.653 101.163C201.557 101.219 200.096 101.953 198.296 101.953Z" fill="#00B0DC"/>
<path d="M163.689 9.36947C163.565 9.36947 163.441 9.34126 163.328 9.27356C163.17 9.18329 159.486 7.0563 159.92 3.24803C159.965 2.84181 160.332 2.54844 160.738 2.59357C161.145 2.63871 161.438 3.00543 161.393 3.41165C161.071 6.23823 164.028 7.96464 164.056 7.98157C164.411 8.18468 164.535 8.63603 164.332 8.99146C164.197 9.23407 163.943 9.36947 163.689 9.36947Z" fill="#00B0DC"/>
<path d="M16.3433 12.3711C15.9653 12.3711 15.638 12.0777 15.6042 11.694C15.5703 11.2878 15.8693 10.9267 16.2812 10.8929C19.1134 10.6503 20.2192 7.40621 20.2249 7.37236C20.3546 6.98307 20.7721 6.77432 21.1614 6.89844C21.5507 7.0282 21.7595 7.44006 21.6353 7.82935C21.5789 7.99861 20.2249 12.0326 16.4053 12.3654C16.3884 12.3711 16.3658 12.3711 16.3433 12.3711Z" fill="#3E6897"/>
<path d="M71.3919 34.6959C69.3834 35.6268 67.6232 40.1347 68.193 46.6003C68.7685 53.0658 55.3746 48.5298 53.558 55.7739C50.2687 68.8857 72.3229 76.7674 81.7222 68.8857C87.539 64.0111 93.006 47.943 92.2048 39.1755C91.3473 29.748 76.7235 23.4234 71.3919 34.6959Z" fill="#263238"/>
<path d="M92.5566 51.2378C92.8049 51.1701 93.166 51.0573 93.4763 50.9557L94.4467 50.6285C95.0955 50.4028 95.7387 50.1546 96.3762 49.8838C97.6513 49.3535 98.9038 48.778 100.094 48.1066C102.464 46.7751 104.681 45.1615 106.362 43.2038C107.959 41.3081 109.104 38.7185 110.001 36.0725C110.458 34.741 110.842 33.37 111.175 31.9765C111.519 30.5942 111.807 29.1555 112.049 27.7845L114.351 27.9312C114.363 31.0061 114.013 33.9906 113.358 37.009C113.02 38.5098 112.585 40.0105 111.999 41.4887C111.406 42.9612 110.684 44.4337 109.646 45.8047C107.637 48.4508 105.104 50.4875 102.39 52.0954C101.031 52.8966 99.6316 53.6074 98.1929 54.2224C97.4707 54.5214 96.7429 54.8035 96.0038 55.063C95.6315 55.1928 95.2591 55.3169 94.8811 55.4298C94.4918 55.5482 94.142 55.6442 93.6794 55.7626L92.5566 51.2378Z" fill="#E8BFBF"/>
<path d="M114.327 28.7043L115.286 25.2571L111.478 25.5561C111.478 25.5561 111.207 27.8129 112.522 29.1725L114.327 28.7043Z" fill="#E8BFBF"/>
<path d="M115.857 21.2513L112.381 22.1597L111.479 25.5561L115.287 25.2571L115.857 21.2513Z" fill="#E8BFBF"/>
<path d="M88.2454 52.1124C90.0001 50.5214 94.4572 49.3027 94.4572 49.3027L99.3374 56.671C99.3374 56.671 93.7689 60.3834 91.3993 59.5202C88.9394 58.6231 86.6093 53.6018 88.2454 52.1124Z" fill="#DF88B5"/>
<path d="M72.1699 156.442L75.2109 159.782L83.9389 153.559L80.8979 150.225L72.1699 156.442Z" fill="#E8BFBF"/>
<path d="M55.0059 169.638L59.0849 171.658L65.0823 162.863L61.0032 160.837L55.0059 169.638Z" fill="#E8BFBF"/>
<path d="M59.7344 171.162L56.5862 167.128C56.4734 166.981 56.2759 166.942 56.1179 167.032L52.5692 169.063C52.2025 169.272 52.1122 169.802 52.3774 170.135C53.5001 171.523 54.1094 172.138 55.4917 173.909C56.3436 174.998 58.0644 177.543 59.2435 179.049C60.3945 180.522 61.9742 179.472 61.6188 178.739C60.0277 175.455 59.9262 173.503 59.9826 171.929C59.9939 171.653 59.9036 171.376 59.7344 171.162Z" fill="#263238"/>
<path d="M76.1193 159.844L74.0431 154.857C73.9697 154.676 73.7722 154.563 73.5748 154.592L69.1798 155.15C68.7228 155.207 68.4632 155.669 68.6438 156.087C69.3998 157.819 69.8568 158.626 70.7651 160.82C71.3293 162.169 72.6382 165.717 73.4112 167.579C74.1672 169.402 76.1701 169.018 76.0234 168.194C75.3633 164.499 75.5833 162.124 76.1362 160.668C76.2434 160.403 76.2321 160.109 76.1193 159.844Z" fill="#263238"/>
<path opacity="0.2" d="M83.9318 153.565L79.4353 156.769L76.0332 153.683L80.8909 150.225L83.9318 153.565Z" fill="black"/>
<path opacity="0.2" d="M61.0056 160.843L65.0847 162.868L61.9873 167.399L57.9082 165.373L61.0056 160.843Z" fill="black"/>
<path d="M94.3873 52.6822C94.3873 52.6822 94.5283 52.4791 92.0572 79.4417C84.734 79.9551 77.1683 80.4854 73.6082 80.7337C73.3938 73.2018 73.958 67.8927 70.4375 52.4284C70.4375 52.4284 74.3191 51.6046 78.2966 51.4354C81.411 51.3 83.9611 51.2153 86.6974 51.4805C90.2969 51.8247 94.3873 52.6822 94.3873 52.6822Z" fill="#DF88B5"/>
<path d="M71.8257 56.8968C70.4547 56.2593 69.253 55.5879 68.0062 54.8714C66.7762 54.1605 65.5801 53.3819 64.4066 52.5695C62.0596 50.9446 59.8085 49.1392 57.7774 47.0292L57.0271 46.2224L56.8352 46.0193C56.728 45.8895 56.6152 45.7597 56.5249 45.63C56.3331 45.3648 56.1977 45.0996 56.0736 44.8345C55.6222 43.7907 55.5545 42.8824 55.532 42.0474C55.515 40.3887 55.8028 38.9387 56.1413 37.517C56.8691 34.696 57.8621 32.0895 59.1089 29.5337L61.2585 30.363C60.9312 31.6438 60.6097 32.9752 60.3332 34.2785C60.0455 35.5874 59.8141 36.8963 59.6505 38.1827C59.4869 39.4578 59.3966 40.7498 59.5038 41.8386C59.5546 42.3746 59.6957 42.8485 59.8198 43.0573C59.8536 43.1024 59.8762 43.1419 59.8931 43.1475C59.8988 43.1588 59.9044 43.1532 59.9101 43.1532L60.0793 43.3168L60.7733 43.9825C62.6577 45.7259 64.779 47.2887 66.9737 48.7443C68.0739 49.4721 69.2192 50.1435 70.3532 50.8149C71.4816 51.475 72.6889 52.1238 73.7947 52.6823L71.8257 56.8968Z" fill="#E8BFBF"/>
<path d="M77.6996 53.4553C75.6064 50.5384 71.5161 50.5835 71.5161 50.5835L66.5625 57.9011C66.5625 57.9011 72.0972 61.6698 74.4724 60.8348C76.9379 59.9603 78.9916 55.255 77.6996 53.4553Z" fill="#DF88B5"/>
<path d="M86.691 51.4748L78.2902 51.4297C77.0095 51.9487 76.2592 55.2944 84.7841 58.1322C90.6911 54.7753 87.5486 51.7908 86.691 51.4748Z" fill="white"/>
<path d="M79.177 41.9796C79.6904 44.6821 80.1925 49.6413 78.2969 51.4298C78.2969 51.4298 79.0303 54.1774 84.7907 58.1323C88.8246 54.0871 86.6976 51.4749 86.6976 51.4749C83.6905 50.7415 83.7751 48.5016 84.3111 46.4085L79.177 41.9796Z" fill="#E8BFBF"/>
<path d="M96.5939 68.8124C96.5657 68.8124 96.5319 68.8124 96.5037 68.8067C95.8831 68.7559 95.4204 68.2143 95.4712 67.5937C95.6743 65.0774 93.7899 63.1761 91.6065 60.9758C89.1015 58.4539 86.2693 55.5934 86.1508 51.142C86.1339 50.5214 86.6247 50.0023 87.251 49.9854C87.8716 49.9685 88.3906 50.4593 88.4076 51.0856C88.4978 54.64 90.89 57.0547 93.2088 59.3904C95.5671 61.7713 98.01 64.2312 97.7223 67.7799C97.6715 68.3667 97.1807 68.8124 96.5939 68.8124Z" fill="#007490"/>
<path d="M80.083 74.5276C79.9927 74.5276 79.9024 74.5163 79.8122 74.4937C79.2085 74.347 78.8361 73.7321 78.9885 73.1284C80.0774 68.7052 78.65 65.241 77.1379 61.5738C75.7839 58.2902 74.3847 54.8938 75.0674 50.9219C75.1746 50.307 75.7557 49.8951 76.3706 50.0023C76.9856 50.1095 77.3975 50.6906 77.2903 51.3056C76.7204 54.6343 77.9391 57.5907 79.2254 60.7163C80.7374 64.3778 82.4469 68.5359 81.1832 73.67C81.0478 74.1834 80.5908 74.5276 80.083 74.5276Z" fill="#007490"/>
<path opacity="0.2" d="M83.2518 45.4945L80.9668 45.7597C81.0119 46.0756 81.2432 46.9388 81.61 47.4748C82.0557 48.1462 83.0486 48.4452 84.0303 48.4678C84.0078 47.8077 84.1375 47.0968 84.3124 46.4085L83.2518 45.4945Z" fill="black"/>
<path d="M74.1838 39.2659C75.8369 43.4748 76.4406 45.2915 79.3236 46.7922C83.6565 49.0546 88.4634 46.1039 88.1023 41.4888C87.7807 37.3364 85.1347 31.1529 80.3786 30.8031C75.6958 30.459 72.5364 35.0571 74.1838 39.2659Z" fill="#E8BFBF"/>
<path d="M78.7131 30.1882C81.929 32.1628 79.1758 43.7851 73.7426 43.1814C68.3095 42.5834 73.9683 27.2769 78.7131 30.1882Z" fill="#263238"/>
<path d="M78.5973 30.2277C76.177 31.8356 77.8244 34.634 85.9826 32.9809C85.9882 32.9809 82.6144 27.5647 78.5973 30.2277Z" fill="#263238"/>
<path d="M74.7694 43.3563C75.1418 44.2138 75.8808 44.8232 76.603 45.094C77.6862 45.5002 78.3294 44.5524 78.1094 43.4804C77.9119 42.51 77.1108 41.1334 75.9824 41.1898C74.8709 41.2406 74.3406 42.3746 74.7694 43.3563Z" fill="#E8BFBF"/>
<path d="M92.0523 79.4417C92.0523 79.4417 101.926 111.674 102.721 125.541C103.545 139.968 82.1226 157.085 82.1226 157.085L76.791 151.235C76.791 151.235 94.1962 136.453 91.8097 125.745C88.5205 110.985 78.5456 80.3895 78.5456 80.3895L92.0523 79.4417Z" fill="#263238"/>
<path opacity="0.2" d="M85.9077 89.992C84.9993 87.1598 82.9965 89.0724 82.2969 92.057C83.6904 96.5535 85.304 101.851 86.8386 107.138C87.431 102.444 87.6736 95.5211 85.9077 89.992Z" fill="black"/>
<path d="M75.3574 150.953L82.122 157.932L85.0163 156.335L77.8624 148.555L75.3574 150.953Z" fill="#263238"/>
<path d="M87.1835 79.7858C87.1835 79.7858 84.3738 111.375 81.5416 128.977C79.251 143.195 63.7358 166.417 63.7358 166.417L58.0488 163.771C58.0488 163.771 68.4807 138.901 70.1055 129.237C75.3186 98.3024 68.2719 89.3826 73.6091 80.7336L87.1835 79.7858Z" fill="#263238"/>
<path d="M57.6465 163.827L64.0613 166.981L66.1657 164.363L58.662 160.831L57.6465 163.827Z" fill="#263238"/>
<path d="M73.2512 79.6731L72.5347 81.3826C72.4783 81.518 72.6419 81.6364 72.8506 81.6195L92.2023 80.2655C92.3659 80.2542 92.5013 80.1639 92.5013 80.0567L92.5521 78.3924C92.5577 78.2795 92.4054 78.1893 92.2248 78.2005L73.5389 79.5095C73.4035 79.5207 73.2851 79.5884 73.2512 79.6731Z" fill="white"/>
<path d="M75.9058 81.5855L75.4037 81.6193C75.3021 81.625 75.2232 81.5799 75.2288 81.5178L75.3134 79.357C75.3134 79.2949 75.3981 79.2385 75.4996 79.2272L76.0017 79.1933C76.1033 79.1877 76.1823 79.2328 76.1766 79.2949L76.092 81.4557C76.092 81.5178 76.0074 81.5799 75.9058 81.5855Z" fill="#263238"/>
<path d="M90.8101 80.5418L90.308 80.5757C90.2064 80.5813 90.1275 80.5362 90.1331 80.4741L90.2177 78.3133C90.2177 78.2512 90.3024 78.1948 90.4039 78.1835L90.906 78.1496C91.0076 78.144 91.0866 78.1891 91.0809 78.2512L90.9963 80.412C90.9907 80.4797 90.906 80.5362 90.8101 80.5418Z" fill="#263238"/>
<path d="M83.357 81.0608L82.8549 81.0947C82.7533 81.1003 82.6743 81.0552 82.68 80.9931L82.7646 78.8323C82.7646 78.7702 82.8492 78.7138 82.9508 78.7025L83.4529 78.6687C83.5545 78.663 83.6335 78.7082 83.6278 78.7702L83.5432 80.9311C83.5432 80.9988 83.4586 81.0552 83.357 81.0608Z" fill="#263238"/>
<path d="M80.9853 37.6861C80.7145 37.7763 80.6017 38.1826 80.7371 38.6057L81.7244 38.2841C81.589 37.861 81.2561 37.5958 80.9853 37.6861Z" fill="#263238"/>
<path d="M85.2666 36.3208C84.9957 36.4111 84.8829 36.8173 85.0183 37.2405L86.0113 36.9189C85.8702 36.5014 85.5374 36.2306 85.2666 36.3208Z" fill="#263238"/>
<path d="M85.1523 36.3828L86.0607 35.7678C86.0607 35.7678 85.8012 36.7213 85.1523 36.3828Z" fill="#263238"/>
<path d="M84.1875 38.0247C84.1875 38.0247 85.2651 39.3392 86.1565 39.8526C85.8349 40.4337 84.9887 40.4902 84.9887 40.4902L84.1875 38.0247Z" fill="#630F0F"/>
<path d="M84.2322 42.2449C84.2661 42.2167 84.2774 42.1715 84.2661 42.132C84.2492 42.0756 84.1871 42.0418 84.1307 42.0643C82.6017 42.5608 81.5354 41.7202 81.5241 41.7089C81.479 41.6694 81.4113 41.6751 81.3718 41.7258C81.3323 41.771 81.3436 41.8387 81.3887 41.8782C81.4339 41.9177 82.551 42.7978 84.1984 42.2674C84.2097 42.2562 84.2209 42.2505 84.2322 42.2449Z" fill="#263238"/>
<path d="M79.5553 37.4322C79.5835 37.4097 79.6061 37.3758 79.6174 37.342C79.9333 36.4336 80.7006 36.2362 80.7119 36.2305C80.8304 36.2023 80.8981 36.0838 80.8699 35.971C80.8416 35.8525 80.7232 35.7848 80.6103 35.813C80.5708 35.8243 79.6061 36.0725 79.2111 37.2009C79.1716 37.3138 79.2337 37.4379 79.3465 37.4774C79.4199 37.4999 79.4989 37.4774 79.5553 37.4322Z" fill="#263238"/>
<path d="M86.3132 34.6452C86.3245 34.6339 86.3301 34.6283 86.3414 34.617C86.4147 34.5211 86.3978 34.3857 86.3075 34.3123C85.371 33.5732 84.4232 33.8779 84.3837 33.8892C84.2708 33.9287 84.2088 34.0471 84.2483 34.16C84.2877 34.2728 84.4062 34.3349 84.5191 34.2954C84.5529 34.2841 85.292 34.0584 86.0367 34.6452C86.1214 34.7185 86.2398 34.7129 86.3132 34.6452Z" fill="#263238"/>
<path d="M63.7132 31.215C63.5834 31.215 63.448 31.1811 63.3239 31.1021L46.1557 20.5293C45.8059 20.3149 45.6987 19.8579 45.9131 19.5081C46.1274 19.1583 46.5844 19.0511 46.9342 19.2655L64.1025 29.8384C64.4523 30.0527 64.5595 30.5097 64.3451 30.8595C64.204 31.0909 63.9614 31.215 63.7132 31.215Z" fill="#3E6897"/>
<path d="M50.0467 21.7027C51.0058 21.6575 52.0044 21.6124 52.1342 20.7492C52.264 19.886 51.3274 19.5475 50.4247 19.2202C50.3514 19.192 50.2667 19.1638 50.1821 19.13C50.1652 19.0454 50.1426 18.9607 50.1201 18.8761C50.1878 18.7971 50.2611 18.7238 50.3175 18.6561C50.9494 17.9565 51.6095 17.2343 51.1017 16.546C50.594 15.8577 49.7082 16.2695 48.8563 16.6645C48.7773 16.6983 48.687 16.7435 48.5911 16.7886C48.5178 16.7435 48.4444 16.6983 48.3711 16.6532C48.3654 16.5629 48.3598 16.4727 48.3598 16.3937C48.3146 15.4345 48.2695 14.4359 47.4063 14.3062C46.5431 14.1764 46.2046 15.113 45.8774 16.0157C45.8491 16.089 45.8209 16.1736 45.7871 16.2583C45.7025 16.2752 45.6178 16.2978 45.5332 16.3203C45.4542 16.2526 45.3809 16.1793 45.3132 16.1229C44.6136 15.491 43.8914 14.8309 43.2031 15.3443C42.5148 15.852 42.9267 16.7378 43.3216 17.5897C43.3554 17.6687 43.4006 17.759 43.4457 17.8549C43.4006 17.9283 43.3554 18.0016 43.3103 18.0749C43.22 18.0806 43.1298 18.0862 43.0508 18.0862C42.0917 18.1314 41.093 18.1765 40.9633 19.0397C40.8335 19.9029 41.7701 20.2414 42.6728 20.5687C42.7461 20.5969 42.8307 20.6251 42.9154 20.6589C42.9323 20.7436 42.9549 20.8282 42.9774 20.9128C42.9097 20.9918 42.8364 21.0651 42.78 21.1328C42.1481 21.8324 41.488 22.5546 42.0014 23.2429C42.5091 23.9312 43.3949 23.5194 44.2469 23.1244C44.3258 23.0906 44.4161 23.0454 44.512 23.0003C44.5854 23.0454 44.6587 23.0906 44.7321 23.1357C44.7377 23.226 44.7433 23.3163 44.7433 23.3952C44.7885 24.3544 44.8336 25.353 45.6968 25.4827C46.56 25.6125 46.8985 24.6759 47.2258 23.7732C47.254 23.6999 47.2822 23.6153 47.316 23.5306C47.4007 23.5137 47.4853 23.4912 47.5699 23.4686C47.6489 23.5363 47.7222 23.604 47.79 23.6661C48.4895 24.2979 49.2117 24.958 49.9 24.4503C50.594 23.9425 50.1821 23.0567 49.7815 22.2048C49.7477 22.1258 49.7025 22.0355 49.6574 21.9396C49.7025 21.8663 49.7477 21.7929 49.7928 21.7196C49.8831 21.714 49.9734 21.7083 50.0467 21.7027Z" fill="#3E6897"/>
<path opacity="0.7" d="M50.0467 21.7027C51.0058 21.6575 52.0044 21.6124 52.1342 20.7492C52.264 19.886 51.3274 19.5475 50.4247 19.2202C50.3514 19.192 50.2667 19.1638 50.1821 19.13C50.1652 19.0454 50.1426 18.9607 50.1201 18.8761C50.1878 18.7971 50.2611 18.7238 50.3175 18.6561C50.9494 17.9565 51.6095 17.2343 51.1017 16.546C50.594 15.8577 49.7082 16.2695 48.8563 16.6645C48.7773 16.6983 48.687 16.7435 48.5911 16.7886C48.5178 16.7435 48.4444 16.6983 48.3711 16.6532C48.3654 16.5629 48.3598 16.4727 48.3598 16.3937C48.3146 15.4345 48.2695 14.4359 47.4063 14.3062C46.5431 14.1764 46.2046 15.113 45.8774 16.0157C45.8491 16.089 45.8209 16.1736 45.7871 16.2583C45.7025 16.2752 45.6178 16.2978 45.5332 16.3203C45.4542 16.2526 45.3809 16.1793 45.3132 16.1229C44.6136 15.491 43.8914 14.8309 43.2031 15.3443C42.5148 15.852 42.9267 16.7378 43.3216 17.5897C43.3554 17.6687 43.4006 17.759 43.4457 17.8549C43.4006 17.9283 43.3554 18.0016 43.3103 18.0749C43.22 18.0806 43.1298 18.0862 43.0508 18.0862C42.0917 18.1314 41.093 18.1765 40.9633 19.0397C40.8335 19.9029 41.7701 20.2414 42.6728 20.5687C42.7461 20.5969 42.8307 20.6251 42.9154 20.6589C42.9323 20.7436 42.9549 20.8282 42.9774 20.9128C42.9097 20.9918 42.8364 21.0651 42.78 21.1328C42.1481 21.8324 41.488 22.5546 42.0014 23.2429C42.5091 23.9312 43.3949 23.5194 44.2469 23.1244C44.3258 23.0906 44.4161 23.0454 44.512 23.0003C44.5854 23.0454 44.6587 23.0906 44.7321 23.1357C44.7377 23.226 44.7433 23.3163 44.7433 23.3952C44.7885 24.3544 44.8336 25.353 45.6968 25.4827C46.56 25.6125 46.8985 24.6759 47.2258 23.7732C47.254 23.6999 47.2822 23.6153 47.316 23.5306C47.4007 23.5137 47.4853 23.4912 47.5699 23.4686C47.6489 23.5363 47.7222 23.604 47.79 23.6661C48.4895 24.2979 49.2117 24.958 49.9 24.4503C50.594 23.9425 50.1821 23.0567 49.7815 22.2048C49.7477 22.1258 49.7025 22.0355 49.6574 21.9396C49.7025 21.8663 49.7477 21.7929 49.7928 21.7196C49.8831 21.714 49.9734 21.7083 50.0467 21.7027Z" fill="#F1B7D5"/>
<path d="M58.59 31.3954L57.8848 26.8762L62.4885 29.1104C62.4885 29.1104 62.4039 29.9341 61.3376 31.102C60.858 31.6267 60.119 31.8411 59.4363 31.6436L58.59 31.3954Z" fill="#E8BFBF"/>
<path d="M60.4687 24.6647L62.8271 26.7409L62.4885 29.1105L57.8848 26.8763L60.4687 24.6647Z" fill="#E8BFBF"/>
<path d="M61.2114 173.323C61.2565 173.289 61.3017 173.255 61.3468 173.21C61.4766 173.08 61.4766 172.945 61.454 172.854C61.3186 172.29 59.7614 171.749 59.5865 171.686C59.5471 171.675 59.5019 171.686 59.4737 171.715C59.4455 171.749 59.4399 171.794 59.4568 171.833C59.7107 172.386 60.2184 173.323 60.7883 173.418C60.935 173.447 61.0816 173.413 61.2114 173.323ZM59.7614 171.98C60.3764 172.217 61.1719 172.606 61.2453 172.905C61.2565 172.945 61.2565 172.995 61.1945 173.057C61.076 173.182 60.9575 173.227 60.8221 173.204C60.5118 173.153 60.1282 172.702 59.7614 171.98Z" fill="#3E6897"/>
<path d="M61.5022 171.816C61.5417 171.788 61.5756 171.76 61.6038 171.732C61.6715 171.658 61.7561 171.495 61.6207 171.258C61.5304 171.111 61.4007 171.021 61.2258 170.987C60.5769 170.868 59.5388 171.669 59.4937 171.703C59.4655 171.726 59.4486 171.765 59.4542 171.805C59.4598 171.844 59.4824 171.878 59.5219 171.89C59.9394 172.064 61.0565 172.115 61.5022 171.816ZM59.8209 171.726C60.1877 171.478 60.8026 171.128 61.1806 171.196C61.2935 171.218 61.3724 171.275 61.4289 171.365C61.5022 171.483 61.4684 171.545 61.4345 171.585C61.2258 171.827 60.3287 171.873 59.7871 171.743C59.7984 171.743 59.8096 171.737 59.8209 171.726Z" fill="#3E6897"/>
<path d="M76.222 162.4C76.3799 162.784 76.5887 163.122 76.8595 163.274C77.0457 163.382 77.2375 163.399 77.4462 163.331C77.5986 163.28 77.6494 163.173 77.6663 163.094C77.7848 162.513 76.3066 161.136 76.0076 160.865C75.9737 160.831 75.9229 160.826 75.8835 160.848C75.844 160.871 75.8214 160.916 75.827 160.961C75.8947 161.362 76.0189 161.92 76.222 162.4ZM77.4124 162.834C77.4462 162.919 77.4632 162.992 77.4519 163.049C77.4463 163.077 77.435 163.105 77.3729 163.128C77.2319 163.178 77.0965 163.167 76.9667 163.094C76.6225 162.891 76.3066 162.214 76.1035 161.255C76.6225 161.757 77.2431 162.434 77.4124 162.834Z" fill="#3E6897"/>
<path d="M75.8316 160.984C75.8373 160.995 75.8429 161.006 75.8542 161.018C76.3168 161.486 77.6991 162.242 78.1448 161.982C78.2407 161.926 78.3422 161.802 78.2633 161.531C77.9699 160.493 75.9952 160.82 75.9106 160.837C75.8711 160.843 75.8373 160.871 75.826 160.911C75.8203 160.939 75.8203 160.961 75.8316 160.984ZM78.0319 161.525C78.0432 161.548 78.0489 161.571 78.0545 161.593C78.0827 161.7 78.0771 161.774 78.0319 161.796C77.7724 161.949 76.7287 161.463 76.1758 161.018C76.6666 160.973 77.7837 160.927 78.0319 161.525Z" fill="#3E6897"/>
<path d="M80.8711 37.7483L81.7794 37.1333C81.7794 37.1333 81.5199 38.0811 80.8711 37.7483Z" fill="#263238"/>
<path d="M154.63 185.543L150.257 185.548L149.078 175.421L153.451 175.416L154.63 185.543Z" fill="#FFC3BD"/>
<path d="M192.265 166.755L188.953 169.61L181.455 162.71L184.761 159.855L192.265 166.755Z" fill="#FFC3BD"/>
<path d="M188.312 169.503L192.346 166.016C192.481 165.898 192.673 165.898 192.814 166.005L195.889 168.487C196.21 168.747 196.205 169.249 195.889 169.514C194.574 170.614 193.564 171.353 191.928 172.764C190.924 173.633 187.979 176.363 186.585 177.56C185.225 178.733 183.883 177.497 184.351 176.877C186.438 174.095 187.73 171.641 187.939 170.174C187.979 169.915 188.114 169.672 188.312 169.503Z" fill="#263238"/>
<path d="M150.284 185.041L155.057 185.035C155.237 185.035 155.39 185.159 155.429 185.334L156.298 189.221C156.388 189.622 156.084 190.006 155.672 190C153.951 189.972 151.463 189.876 149.297 189.882C146.763 189.887 145.285 189.949 142.318 189.955C140.523 189.955 140.021 188.144 140.772 187.98C144.191 187.23 146.278 187.219 149.234 185.391C149.556 185.187 149.906 185.041 150.284 185.041Z" fill="#263238"/>
<path d="M136.085 59.8587C135.205 59.5259 134.449 59.2099 133.659 58.8488C132.875 58.499 132.107 58.1323 131.34 57.7543C129.811 56.987 128.31 56.1577 126.844 55.2437C125.365 54.3466 123.938 53.3254 122.55 52.2253C122.206 51.9432 121.856 51.6667 121.518 51.3733L120.513 50.4537C120.181 50.1491 119.865 49.7993 119.543 49.472C119.379 49.2971 119.233 49.1617 119.052 48.9473C118.872 48.7329 118.685 48.5242 118.522 48.3098C117.856 47.4466 117.371 46.5665 116.965 45.6863C116.553 44.8062 116.231 43.9317 115.96 43.0629C115.424 41.3195 115.092 39.5987 114.86 37.8836C114.403 34.4533 114.347 31.1134 114.612 27.6944L117.896 27.6605C118.116 29.1895 118.353 30.7974 118.668 32.3433C118.967 33.8948 119.3 35.435 119.707 36.9245C120.107 38.4139 120.57 39.8696 121.14 41.201C121.687 42.5325 122.392 43.7399 123.126 44.5749L123.402 44.857C123.487 44.9472 123.656 45.0826 123.78 45.1955C124.051 45.4268 124.299 45.6694 124.587 45.8951C125.157 46.3464 125.732 46.7921 126.347 47.2153C127.571 48.0672 128.852 48.874 130.195 49.6244C131.538 50.3747 132.909 51.0969 134.308 51.7739C135.007 52.1181 135.707 52.4566 136.412 52.7725C137.106 53.0885 137.857 53.4157 138.488 53.6865L136.085 59.8587Z" fill="#FFC3BD"/>
<path d="M136.772 63.5879C133.178 61.4496 129.742 58.3297 129.742 58.3297L131.486 49.3986C131.486 49.3986 136.874 50.9557 141.353 51.5538C146.854 52.2872 140.693 65.9236 136.772 63.5879Z" fill="#263238"/>
<path d="M117.957 28.473L118.262 22.9044L113.641 24.3882C113.641 24.3882 112.558 28.377 115.565 29.4264L117.957 28.473Z" fill="#FFC3BD"/>
<path d="M117.71 19.9028L113.891 21.4938L113.643 24.3881L118.269 22.9043L117.71 19.9028Z" fill="#FFC3BD"/>
<path opacity="0.2" d="M149.078 175.427L149.687 180.646L154.06 180.64L153.456 175.421L149.078 175.427Z" fill="black"/>
<path opacity="0.2" d="M184.767 159.855L181.455 162.716L185.325 166.27L188.632 163.41L184.767 159.855Z" fill="black"/>
<path d="M158.166 51.3959C158.206 50.0926 157.185 48.9981 155.881 48.9698C143.402 48.7385 135.283 52.2365 134.724 52.4622C134.296 52.6314 133.997 53.0094 133.918 53.4608C133.399 56.5864 131.926 69.6868 139.142 90.1894C146.115 89.1964 158.9 87.3741 162.296 86.8833C161.958 83.4699 157.647 67.8024 158.166 51.3959Z" fill="#BCD0E6"/>
<path d="M139.48 50.8937C138.109 52.7273 137.489 56.9531 142.031 60.0448C147.616 55.8755 150.482 51.3902 151.345 49.0544C146.386 49.3196 142.341 50.1264 139.48 50.8937Z" fill="white"/>
<path d="M138.419 52.6088C137.799 52.6088 137.291 52.1011 137.291 51.4805C137.291 50.5495 138.098 49.7428 138.775 49.235C141.065 47.5086 145.528 46.2504 151.176 47.8753C151.774 48.0502 152.118 48.6708 151.949 49.2745C151.774 49.8725 151.153 50.2167 150.549 50.0474C144.005 48.1574 139.977 50.8429 139.536 51.6159C139.474 52.1744 139.001 52.6088 138.419 52.6088Z" fill="#007490"/>
<path d="M147.797 38.3236C147.628 41.579 147.837 47.4691 150.353 49.2632C148.875 51.2209 146.906 53.5172 143.165 54.1886C140.92 54.5892 140.136 53.7542 140.04 52.6991C139.944 51.6723 140.525 50.685 141.416 50.1659C143.848 48.7555 143.363 46.4874 142.488 44.3379L147.797 38.3236Z" fill="#FFC3BD"/>
<path d="M138.076 78.4939C137.952 78.4939 137.822 78.4713 137.698 78.4318C137.111 78.2231 136.801 77.5799 137.01 76.9931C137.405 75.8817 137.207 75.3401 136.92 74.5276L136.807 74.2061C136.705 73.9183 136.372 73.5516 136.051 73.1962C135.537 72.632 134.962 71.9944 134.77 71.1425C134.561 70.2173 134.855 69.3484 135.086 68.6544C135.21 68.2821 135.351 67.8533 135.329 67.6333C135.295 67.3399 135.052 66.9111 134.815 66.5049C134.437 65.8561 134.014 65.117 134.02 64.2594C134.025 63.3003 134.516 62.5387 134.911 61.9237C135.103 61.6303 135.334 61.2636 135.357 61.0774C135.391 60.8122 135.312 60.5583 135.176 60.1634C134.996 59.6218 134.77 58.9504 134.984 58.1323C135.238 57.1676 135.864 56.6147 136.327 56.2141C136.536 56.0336 136.75 55.8474 136.795 55.7233C136.891 55.4976 136.857 55.2719 136.795 54.8883C136.711 54.3692 136.598 53.664 137.049 52.9475C137.444 52.3325 137.405 52.1689 137.371 52.0391C137.337 51.8981 137.281 51.6893 137.298 51.4298C137.331 50.8092 137.862 50.3353 138.482 50.3578C139.069 50.386 139.532 50.8656 139.554 51.4467L139.56 51.4806C139.724 52.1181 139.763 52.8798 138.979 54.1266C138.979 54.2056 139.007 54.3861 139.03 54.5215C139.109 55.0067 139.233 55.7458 138.889 56.5808C138.635 57.1958 138.183 57.5907 137.817 57.9123C137.455 58.2283 137.247 58.4201 137.173 58.6965C137.134 58.8545 137.202 59.0745 137.326 59.4469C137.489 59.9434 137.698 60.5696 137.602 61.3482C137.518 62.0478 137.145 62.6289 136.812 63.1423C136.553 63.5485 136.282 63.966 136.282 64.2707C136.282 64.5133 136.542 64.9703 136.778 65.3709C137.117 65.9576 137.501 66.6177 137.585 67.3794C137.664 68.0959 137.439 68.7673 137.241 69.3653C137.083 69.8392 136.92 70.3301 136.987 70.646C137.049 70.9168 137.416 71.3174 137.738 71.6785C138.195 72.1806 138.708 72.7448 138.956 73.4726L139.058 73.766C139.396 74.7082 139.814 75.8761 139.154 77.7435C138.979 78.2005 138.544 78.4939 138.076 78.4939Z" fill="#007490"/>
<path d="M157.958 51.2098C158.573 51.7684 159.08 52.2479 159.605 52.7896C160.124 53.3199 160.632 53.8559 161.134 54.3975C162.138 55.4807 163.086 56.6204 164 57.7996C165.817 60.1691 167.481 62.7136 168.739 65.6474C169.05 66.3865 169.332 67.1482 169.563 67.9493C169.687 68.3442 169.783 68.7561 169.879 69.1679L169.913 69.3203L169.964 69.5854C169.998 69.766 170.014 69.9522 170.031 70.1327C170.054 70.5051 170.048 70.8774 169.998 71.2385C169.907 71.9663 169.676 72.6208 169.388 73.168C169.106 73.7153 168.773 74.1779 168.435 74.5672C167.758 75.3514 167.047 75.91 166.342 76.3839C164.931 77.3261 163.515 77.9523 162.088 78.4714C161.377 78.7309 160.66 78.951 159.938 79.1371C159.21 79.329 158.516 79.4982 157.732 79.6336L156.717 76.5137C157.264 76.1977 157.884 75.8649 158.454 75.5263C159.03 75.1766 159.6 74.8324 160.147 74.477C161.241 73.7661 162.285 73.0044 163.097 72.2315C163.492 71.8422 163.825 71.4473 164.017 71.1313C164.215 70.8097 164.198 70.5953 164.141 70.663C164.13 70.6743 164.119 70.6969 164.113 70.7195C164.107 70.7307 164.107 70.742 164.102 70.7477C164.102 70.7477 164.102 70.7646 164.096 70.7533L164.062 70.6518C163.978 70.3866 163.893 70.1214 163.786 69.8563C163.588 69.3203 163.334 68.7843 163.064 68.2427C162.522 67.1594 161.873 66.0818 161.14 65.0324C160.418 63.9718 159.628 62.9337 158.793 61.9181C157.969 60.8969 157.083 59.904 156.192 58.9166C155.746 58.4258 155.289 57.9406 154.826 57.4723C154.369 57.0153 153.879 56.5019 153.467 56.107L157.958 51.2098Z" fill="#FFC3BD"/>
<path d="M156.503 49.0714C159.053 49.4438 163.053 55.8247 163.053 55.8247L156.559 64.5245C156.559 64.5245 153.095 61.224 152.085 58.3185C150.15 52.7612 151.493 48.3323 156.503 49.0714Z" fill="#263238"/>
<path d="M153.102 70.9845C152.719 70.9845 152.346 70.787 152.132 70.4372C151.647 69.6248 151.647 68.7108 151.652 67.9774C151.652 67.5824 151.658 67.1367 151.562 66.9336C151.438 66.6628 151.071 66.3356 150.716 66.0196C150.152 65.5175 149.52 64.9533 149.254 64.1352C148.961 63.2213 149.187 62.3468 149.367 61.6415C149.452 61.303 149.565 60.8799 149.525 60.6993C149.469 60.4116 149.187 60.0167 148.916 59.633C148.493 59.035 148.013 58.3523 147.957 57.523C147.895 56.5243 148.357 55.7345 148.73 55.1026C148.871 54.86 149.085 54.4933 149.096 54.3635C149.119 54.0363 148.95 53.5736 148.792 53.1223C148.544 52.434 148.29 51.7231 148.476 50.9784C148.905 49.2971 149.632 48.5919 149.982 48.259L150.056 48.1913C150.49 47.7399 151.201 47.7286 151.652 48.1631C152.104 48.5975 152.115 49.3084 151.68 49.7597C151.641 49.7992 151.601 49.8387 151.551 49.8895C151.308 50.1264 150.936 50.4819 150.665 51.5426C150.659 51.6554 150.812 52.0842 150.919 52.3663C151.139 52.9756 151.41 53.7316 151.353 54.5328C151.302 55.1929 150.975 55.757 150.682 56.2535C150.439 56.6597 150.197 57.0829 150.214 57.3875C150.225 57.5794 150.541 58.0194 150.766 58.341C151.156 58.8883 151.59 59.5089 151.743 60.2649C151.878 60.9532 151.709 61.6246 151.556 62.217C151.438 62.6853 151.314 63.1705 151.404 63.4582C151.477 63.6895 151.889 64.0562 152.222 64.3496C152.724 64.7953 153.294 65.3088 153.616 66.0027C153.915 66.6572 153.915 67.368 153.909 67.9943C153.909 68.4964 153.903 69.0155 154.073 69.2919C154.394 69.8279 154.219 70.5218 153.683 70.8378C153.503 70.9337 153.3 70.9845 153.102 70.9845Z" fill="#007490"/>
<path opacity="0.2" d="M145.631 40.7833L142.488 44.3434C142.72 44.9019 142.917 45.4774 143.041 46.0472C144.361 45.6579 146.003 43.9146 145.947 42.4815C145.919 41.765 145.794 41.0936 145.631 40.7833Z" fill="black"/>
<path d="M139.035 29.0708C137.641 31.4968 138.533 34.944 138.533 34.944C139.825 35.796 141.06 35.0625 141.06 35.0625L140.665 28.6251L139.035 29.0708Z" fill="#263238"/>
<path d="M150.025 35.2319C148.958 39.4351 148.547 41.9513 145.979 43.7285C142.126 46.4028 137.24 43.4577 137.031 39.0176C136.84 35.0231 138.622 28.817 143.108 27.9087C147.525 27.0229 151.091 31.0287 150.025 35.2319Z" fill="#FFC3BD"/>
<path d="M137.731 40.1291C137.681 40.1291 137.63 40.1234 137.579 40.1121L128.016 38.0867C127.491 37.9739 127.046 37.6692 126.752 37.2178C126.459 36.7721 126.363 36.2362 126.47 35.7115C126.583 35.1868 126.888 34.7411 127.339 34.4477C127.79 34.1543 128.321 34.0584 128.845 34.1656C129.246 34.2502 129.5 34.6451 129.415 35.0457C129.331 35.4463 128.936 35.7058 128.535 35.6155C128.4 35.5873 128.259 35.6099 128.14 35.6889C128.022 35.7622 127.943 35.8807 127.915 36.0161C127.886 36.1515 127.909 36.2926 127.988 36.411C128.061 36.5295 128.18 36.6085 128.315 36.6367L137.878 38.6622C138.279 38.7468 138.533 39.1417 138.448 39.5423C138.38 39.8921 138.076 40.1291 137.731 40.1291Z" fill="#3E6897"/>
<path d="M137.692 40.2926L136.535 40.05L136.902 38.3292L138.058 38.5718C138.532 38.6734 138.837 39.1417 138.735 39.6156C138.634 40.0895 138.166 40.3942 137.692 40.2926Z" fill="white"/>
<path d="M147.409 32.9129C147.409 31.3162 146.202 30.1484 142.174 30.453C138.884 30.7013 137.288 29.1667 138.224 27.0284C140.887 28.4163 140.447 26.5996 145.525 26.3796C150.603 26.1596 152.075 28.106 152.611 31.0511C155.72 35.6605 150.354 37.5731 150.354 37.5731L148.256 39.4067C148.256 39.4067 146.868 39.7903 145.846 38.6338C145.841 38.6281 145.429 34.8932 147.409 32.9129Z" fill="#263238"/>
<path d="M142.015 25.5844L141.885 25.6577C141.355 25.9398 141.332 26.6902 141.84 27.0061L153.62 34.2898C154.094 34.5832 154.715 34.2954 154.799 33.7425C154.912 32.9978 154.574 32.2587 153.93 31.8638L143.888 25.6408C143.318 25.291 142.607 25.2684 142.015 25.5844Z" fill="#343D49"/>
<path d="M144.137 26.3629L147.155 21.9566C147.336 21.6971 147.685 21.6181 147.956 21.7817L156.272 26.7579C156.577 26.9384 156.656 27.3503 156.442 27.6323L152.831 32.3941L144.137 26.3629Z" fill="#343D49"/>
<path d="M144.137 26.3629L145.338 24.219L154.625 30.3574L152.831 32.3997L144.137 26.3629Z" fill="#343D49"/>
<path opacity="0.88" d="M144.137 26.3629L145.338 24.219L154.625 30.3574L152.831 32.3997L144.137 26.3629Z" fill="#BCD0E6"/>
<path d="M150.558 40.3886C149.661 41.0036 148.584 41.1616 147.737 40.998C146.462 40.7554 146.457 39.4521 147.343 38.5325C148.138 37.7031 149.769 36.8343 150.795 37.5564C151.805 38.2673 151.58 39.689 150.558 40.3886Z" fill="#FFC3BD"/>
<path d="M148.045 179.636L155.447 179.619C155.447 179.619 154.285 153.294 152.688 139.765C152.203 135.646 152.727 130.004 152.778 123.702C152.846 115.764 153.213 107.115 153.574 100.328C153.957 93.1796 154.279 88.0286 154.279 88.0286L139.136 90.1894C139.136 90.1894 137.63 127.674 139.988 140.808C142.437 154.467 148.045 179.636 148.045 179.636Z" fill="#263238"/>
<path opacity="0.2" d="M152.779 123.708C152.846 115.77 153.213 107.121 153.574 100.334L151.301 97.3152C148.53 102.534 150.466 116.43 152.779 123.708Z" fill="black"/>
<path d="M146.352 89.1626C146.352 89.1626 155.762 126.303 160.225 138.309C165.116 151.46 183.137 166.823 183.137 166.823L187.684 161.813C187.684 161.813 178.155 146.958 171.136 132.662C167.774 114.105 162.29 86.8777 162.29 86.8777L146.352 89.1626Z" fill="#263238"/>
<path d="M182.523 167.585L189.654 161.418L187.815 159.286L179.719 166.039L182.523 167.585Z" fill="#263238"/>
<path d="M147.12 179.811L155.938 179.799V176.95L146.07 176.815L147.12 179.811Z" fill="#263238"/>
<path d="M143.52 34.4082C143.244 34.3179 142.911 34.5944 142.775 35.0175L143.78 35.3391C143.909 34.916 143.797 34.4985 143.52 34.4082Z" fill="#263238"/>
<path d="M139.118 33.5787C138.825 33.5618 138.571 33.9059 138.537 34.3517L139.592 34.4194C139.62 33.9737 139.412 33.5956 139.118 33.5787Z" fill="#263238"/>
<path d="M140.639 34.8652C140.639 34.8652 139.471 36.7158 138.422 37.5169C138.924 38.2052 140.019 38.1432 140.019 38.1432L140.639 34.8652Z" fill="#ED847E"/>
<path d="M144.953 33.9512C144.987 33.9569 145.021 33.9569 145.061 33.9456C145.168 33.9118 145.23 33.7989 145.196 33.6861C144.863 32.5916 143.949 32.3151 143.91 32.3038C143.797 32.27 143.684 32.3377 143.656 32.4449C143.622 32.5521 143.684 32.6705 143.797 32.6988C143.825 32.71 144.536 32.9301 144.801 33.8046C144.824 33.8835 144.886 33.9343 144.953 33.9512Z" fill="#263238"/>
<path d="M137.818 32.9864C137.886 32.9977 137.954 32.9751 138.004 32.9187C138.619 32.2416 139.359 32.3432 139.387 32.3432C139.5 32.3601 139.607 32.2811 139.624 32.1683C139.641 32.0555 139.567 31.9483 139.454 31.9313C139.415 31.9257 138.467 31.7847 137.7 32.6366C137.621 32.7212 137.632 32.851 137.717 32.93C137.745 32.9638 137.784 32.9807 137.818 32.9864Z" fill="#263238"/>
<path d="M187.69 171.049C187.994 170.784 188.271 170.434 188.457 170.18C188.48 170.146 188.485 170.101 188.463 170.061C188.44 170.028 188.401 170.005 188.361 170.011C188.181 170.039 186.573 170.281 186.358 170.789C186.324 170.868 186.307 170.992 186.409 171.133C186.544 171.325 186.714 171.421 186.911 171.421C187.165 171.421 187.436 171.263 187.69 171.049ZM188.141 170.259C187.673 170.863 187.221 171.212 186.917 171.212C186.781 171.212 186.669 171.145 186.578 171.009C186.533 170.942 186.539 170.902 186.55 170.874C186.657 170.603 187.498 170.372 188.141 170.259Z" fill="#3E6897"/>
<path d="M188.44 170.191C188.457 170.18 188.468 170.163 188.474 170.14C188.485 170.101 188.474 170.061 188.451 170.033C188.417 169.994 187.548 169.074 186.905 169.08C186.736 169.08 186.595 169.142 186.488 169.266C186.318 169.452 186.363 169.616 186.409 169.695C186.64 170.135 187.898 170.315 188.395 170.214C188.411 170.214 188.428 170.202 188.44 170.191ZM186.668 169.384C186.73 169.328 186.809 169.3 186.905 169.3C187.317 169.294 187.881 169.779 188.146 170.033C187.593 170.061 186.719 169.858 186.584 169.593C186.572 169.571 186.544 169.514 186.634 169.413C186.646 169.401 186.657 169.39 186.668 169.384Z" fill="#3E6897"/>
<path d="M149.856 185.644C149.889 185.633 149.918 185.599 149.923 185.56C149.929 185.514 149.906 185.475 149.867 185.452C149.669 185.351 147.909 184.459 147.379 184.758C147.277 184.815 147.215 184.911 147.21 185.035C147.193 185.244 147.26 185.413 147.407 185.537C147.887 185.96 149.139 185.785 149.844 185.644C149.85 185.65 149.85 185.65 149.856 185.644ZM147.52 184.928C147.847 184.815 148.801 185.176 149.495 185.503C148.53 185.667 147.808 185.622 147.542 185.385C147.447 185.3 147.407 185.193 147.418 185.052C147.424 184.995 147.441 184.967 147.486 184.939C147.497 184.939 147.509 184.933 147.52 184.928Z" fill="#3E6897"/>
<path d="M149.856 185.644C149.867 185.639 149.873 185.639 149.884 185.633C149.912 185.61 149.929 185.577 149.929 185.537C149.924 185.486 149.805 184.307 149.247 183.856C149.077 183.715 148.885 183.658 148.671 183.681C148.389 183.709 148.304 183.856 148.287 183.969C148.208 184.465 149.258 185.407 149.783 185.644C149.805 185.656 149.833 185.656 149.856 185.644ZM148.586 183.907C148.615 183.895 148.649 183.89 148.694 183.884C148.852 183.867 148.987 183.912 149.117 184.014C149.484 184.313 149.641 185.018 149.698 185.362C149.156 185.041 148.445 184.296 148.496 184.002C148.491 183.98 148.502 183.935 148.586 183.907Z" fill="#3E6897"/>
<path d="M157.258 76.2427L153.055 77.5742L156.321 80.8239C156.321 80.8239 160.135 79.1708 158.939 77.4895L157.258 76.2427Z" fill="#FFC3BD"/>
<path d="M151.316 81.2866L154.312 83.0976L156.315 80.8239L153.048 77.5742L151.316 81.2866Z" fill="#FFC3BD"/>
</g>
<defs>
<filter id="filter0_d_133_15086" x="0" y="0.588989" width="216.258" height="195.411" filterUnits="userSpaceOnUse" color-interpolation-filters="sRGB">
<feFlood flood-opacity="0" result="BackgroundImageFix"/>
<feColorMatrix in="SourceAlpha" type="matrix" values="0 0 0 0 0 0 0 0 0 0 0 0 0 0 0 0 0 0 127 0" result="hardAlpha"/>
<feOffset dy="2"/>
<feGaussianBlur stdDeviation="2"/>
<feComposite in2="hardAlpha" operator="out"/>
<feColorMatrix type="matrix" values="0 0 0 0 0 0 0 0 0 0 0 0 0 0 0 0 0 0 0.25 0"/>
<feBlend mode="normal" in2="BackgroundImageFix" result="effect1_dropShadow_133_15086"/>
<feBlend mode="normal" in="SourceGraphic" in2="effect1_dropShadow_133_15086" result="shape"/>
</filter>
</defs>
</svg>
