<svg width="47" height="95" viewBox="0 0 47 95" fill="none" xmlns="http://www.w3.org/2000/svg">
<path d="M17.753 53.9824C17.753 53.9824 11.573 54.8024 8.94302 53.9824C6.31302 53.1624 7.29302 41.1824 4.59302 40.9324C-1.60698 40.3624 -0.556979 56.2724 2.08302 59.6224C4.72302 62.9724 18.313 61.5524 18.313 61.5524L17.753 53.9824Z" fill="#00B0DC"/>
<path opacity="0.2" d="M17.753 53.9824C17.753 53.9824 11.573 54.8024 8.94302 53.9824C6.31302 53.1624 7.29302 41.1824 4.59302 40.9324C-1.60698 40.3624 -0.556979 56.2724 2.08302 59.6224C4.72302 62.9724 18.313 61.5524 18.313 61.5524L17.753 53.9824Z" fill="white"/>
<path d="M18.2725 82.2024C18.2725 82.2024 9.12251 0.962415 20.0425 0.0224154C30.9625 -0.917585 33.6025 27.7324 29.3825 81.1624L18.2725 82.2024Z" fill="#00B0DC"/>
<path opacity="0.3" d="M18.2725 82.2024C18.2725 82.2024 9.12251 0.962415 20.0425 0.0224154C30.9625 -0.917585 33.6025 27.7324 29.3825 81.1624L18.2725 82.2024Z" fill="white"/>
<path d="M5.44336 72.3624H41.3734L38.3734 95.3524H8.44336L5.44336 72.3624Z" fill="#263238"/>
<path d="M29.1231 26.6624C29.1231 26.6624 39.0731 27.1924 39.3731 26.6624C39.6731 26.1324 39.6731 14.6324 43.8931 15.3124C48.1131 15.9924 46.2631 29.8324 43.8931 31.4424C41.5231 33.0524 29.1231 33.9224 29.1231 33.9224C29.1231 33.9224 27.4531 28.8124 29.1231 26.6624Z" fill="#00B0DC"/>
<path opacity="0.4" d="M29.1231 26.6624C29.1231 26.6624 39.0731 27.1924 39.3731 26.6624C39.6731 26.1324 39.6731 14.6324 43.8931 15.3124C48.1131 15.9924 46.2631 29.8324 43.8931 31.4424C41.5231 33.0524 29.1231 33.9224 29.1231 33.9224C29.1231 33.9224 27.4531 28.8124 29.1231 26.6624Z" fill="white"/>
<path d="M22.8127 74.7824C21.4427 62.4024 20.2927 50.0024 19.4727 37.5624C19.0527 31.3424 18.7627 25.1224 18.6427 18.8824C18.5927 15.7624 18.5927 12.6424 18.7527 9.52244C18.8327 7.96244 18.9527 6.39244 19.1927 4.83244C19.3227 4.05244 19.4627 3.27244 19.7227 2.49244C19.8727 2.10244 20.0027 1.71244 20.2927 1.34244C20.3527 1.24244 20.4327 1.15244 20.5427 1.07244C20.6327 0.982444 20.7327 0.902444 20.8827 0.842444C20.9527 0.812444 21.0227 0.782444 21.0927 0.762444C21.1727 0.752444 21.2627 0.752444 21.3527 0.762444C21.5427 0.762444 21.6527 0.852444 21.7927 0.922444C22.2427 1.26244 22.4027 1.66244 22.5827 2.04244C22.7427 2.42244 22.8727 2.81244 22.9827 3.19244C23.2027 3.96244 23.3727 4.73244 23.5127 5.50244C23.8027 7.05244 24.0027 8.60244 24.1827 10.1524C24.5327 13.2524 24.7727 16.3624 24.9827 19.4724C25.3727 25.6924 25.6427 31.9224 25.7827 38.1424C25.9427 44.3724 26.0327 50.6024 26.0727 56.8224C26.0927 63.0524 26.0727 69.2824 26.0027 75.5024C25.9427 69.2724 25.8327 63.0524 25.6827 56.8224C25.5627 50.6024 25.4027 44.3724 25.1727 38.1524C24.9327 31.9324 24.6927 25.7124 24.2627 19.5024C24.0527 16.4024 23.7927 13.3024 23.4327 10.2224C23.2527 8.68244 23.0427 7.14244 22.7527 5.63244C22.6127 4.87244 22.4427 4.12244 22.2327 3.39244C22.1227 3.03244 22.0027 2.67244 21.8627 2.34244C21.7227 2.02244 21.5227 1.69244 21.3527 1.56244C21.3127 1.56244 21.2827 1.50244 21.2627 1.52244C21.2527 1.52244 21.2427 1.52244 21.2327 1.51244C21.2127 1.52244 21.1927 1.53244 21.1827 1.54244C21.1427 1.54244 21.0927 1.58244 21.0427 1.63244C21.0027 1.70244 20.9527 1.75244 20.9127 1.82244C20.7127 2.06244 20.5827 2.41244 20.4527 2.75244C20.2127 3.45244 20.0727 4.20244 19.9427 4.96244C19.7027 6.48244 19.5827 8.02244 19.4927 9.57244C19.3227 12.6724 19.3127 15.7824 19.3527 18.8824C19.4327 25.1024 19.7427 31.3224 20.0627 37.5324C20.4027 43.7524 20.8327 49.9624 21.3027 56.1624C21.7527 62.3724 22.2527 68.5824 22.8127 74.7824Z" fill="#00B0DC"/>
<path d="M30.373 29.3824L36.153 28.9424C37.113 28.8524 38.073 28.7824 39.023 28.6524C39.493 28.5924 39.973 28.5324 40.413 28.4224C40.623 28.3724 40.853 28.3024 40.993 28.2324C40.993 28.2224 41.063 28.1824 41.023 28.2124C41.003 28.2324 41.013 28.2324 40.993 28.2724C40.973 28.3024 40.983 28.3924 40.993 28.3924C40.973 28.2424 40.943 28.0524 40.943 27.9324C41.053 25.9024 41.453 24.0424 41.863 22.1324C42.303 20.2424 42.723 18.3424 43.423 16.5324C43.213 17.4824 43.063 18.4324 42.913 19.3924L42.443 22.2524L42.013 25.1124C41.883 26.0524 41.733 27.0324 41.713 27.9324C41.703 28.0524 41.733 28.1024 41.723 28.1924C41.733 28.2524 41.743 28.3924 41.723 28.4924C41.703 28.5924 41.653 28.6424 41.603 28.7124C41.493 28.8524 41.433 28.8524 41.353 28.9224C41.063 29.0724 40.813 29.1224 40.563 29.1824C40.063 29.2924 39.573 29.3524 39.093 29.4024C38.113 29.4924 37.143 29.5524 36.173 29.5524C34.243 29.5724 32.303 29.5424 30.373 29.3824Z" fill="#00B0DC"/>
<path d="M30.373 32.0424C32.543 31.6724 34.723 31.3824 36.903 31.0624L40.163 30.6024C41.213 30.4324 42.393 30.2824 43.283 29.9824C43.323 29.9724 43.493 29.7624 43.573 29.5424C43.673 29.3224 43.753 29.0624 43.823 28.8124C43.963 28.3024 44.063 27.7724 44.153 27.2324C44.343 26.1624 44.443 25.0724 44.583 23.9824C44.823 21.8024 45.003 19.6124 45.213 17.4224C45.323 19.6224 45.303 21.8324 45.183 24.0324C45.143 25.1324 45.013 26.2324 44.863 27.3424C44.783 27.8924 44.693 28.4424 44.553 29.0024C44.483 29.2824 44.403 29.5524 44.283 29.8424C44.153 30.1124 44.063 30.4324 43.613 30.7024C42.983 30.9324 42.473 30.9824 41.913 31.0824L40.273 31.3124C39.173 31.4424 38.083 31.5924 36.983 31.6624C34.773 31.8524 32.573 31.9924 30.373 32.0424Z" fill="#00B0DC"/>
<path d="M14.6825 56.2124C12.8425 56.3124 11.0125 56.2724 9.17248 56.1024C8.25248 56.0124 7.33248 55.9024 6.40248 55.6024C6.28248 55.5524 6.18248 55.5324 6.04248 55.4624C5.88248 55.3824 5.76248 55.2724 5.67248 55.1624C5.47248 54.9424 5.36248 54.7124 5.25248 54.4824C5.05248 54.0224 4.93248 53.5624 4.82248 53.1024C4.43248 51.2624 4.31248 49.4224 4.28248 47.5824C4.25248 45.7424 4.29248 43.9024 4.47248 42.0724C4.61248 43.9024 4.72248 45.7324 4.88248 47.5524C5.05248 49.3624 5.20248 51.1924 5.58248 52.9324C5.79248 53.7524 5.99248 54.7824 6.66248 54.9124C7.46248 55.2124 8.37248 55.3424 9.26248 55.5124C11.0425 55.7924 12.8625 55.9824 14.6825 56.2124Z" fill="#00B0DC"/>
<path d="M2.61338 43.5124L3.26338 49.9024C3.49338 52.0224 3.67338 54.1624 4.07338 56.2324C4.16338 56.7524 4.27338 57.2624 4.42338 57.7424C4.50338 57.9624 4.60338 58.2224 4.69338 58.3124L4.94338 58.4924C5.04338 58.5424 5.16338 58.5924 5.27338 58.6424C6.19338 59.0224 7.27338 59.1624 8.31338 59.3524C10.4134 59.6724 12.5434 59.8724 14.6834 60.0824C12.5334 60.1924 10.3934 60.1524 8.24338 59.9424C7.16338 59.8324 6.09338 59.6924 5.01338 59.2924C4.87338 59.2324 4.74338 59.1824 4.60338 59.1124C4.46338 59.0224 4.32338 58.9324 4.19338 58.8224C3.91338 58.5224 3.84338 58.2524 3.72338 57.9824C3.53338 57.4424 3.41338 56.9124 3.30338 56.3724C2.95338 54.2224 2.76338 52.0924 2.66338 49.9424C2.57338 47.8024 2.53338 45.6524 2.61338 43.5124Z" fill="#00B0DC"/>
</svg>
