<svg width="308" height="303" viewBox="0 0 308 303" fill="none" xmlns="http://www.w3.org/2000/svg">
<g opacity="0.15" clip-path="url(#clip0_133_17391)">
<path d="M234.888 167.269L233.626 166.931L233.786 165.636C234.345 161.229 234.789 157.366 235.17 153.969C236.934 138.39 237.665 131.945 244.165 125.972C250.868 119.82 258.661 116.915 266.212 114.101C274.182 111.119 282.422 108.055 289.361 101.08C296.037 94.3917 298.146 85.5934 294.864 78.1038C290.944 69.1676 280.486 64.1411 266.858 64.6735C258.733 64.9851 253.192 66.1601 249.136 67.0175C237.232 69.5359 236.796 68.1437 229.336 44.9608C228.564 42.5608 227.715 39.9226 226.77 37.0095L226.361 35.7489L227.569 35.1862C259.757 20.1847 293.796 22.011 318.606 40.0594C336.751 53.2582 346.174 72.5967 343.814 91.7952C341.126 113.612 323.598 132.122 294.472 143.884C275.509 151.557 274.036 159.841 273.051 165.317C272.569 167.987 272.122 170.527 269.816 171.993C265.933 174.468 257.439 173.312 234.888 167.269ZM280.085 63.0229C288.401 65.2509 294.639 70.0643 297.629 76.9003C301.412 85.5353 299.071 95.6089 291.501 103.193C284.099 110.619 275.543 113.817 267.266 116.903C259.66 119.749 252.472 122.427 246.202 128.181C240.513 133.392 239.874 139.084 238.16 154.303C237.817 157.384 237.424 160.825 236.943 164.709C256.589 169.927 265.393 171.259 268.222 169.466C269.364 168.746 269.657 167.362 270.112 164.793C271.21 158.664 272.871 149.388 293.367 141.099C321.448 129.757 338.308 112.111 340.85 91.421C343.068 73.3352 334.097 55.0357 316.834 42.4932C293.234 25.3288 260.865 23.4213 230.04 37.3414C230.823 39.7598 231.547 41.9914 232.198 44.0322C235.762 55.1125 237.722 61.206 239.784 63.6095C241.386 65.4695 243.168 65.2007 248.526 64.07C252.681 63.1923 258.372 61.9798 266.763 61.6617C271.587 61.4769 276.08 61.9497 280.085 63.0229Z" fill="#268EA8"/>
<path d="M232.591 232.15C221.04 229.055 210.563 218.409 214.86 202.373C219.145 186.381 233.533 182.429 245.085 185.524C257.071 188.736 267.075 199.986 262.981 215.267C258.875 230.592 244.592 235.366 232.591 232.15ZM244.325 188.416C234.167 185.694 221.529 189.151 217.78 203.14C214.016 217.188 223.229 226.515 233.387 229.237C243.618 231.979 256.333 228.526 260.097 214.479C263.831 200.486 254.542 191.153 244.325 188.416Z" fill="#268EA8"/>
<path d="M233.088 173.988L225.963 172.079L226.895 164.77C227.446 160.391 227.878 156.572 228.27 153.193C230.128 136.8 231.053 128.586 239.489 120.846C239.692 120.667 239.9 120.473 240.103 120.295L242.099 122.54L241.525 123.055C233.919 130.023 233.043 137.876 231.26 153.528C230.883 156.911 230.443 160.759 229.892 165.137L229.299 169.847L233.884 171.075C258.293 177.616 266.841 178.569 271.958 175.32C273.516 174.322 274.671 173.03 275.483 171.334L278.184 172.633C277.122 174.853 275.607 176.562 273.566 177.851C267.496 181.699 258.803 180.879 233.088 173.988Z" fill="#268EA8"/>
<path d="M291.283 91.2978L288.485 90.1903C288.687 89.6689 288.87 89.1581 289.01 88.6357C289.574 86.5315 289.583 84.4653 289.045 82.4701C287.618 77.1728 282.243 73.2595 274.61 72.0233L275.094 69.0577C283.951 70.4822 290.213 75.2085 291.944 81.6916C292.623 84.2067 292.613 86.8013 291.913 89.4134C291.745 90.0374 291.545 90.6681 291.283 91.2978Z" fill="#268EA8"/>
<path d="M239.012 74.4456C230.813 72.2486 228.603 65.4039 222.73 47.0945C221.958 44.6945 221.109 42.0563 220.159 39.1577L217.838 32.0341L224.625 28.8757C239.696 21.8552 255.005 18.2425 270.105 18.1358L270.123 21.1426C255.457 21.2567 240.58 24.7673 225.899 31.6122L221.528 33.645L223.021 38.2292C223.967 41.1423 224.816 43.7805 225.588 46.1805C231.264 63.8306 233.187 69.774 239.79 71.5432C241.444 71.9865 243.203 72.0379 245.483 71.7155L245.899 74.689C243.2 75.0699 241.073 74.9977 239.012 74.4456Z" fill="#268EA8"/>
<path d="M230.939 238.894L230.794 238.855C215.542 234.768 202.856 220.294 208.144 200.558C209.116 196.93 210.578 193.621 212.485 190.741L214.998 192.394C213.27 195.011 211.951 198.017 211.061 201.34C206.282 219.175 217.771 232.254 231.586 235.956L230.939 238.894ZM262.731 230.303L260.498 228.305C263.424 225.045 265.547 221.01 266.811 216.294C268.46 210.141 268.266 204.303 266.228 198.966L269.034 197.898C271.299 203.84 271.529 210.294 269.713 217.071C268.315 222.234 265.969 226.691 262.731 230.303Z" fill="#268EA8"/>
</g>
<g filter="url(#filter0_d_133_17391)">
<path d="M4.30008 97.69V84.01H8.08008V97.69H4.30008ZM8.53008 101.44C8.53008 101.46 8.53008 101.48 8.53008 101.5C8.53008 102.14 8.33008 102.66 7.93008 103.06C7.53008 103.46 7.00008 103.66 6.34008 103.66C5.66008 103.66 5.11008 103.45 4.69008 103.03C4.29008 102.63 4.09008 102.09 4.09008 101.41V101.35C4.13008 100.73 4.35008 100.23 4.75008 99.85C5.17008 99.47 5.70008 99.28 6.34008 99.28C7.00008 99.28 7.53008 99.48 7.93008 99.88C8.33008 100.28 8.53008 100.8 8.53008 101.44ZM16.9983 98.2C17.1583 97.86 17.2383 97.51 17.2383 97.15C17.2383 96.59 17.0783 96.09 16.7583 95.65C16.4583 95.19 15.7783 94.45 14.7183 93.43C14.4183 93.15 14.1683 92.92 13.9683 92.74C12.5083 91.3 11.7783 89.72 11.7783 88C11.7783 86.5 12.3283 85.27 13.4283 84.31C14.4283 83.43 15.6983 82.99 17.2383 82.99C18.8983 82.99 20.4083 83.57 21.7683 84.73V88.15C20.3683 86.89 19.0083 86.26 17.6883 86.26C17.0083 86.26 16.4583 86.45 16.0383 86.83C15.6383 87.19 15.4383 87.69 15.4383 88.33C15.4383 89.05 15.7983 89.79 16.5183 90.55C16.6583 90.69 16.9883 91.01 17.5083 91.51C18.6483 92.57 19.4383 93.52 19.8783 94.36C20.3383 95.18 20.5683 96.08 20.5683 97.06C20.5683 97.42 20.4983 97.8 20.3583 98.2H16.9983ZM19.0383 103.66C18.3583 103.66 17.8083 103.45 17.3883 103.03C16.9883 102.61 16.7883 102.05 16.7883 101.35C16.7883 100.75 16.9983 100.26 17.4183 99.88C17.8383 99.48 18.3783 99.28 19.0383 99.28C19.6983 99.28 20.2283 99.49 20.6283 99.91C21.0283 100.31 21.2283 100.84 21.2283 101.5C21.2283 102.14 21.0283 102.66 20.6283 103.06C20.2283 103.46 19.6983 103.66 19.0383 103.66ZM32.1499 103C30.4499 103 29.1199 102.43 28.1599 101.29C27.2999 100.29 26.8699 99 26.8699 97.42V94.36L30.6199 92.38V97.18C30.6199 97.98 30.7799 98.55 31.0999 98.89C31.4399 99.21 31.9899 99.37 32.7499 99.37H42.5299C43.2899 99.37 43.8299 99.2 44.1499 98.86C44.4699 98.52 44.6299 97.96 44.6299 97.18V91.66L48.4099 89.68V97.42C48.4099 99.24 47.8399 100.66 46.6999 101.68C45.6999 102.56 44.4199 103 42.8599 103H32.1499ZM37.2799 109.69C36.6799 109.69 36.1999 109.51 35.8399 109.15C35.4799 108.79 35.2999 108.3 35.2999 107.68C35.2999 107.1 35.4799 106.63 35.8399 106.27C36.1999 105.91 36.6799 105.73 37.2799 105.73C37.8799 105.73 38.3499 105.9 38.6899 106.24C39.0499 106.6 39.2299 107.08 39.2299 107.68C39.2299 109.02 38.5799 109.69 37.2799 109.69ZM59.343 103C57.523 103 56.113 102.42 55.113 101.26C54.253 100.26 53.823 98.97 53.823 97.39V85.63L57.603 83.65V97.21C57.603 97.99 57.763 98.55 58.083 98.89C58.403 99.21 58.943 99.37 59.703 99.37H62.403V103H59.343ZM60.5941 103V99.37H63.7741C64.5341 99.37 65.0741 99.21 65.3941 98.89C65.7341 98.55 65.9041 97.99 65.9041 97.21V93.25L69.6841 91.27V97.21C69.6841 97.99 69.8441 98.55 70.1641 98.89C70.4841 99.21 71.0241 99.37 71.7841 99.37H73.8241C74.5841 99.37 75.1241 99.21 75.4441 98.89C75.7641 98.55 75.9241 97.99 75.9241 97.21V92.47L79.7041 90.46V97.21C79.7041 97.99 79.8641 98.55 80.1841 98.89C80.5241 99.21 81.0741 99.37 81.8341 99.37H83.8741C84.6341 99.37 85.1741 99.21 85.4941 98.89C85.8141 98.55 85.9741 97.99 85.9741 97.21V91.66L89.7541 89.68V96.73C89.7541 97.69 89.9441 98.37 90.3241 98.77C90.7241 99.17 91.3841 99.37 92.3041 99.37H95.0641V103H92.0941C90.4141 103 89.0641 102.52 88.0441 101.56C87.1441 102.5 85.9341 102.98 84.4141 103H81.4441C79.9641 103 78.7541 102.56 77.8141 101.68C76.9541 102.54 75.8141 102.98 74.3941 103H71.4241C69.9441 103 68.7341 102.56 67.7941 101.68C66.8541 102.56 65.6441 103 64.1641 103H60.5941ZM93.2602 103V99.37H97.7302C101.25 99.37 104.05 98.32 106.13 96.22C104.77 93.84 103.12 92.65 101.18 92.65C99.5802 92.65 97.8302 93.52 95.9302 95.26V91.93C97.6102 90.09 99.5102 89.17 101.63 89.17C103.19 89.17 104.71 89.74 106.19 90.88C107.67 92.02 108.98 93.64 110.12 95.74V97.24C108.68 99.08 106.88 100.5 104.72 101.5C102.58 102.5 100.24 103 97.7002 103H93.2602ZM145.168 99.37H147.868V103H144.808C143.328 103 142.118 102.61 141.178 101.83C140.218 102.61 138.998 103 137.518 103H126.808C125.108 103 123.778 102.43 122.818 101.29C121.958 100.29 121.528 99 121.528 97.42V94.36L125.278 92.38V97.18C125.278 97.98 125.438 98.55 125.758 98.89C126.098 99.21 126.648 99.37 127.408 99.37H137.188C137.948 99.37 138.488 99.2 138.808 98.86C139.128 98.52 139.288 97.96 139.288 97.18V85.63L143.038 83.65V97.21C143.038 97.99 143.198 98.55 143.518 98.89C143.858 99.21 144.408 99.37 145.168 99.37ZM133.078 88C134.518 88.24 135.238 89.09 135.238 90.55C135.238 92.19 134.448 93.01 132.868 93.01H128.428L129.358 91.27H132.688C133.228 91.27 133.498 91 133.498 90.46C133.498 89.78 133.048 89.44 132.148 89.44C131.548 89.44 130.988 89.6 130.468 89.92V88.42L133.048 85.57H135.238L133.078 88ZM146.082 103V99.37H148.782C149.542 99.37 150.082 99.21 150.402 98.89C150.722 98.55 150.882 97.99 150.882 97.21V91.66L154.662 89.68V97.39C154.662 99.21 154.102 100.63 152.982 101.65C152.002 102.55 150.722 103 149.142 103H146.082ZM147.702 109.69C147.102 109.69 146.622 109.51 146.262 109.15C145.902 108.79 145.722 108.3 145.722 107.68C145.722 106.38 146.382 105.73 147.702 105.73C148.302 105.73 148.772 105.9 149.112 106.24C149.472 106.6 149.652 107.08 149.652 107.68C149.652 109.02 149.002 109.69 147.702 109.69ZM152.322 109.69C151.722 109.69 151.242 109.51 150.882 109.15C150.522 108.79 150.342 108.3 150.342 107.68C150.342 106.38 151.002 105.73 152.322 105.73C152.922 105.73 153.392 105.9 153.732 106.24C154.092 106.6 154.272 107.08 154.272 107.68C154.272 109.02 153.622 109.69 152.322 109.69ZM157.654 103L159.544 99.37H164.284C165.304 99.37 165.814 98.78 165.814 97.6C165.814 95.4 164.754 93.71 162.634 92.53L164.494 89.32C167.614 91.14 169.294 93.61 169.534 96.73C169.614 97.73 169.834 98.42 170.194 98.8C170.574 99.18 171.214 99.37 172.114 99.37H174.394V103H171.904C170.424 103 169.174 102.59 168.154 101.77C167.414 102.59 166.354 103 164.974 103H157.654ZM172.596 103V99.37H174.486C175.406 99.37 176.056 99.17 176.436 98.77C176.836 98.37 177.036 97.69 177.036 96.73V85.66L180.786 83.65V96.76C180.786 98.7 180.196 100.25 179.016 101.41C177.936 102.47 176.496 103 174.696 103H172.596ZM231.583 99.37H234.343V103H231.373C229.773 103 228.423 102.56 227.323 101.68C226.383 102.52 225.143 102.96 223.603 103H220.753C219.273 103 218.063 102.61 217.123 101.83C216.183 102.59 215.003 102.98 213.583 103H210.703C210.023 103 209.393 102.91 208.813 102.73C208.433 104.65 207.463 106.16 205.903 107.26C204.503 108.22 202.803 108.7 200.803 108.7C198.103 108.7 196.013 107.75 194.533 105.85C193.373 104.37 192.793 102.63 192.793 100.63C192.793 99.05 193.163 97.67 193.903 96.49L197.503 95.74C196.703 97.1 196.303 98.53 196.303 100.03C196.303 101.55 196.733 102.78 197.593 103.72C198.413 104.62 199.483 105.07 200.803 105.07C202.183 105.07 203.253 104.72 204.013 104.02C204.793 103.32 205.183 102.34 205.183 101.08V93.25L208.963 91.27V97.21C208.963 97.99 209.123 98.55 209.443 98.89C209.783 99.21 210.333 99.37 211.093 99.37H213.103C213.863 99.37 214.403 99.21 214.723 98.89C215.063 98.55 215.233 97.99 215.233 97.21V92.47L218.983 90.46V97.21C218.983 97.99 219.143 98.55 219.463 98.89C219.803 99.21 220.353 99.37 221.113 99.37H223.153C223.913 99.37 224.453 99.21 224.773 98.89C225.113 98.55 225.283 97.99 225.283 97.21V91.66L229.033 89.68V96.73C229.033 97.69 229.223 98.37 229.603 98.77C230.003 99.17 230.663 99.37 231.583 99.37ZM243.218 99.37H245.918V103H242.858C241.398 103 240.188 102.61 239.228 101.83C238.268 102.61 237.058 103 235.598 103H232.537V99.37H235.238C235.998 99.37 236.538 99.21 236.858 98.89C237.178 98.55 237.338 97.99 237.338 97.21V91.66L241.118 89.68V97.21C241.118 97.99 241.278 98.55 241.598 98.89C241.918 99.21 242.458 99.37 243.218 99.37ZM235.448 105.73C236.048 105.73 236.518 105.9 236.858 106.24C237.218 106.6 237.397 107.08 237.397 107.68C237.397 109.02 236.748 109.69 235.448 109.69C234.848 109.69 234.368 109.51 234.008 109.15C233.648 108.79 233.468 108.3 233.468 107.68C233.468 106.38 234.128 105.73 235.448 105.73ZM240.068 105.73C240.668 105.73 241.138 105.9 241.478 106.24C241.838 106.6 242.018 107.08 242.018 107.68C242.018 109.02 241.368 109.69 240.068 109.69C239.468 109.69 238.988 109.51 238.628 109.15C238.268 108.79 238.088 108.3 238.088 107.68C238.088 106.38 238.748 105.73 240.068 105.73ZM244.11 103V99.37H246C246.92 99.37 247.57 99.17 247.95 98.77C248.35 98.37 248.55 97.69 248.55 96.73V85.66L252.3 83.65V96.76C252.3 98.7 251.71 100.25 250.53 101.41C249.45 102.47 248.01 103 246.21 103H244.11ZM158.562 133L159.15 131.866H161.642C162.015 131.866 162.277 131.773 162.426 131.586C162.585 131.399 162.664 131.077 162.664 130.62C162.664 129.379 162.09 128.445 160.942 127.82L161.558 126.784C163.023 127.643 163.789 128.828 163.854 130.34C163.873 130.881 163.994 131.273 164.218 131.516C164.451 131.749 164.82 131.866 165.324 131.866H166.15V133H165.226C164.451 133 163.845 132.753 163.406 132.258C163.098 132.753 162.58 133 161.852 133H158.562ZM165.316 133V131.866H166.24C167.155 131.866 167.612 131.399 167.612 130.466V127.568L168.816 126.924V130.508C168.816 131.301 168.578 131.927 168.102 132.384C167.664 132.795 167.09 133 166.38 133H165.316ZM166.058 135.786C165.601 135.786 165.372 135.553 165.372 135.086C165.372 134.629 165.601 134.4 166.058 134.4C166.506 134.4 166.73 134.629 166.73 135.086C166.73 135.553 166.506 135.786 166.058 135.786ZM167.836 135.786C167.379 135.786 167.15 135.553 167.15 135.086C167.15 134.629 167.379 134.4 167.836 134.4C168.284 134.4 168.508 134.629 168.508 135.086C168.508 135.553 168.284 135.786 167.836 135.786ZM170.21 133L170.798 131.866H173.29C173.664 131.866 173.925 131.773 174.074 131.586C174.233 131.399 174.312 131.077 174.312 130.62C174.312 129.379 173.738 128.445 172.59 127.82L173.206 126.784C174.672 127.643 175.437 128.828 175.502 130.34C175.521 130.881 175.642 131.273 175.866 131.516C176.1 131.749 176.468 131.866 176.972 131.866H177.798V133H176.874C176.1 133 175.493 132.753 175.054 132.258C174.746 132.753 174.228 133 173.5 133H170.21ZM176.965 133V131.866H178.883C180.777 131.866 182.275 131.241 183.377 129.99C182.602 128.562 181.659 127.848 180.549 127.848C179.793 127.848 179.013 128.249 178.211 129.052V127.932C178.995 127.139 179.825 126.742 180.703 126.742C181.421 126.742 182.117 127.003 182.789 127.526C183.461 128.039 184.053 128.777 184.567 129.738V130.354C183.195 132.118 181.295 133 178.869 133H176.965ZM181.067 135.786C180.609 135.786 180.381 135.553 180.381 135.086C180.381 134.629 180.609 134.4 181.067 134.4C181.515 134.4 181.739 134.629 181.739 135.086C181.739 135.553 181.515 135.786 181.067 135.786ZM192.139 133C191.383 133 190.79 132.748 190.361 132.244C189.988 131.805 189.801 131.231 189.801 130.522V128.828L191.005 128.184V130.41C191.005 131.381 191.458 131.866 192.363 131.866H197.011C197.916 131.866 198.369 131.381 198.369 130.41V127.568L199.573 126.924V130.522C199.573 131.334 199.326 131.964 198.831 132.412C198.392 132.804 197.828 133 197.137 133H192.139ZM194.449 135.786C193.992 135.786 193.763 135.553 193.763 135.086C193.763 134.629 193.992 134.4 194.449 134.4C194.897 134.4 195.121 134.629 195.121 135.086C195.121 135.553 194.897 135.786 194.449 135.786ZM204.528 133C203.716 133 203.091 132.739 202.652 132.216C202.279 131.768 202.092 131.199 202.092 130.508V124.614L203.296 123.97V130.466C203.296 131.399 203.753 131.866 204.668 131.866H205.592V133H204.528ZM204.746 133V131.866H206.006C206.911 131.866 207.364 131.399 207.364 130.466V128.506L208.568 127.862V130.466C208.568 131.399 209.025 131.866 209.94 131.866H210.584C211.499 131.866 211.956 131.399 211.956 130.466V128.03L213.16 127.4V130.466C213.16 131.399 213.613 131.866 214.518 131.866H215.176C216.091 131.866 216.548 131.399 216.548 130.466V127.568L217.752 126.924V130.34C217.752 131.357 218.237 131.866 219.208 131.866H220.37V133H219.11C218.27 133 217.631 132.715 217.192 132.146C216.8 132.706 216.189 132.991 215.358 133H214.392C213.571 133 212.959 132.725 212.558 132.174C212.157 132.715 211.559 132.991 210.766 133H209.8C208.997 133 208.386 132.725 207.966 132.174C207.565 132.725 206.953 133 206.132 133H204.746ZM219.525 133V131.866H221.443C223.338 131.866 224.836 131.241 225.937 129.99C225.163 128.562 224.22 127.848 223.109 127.848C222.353 127.848 221.574 128.249 220.771 129.052V127.932C221.555 127.139 222.386 126.742 223.263 126.742C223.982 126.742 224.677 127.003 225.349 127.526C226.021 128.039 226.614 128.777 227.127 129.738V130.354C225.755 132.118 223.856 133 221.429 133H219.525ZM228.352 123.774L228.674 123.172H229.052C228.959 123.004 228.912 122.827 228.912 122.64C228.912 122.369 229.015 122.136 229.22 121.94C229.425 121.735 229.663 121.632 229.934 121.632C230.167 121.632 230.391 121.707 230.606 121.856V122.472C230.41 122.313 230.214 122.234 230.018 122.234C229.673 122.234 229.5 122.393 229.5 122.71C229.5 122.859 229.57 123.013 229.71 123.172H230.984L230.662 123.774H228.352ZM231.53 133C230.718 133 230.093 132.739 229.654 132.216C229.281 131.768 229.094 131.199 229.094 130.508V125.174L230.298 124.53V130.466C230.298 131.399 230.755 131.866 231.67 131.866H232.594V133H231.53ZM239.448 123.942C239.037 123.942 238.832 123.732 238.832 123.312C238.832 122.901 239.037 122.696 239.448 122.696C239.859 122.696 240.064 122.901 240.064 123.312C240.064 123.732 239.859 123.942 239.448 123.942ZM238.566 125.608C238.109 125.608 237.88 125.375 237.88 124.908C237.88 124.451 238.109 124.222 238.566 124.222C239.014 124.222 239.238 124.451 239.238 124.908C239.238 125.375 239.014 125.608 238.566 125.608ZM240.344 125.608C239.887 125.608 239.658 125.375 239.658 124.908C239.658 124.451 239.887 124.222 240.344 124.222C240.792 124.222 241.016 124.451 241.016 124.908C241.016 125.375 240.792 125.608 240.344 125.608ZM231.748 133V131.866H233.008C233.913 131.866 234.366 131.399 234.366 130.466V128.506L235.57 127.862V130.466C235.57 131.399 236.027 131.866 236.942 131.866H237.586C238.501 131.866 238.958 131.399 238.958 130.466V128.03L240.162 127.4V130.466C240.162 131.399 240.615 131.866 241.52 131.866H242.178C243.093 131.866 243.55 131.399 243.55 130.466V127.568L244.754 126.924V130.34C244.754 131.357 245.239 131.866 246.21 131.866H247.372V133H246.112C245.272 133 244.633 132.715 244.194 132.146C243.802 132.706 243.191 132.991 242.36 133H241.394C240.573 133 239.961 132.725 239.56 132.174C239.159 132.715 238.561 132.991 237.768 133H236.802C235.999 133 235.388 132.725 234.968 132.174C234.567 132.725 233.955 133 233.134 133H231.748ZM249.383 125.23C248.926 125.23 248.697 124.997 248.697 124.53C248.697 124.073 248.926 123.844 249.383 123.844C249.831 123.844 250.055 124.073 250.055 124.53C250.055 124.997 249.831 125.23 249.383 125.23ZM246.527 133V131.866H247.451C248.366 131.866 248.823 131.399 248.823 130.466V127.568L250.027 126.924V130.508C250.027 131.301 249.789 131.927 249.313 132.384C248.875 132.795 248.301 133 247.591 133H246.527ZM251.799 123.774L252.121 123.172H252.499C252.406 123.004 252.359 122.831 252.359 122.654C252.359 122.374 252.462 122.136 252.667 121.94C252.873 121.735 253.115 121.632 253.395 121.632C253.629 121.632 253.853 121.707 254.067 121.856V122.472C253.862 122.313 253.666 122.234 253.479 122.234C253.134 122.234 252.961 122.388 252.961 122.696C252.961 122.855 253.027 123.013 253.157 123.172H254.431L254.109 123.774H251.799ZM252.541 133V125.174L253.745 124.53V133H252.541Z" fill="#004556"/>
</g>
<defs>
<filter id="filter0_d_133_17391" x="0.0898438" y="82.99" width="258.342" height="60.796" filterUnits="userSpaceOnUse" color-interpolation-filters="sRGB">
<feFlood flood-opacity="0" result="BackgroundImageFix"/>
<feColorMatrix in="SourceAlpha" type="matrix" values="0 0 0 0 0 0 0 0 0 0 0 0 0 0 0 0 0 0 127 0" result="hardAlpha"/>
<feOffset dy="4"/>
<feGaussianBlur stdDeviation="2"/>
<feComposite in2="hardAlpha" operator="out"/>
<feColorMatrix type="matrix" values="0 0 0 0 0 0 0 0 0 0 0 0 0 0 0 0 0 0 0.05 0"/>
<feBlend mode="normal" in2="BackgroundImageFix" result="effect1_dropShadow_133_17391"/>
<feBlend mode="normal" in="SourceGraphic" in2="effect1_dropShadow_133_17391" result="shape"/>
</filter>
<clipPath id="clip0_133_17391">
<rect width="144.618" height="223.372" fill="white" transform="translate(224.813 6) rotate(15)"/>
</clipPath>
</defs>
</svg>
