<svg width="23" height="23" viewBox="0 0 23 23" fill="none" xmlns="http://www.w3.org/2000/svg">
<path d="M21.1537 5.51215L11.5582 15.1062C10.6027 16.0615 7.76628 16.504 7.13261 15.8705C6.49895 15.2369 6.93145 12.4009 7.88698 11.4455L17.4926 1.84143C17.7294 1.58304 18.0162 1.37533 18.3356 1.23081C18.655 1.0863 19.0004 1.00796 19.3509 1.00057C19.7013 0.993202 20.0498 1.0569 20.3749 1.18785C20.7001 1.3188 20.9954 1.5143 21.243 1.7625C21.4905 2.0107 21.6852 2.30646 21.8153 2.63196C21.9453 2.95746 22.0082 3.30593 21.9998 3.65635C21.9915 4.00677 21.9121 4.35191 21.7668 4.67086C21.6214 4.9898 21.4128 5.27601 21.1537 5.51215Z" stroke="#00B0DC" stroke-width="2" stroke-linecap="round" stroke-linejoin="round"/>
<path d="M10.3333 3.33301H5.14813C4.04797 3.33301 2.99295 3.77003 2.21502 4.54796C1.4371 5.32589 1 6.38098 1 7.48113V17.8515C1 18.9516 1.4371 20.0067 2.21502 20.7846C2.99295 21.5626 4.04797 21.9996 5.14813 21.9996H16.5555C18.8473 21.9996 19.6666 20.1329 19.6666 17.8515V12.6663" stroke="#00B0DC" stroke-width="2" stroke-linecap="round" stroke-linejoin="round"/>
</svg>
