<svg width="257" height="222" viewBox="0 0 257 222" fill="none" xmlns="http://www.w3.org/2000/svg">
<path d="M128.5 222.005C199.469 222.005 257 218.646 257 214.502C257 210.359 199.469 207 128.5 207C57.5314 207 0 210.359 0 214.502C0 218.646 57.5314 222.005 128.5 222.005Z" fill="#F0F6FF"/>
<path d="M97.6373 82.9136C97.6373 82.9136 94.7073 77.4836 94.2673 73.7236C93.8373 69.9536 94.1473 69.4536 95.2873 68.4436C95.7673 68.0136 95.9773 66.5636 97.3573 66.2736C98.7373 65.9836 99.9173 69.5536 99.9173 69.5536C99.9173 69.5536 100.307 66.9736 101.467 67.3636C102.627 67.7536 103.147 72.4736 103.147 72.4736C103.147 72.4736 104.347 69.2136 105.247 69.5136C106.147 69.8036 106.687 75.3536 106.117 76.9436C105.557 78.5336 103.997 80.4936 103.997 80.4936L97.6373 82.9136Z" fill="#F48462"/>
<path d="M101.026 79.254C100.916 79.254 100.826 79.164 100.826 79.054C100.816 73.724 103.566 72.434 103.676 72.384C103.776 72.344 103.896 72.384 103.936 72.484C103.986 72.584 103.936 72.704 103.836 72.744C103.806 72.754 101.206 74.004 101.216 79.054C101.226 79.164 101.136 79.254 101.026 79.254Z" fill="black"/>
<path d="M157.917 82.9136C157.917 82.9136 160.847 77.4836 161.287 73.7236C161.717 69.9536 161.407 69.4536 160.267 68.4436C159.787 68.0136 159.577 66.5636 158.197 66.2736C156.807 65.9836 155.637 69.5536 155.637 69.5536C155.637 69.5536 155.247 66.9736 154.087 67.3636C152.927 67.7536 152.407 72.4736 152.407 72.4736C152.407 72.4736 151.207 69.2136 150.307 69.5136C149.407 69.8036 148.867 75.3536 149.437 76.9436C149.997 78.5336 151.557 80.4936 151.557 80.4936L157.917 82.9136Z" fill="#F48462"/>
<path d="M154.527 79.254C154.417 79.254 154.327 79.164 154.327 79.054C154.337 74.004 151.737 72.764 151.707 72.744C151.607 72.694 151.567 72.584 151.607 72.484C151.647 72.384 151.767 72.344 151.867 72.384C151.987 72.434 154.727 73.734 154.717 79.054C154.727 79.164 154.637 79.254 154.527 79.254Z" fill="black"/>
<path d="M122.077 100.784C122.077 100.784 116.087 97.1037 116.827 94.9637C117.567 92.8337 122.087 90.2637 126.737 90.2637C131.387 90.2637 136.517 92.5837 136.647 94.9137C136.757 97.2337 122.077 100.784 122.077 100.784Z" fill="#5C69A5"/>
<path d="M109.068 201.754C108.988 201.754 108.908 201.704 108.878 201.624C108.338 200.134 106.638 196.144 105.338 195.594C105.168 195.524 105.018 195.514 104.878 195.574C104.738 195.634 104.658 195.734 104.618 195.884C104.348 197.014 106.618 200.114 107.608 201.334C107.648 201.384 107.678 201.414 107.688 201.424C107.758 201.514 107.748 201.634 107.658 201.704C107.568 201.774 107.448 201.764 107.378 201.674C107.358 201.644 107.318 201.604 107.278 201.554C106.408 200.504 104.248 198.204 103.048 198.204C103.018 198.204 102.978 198.204 102.948 198.204C102.698 198.234 102.518 198.374 102.388 198.644C102.218 198.984 102.218 199.284 102.368 199.564C102.928 200.554 105.458 200.984 106.378 201.074C106.488 201.084 106.568 201.184 106.558 201.294C106.548 201.404 106.458 201.494 106.338 201.474C106.198 201.464 102.788 201.144 102.008 199.764C101.788 199.374 101.788 198.934 102.018 198.474C102.218 198.074 102.508 197.854 102.898 197.814C103.628 197.734 104.638 198.394 105.528 199.174C104.728 197.944 104.028 196.564 104.218 195.774C104.288 195.504 104.448 195.304 104.708 195.184C104.948 195.074 105.208 195.084 105.488 195.204C107.208 195.944 109.158 201.244 109.238 201.464C109.278 201.564 109.228 201.684 109.118 201.724C109.118 201.754 109.088 201.754 109.068 201.754Z" fill="#A37B90"/>
<path d="M146.077 199.524C145.967 199.524 145.857 199.514 145.747 199.494C145.307 199.394 144.987 199.104 144.787 198.624C144.617 198.214 144.647 197.844 144.877 197.524C145.307 196.914 146.467 196.614 147.647 196.464C146.197 196.244 144.707 195.854 144.237 195.184C144.077 194.954 144.037 194.694 144.127 194.434C144.207 194.184 144.387 193.994 144.657 193.864C146.347 193.074 151.607 195.144 151.827 195.234C151.927 195.274 151.977 195.394 151.937 195.494C151.897 195.594 151.777 195.644 151.677 195.604C150.207 195.024 146.097 193.634 144.817 194.224C144.647 194.304 144.547 194.414 144.497 194.554C144.447 194.704 144.467 194.824 144.557 194.954C145.227 195.914 149.047 196.274 150.617 196.344C150.677 196.344 150.727 196.344 150.737 196.344C150.847 196.354 150.937 196.444 150.927 196.554C150.927 196.664 150.837 196.744 150.727 196.744C150.687 196.744 150.627 196.744 150.557 196.734C149.157 196.684 145.877 196.774 145.187 197.734C145.047 197.934 145.027 198.174 145.147 198.444C145.287 198.794 145.507 199.004 145.817 199.064C146.947 199.314 148.937 197.714 149.607 197.074C149.687 196.994 149.817 197.004 149.887 197.084C149.967 197.164 149.957 197.294 149.877 197.364C149.807 197.494 147.627 199.524 146.077 199.524Z" fill="#A37B90"/>
<path d="M126.246 211.024C126.256 211.274 126.066 211.494 125.816 211.514L96.636 213.864C96.376 213.884 96.156 213.694 96.136 213.434L95.916 210.774C95.916 210.514 96.076 210.304 96.306 210.274C96.466 210.254 96.596 210.154 96.656 210.014C96.686 209.944 96.706 209.854 96.696 209.764C96.606 208.984 96.546 207.294 97.466 205.874C98.716 203.954 105.296 201.834 108.196 200.524C110.086 199.674 111.046 197.434 111.486 195.984C111.726 195.184 112.436 194.614 113.276 194.574C116.586 194.444 124.396 194.124 124.896 194.214C125.536 194.334 126.246 200.164 126.016 202.454C125.796 204.744 125.316 207.424 125.316 207.424L126.076 207.284L126.246 211.024Z" fill="#F7B369"/>
<path d="M126.246 211.024C126.256 211.274 126.066 211.494 125.816 211.514L96.636 213.864C96.376 213.884 96.156 213.694 96.136 213.434L95.916 210.774C95.916 210.514 96.076 210.304 96.306 210.274C96.466 210.254 96.596 210.154 96.656 210.014C104.866 209.464 125.316 207.424 125.316 207.424L126.076 207.284L126.246 211.024Z" fill="#F7B369"/>
<path d="M170.506 190.844C170.686 191.014 170.696 191.304 170.526 191.494L150.826 213.144C150.656 213.334 150.356 213.344 150.166 213.174L148.186 211.384C148.006 211.194 147.986 210.934 148.126 210.744C148.226 210.614 148.256 210.454 148.206 210.314C148.186 210.244 148.136 210.164 148.066 210.104C147.466 209.594 146.276 208.404 145.976 206.734C145.576 204.474 148.936 198.434 150.166 195.494C150.966 193.584 150.136 191.294 149.466 189.934C149.096 189.184 149.226 188.284 149.806 187.684C152.136 185.324 157.616 179.764 158.046 179.484C158.596 179.134 163.096 182.914 164.496 184.744C165.896 186.564 167.376 188.844 167.376 188.844L167.836 188.224L170.506 190.844Z" fill="#F7B369"/>
<path d="M170.507 190.844C170.687 191.014 170.697 191.304 170.527 191.494L150.827 213.144C150.657 213.334 150.357 213.344 150.167 213.174L148.187 211.384C148.007 211.194 147.987 210.934 148.127 210.744C148.227 210.614 148.257 210.454 148.207 210.314C153.827 204.314 167.367 188.844 167.367 188.844L167.827 188.224L170.507 190.844Z" fill="#F7B369"/>
<path d="M111.676 126.334C111.676 126.334 103.956 146.394 101.856 160.114C99.7563 173.844 107.006 196.134 107.006 196.134L129.306 195.844C129.306 195.844 125.116 173.744 124.346 167.024C123.776 159.624 127.776 127.594 127.776 127.594L111.676 126.334Z" fill="#68B6D8"/>
<path d="M137.607 125.944C137.607 125.944 141.797 143.854 150.187 158.854C158.577 173.844 162.577 178.134 162.577 178.134L145.067 193.214C145.067 193.214 125.027 170.934 122.547 155.744C120.067 140.554 120.257 126.924 120.257 126.924L137.607 125.944Z" fill="#68B6D8"/>
<path d="M136.138 134.694C132.688 134.694 131.098 131.184 131.078 131.144C131.038 131.044 131.078 130.924 131.178 130.884C131.278 130.844 131.398 130.884 131.438 130.984C131.518 131.164 133.388 135.254 137.558 134.094C137.668 134.064 137.778 134.124 137.808 134.234C137.838 134.344 137.778 134.454 137.668 134.484C137.128 134.624 136.608 134.694 136.138 134.694Z" fill="#40507F"/>
<path d="M145.256 157.934C145.096 157.934 144.956 157.884 144.826 157.794C144.416 157.494 144.376 157.174 144.406 156.954C144.576 155.854 147.316 154.894 147.626 154.784C147.706 154.764 147.786 154.784 147.846 154.844C147.896 154.904 147.906 154.994 147.876 155.064C147.736 155.334 146.496 157.674 145.446 157.914C145.376 157.934 145.316 157.934 145.256 157.934ZM147.266 155.354C146.206 155.774 144.896 156.464 144.816 157.024C144.806 157.084 144.776 157.254 145.076 157.484C145.156 157.544 145.246 157.564 145.356 157.534C145.956 157.384 146.786 156.164 147.266 155.354Z" fill="#40507F"/>
<path d="M144.606 187.724C144.546 187.724 144.496 187.704 144.456 187.654C144.386 187.574 144.396 187.444 144.486 187.374L159.686 174.814C159.776 174.744 159.896 174.754 159.966 174.844C160.036 174.924 160.026 175.054 159.936 175.124L144.736 187.684C144.696 187.704 144.646 187.724 144.606 187.724Z" fill="#40507F"/>
<path d="M124.077 162.174C123.997 162.174 123.928 162.134 123.898 162.054C121.238 156.294 120.358 138.544 120.268 136.634L113.847 134.684C113.737 134.654 113.678 134.544 113.718 134.434C113.748 134.324 113.868 134.274 113.968 134.304L120.528 136.294C120.608 136.314 120.667 136.394 120.667 136.474C120.677 136.664 121.548 155.994 124.268 161.884C124.318 161.984 124.267 162.104 124.167 162.154C124.127 162.164 124.107 162.174 124.077 162.174Z" fill="#40507F"/>
<path d="M109.067 191.844C108.957 191.844 108.867 191.754 108.867 191.644C108.867 191.534 108.957 191.444 109.067 191.444L128.097 191.074C128.217 191.094 128.297 191.164 128.297 191.274C128.297 191.384 128.207 191.474 128.097 191.474L109.067 191.844Z" fill="#40507F"/>
<path d="M96.6559 210.214C96.5559 210.214 96.4659 210.134 96.4559 210.034C96.4459 209.924 96.5259 209.824 96.6359 209.814L125.296 207.224C125.416 207.214 125.506 207.294 125.516 207.404C125.526 207.514 125.446 207.614 125.336 207.624L96.6759 210.214C96.6659 210.214 96.6659 210.214 96.6559 210.214Z" fill="#A37B90"/>
<path d="M148.207 210.514C148.157 210.514 148.117 210.494 148.077 210.464C147.997 210.394 147.987 210.264 148.057 210.184L167.227 188.714C167.297 188.634 167.427 188.624 167.507 188.694C167.587 188.764 167.597 188.894 167.527 188.974L148.357 210.444C148.317 210.484 148.257 210.514 148.207 210.514Z" fill="#A37B90"/>
<path d="M106.747 78.814C106.747 78.814 103.937 88.474 108.497 92.404C113.057 96.334 119.867 94.594 121.357 94.474C122.857 94.354 127.107 93.974 130.037 94.534C132.977 95.094 139.907 94.924 144.337 88.984C148.767 83.044 148.957 78.644 148.957 78.644L161.887 78.814C161.887 78.814 162.947 94.494 155.647 102.534C150.507 108.194 140.407 110.274 140.407 110.274C140.407 110.274 140.037 116.394 139.787 119.584C139.537 122.764 138.157 126.924 138.157 126.924C138.157 126.924 130.897 128.454 123.227 128.324C115.557 128.204 110.897 127.284 110.897 127.284C110.897 127.284 110.497 125.394 110.437 120.924C110.377 116.454 111.057 110.454 111.057 110.454C111.057 110.454 96.4471 109.834 92.8171 100.084C89.1871 90.334 94.2571 78.314 94.2571 78.314L106.747 78.814Z" fill="#F7B369"/>
<path d="M129.806 88.5039L129.276 95.8039C129.276 95.8039 128.156 97.7739 124.976 97.7039C122.606 97.6539 121.836 96.8239 121.836 96.8239L122.426 93.1739L123.006 89.6139L128.816 88.6739L129.806 88.5039Z" fill="#F48462"/>
<path d="M128.837 89.8037C128.807 89.9537 128.737 90.1137 128.627 90.3037C127.157 92.8737 123.808 93.1337 122.438 93.1237L123.017 89.5938L128.837 89.8037Z" fill="black"/>
<path d="M123.477 78.4738C123.477 78.4738 120.367 84.7138 121.027 88.4338C121.697 92.1538 124.807 91.8538 126.697 91.3138C128.587 90.7738 129.537 89.6338 129.537 89.6338C129.537 89.6338 131.207 90.4138 132.487 88.7938C133.767 87.1738 133.207 85.1338 132.267 84.5938C131.317 84.0538 130.097 84.7138 130.097 84.7138L131.157 82.9138C131.157 82.9138 128.037 73.0138 123.477 78.4738Z" fill="#F48462"/>
<path d="M130.037 87.5338C129.967 87.5338 129.907 87.5038 129.867 87.4438C129.807 87.3538 129.837 87.2238 129.927 87.1638L132.247 85.7138C132.337 85.6538 132.467 85.6838 132.527 85.7738C132.587 85.8638 132.557 85.9938 132.467 86.0538L130.147 87.5038C130.117 87.5238 130.077 87.5338 130.037 87.5338Z" fill="black"/>
<path d="M132.017 87.7136C131.997 87.7136 131.967 87.7136 131.947 87.7036L130.557 87.1536C130.457 87.1136 130.407 86.9936 130.447 86.8936C130.487 86.7936 130.597 86.7336 130.707 86.7836L132.097 87.3336C132.197 87.3736 132.247 87.4936 132.207 87.5936C132.177 87.6636 132.097 87.7136 132.017 87.7136Z" fill="black"/>
<path d="M127.276 81.6336C127.206 81.6336 127.136 81.5936 127.106 81.5336C126.566 80.6136 125.786 80.9536 125.756 80.9636C125.656 81.0036 125.536 80.9636 125.496 80.8636C125.446 80.7636 125.496 80.6436 125.596 80.6036C125.996 80.4236 126.886 80.3536 127.456 81.3336C127.516 81.4336 127.476 81.5536 127.386 81.6036C127.346 81.6236 127.316 81.6336 127.276 81.6336Z" fill="black"/>
<path d="M122.636 80.8938C122.576 80.8938 122.516 80.8638 122.476 80.8138C122.416 80.7238 122.436 80.6038 122.516 80.5338C123.146 80.0738 123.796 80.3338 124.046 80.5338C124.136 80.6038 124.146 80.7238 124.076 80.8138C124.006 80.9038 123.886 80.9138 123.796 80.8438C123.776 80.8238 123.286 80.4638 122.746 80.8438C122.716 80.8838 122.676 80.8938 122.636 80.8938Z" fill="black"/>
<path d="M126.907 83.8837C126.837 83.8837 126.777 83.8537 126.737 83.7837C126.737 83.7837 126.477 83.3737 126.047 83.2437C125.697 83.1437 125.487 83.5537 125.477 83.5737C125.427 83.6737 125.307 83.7137 125.207 83.6637C125.107 83.6137 125.067 83.4937 125.117 83.3937C125.237 83.1437 125.627 82.7037 126.157 82.8537C126.747 83.0237 127.067 83.5437 127.077 83.5637C127.137 83.6537 127.107 83.7837 127.007 83.8337C126.977 83.8737 126.937 83.8837 126.907 83.8837Z" fill="black"/>
<path d="M122.957 83.4039C122.877 83.4039 122.797 83.3539 122.767 83.2739C122.727 83.1639 122.577 82.8739 122.357 82.8039C122.177 82.7439 121.937 83.0239 121.847 83.1539C121.787 83.2439 121.657 83.2639 121.567 83.2039C121.477 83.1439 121.457 83.0139 121.517 82.9239C121.567 82.8539 122.007 82.2639 122.477 82.4239C122.917 82.5639 123.107 83.0739 123.137 83.1339C123.177 83.2339 123.127 83.3539 123.017 83.3939C123.007 83.3939 122.987 83.4039 122.957 83.4039Z" fill="black"/>
<path d="M124.958 88.7038C124.598 88.7038 124.298 88.5738 124.278 88.5638C124.208 88.5338 124.168 88.4738 124.158 88.3938C124.148 88.3238 124.188 88.2538 124.248 88.2138L125.868 87.1638C125.928 87.1238 126.018 87.1238 126.078 87.1638C126.148 87.2038 126.178 87.2738 126.168 87.3538C126.108 87.9438 125.898 88.3438 125.538 88.5538C125.358 88.6638 125.148 88.7038 124.958 88.7038ZM124.858 88.2938C125.018 88.3038 125.198 88.2938 125.358 88.2038C125.508 88.1138 125.618 87.9638 125.698 87.7538L124.858 88.2938Z" fill="black"/>
<path d="M123.288 86.8039C123.198 86.8039 123.108 86.7339 123.088 86.6439C122.708 84.5039 123.838 83.1339 123.888 83.0739C123.958 82.9939 124.078 82.9739 124.168 83.0539C124.248 83.1239 124.258 83.2539 124.188 83.3339C124.178 83.3439 123.128 84.6239 123.478 86.5739C123.498 86.6839 123.428 86.7839 123.318 86.8039C123.308 86.8039 123.298 86.8039 123.288 86.8039Z" fill="black"/>
<path d="M116.826 94.9636C116.826 94.9636 116.376 96.9636 118.986 98.5036C121.596 100.044 124.916 100.774 124.916 100.774C124.916 100.774 130.426 99.4236 133.946 97.6936C136.636 96.3736 137.376 94.9336 136.226 93.8136C135.066 92.6836 131.026 92.6836 131.026 92.6836C131.026 92.6836 128.366 93.5436 127.066 94.3436C125.766 95.1436 124.926 95.5136 124.926 95.5136C124.926 95.5136 122.716 93.8836 121.026 93.5236C119.336 93.1536 118.996 93.6836 118.996 93.6836L116.826 94.9636Z" fill="#5C69A5"/>
<path d="M121.087 105.384C121.067 105.384 121.047 105.384 121.027 105.374C120.917 105.344 120.867 105.224 120.897 105.124L122.167 101.194C122.197 101.084 122.317 101.034 122.417 101.064C122.527 101.094 122.577 101.214 122.547 101.314L121.277 105.244C121.257 105.324 121.177 105.384 121.087 105.384Z" fill="#5C69A5"/>
<path d="M129.808 105.634C129.718 105.634 129.638 105.574 129.618 105.484L128.638 101.304C128.608 101.194 128.678 101.094 128.788 101.064C128.898 101.044 129.008 101.104 129.028 101.214L130.008 105.394C130.038 105.504 129.968 105.604 129.858 105.634C129.838 105.624 129.828 105.634 129.808 105.634Z" fill="#5C69A5"/>
<path d="M103.486 93.4038C103.326 93.4038 103.116 93.3438 102.966 93.0838C102.846 92.8738 102.816 92.6438 102.896 92.3938C103.286 91.1138 106.436 89.6138 106.576 89.5438C106.656 89.5038 106.756 89.5238 106.816 89.5938C106.876 89.6638 106.886 89.7538 106.836 89.8338C106.456 90.4338 104.566 93.4038 103.486 93.4038ZM106.086 90.2438C105.036 90.8038 103.506 91.7738 103.276 92.5138C103.236 92.6538 103.246 92.7738 103.306 92.8838C103.366 92.9938 103.426 92.9838 103.486 93.0038C104.046 93.0038 105.246 91.5038 106.086 90.2438Z" fill="#5C69A5"/>
<path d="M145.726 94.1137C144.276 94.1137 142.406 91.6137 142.176 91.2937C142.126 91.2237 142.126 91.1238 142.176 91.0538C142.226 90.9838 142.326 90.9538 142.406 90.9838C143.366 91.3338 146.516 92.5637 146.586 93.4737C146.596 93.6237 146.546 93.8238 146.256 93.9838C146.086 94.0738 145.906 94.1137 145.726 94.1137ZM142.936 91.6238C143.786 92.6438 145.236 94.0738 146.056 93.6338C146.116 93.6038 146.186 93.5538 146.176 93.5038C146.156 93.1138 144.586 92.2838 142.936 91.6238Z" fill="#5C69A5"/>
<path d="M102.347 74.6637C102.317 74.6637 102.287 74.6538 102.257 74.6438C101.417 74.2538 101.817 72.7738 101.867 72.6038C101.897 72.4938 102.017 72.4338 102.117 72.4638C102.227 72.4938 102.287 72.6137 102.257 72.7237C102.157 73.0637 101.987 74.0637 102.427 74.2737C102.527 74.3237 102.577 74.4437 102.527 74.5437C102.497 74.6137 102.427 74.6637 102.347 74.6637Z" fill="black"/>
<path d="M128.957 1.04375L141.197 22.6038C141.277 22.7438 141.417 22.8438 141.577 22.8838L165.937 27.9238C167.477 28.1438 168.087 30.0338 166.977 31.1238L149.877 49.1638C149.757 49.2938 149.697 49.4738 149.727 49.6538L154.007 74.8037C154.267 76.3337 152.657 77.5038 151.287 76.7838L127.537 64.7038C127.377 64.6237 127.177 64.6237 127.017 64.7038L103.747 76.7637C102.367 77.4837 100.767 76.3238 101.027 74.7838L104.967 49.6938C104.997 49.5238 104.937 49.3438 104.817 49.2138L87.5673 31.1138C86.4573 30.0338 87.0673 28.1438 88.6073 27.9138L113.147 22.8738C113.307 22.8438 113.447 22.7438 113.527 22.5938L125.587 1.03375C126.277 -0.346247 128.267 -0.346246 128.957 1.04375Z" fill="#FFB655"/>
<path d="M98.9078 29.5338C98.6778 29.5338 98.4678 29.3738 98.4178 29.1338C98.3578 28.8638 98.5378 28.5938 98.8078 28.5438L113.338 25.5238C113.608 25.4738 113.878 25.6438 113.928 25.9138C113.988 26.1838 113.808 26.4538 113.538 26.5038L99.0078 29.5238C98.9778 29.5238 98.9478 29.5338 98.9078 29.5338Z" fill="#FFDD92"/>
<path d="M157.177 70.3037C157.177 70.3037 160.987 67.5237 160.067 70.7937C159.377 73.2737 156.107 76.5837 155.167 75.9037C154.217 75.2237 155.047 72.8138 155.047 72.8138C155.047 72.8138 153.607 74.0437 152.687 72.8637C151.847 71.7937 152.947 69.9137 152.947 69.9137C152.947 69.9137 151.557 71.6237 150.647 70.3637C149.307 68.5137 153.837 64.5938 155.187 64.5938C156.977 64.5938 155.387 66.9337 155.387 66.9337C155.387 66.9337 158.197 65.1337 158.647 66.9037C159.097 68.6737 157.177 70.3037 157.177 70.3037Z" fill="#F48462"/>
<path d="M155.647 76.1636C155.407 76.1636 155.137 76.0936 154.857 75.8936C154.427 75.5736 154.267 74.9736 154.397 74.1636C154.517 73.4236 154.867 72.7036 155.397 72.0836L157.017 70.1836C157.087 70.0936 157.217 70.0836 157.297 70.1636C157.377 70.2336 157.387 70.3636 157.317 70.4436L155.697 72.3436C155.217 72.9136 154.907 73.5636 154.787 74.2336C154.677 74.8936 154.777 75.3436 155.087 75.5736C155.677 76.0036 156.137 75.6136 156.187 75.5636C156.267 75.4936 156.397 75.4936 156.467 75.5736C156.537 75.6536 156.537 75.7836 156.457 75.8536C156.317 75.9936 156.017 76.1636 155.647 76.1636Z" fill="black"/>
<path d="M153.758 73.504C153.358 73.504 152.938 73.374 152.548 73.024C151.308 71.914 152.718 69.894 152.778 69.814L155.228 66.824C155.298 66.734 155.428 66.724 155.508 66.794C155.588 66.864 155.608 66.994 155.538 67.074L153.098 70.054C153.098 70.064 151.838 71.854 152.818 72.724C153.798 73.594 154.868 72.714 154.918 72.674C154.998 72.604 155.128 72.614 155.198 72.694C155.268 72.774 155.258 72.904 155.178 72.974C154.878 73.214 154.348 73.504 153.758 73.504Z" fill="black"/>
<path d="M98.3771 70.3037C98.3771 70.3037 94.5671 67.5237 95.4871 70.7937C96.1771 73.2737 99.4471 76.5837 100.387 75.9037C101.337 75.2237 100.507 72.8138 100.507 72.8138C100.507 72.8138 101.947 74.0437 102.867 72.8637C103.707 71.7937 102.607 69.9137 102.607 69.9137C102.607 69.9137 103.997 71.6237 104.907 70.3637C106.247 68.5137 101.717 64.5938 100.367 64.5938C98.5771 64.5938 100.167 66.9337 100.167 66.9337C100.167 66.9337 97.3571 65.1337 96.9071 66.9037C96.4571 68.6737 98.3771 70.3037 98.3771 70.3037Z" fill="#F48462"/>
<path d="M99.9065 76.1635C99.5365 76.1635 99.2365 75.9935 99.0865 75.8535C99.0065 75.7835 98.9965 75.6535 99.0765 75.5735C99.1565 75.4935 99.2765 75.4835 99.3565 75.5635C99.4065 75.6035 99.8765 75.9935 100.457 75.5735C100.767 75.3435 100.866 74.8935 100.756 74.2335C100.646 73.5635 100.326 72.9135 99.8465 72.3435L98.2265 70.4435C98.1565 70.3635 98.1665 70.2335 98.2465 70.1635C98.3365 70.0935 98.4565 70.1035 98.5265 70.1835L100.147 72.0835C100.677 72.7035 101.017 73.4235 101.147 74.1635C101.287 74.9835 101.127 75.5635 100.687 75.8935C100.417 76.0935 100.146 76.1635 99.9065 76.1635Z" fill="black"/>
<path d="M101.796 73.504C101.206 73.504 100.676 73.214 100.386 72.974C100.306 72.904 100.296 72.774 100.366 72.694C100.436 72.614 100.566 72.604 100.646 72.674C100.686 72.714 101.766 73.604 102.746 72.724C103.716 71.854 102.466 70.064 102.456 70.044L100.026 67.074C99.9564 66.984 99.9664 66.864 100.056 66.794C100.136 66.724 100.266 66.734 100.336 66.824L102.776 69.804C102.846 69.904 104.256 71.924 103.016 73.024C102.616 73.374 102.186 73.504 101.796 73.504Z" fill="black"/>
<path d="M130.097 84.714L129.097 85.484L130.037 83.194C130.037 83.194 127.467 81.734 126.767 80.474C126.067 79.214 125.677 78.744 125.677 78.744L123.487 78.474C123.487 78.474 120.937 73.694 123.937 73.454C126.937 73.214 131.467 77.764 132.367 79.464C133.277 81.174 132.367 82.584 132.367 82.584C132.367 82.584 133.477 82.664 133.677 83.504C133.877 84.354 132.997 85.474 132.997 85.474C132.997 85.474 131.967 84.034 130.097 84.714Z" fill="black"/>
</svg>
