<svg width="34" height="34" viewBox="0 0 34 34" fill="none" xmlns="http://www.w3.org/2000/svg">
<path fill-rule="evenodd" clip-rule="evenodd" d="M17 1C13.3802 1 13.0379 7.30493 10.8829 9.53258C8.7278 11.7602 2.02791 9.21319 1.09704 13.1672C0.168133 17.1232 6.19529 18.4654 6.93842 21.8594C7.68546 25.2535 4.00307 30.0221 7.14963 32.3953C10.2962 34.7664 13.6833 29.3995 17 29.3995C20.3167 29.3995 23.7038 34.7664 26.8503 32.3953C29.9969 30.0221 26.3165 25.2535 27.0616 21.8594C27.8066 18.4654 33.8318 17.1232 32.9029 13.1672C31.974 9.21319 25.2722 11.7602 23.1191 9.53258C20.964 7.30493 20.6198 1 17 1Z" stroke="#00B0DC" stroke-width="2" stroke-linecap="round" stroke-linejoin="round"/>
</svg>
