<svg width="33" height="32" viewBox="0 0 33 32" fill="none" xmlns="http://www.w3.org/2000/svg">
<path d="M7.75652 25.0329C7.48148 24.9779 7.26145 24.9229 6.98642 24.8129C6.71138 24.7029 6.49135 24.6479 6.27133 24.5379C5.77626 24.3178 5.33621 24.0428 4.89615 23.7128C4.01604 23.1077 3.30094 22.2826 2.75087 21.2925C2.2008 20.3573 1.87076 19.2572 1.81575 18.2121C1.76075 17.662 1.81575 17.1669 1.87076 16.6169C1.92577 16.3418 1.98077 16.1218 2.03578 15.8468C2.09079 15.5717 2.2008 15.3517 2.25581 15.0767L2.31082 15.8468C2.31082 16.1218 2.36582 16.3418 2.42083 16.6169C2.47584 17.1119 2.58585 17.607 2.69587 18.047C2.9159 18.9822 3.24594 19.8623 3.741 20.6874C4.23607 21.5125 4.78614 22.2826 5.50123 22.9977C5.83127 23.3277 6.21632 23.6578 6.60137 23.9878C6.76639 24.1528 6.98642 24.3179 7.20645 24.4829L7.75652 25.0329Z" fill="#42ADE2"/>
<path d="M7.59098 27.0131C7.42596 27.1231 7.20593 27.1782 6.9859 27.2332C6.76587 27.2882 6.60085 27.3432 6.38082 27.3432C5.99577 27.3982 5.55572 27.4532 5.11566 27.3982C4.29055 27.3432 3.41044 27.1231 2.69535 26.7381C1.92525 26.353 1.26516 25.748 0.825106 25.0329C0.605078 24.7028 0.38505 24.3178 0.220028 23.9327C0.165021 23.7677 0.110014 23.5477 0.055007 23.3277C0.055007 23.1626 0 22.9976 0 22.7776C0.165021 22.9426 0.275035 23.1076 0.38505 23.2176C0.550071 23.3827 0.660085 23.5477 0.770099 23.6577C1.04513 23.9327 1.26516 24.2078 1.5402 24.4278C2.09027 24.9229 2.64034 25.3629 3.30043 25.693C3.9055 26.023 4.62059 26.298 5.28068 26.5181C5.61072 26.6281 5.99577 26.6831 6.38082 26.7931C6.54584 26.8481 6.76587 26.8481 6.93089 26.9031C7.20593 26.9581 7.37095 26.9581 7.59098 27.0131Z" fill="#42ADE2"/>
<path d="M20.0215 0.279785C20.2965 0.334792 20.5165 0.444806 20.7916 0.554821C21.0666 0.664835 21.2866 0.774849 21.5067 0.884863C22.0017 1.1599 22.4418 1.43493 22.8819 1.76498C23.762 2.42506 24.4771 3.30517 24.9721 4.2953C25.4672 5.28543 25.7422 6.38557 25.7422 7.43071C25.7422 7.98078 25.6872 8.47584 25.5772 9.02591C25.5222 9.30095 25.4672 9.52097 25.3572 9.79601C25.2472 10.071 25.1921 10.2911 25.0821 10.5111L25.0271 9.741C25.0271 9.46597 25.0271 9.24594 24.9721 8.9709L24.8071 7.48571C24.6421 6.55059 24.312 5.61547 23.872 4.73536C23.4319 3.85525 22.8819 3.08515 22.2218 2.37005C21.8917 1.985 21.5067 1.65496 21.1766 1.26991C21.0116 1.10489 20.7916 0.93987 20.5716 0.774849L20.0215 0.279785Z" fill="#42ADE2"/>
<path d="M24.8086 0.0596924C25.0286 0.114699 25.1936 0.169707 25.3587 0.279721C25.5237 0.334728 25.7437 0.444742 25.9087 0.554756C26.2388 0.774785 26.5688 0.994813 26.8989 1.26985C27.5039 1.81992 27.999 2.48 28.274 3.2501C28.6041 4.0202 28.7141 4.84531 28.6041 5.67042C28.5491 6.05546 28.4391 6.44051 28.329 6.82556C28.274 6.99058 28.164 7.21061 28.109 7.37563C27.999 7.54066 27.944 7.70568 27.779 7.8707V6.77056C27.779 6.38551 27.724 6.05546 27.724 5.72542C27.614 5.01033 27.5039 4.35024 27.2289 3.74517C26.9539 3.08508 26.6238 2.53501 26.2388 1.92993C26.0188 1.6549 25.7987 1.32486 25.5787 1.04982C25.4687 0.884799 25.3587 0.774784 25.1936 0.609763C25.0836 0.334728 24.9186 0.169707 24.8086 0.0596924Z" fill="#42ADE2"/>
<path d="M4.40007 8.25581C3.29993 8.75088 2.91488 10.071 3.40995 11.1712L10.3408 25.6381L14.1913 23.8228L7.26044 9.30095C6.76538 8.2008 5.50021 7.70574 4.40007 8.25581Z" fill="#FFDD67"/>
<path d="M22.6079 19.7522L26.6784 17.827L18.7574 1.32487C18.2073 0.22473 16.8871 -0.270333 15.732 0.279737C14.6318 0.829808 14.1368 2.14998 14.6868 3.30513L22.6079 19.7522Z" fill="#FFDD67"/>
<path d="M15.7871 0.224717C15.6771 0.279724 15.567 0.334731 15.457 0.444745C16.5022 0.169709 17.6023 0.664773 18.0974 1.6549L26.0184 18.157L26.7335 17.827L18.8125 1.32486C18.2624 0.16971 16.9422 -0.325354 15.7871 0.224717Z" fill="#EBA352"/>
<path d="M14.1916 23.7677L18.4272 21.7325L10.3411 4.90029C9.79105 3.74514 8.36087 3.19507 7.20572 3.74514C6.05057 4.29522 5.55551 5.7254 6.10558 6.88055L14.1916 23.7677Z" fill="#FFDD67"/>
<path d="M7.20504 3.80022C7.09503 3.85522 6.98501 3.91023 6.875 4.02025C7.92013 3.74521 9.13029 4.24027 9.62535 5.28541L14.631 15.7918L15.8412 16.5069L10.3404 4.95537C9.79037 3.74521 8.4152 3.25015 7.20504 3.80022Z" fill="#EBA352"/>
<path d="M17.7678 20.4123L22.0033 18.377L13.9173 1.54484C13.3672 0.389689 11.937 -0.160382 10.7819 0.444696C9.62674 0.994767 9.13168 2.42495 9.68175 3.5801L17.7678 20.4123Z" fill="#FFDD67"/>
<path d="M10.7812 0.389695C10.6712 0.444702 10.5612 0.554716 10.4512 0.609723C11.4963 0.334688 12.7065 0.829752 13.2015 1.87489L18.8673 13.7564L20.0774 14.4715L13.9166 1.54484C13.3665 0.334688 11.9364 -0.160376 10.7812 0.389695Z" fill="#EBA352"/>
<path d="M4.40036 8.2556C4.29034 8.31061 4.18033 8.36561 4.07031 8.47563C5.06044 8.20059 6.10557 8.69566 6.54563 9.68578L10.6712 18.3219L11.8813 19.037L7.26072 9.35574C6.76566 8.20059 5.5005 7.70553 4.40036 8.2556Z" fill="#EBA352"/>
<path d="M32.343 6.60551C30.8578 5.45036 28.4375 6.71552 27.2274 10.676C26.4022 13.4264 26.2922 14.2515 24.532 15.0766L23.5419 13.0413C23.5419 13.0413 7.91987 20.5773 8.52495 21.7875C8.52495 21.7875 10.3952 27.6182 13.5856 30.3136C18.3162 34.3841 29.3726 30.0385 29.8677 19.5322C30.1427 13.4264 33.9382 7.87067 32.343 6.60551Z" fill="#FFDD67"/>
<path d="M32.3445 6.60551C32.0695 6.38548 31.7394 6.27547 31.4094 6.22046C31.4644 6.27547 31.5744 6.27547 31.6294 6.33047C33.2796 7.59564 31.5744 10.511 30.6393 13.1514C29.8692 15.2416 29.2091 17.3869 29.3191 19.4772C29.7592 28.6083 20.573 32.9539 15.0723 31.3037C20.463 33.559 30.4742 29.2684 30.0342 19.7522C29.9242 17.6619 30.5293 15.6267 31.3544 13.4264C32.2345 10.786 33.9397 7.87067 32.3445 6.60551Z" fill="#EBA352"/>
<path d="M25.0286 14.8566C21.6182 15.2416 16.6125 20.1372 20.133 25.4729C17.5477 20.0822 21.7832 16.4518 24.4785 15.1866C24.7536 14.9666 25.0286 14.8566 25.0286 14.8566Z" fill="#EBA352"/>
</svg>
