<svg width="142" height="128" viewBox="0 0 142 128" fill="none" xmlns="http://www.w3.org/2000/svg">
<path d="M71 128C110.212 128 142 124.642 142 120.5C142 116.358 110.212 113 71 113C31.7878 113 0 116.358 0 120.5C0 124.642 31.7878 128 71 128Z" fill="#E7E7E5"/>
<path d="M33.2775 106.088C33.2775 106.088 31.0923 106.378 30.1623 106.088C29.2323 105.798 29.5788 101.562 28.6241 101.474C26.4318 101.272 26.803 106.898 27.7366 108.083C28.6701 109.267 33.4756 108.765 33.4756 108.765L33.2775 106.088Z" fill="#00B0DC"/>
<path opacity="0.2" d="M33.2775 106.088C33.2775 106.088 31.0923 106.378 30.1623 106.088C29.2323 105.798 29.5788 101.562 28.6241 101.474C26.4318 101.272 26.803 106.898 27.7366 108.083C28.6701 109.267 33.4756 108.765 33.4756 108.765L33.2775 106.088Z" fill="white"/>
<path d="M33.4614 116.067C33.4614 116.067 30.226 87.3403 34.0873 87.0079C37.9487 86.6755 38.8822 96.8063 37.39 115.699L33.4614 116.067Z" fill="#00B0DC"/>
<path opacity="0.3" d="M33.4614 116.067C33.4614 116.067 30.226 87.3403 34.0873 87.0079C37.9487 86.6755 38.8822 96.8063 37.39 115.699L33.4614 116.067Z" fill="white"/>
<path d="M28.9248 112.588H41.6298L40.569 120.717H29.9856L28.9248 112.588Z" fill="#263238"/>
<path d="M37.2976 96.428C37.2976 96.428 40.816 96.6154 40.9221 96.428C41.0281 96.2405 41.0281 92.1741 42.5203 92.4146C44.0126 92.655 43.3584 97.5489 42.5203 98.1182C41.6823 98.6875 37.2976 98.9951 37.2976 98.9951C37.2976 98.9951 36.7071 97.1882 37.2976 96.428Z" fill="#00B0DC"/>
<path opacity="0.4" d="M37.2976 96.428C37.2976 96.428 40.816 96.6154 40.9221 96.428C41.0281 96.2405 41.0281 92.1741 42.5203 92.4146C44.0126 92.655 43.3584 97.5489 42.5203 98.1182C41.6823 98.6875 37.2976 98.9951 37.2976 98.9951C37.2976 98.9951 36.7071 97.1882 37.2976 96.428Z" fill="white"/>
<path d="M35.066 113.443C34.5816 109.066 34.1749 104.681 33.885 100.282C33.7364 98.0827 33.6339 95.8833 33.5915 93.6768C33.5738 92.5736 33.5738 91.4703 33.6304 90.3671C33.6586 89.8154 33.7011 89.2603 33.7859 88.7087C33.8319 88.4329 33.8814 88.157 33.9734 87.8812C34.0264 87.7433 34.0724 87.6054 34.1749 87.4746C34.1961 87.4392 34.2244 87.4074 34.2633 87.3791C34.2951 87.3473 34.3305 87.319 34.3835 87.2978C34.4083 87.2872 34.433 87.2766 34.4578 87.2695C34.4861 87.266 34.5179 87.266 34.5497 87.2695C34.6169 87.2695 34.6558 87.3013 34.7053 87.3261C34.8644 87.4463 34.921 87.5877 34.9847 87.7221C35.0412 87.8565 35.0872 87.9944 35.1261 88.1288C35.2039 88.401 35.264 88.6733 35.3135 88.9456C35.4161 89.4937 35.4868 90.0418 35.5504 90.5898C35.6742 91.686 35.7591 92.7857 35.8333 93.8854C35.9712 96.0849 36.0667 98.2878 36.1162 100.487C36.1728 102.69 36.2046 104.893 36.2187 107.093C36.2258 109.296 36.2187 111.498 36.194 113.698C36.1728 111.495 36.1339 109.296 36.0808 107.093C36.0384 104.893 35.9818 102.69 35.9005 100.491C35.8156 98.2913 35.7308 96.0919 35.5787 93.896C35.5045 92.7999 35.4125 91.7037 35.2852 90.6146C35.2216 90.07 35.1473 89.5255 35.0448 88.9916C34.9953 88.7228 34.9352 88.4576 34.8609 88.1995C34.822 88.0722 34.7796 87.9449 34.7301 87.8282C34.6806 87.715 34.6098 87.5983 34.5497 87.5524C34.5356 87.5524 34.525 87.5312 34.5179 87.5382C34.5144 87.5382 34.5108 87.5382 34.5073 87.5347C34.5002 87.5382 34.4932 87.5418 34.4896 87.5453C34.4755 87.5453 34.4578 87.5595 34.4401 87.5771C34.426 87.6019 34.4083 87.6196 34.3941 87.6443C34.3234 87.7292 34.2775 87.8529 34.2315 87.9732C34.1466 88.2207 34.0971 88.4859 34.0511 88.7546C33.9663 89.2921 33.9238 89.8367 33.892 90.3848C33.8319 91.4809 33.8284 92.5806 33.8425 93.6768C33.8708 95.8762 33.9804 98.0756 34.0936 100.272C34.2138 102.471 34.3659 104.667 34.532 106.859C34.6912 109.055 34.868 111.251 35.066 113.443Z" fill="#00B0DC"/>
<path d="M37.7402 97.3898L39.7841 97.2342C40.1235 97.2024 40.463 97.1776 40.7989 97.1316C40.9651 97.1104 41.1348 97.0892 41.2904 97.0503C41.3647 97.0326 41.446 97.0079 41.4955 96.9831C41.4955 96.9796 41.5203 96.9654 41.5061 96.976C41.499 96.9831 41.5026 96.9831 41.4955 96.9973C41.4884 97.0079 41.492 97.0397 41.4955 97.0397C41.4884 96.9867 41.4778 96.9195 41.4778 96.877C41.5167 96.1592 41.6582 95.5015 41.8031 94.8261C41.9587 94.1578 42.1072 93.486 42.3548 92.8459C42.2805 93.1819 42.2275 93.5178 42.1744 93.8573L42.0082 94.8686L41.8562 95.8799C41.8102 96.2123 41.7572 96.5588 41.7501 96.877C41.7466 96.9195 41.7572 96.9371 41.7536 96.969C41.7572 96.9902 41.7607 97.0397 41.7536 97.0751C41.7466 97.1104 41.7289 97.1281 41.7112 97.1528C41.6723 97.2024 41.6511 97.2024 41.6228 97.2271C41.5203 97.2801 41.4319 97.2978 41.3435 97.319C41.1667 97.3579 40.9934 97.3792 40.8237 97.3968C40.4771 97.4287 40.1341 97.4499 39.7911 97.4499C39.1087 97.4569 38.4227 97.4463 37.7402 97.3898Z" fill="#00B0DC"/>
<path d="M37.7402 98.3303C38.5076 98.1995 39.2784 98.097 40.0493 97.9838L41.202 97.8211C41.5733 97.761 41.9906 97.708 42.3053 97.6019C42.3194 97.5984 42.3795 97.5241 42.4078 97.4463C42.4432 97.3685 42.4715 97.2766 42.4962 97.1882C42.5457 97.0079 42.5811 96.8204 42.6129 96.6295C42.6801 96.2511 42.7154 95.8657 42.765 95.4803C42.8498 94.7094 42.9135 93.935 42.9877 93.1606C43.0266 93.9386 43.0195 94.72 42.9771 95.498C42.963 95.8869 42.917 96.2759 42.864 96.6684C42.8357 96.8629 42.8038 97.0574 42.7543 97.2554C42.7296 97.3544 42.7013 97.4499 42.6589 97.5524C42.6129 97.6479 42.5811 97.761 42.422 97.8565C42.1992 97.9378 42.0188 97.9555 41.8208 97.9909L41.2409 98.0722C40.852 98.1182 40.4665 98.1712 40.0776 98.196C39.2961 98.2632 38.5182 98.3127 37.7402 98.3303Z" fill="#00B0DC"/>
<path d="M32.1914 106.877C31.5408 106.912 30.8937 106.898 30.2431 106.838C29.9177 106.806 29.5924 106.767 29.2636 106.661C29.2211 106.644 29.1858 106.636 29.1363 106.612C29.0797 106.583 29.0373 106.545 29.0055 106.506C28.9347 106.428 28.8958 106.347 28.8569 106.265C28.7862 106.103 28.7438 105.94 28.7049 105.777C28.567 105.127 28.5245 104.476 28.5139 103.825C28.5033 103.175 28.5175 102.524 28.5811 101.877C28.6306 102.524 28.6695 103.171 28.7261 103.815C28.7862 104.455 28.8393 105.102 28.9736 105.717C29.0479 106.007 29.1186 106.371 29.3555 106.417C29.6384 106.523 29.9602 106.569 30.2749 106.629C30.9043 106.728 31.5479 106.796 32.1914 106.877Z" fill="#00B0DC"/>
<path d="M27.9234 102.386L28.1533 104.646C28.2346 105.395 28.2983 106.152 28.4397 106.884C28.4715 107.068 28.5104 107.248 28.5635 107.418C28.5917 107.496 28.6271 107.588 28.6589 107.62L28.7473 107.683C28.7827 107.701 28.8251 107.719 28.864 107.736C29.1893 107.871 29.5712 107.92 29.939 107.987C30.6815 108.1 31.4347 108.171 32.1914 108.245C31.4312 108.284 30.6745 108.27 29.9142 108.196C29.5323 108.157 29.154 108.108 28.7721 107.966C28.7226 107.945 28.6766 107.927 28.6271 107.902C28.5776 107.871 28.5281 107.839 28.4821 107.8C28.3831 107.694 28.3584 107.598 28.3159 107.503C28.2487 107.312 28.2063 107.125 28.1674 106.934C28.0437 106.173 27.9765 105.42 27.9411 104.66C27.9093 103.903 27.8951 103.143 27.9234 102.386Z" fill="#00B0DC"/>
<path d="M87.9025 113.96C87.9025 113.96 87.481 116.338 87.2738 118.692C87.193 119.612 87.9049 120.411 88.8319 120.449C91.98 120.58 98.713 120.834 101.129 120.726C101.492 120.71 101.73 120.34 101.596 120.003C101.483 119.721 101.266 119.493 100.988 119.367L89.8661 114.276L87.9025 113.96Z" fill="#090F42"/>
<path d="M87.5576 112.563L87.8967 115.407C87.8967 115.407 89.8451 116.31 91.1752 115.293L90.3682 112.124L87.5576 112.563Z" fill="#E7CAAD"/>
<path d="M87.8112 59.0906C87.6648 59.8337 87.0258 96.1553 90.9241 112.432C90.9881 112.698 90.8521 112.972 90.5986 113.075C90.0003 113.318 88.8286 113.671 87.4233 113.718C86.9882 113.732 86.5979 113.451 86.4755 113.035C85.3613 109.259 80.0201 90.3371 79.3234 72.2624C78.5452 52.065 79.3234 71.575 79.3234 71.575L79.7801 59.0906H87.8112Z" fill="url(#paint0_linear_253_18566)"/>
<path d="M75.1083 115.2C75.1083 115.2 74.4372 116.4 73.787 119.59C73.6694 120.166 74.0741 120.718 74.6612 120.775C75.701 120.877 77.3006 121.008 78.5827 120.999C79.1738 120.995 79.6345 120.483 79.5633 119.898C79.4217 118.734 78.9786 116.824 77.6125 115.335L75.1083 115.2Z" fill="#090F42"/>
<path d="M74.5186 111.542L75.3104 115.843C75.3104 115.843 76.0934 116.423 77.6419 116.002L77.2636 111.375L74.5186 111.542Z" fill="#E7CAAD"/>
<path d="M72.379 60.2057C69.19 79.3693 73.0708 107.57 74.3793 113.09C74.4593 113.428 74.7337 113.687 75.0776 113.744C75.6615 113.841 76.6236 113.92 77.5714 113.646C77.8978 113.551 78.1273 113.258 78.1409 112.919C78.3169 108.457 78.0001 81.0618 80.9715 70.2347C81.1219 69.686 81.4586 69.2073 81.9241 68.8784L87.6909 64.7957L88.1332 58.1963L72.379 60.2057Z" fill="url(#paint1_linear_253_18566)"/>
<path d="M92.6983 23.8937C83.1419 23.7368 72.5978 26.3922 72.5978 26.3922C69.7496 42.9433 72.0995 62.0336 72.0995 62.0336C79.4979 63.9658 87.8433 60.8524 87.8433 60.8524C89.0727 53.9344 94.8098 34.465 94.8098 34.465C99.4792 33.8884 103.326 32.5464 106.493 30.7727C104.077 27.9835 102.938 24.4353 102.443 22.3374C99.0649 23.3839 95.6456 23.9423 92.6983 23.8937Z" fill="#004556"/>
<path d="M120.927 9.87755C119.988 8.74818 118.8 9.2826 118.8 9.2826C117.394 15.1979 110.02 19.9941 102.444 22.3389C102.939 24.4368 104.078 27.985 106.494 30.7742C119.066 23.7343 120.927 9.87755 120.927 9.87755Z" fill="#E7CAAD"/>
<path d="M120.699 10.1644C120.797 10.475 119.66 10.9489 118.99 9.67694C118.967 9.06765 118.594 6.45607 118.96 5.95988C120.908 3.31485 124.685 0 124.685 0C125.323 0.626811 124.797 1.24327 124.797 1.24327L122.965 3.14361C123.348 3.83334 123.816 4.41555 124.034 5.24944C124.2 5.88103 124.099 6.55643 123.778 7.13147C123.457 7.7081 123.018 8.45836 122.603 9.04535C121.818 10.1564 120.699 10.1644 120.699 10.1644Z" fill="#E7C39F"/>
<path d="M122.164 4.37744L120.494 5.78717L119.97 7.19052L121.458 8.83521C121.458 8.83521 121.959 6.0508 122.331 5.44868C122.703 4.84655 122.51 4.55346 122.164 4.37744Z" fill="#E7C39F"/>
<path d="M76.2635 35.6073L72.5979 26.3931C72.5979 26.3931 63.6718 32.4326 62.2041 40.0897C63.8909 40.2132 66.9599 40.6504 69.964 42.1605C70.6231 38.5446 76.2635 35.6073 76.2635 35.6073Z" fill="#004556"/>
<path d="M84.0635 44.2774C84.0635 44.2774 74.0416 49.9171 70.66 45.1017C69.9577 44.1014 69.7897 43.1082 69.9633 42.1604C66.9592 40.6503 63.8902 40.2131 62.2034 40.0896C61.7611 42.3977 61.9946 44.8532 63.3567 47.335C69.2803 58.1246 85.3896 46.7384 85.3896 46.7384L84.0635 44.2774Z" fill="#E7CAAD"/>
<path d="M82.8598 51.4126L88.329 32.3925C88.3914 32.1766 88.5762 32.0189 88.8001 31.9935C89.7911 31.8788 92.6625 31.5554 95.9778 31.2758C99.9713 30.9397 104.609 30.6666 107.38 30.8991C107.774 30.9318 108.012 31.3467 107.837 31.7004C106.261 34.875 99.7786 47.7904 96.5321 52.0203C96.4241 52.1605 96.2585 52.2425 96.081 52.241L83.3909 52.1231C83.0222 52.1183 82.7582 51.7655 82.8598 51.4126Z" fill="#002028"/>
<path d="M96.5454 29.6265L100.511 28.9686C100.722 28.9336 100.895 29.1343 100.828 29.3374L100.435 30.5217C100.401 30.6244 100.31 30.6993 100.202 30.7136L96.3871 31.221C96.1895 31.2473 96.0272 31.0689 96.0719 30.8753L96.3151 29.8415C96.3415 29.73 96.4319 29.6448 96.5454 29.6265Z" fill="#00B0DC"/>
<path d="M93.5755 32.9693L93.9018 31.2744C93.9346 31.1048 94.0754 30.9757 94.2482 30.9582L102.258 30.149C102.527 30.1219 102.743 30.368 102.68 30.6301L102.17 32.7415C102.13 32.9103 101.982 33.0322 101.808 33.041L93.981 33.4336C93.7275 33.4471 93.5275 33.2186 93.5755 32.9693Z" fill="#00B0DC"/>
<path d="M84.1809 46.8172C84.1809 46.8172 83.4187 43.6975 83.7266 42.5904C84.0337 41.4834 84.6296 40.0609 86.614 40.3771C88.5991 40.6933 90.9402 41.5256 90.9402 41.5256C90.9402 41.5256 90.8219 42.9672 89.3134 42.502L90.2492 43.2228C90.2492 43.2228 90.1156 44.3769 88.8415 43.7604L89.7117 44.7162C89.7117 44.7162 89.1646 45.664 88.2272 45.0563C87.289 44.4486 86.8395 47.1932 84.1809 46.8172Z" fill="#E7C39F"/>
<path d="M83.0186 16.168L79.9777 24.9242C79.9273 25.0692 79.9873 25.23 80.1224 25.3041C80.951 25.7605 83.9376 27.0794 87.536 24.8071C87.9111 24.5706 88.1663 24.1843 88.2231 23.7462L89.2077 16.168H83.0186Z" fill="#E7CAAD"/>
<path d="M89.6353 8.05933C89.6353 8.05933 92.9746 14.3179 92.5467 16.8466C92.1188 19.3746 87.9805 19.193 84.3669 17.1397L81.8418 10.3818L89.6353 8.05933Z" fill="#E7CAAD"/>
<path d="M84.5262 13.821C84.6734 13.7565 84.727 13.5773 84.639 13.4435C84.3711 13.0365 83.8704 12.2066 83.7104 11.4794C83.7104 11.4794 83.1105 11.0963 85.2381 10.5898C87.3664 10.0824 90.5393 9.29553 91.2064 7.49156C91.8567 5.73298 90.1482 1.31026 87.4216 4.83458C87.3176 4.96838 87.1145 4.97157 87.0113 4.83777C86.5642 4.25874 85.3893 3.05609 83.7584 3.78485C82.2315 4.46662 82.0604 5.58086 82.0812 6.14236C82.0876 6.30723 81.9388 6.43625 81.7756 6.40519C81.0038 6.25864 79.1522 6.1328 78.2876 8.02439C77.5757 9.58305 78.038 10.4647 78.4595 10.8964C78.5963 11.0366 78.5363 11.2668 78.3492 11.3233C77.8421 11.4778 77.187 11.9063 77.2526 13.0898C77.343 14.7258 79.1802 14.5816 79.7033 14.5067C79.7889 14.4948 79.8752 14.5235 79.9336 14.588C80.3823 15.0818 82.4027 17.1804 84.5886 17.4329C84.7782 17.4544 84.9246 17.2689 84.863 17.0889L83.916 14.3498C83.872 14.2224 83.9328 14.083 84.0567 14.0289L84.5262 13.821Z" fill="url(#paint2_linear_253_18566)"/>
<path d="M84.9074 14.2105C84.9074 14.2105 82.5303 12.5865 82.3559 13.954C82.1824 15.3215 84.4971 15.9356 85.6432 15.4251L84.9074 14.2105Z" fill="#EBC198"/>
<defs>
<linearGradient id="paint0_linear_253_18566" x1="103.984" y1="60.7839" x2="69.5163" y2="107.698" gradientUnits="userSpaceOnUse">
<stop stop-color="#010528"/>
<stop offset="1" stop-color="#3D135F"/>
</linearGradient>
<linearGradient id="paint1_linear_253_18566" x1="97.8073" y1="56.246" x2="63.3401" y2="103.16" gradientUnits="userSpaceOnUse">
<stop stop-color="#02233A"/>
<stop offset="1" stop-color="#2F0F4A"/>
</linearGradient>
<linearGradient id="paint2_linear_253_18566" x1="75.8579" y1="2.5916" x2="88.9508" y2="12.9765" gradientUnits="userSpaceOnUse">
<stop stop-color="#2B3582"/>
<stop offset="1" stop-color="#150E42"/>
</linearGradient>
</defs>
</svg>
