<svg width="122" height="132" viewBox="0 0 122 132" fill="none" xmlns="http://www.w3.org/2000/svg">
<path d="M3.965 131.227C1.77618 131.227 0 129.451 0 127.262C0 127.262 0 57.4476 0 57.4451C0 49.4664 1.6634 41.4928 4.89538 34.1984C4.90819 34.1702 4.96714 34.0447 4.98765 34.0062C7.7429 28.5547 10.8544 23.2876 14.9834 18.7511C20.1736 13.0509 26.8118 8.22475 33.8473 5.05685C40.2626 2.16319 47.0956 0.494664 54.1567 0.097395L54.3182 0.0871429C55.3537 0.0281933 56.4045 0 57.4451 0C73.405 0 88.1066 2.52714 100.852 12.9202C114.098 23.7208 122 40.3625 122 57.4451V127.262C122 129.451 120.224 131.227 118.035 131.227H3.965Z" fill="white"/>
<path d="M117.922 57.5014V127.318H103.692L63.8699 113.368L15.2724 127.318H3.85156V57.5014C3.85156 50.5095 5.19202 43.8405 7.62434 37.72C7.8627 37.1177 8.11387 36.5231 8.37787 35.9362C8.78026 35.0237 9.21085 34.119 9.65938 33.227C11.2972 30.0207 13.2476 27.0091 15.4698 24.218C16.2156 23.2722 16.9973 22.3598 17.8021 21.4756C27.5826 10.7493 41.6741 4.02136 57.3291 4.02136H64.4415C73.7068 4.02136 82.4185 6.37422 90.0102 10.5186C90.733 10.9108 90.0102 15.6344 90.7099 16.0599C91.4096 16.4854 93.5344 12.6126 94.2136 13.0688C95.1593 13.7045 96.0641 14.3632 96.9637 15.0449L96.9714 15.0526C97.9633 15.8138 95.0107 17.7694 95.9462 18.5973C96.9842 19.5149 101.903 19.3124 102.866 20.3068C109.343 26.9963 114.087 35.3697 116.381 44.7145C117.386 48.8102 117.922 53.093 117.922 57.5014Z" fill="#058AAA"/>
<path opacity="0.37" d="M103.441 57.8526C104.492 62.7967 107.255 67.2435 108.293 72.1799C110.051 80.5789 106.158 89.8776 98.9276 94.5115C92.6021 98.5637 84.6977 98.9994 77.1906 99.3095C67.3179 99.7196 57.4502 100.122 47.5749 100.532C42.09 100.763 36.3924 100.955 31.3432 98.8072C27.2655 97.0822 23.9617 93.9835 20.7426 90.9438C16.3085 86.7481 11.6028 82.0296 10.9031 75.968C9.87277 66.9667 18.1129 58.8035 16.9903 49.8098C16.3367 44.5351 12.3974 40.1216 7.625 37.7226C7.87361 37.0972 8.13504 36.4769 8.40672 35.8618C8.62714 35.3672 11.5772 35.3082 11.8104 34.8212C12.0232 34.3778 9.51908 33.5064 9.74206 33.0707C11.3311 29.9822 13.2124 27.0681 15.35 24.3667C15.76 23.8489 18.0053 26.0454 18.4333 25.5431C18.828 25.0817 17.4055 21.9164 17.8156 21.4679C27.5961 10.7493 41.6773 4.02649 57.3297 4.02649H64.4421C89.57 4.02649 110.651 21.3551 116.382 44.7171C113.693 44.4454 110.994 43.9507 108.516 44.9144C103.813 46.7367 102.39 52.9162 103.441 57.8526Z" fill="#00B0DC"/>
<path d="M35.5194 37.7738L22.3557 36.7563L19.1493 47.2186L16.6171 35.0724L8.37695 35.9387C8.77935 35.0263 9.20994 34.1215 9.65847 33.2296L16.453 28.4905L15.4688 24.2205C16.2147 23.2748 16.9964 22.3624 17.8012 21.4781L21.0075 25.9583L33.1537 21.2397L27.9251 30.1821L35.5194 37.7738Z" fill="#9DEAFD"/>
<path d="M102.866 20.3068L95.1457 21.4371L93.9565 32.1096L86.5288 21.1988L76.3588 25.2304L84.2631 15.6601L76.2793 7.57117L89.2995 11.4234L90.012 10.5186C91.4601 11.3055 92.8595 12.1564 94.2153 13.0689L94.1231 13.3995L96.9655 15.0449L96.9732 15.0526C99.0646 16.6597 101.036 18.4153 102.866 20.3068Z" fill="#9DEAFD"/>
<path d="M98.5431 58.6267L103.497 46.0602L103.731 59.1214L116.418 62.1124L107.04 66.5182L108.995 77.0779L98.7251 68.784L90.1544 75.5888L94.9523 64.1449L84.9668 58.7113L98.5431 58.6267Z" fill="#9DEAFD"/>
<path d="M25.9858 76.3756L32.337 85.0335L19.4809 82.0399L14.729 91.8998L14.0678 79.5101L3.85156 79.0206V78.4055L14.8956 72.9796L13.8832 59.5032L19.7782 71.1624L32.5087 68.3328L25.9858 76.3756Z" fill="#9DEAFD"/>
<path d="M68.4834 59.0315L67.8375 66.8179L67.5735 70.0038C67.5735 70.0038 65.4001 76.4139 60.6841 76.4139C55.9681 76.4139 49.0762 68.8197 49.0762 68.8197L49.4247 51.9729L53.6025 53.5184L68.4834 59.0315Z" fill="#FF9191"/>
<path d="M68.4824 59.0315L67.8366 66.818C66.2526 67.1409 64.4969 66.9974 62.913 66.5796C58.4738 65.4109 51.3563 60.413 52.6763 55.3638C52.8531 54.682 53.1735 54.0695 53.599 53.521L68.4824 59.0315Z" fill="#302945"/>
<path d="M60.4064 73.769H93.9615C94.1589 73.769 94.4536 73.6459 94.6151 73.5332C94.9329 70.9445 95.0431 68.3302 94.9457 65.7236C94.8125 62.1354 94.2178 58.3934 92.07 55.5176C90.6091 53.5646 88.5459 52.1652 86.5467 50.7658C85.683 50.1609 84.809 49.5355 84.1708 48.6949C82.7304 46.7957 82.7586 44.2096 82.6073 41.8311C82.4382 39.145 81.964 36.4769 81.1977 33.896C78.7936 32.2915 75.2925 31.8814 72.5013 32.635C69.7102 33.3885 67.2523 35.116 65.2762 37.2279C61.1779 41.6081 59.1018 47.5159 57.9126 53.3955C56.649 59.6339 56.303 66.3157 58.7686 72.1824L60.4064 73.769Z" fill="black"/>
<path d="M57.0356 25.8531C57.3893 33.3577 54.5059 40.9545 49.1722 46.5649C55.4285 54.1951 57.7148 64.5523 55.203 73.8817L25.3438 73.7407C25.3566 68.6915 25.6206 63.8449 26.9046 58.9418C28.0785 54.4616 29.9008 49.9174 33.5249 46.7931C33.6018 37.5482 37.5232 27.9369 45.2046 22.1291C46.5707 21.0962 48.0803 20.1683 49.7899 19.7967C51.4994 19.4225 53.4422 19.6814 54.7365 20.7886C56.1564 22.0009 56.951 24.0539 57.0356 25.8531Z" fill="black"/>
<path d="M79.9719 47.6979C78.9006 51.9551 76.9706 55.979 74.3871 58.9854C74.1436 59.2699 73.8924 59.5416 73.6412 59.8056C71.7574 61.7612 69.384 63.2093 66.8133 64.0628C66.0009 64.3345 64.3426 65.0342 63.4558 64.8035C63.4353 64.7958 51.4403 61.592 49.3976 51.9756C48.4646 47.58 47.9443 44.4275 47.6522 42.2873C47.4087 41.1109 47.2754 39.896 47.2754 38.6453C47.2754 29.0954 54.7697 21.35 64.0222 21.35C64.8603 21.35 65.7087 21.4166 66.5391 21.5422C72.8313 22.5264 78.0317 27.2398 79.9411 33.2655C80.5358 35.1416 80.8536 37.192 80.9202 39.3193C81.0099 42.0592 80.6716 44.9272 79.9719 47.6979Z" fill="#FF9191"/>
<g opacity="0.44">
<path d="M63.0277 53.8895C63.5893 50.4557 61.2609 47.2168 57.8272 46.6553C54.3934 46.0937 51.1545 48.4221 50.593 51.8559C50.0314 55.2896 52.3598 58.5285 55.7936 59.09C59.2273 59.6516 62.4662 57.3232 63.0277 53.8895Z" fill="black"/>
</g>
<g opacity="0.44">
<path d="M79.971 47.698C78.8997 51.9552 76.9697 55.9792 74.3862 58.9856C72.2589 57.9809 70.7852 55.8126 70.7852 53.2957C70.7852 49.8202 73.607 46.9983 77.0825 46.9983C78.1205 46.9957 79.1047 47.2469 79.971 47.698Z" fill="black"/>
</g>
<path d="M67.6954 50.4481C67.5288 50.4481 67.3879 50.325 67.3674 50.1559C67.3468 49.9739 67.4776 49.8099 67.657 49.7894C68.1645 49.7304 68.6694 49.6202 69.1538 49.4587C68.9436 46.7624 68.7565 44.0225 68.6002 41.3109C68.5899 41.1289 68.7283 40.9726 68.9103 40.9623C69.0923 40.9572 69.2486 41.0905 69.2589 41.2724C69.4203 44.0636 69.6126 46.8854 69.833 49.6586C69.8458 49.8073 69.7561 49.9431 69.6177 49.9944C69.0103 50.2199 68.3746 50.3712 67.7313 50.4455C67.7211 50.4481 67.7082 50.4481 67.6954 50.4481Z" fill="#302945"/>
<path d="M60.5686 46.9392C60.3738 46.9392 60.1764 46.9212 59.9765 46.8879C59.0025 46.7213 58.0209 46.1702 56.9752 45.2066C56.8342 45.0758 56.7958 44.8144 56.8881 44.6171C56.9803 44.4223 57.17 44.3684 57.311 44.4966C58.2772 45.386 59.1743 45.8934 60.0508 46.0447C61.0837 46.2215 62.0705 45.8652 62.7574 45.0681C62.8855 44.9195 63.0778 44.9426 63.1854 45.1245C63.2931 45.3039 63.2751 45.5731 63.1444 45.7243C62.4652 46.5137 61.5476 46.9392 60.5686 46.9392Z" fill="#302945"/>
<path d="M74.2049 46.8828C73.2874 46.8828 72.3801 46.3804 71.6855 45.4859C71.5522 45.3142 71.5394 45.0143 71.6547 44.817C71.7701 44.6196 71.9726 44.5966 72.1033 44.7683C72.721 45.568 73.5437 45.9934 74.3613 45.9268C75.1789 45.8653 75.9683 45.3219 76.5296 44.4351C76.6501 44.2429 76.8526 44.2352 76.9807 44.4146C77.1089 44.594 77.114 44.8939 76.9935 45.0861C76.322 46.1498 75.3737 46.8033 74.3946 46.8777C74.3305 46.8802 74.2665 46.8828 74.2049 46.8828Z" fill="#302945"/>
<path d="M67.5099 54.0722C67.1844 54.0722 66.8615 54.0286 66.5488 53.9415C65.7107 53.7057 64.9623 53.1521 64.4932 52.419C64.3958 52.2653 64.4394 52.0602 64.5932 51.9628C64.747 51.8654 64.952 51.909 65.0494 52.0628C65.4313 52.66 66.0438 53.1136 66.7256 53.3058C67.4099 53.4981 68.166 53.4289 68.8042 53.1162C68.9683 53.0367 69.1656 53.1034 69.2451 53.2674C69.3245 53.4314 69.2579 53.6288 69.0938 53.7108C68.6069 53.9492 68.0584 54.0722 67.5099 54.0722Z" fill="#302945"/>
<path d="M57.187 40.5726C57.2537 39.8319 57.8201 39.2398 58.4711 38.9477C58.7966 38.7887 59.1682 38.7298 59.5296 38.7529C59.891 38.7811 60.255 38.9015 60.5318 39.1681C60.6856 39.3167 60.6907 39.5602 60.542 39.714C60.5113 39.7448 60.478 39.7704 60.4421 39.7883L60.3934 39.8114C60.1089 39.9575 59.891 40.0523 59.6809 40.142C59.4707 40.224 59.2785 40.3137 59.076 40.3778C58.6685 40.5316 58.2968 40.6905 57.7483 40.9237L57.7022 40.9443C57.5151 41.0237 57.2972 40.9366 57.2178 40.7495C57.1896 40.6931 57.1819 40.6316 57.187 40.5726Z" fill="black"/>
<path d="M73.1559 38.9169C73.7454 38.4324 74.5656 38.3914 75.2602 38.6016C75.6087 38.7169 75.9419 38.8938 76.211 39.145C76.4827 39.391 76.7031 39.7037 76.7928 40.0779C76.8415 40.2804 76.7159 40.4829 76.5135 40.5316C76.452 40.5469 76.3904 40.5444 76.3341 40.529L76.3007 40.5213C75.6779 40.3598 75.2576 40.2086 74.7937 40.06C74.3323 39.9011 73.8966 39.7806 73.2969 39.5602L73.261 39.5474C73.0688 39.4782 72.9714 39.2654 73.0431 39.0732C73.0662 39.0117 73.1046 38.9579 73.1559 38.9169Z" fill="black"/>
<path d="M73.6737 36.2488C72.8407 33.6525 71.877 31.1407 70.8108 28.6161C71.7617 31.0613 72.364 33.6397 72.5947 36.2488H65.6642C64.8261 33.5602 63.7804 31.0818 62.399 28.529C63.3498 30.9818 63.8137 33.6192 63.7727 36.2488H56.2451L53.8846 26.9707L51.4395 19.7993C51.4395 19.7993 57.6779 15.7472 69.8317 18.1129C81.9779 20.4734 82.9032 36.2488 82.9032 36.2488H73.6737Z" fill="black"/>
<path d="M43.0248 41.8772C42.1995 42.5795 41.6664 43.5816 41.4075 44.6324C40.654 47.685 42.302 51.0605 45.0034 52.6675C46.2158 53.3877 47.7484 53.785 49.0376 53.2134C51.775 51.996 51.188 48.6179 50.678 46.301C50.2474 44.3377 49.2529 42.9332 47.6126 41.7388C46.185 40.7008 44.3934 40.711 43.0248 41.8772Z" fill="#FF9191"/>
<path d="M45.5522 40.2652C45.8264 40.4395 46.0571 40.6727 46.2801 40.9085C47.7871 42.5053 48.9943 44.384 49.8222 46.4164C50.8115 44.4275 51.8393 42.3848 52.1314 40.1806C52.2929 38.9734 52.2391 37.7201 52.6569 36.5744C53.5462 34.1396 56.3733 32.7068 56.9371 30.1771C57.3241 28.4368 56.5219 26.676 55.7248 25.0818C55.0892 23.8106 54.3331 22.4393 53.0029 21.9396C51.4112 21.3398 49.6504 22.2369 48.3382 23.3185C45.9904 25.2484 44.2091 27.9114 43.5351 30.8743C42.861 33.8371 42.9968 38.6197 45.5522 40.2652Z" fill="black"/>
<path d="M49.1144 50.0198C48.976 50.0198 48.8479 49.9327 48.8017 49.7943C48.3583 48.4666 47.8227 47.0877 46.9128 45.9907C45.9465 44.8246 44.6317 44.1454 43.3938 44.1889C43.2348 44.1864 43.058 44.0505 43.0529 43.8686C43.0477 43.6866 43.1913 43.5328 43.3732 43.5277C44.806 43.4944 46.3259 44.2453 47.4228 45.5678C48.4019 46.7468 48.9658 48.1949 49.4297 49.5841C49.4886 49.7558 49.3938 49.9455 49.2221 50.0019C49.1836 50.0147 49.1477 50.0198 49.1144 50.0198Z" fill="#302945"/>
<path d="M44.5088 48.2103C44.3986 48.2103 44.2935 48.1565 44.2294 48.0565C44.132 47.9028 44.1756 47.6977 44.3319 47.6003C45.5417 46.8314 47.1795 46.8058 48.4123 47.5414C48.5686 47.6337 48.6199 47.8387 48.5276 47.995C48.4354 48.1514 48.2329 48.2026 48.074 48.1104C47.0539 47.5004 45.6929 47.5209 44.6882 48.1616C44.6318 48.1924 44.5703 48.2103 44.5088 48.2103Z" fill="#302945"/>
<path d="M103.658 127.318H15.1719C15.3897 112.786 16.6917 86.3764 23.0891 80.461C25.1779 78.531 27.6282 76.9112 30.1733 75.5707C31.4163 74.9095 32.6773 74.3148 33.9281 73.7792C41.0533 70.7394 47.7274 69.6629 47.7274 69.6629L48.7398 65.4468L49.1422 65.4673L56.1931 65.7518L57.1312 65.7902L59.6096 65.8902H59.6814L61.109 65.9491L64.9022 66.108L65.5635 66.1337L67.8754 66.2259L69.4875 66.2926L70.1616 70.8471C70.1616 70.8471 70.6767 70.906 71.5764 71.0598C71.7096 71.0803 71.8481 71.0982 71.9993 71.1264C72.0787 71.1393 72.1633 71.1521 72.2504 71.1726C73.2628 71.3443 74.5828 71.6032 76.0975 71.9594C76.3692 72.0261 76.6537 72.0927 76.9356 72.1645C78.1505 72.4618 79.4602 72.8257 80.8084 73.2538C81.3235 73.4127 81.8464 73.5921 82.3744 73.7689C86.6828 75.2811 91.1835 77.4904 94.1259 80.6353C95.8175 82.4396 97.2784 86.4636 98.5214 91.5743C101.115 102.177 102.786 117.471 103.658 127.318Z" fill="#FFC063"/>
<path d="M34.6786 102.336C34.6735 102.336 34.6709 102.336 34.6658 102.336C34.4838 102.329 34.3403 102.177 34.348 101.993L34.6863 92.8814C34.694 92.6994 34.8503 92.5482 35.0297 92.5636C35.2117 92.5713 35.3552 92.7225 35.3475 92.907L35.0092 102.019C35.0015 102.195 34.8554 102.336 34.6786 102.336Z" fill="#302945"/>
<path d="M90.4723 109.759C90.2955 109.759 90.1494 109.621 90.1417 109.441L89.5804 96.0545C89.5727 95.8726 89.7137 95.7188 89.8956 95.7111C90.0802 95.7008 90.2314 95.8444 90.2391 96.0263L90.8004 109.413C90.8081 109.595 90.6671 109.749 90.4851 109.756C90.4826 109.759 90.4774 109.759 90.4723 109.759Z" fill="#302945"/>
<path d="M90.4452 107.27C90.3913 107.27 90.3375 107.258 90.2862 107.229C90.1273 107.142 90.0684 106.94 90.1555 106.781C91.091 105.079 92.2239 103.482 93.5234 102.039C93.6464 101.903 93.854 101.893 93.9898 102.014C94.1257 102.137 94.1359 102.344 94.0155 102.48C92.7493 103.885 91.6447 105.438 90.7373 107.096C90.6758 107.209 90.5631 107.27 90.4452 107.27Z" fill="#302945"/>
<path d="M34.4449 102.565C34.327 102.565 34.2117 102.5 34.1528 102.388C33.4531 101.057 32.474 99.8451 31.3181 98.8814C31.1771 98.7635 31.1591 98.5559 31.277 98.415C31.3949 98.274 31.6025 98.2561 31.7435 98.374C32.9635 99.3915 34.0015 100.673 34.7397 102.08C34.8243 102.242 34.7628 102.441 34.6013 102.526C34.55 102.552 34.4962 102.565 34.4449 102.565Z" fill="#302945"/>
<path d="M30.7383 50.4838L34.4495 46.6598C34.4495 46.6598 61.4484 44.8605 65.2725 57.5706C65.2725 57.5706 73.5972 43.2843 93.171 43.8456L98.5713 49.4714L96.4337 58.4702L59.6466 65.8953L32.9861 61.0589L30.7383 50.4838Z" fill="#F7EDE5"/>
<path d="M30.1758 95.8186V49.9199C30.1758 49.9199 48.9064 47.8951 65.2738 55.8251C65.2738 55.8251 80.7981 46.3753 99.0212 48.7384V91.4281L65.1047 101.047L30.1758 95.8186Z" fill="#4D7D88"/>
<path d="M69.6621 57.7961C69.6621 57.7961 82.5977 52.5086 95.7614 52.9597L96.0997 61.7329C96.0997 61.7329 76.6387 63.1964 69.8902 66.3464L69.6621 57.7961Z" stroke="#302945" stroke-width="1.2893" stroke-miterlimit="10" stroke-linecap="round" stroke-linejoin="round"/>
<path d="M65.1041 101.38C64.9067 101.38 64.7734 101.232 64.7734 101.05L64.9426 55.8277C64.9426 55.6457 65.0913 55.4996 65.2732 55.4996C65.4552 55.4996 65.6039 55.6483 65.6013 55.8303L65.4321 101.052C65.4347 101.232 65.286 101.38 65.1041 101.38Z" fill="#302945"/>
<path d="M33.8926 108.303L41.1485 96.4927L39.1237 85.1872L49.586 67.9764C49.586 67.9764 51.4416 70.8445 50.7675 72.7001C50.0935 74.5557 48.2353 78.9436 48.2353 78.9436L59.2025 74.3866C59.2025 74.3866 60.5532 76.2422 58.5284 78.9436L60.5532 77.7621C60.5532 77.7621 62.073 79.956 59.8791 82.4857C59.8791 82.4857 62.1294 84.3414 59.9355 87.2094C59.0205 88.4038 55.645 89.6186 54.5352 90.6413C52.9846 92.0714 53.8047 93.1172 53.8047 93.1172C53.8047 93.1172 54.9863 97.8408 53.8047 102.229C52.6232 106.617 46.3796 117.753 46.3796 117.753L33.8926 108.303Z" fill="#FF9191"/>
<path d="M43.5924 83.7467C43.5052 83.7467 43.4207 83.7134 43.354 83.6467C43.2284 83.516 43.231 83.3058 43.3617 83.1803L48.0034 78.7078C48.0341 78.6796 48.0674 78.6565 48.1059 78.6411L59.0731 74.0841C59.1551 74.0508 59.2473 74.0508 59.3268 74.0841C59.4088 74.1174 59.4729 74.184 59.5062 74.2661C59.5575 74.3942 60.7518 77.457 58.7399 79.1947C58.6015 79.3126 58.3939 79.2998 58.2734 79.1614C58.1529 79.023 58.1683 78.8154 58.3067 78.695C59.6241 77.557 59.2192 75.5963 58.9962 74.8299L48.4134 79.2255L43.8179 83.6544C43.759 83.7159 43.6744 83.7467 43.5924 83.7467Z" fill="#302945"/>
<path d="M47.7263 85.8561C47.6366 85.8561 47.5443 85.8202 47.4803 85.7459C47.3598 85.61 47.37 85.4024 47.5059 85.2794L51.5555 81.6527C51.5811 81.6297 51.6119 81.6092 51.6426 81.5963L60.3338 77.8005C60.4927 77.7313 60.6798 77.7979 60.7593 77.9517C60.7721 77.9774 62.11 80.6326 60.1134 82.7189C59.9878 82.8497 59.7776 82.8548 59.6469 82.7292C59.5162 82.6036 59.5111 82.3934 59.6367 82.2627C60.9695 80.8684 60.5414 79.1999 60.2954 78.5387L51.9579 82.1807L47.9467 85.7741C47.8852 85.8279 47.8058 85.8561 47.7263 85.8561Z" fill="#302945"/>
<path d="M53.8007 102.559C53.7622 102.559 53.7212 102.552 53.6828 102.539C53.5111 102.475 53.4265 102.283 53.4905 102.113C55.2744 97.4077 53.0138 92.2073 52.9908 92.156C52.9472 92.0561 52.9549 91.9407 53.0138 91.8459C53.0318 91.8177 53.4829 91.1103 55.4384 89.4085C56.3201 88.6421 57.2146 88.2602 58.004 87.9219C58.9985 87.4965 59.7828 87.1607 60.2544 86.2201C60.9105 84.9078 60.1749 83.4033 59.8392 82.8317L55.5512 84.977L51.294 88.0706C51.1454 88.1782 50.9403 88.1449 50.8327 87.9962C50.725 87.8476 50.7584 87.6425 50.907 87.5349L55.2103 84.4131L59.8135 82.1064C59.9596 82.0346 60.1339 82.0782 60.2287 82.2089C60.2954 82.3012 61.8537 84.5028 60.8464 86.5148C60.2672 87.6733 59.2932 88.0885 58.2655 88.5294C57.4837 88.8625 56.679 89.2086 55.8742 89.9057C54.4799 91.118 53.8853 91.7972 53.6725 92.0638C54.0775 93.0557 55.8229 97.828 54.1108 102.344C54.0595 102.48 53.934 102.559 53.8007 102.559Z" fill="#302945"/>
<path d="M75.8221 116.405C75.8221 116.405 73.9664 106.955 73.1232 105.689C72.28 104.423 69.9168 101.386 69.6631 97.5053C69.4094 93.6249 67.9766 85.9461 67.9766 85.9461C67.9766 85.9461 61.9868 75.9913 65.6135 73.9665C65.6135 73.9665 64.1782 70.591 66.7105 70.0861L75.9066 81.5607L76.245 81.4761C76.245 81.4761 68.4841 68.9045 73.7127 66.3748L75.2326 68.8225C75.2326 68.8225 74.4739 65.6161 77.0036 65.1958C77.0036 65.1958 84.849 81.3941 84.9336 83.0832C85.0182 84.7696 85.5231 100.801 86.1997 102.488C86.8738 104.174 90.2493 114.298 90.2493 114.298L75.8221 116.405Z" fill="#FF9191"/>
<path d="M71.7438 83.4367C71.6361 83.4367 71.5336 83.3855 71.4696 83.2907L65.3388 74.1509C65.285 74.0535 64.4007 72.3901 64.9646 71.0753C65.2388 70.4345 65.7976 69.9937 66.6229 69.7681C66.7485 69.7348 66.8843 69.7784 66.9663 69.8783L76.5572 81.7733C76.6725 81.9169 76.6494 82.1245 76.5085 82.2372C76.3649 82.3526 76.1573 82.3295 76.0446 82.1886L66.5947 70.4678C66.0821 70.6472 65.7463 70.9317 65.5746 71.3316C65.1363 72.3542 65.8975 73.7946 65.9052 73.81L72.0206 82.9241C72.1231 83.0754 72.0821 83.2804 71.9309 83.3829C71.8694 83.4188 71.8053 83.4367 71.7438 83.4367Z" fill="#302945"/>
<path d="M75.8494 81.2428C75.7367 81.2428 75.6264 81.1864 75.5649 81.0814C75.3496 80.7225 70.3287 72.2799 71.7255 68.074C72.0433 67.1154 72.6687 66.4388 73.5837 66.0646C73.7426 65.9979 73.9272 66.0697 74.0041 66.2235C74.0041 66.2235 77.8281 73.9587 80.9217 80.2586C81.0011 80.4227 80.9345 80.62 80.7704 80.6995C80.6064 80.7789 80.4091 80.7123 80.3296 80.5482C77.5897 74.9711 74.2783 68.2662 73.5555 66.8053C72.9712 67.1206 72.5765 67.605 72.3509 68.2816C71.0489 72.2005 76.0775 80.6559 76.1288 80.7405C76.2236 80.8968 76.1724 81.0993 76.016 81.1941C75.9648 81.2274 75.9058 81.2428 75.8494 81.2428Z" fill="#302945"/>
<path d="M95.7963 127.318H74.5026L71.4629 111.681C71.4629 111.681 72.0985 111.171 72.9956 110.73C73.1929 110.63 73.4057 110.533 73.6235 110.446C73.8029 110.379 73.9875 110.32 74.172 110.261C74.1797 110.261 74.1925 110.254 74.2053 110.254C74.2925 110.228 74.3847 110.208 74.477 110.187C75.1895 110.023 75.9431 110.015 76.6376 110.325C78.3882 111.117 79.3929 112.519 79.7517 113.101C79.8312 113.227 79.8773 113.314 79.8978 113.345C79.8901 113.311 79.8773 113.24 79.8722 113.132C79.7594 112.273 79.562 109.298 82.1533 109.2C84.4344 109.113 86.0183 111.064 86.6616 112.035C86.6693 112.043 86.6693 112.043 86.6744 112.048C86.8539 112.319 86.9589 112.509 86.9846 112.563C86.9718 112.517 86.9179 112.358 86.8667 112.12C86.6027 111.061 86.1593 108.444 87.8791 107.229C88.1841 107.011 88.5608 106.84 89.017 106.727L89.0888 106.94L95.7963 127.318Z" fill="#FFC063"/>
<path d="M51.6603 111.233L48.6538 118.471L48.6462 118.491L45.8448 125.24L44.9785 127.321H19.707L31.1663 108.175L31.2048 108.116L34.5213 102.557H34.529L34.6623 102.339L34.7622 102.167C34.7622 102.167 34.7699 102.16 34.7622 102.16L35.0211 101.744L35.4645 100.999C35.4645 100.999 36.6794 101.514 37.4534 102.506C37.884 103.054 38.1736 103.754 38.0557 104.595C38.0352 104.728 38.0173 104.859 37.9968 104.992C37.6995 106.922 37.3432 108.17 37.2843 108.388C37.3176 108.329 37.4022 108.183 37.5354 107.991C37.761 107.655 38.1224 107.17 38.6247 106.742C39.0553 106.373 39.5756 106.035 40.1907 105.85C40.1984 105.85 40.1984 105.843 40.2035 105.843C40.2164 105.835 40.2292 105.83 40.242 105.83C40.9084 105.638 41.6824 105.625 42.5564 105.948C45.855 107.158 43.7713 112.781 43.6867 113.027C43.884 112.868 47.175 110.277 49.8328 110.477C49.8328 110.477 49.8328 110.477 49.8405 110.477C49.9661 110.484 50.0917 110.502 50.2173 110.523C50.7427 110.618 51.2322 110.843 51.6603 111.233Z" fill="#FFC063"/>
<path d="M50.8558 111.443L48.6541 118.468L48.6464 118.489L45.8835 127.318H45.1889L45.8425 125.237L50.1509 111.458C50.051 111.379 49.9459 111.307 49.8459 111.24C49.2385 110.851 48.59 110.7 47.9237 110.792C45.8092 111.076 44.0766 113.639 44.0586 113.668C43.9715 113.801 43.7946 113.852 43.6485 113.78C43.4973 113.714 43.423 113.55 43.4691 113.391C43.4819 113.345 44.8506 108.506 42.8873 106.755C41.0163 105.076 38.0893 108.057 38.0637 108.09C37.9586 108.196 37.7869 108.224 37.6536 108.144C37.5947 108.111 37.5485 108.057 37.528 107.993C37.4896 107.921 37.4819 107.842 37.5075 107.762C37.8305 106.732 37.9894 105.807 37.9894 104.994C37.9817 104.149 37.7971 103.421 37.4409 102.821C37.4153 102.775 37.3819 102.729 37.3409 102.682C36.7796 101.837 35.98 101.498 35.6032 101.38L31.2025 108.121L31.164 108.18L20.8863 123.902C20.7863 124.053 20.5813 124.099 20.4301 124.002C20.2789 123.902 20.2379 123.697 20.3378 123.545L34.15 102.398L34.3473 102.088V102.08L34.56 101.775L35.0419 101.042V101.034L35.1803 100.817C35.2521 100.704 35.3853 100.653 35.5161 100.67C35.575 100.683 36.8181 100.929 37.7177 102.072C37.8177 102.198 37.9151 102.331 38.0022 102.483C38.684 103.613 38.8224 105.087 38.4251 106.891C38.484 106.845 38.5507 106.791 38.6173 106.745C39.053 106.422 39.5964 106.084 40.1833 105.853C40.191 105.853 40.191 105.845 40.1961 105.845C40.209 105.838 40.2218 105.832 40.2346 105.832C41.2316 105.456 42.3568 105.397 43.3282 106.263C44.889 107.657 44.6968 110.492 44.4046 112.199C45.1838 111.366 46.4064 110.336 47.834 110.143C48.5285 110.051 49.1898 110.164 49.8229 110.482C49.8229 110.482 49.8229 110.482 49.8306 110.482C49.9356 110.536 50.0433 110.587 50.1407 110.653C50.3457 110.779 50.5508 110.93 50.7481 111.102C50.8558 111.179 50.8942 111.317 50.8558 111.443Z" fill="#302945"/>
<path d="M97.8502 127.318H97.1377L90.3508 109.731L90.1329 109.175V109.167L89.2538 106.886C89.1949 106.899 89.1359 106.919 89.0821 106.94C88.6464 107.073 88.2824 107.278 87.9851 107.568C87.839 107.693 87.7134 107.844 87.6084 108.011C86.6703 109.464 87.1931 111.686 87.1983 111.712C87.2316 111.863 87.1521 112.022 87.006 112.089C86.9599 112.109 86.9138 112.122 86.8599 112.122C86.7882 112.122 86.7215 112.096 86.6677 112.05C86.66 112.043 86.66 112.043 86.6549 112.037C86.6344 112.025 86.6165 112.004 86.6011 111.978C86.5806 111.953 84.7583 109.321 82.1722 109.533C81.5314 109.587 81.0419 109.823 80.7113 110.246C79.9782 111.184 80.2217 112.732 80.2217 112.75C80.2473 112.896 80.1628 113.047 80.0244 113.106C79.9705 113.127 79.9193 113.132 79.8654 113.132C79.827 113.124 79.786 113.119 79.7476 113.099C79.7014 113.073 79.6604 113.045 79.6348 112.999C77.6459 110.328 75.657 110.051 74.4805 110.202C74.3806 110.215 74.2883 110.228 74.2037 110.248C74.1909 110.248 74.1781 110.256 74.1704 110.256C73.9397 110.302 73.7552 110.361 73.6219 110.415V110.441L75.6647 127.313H74.9906L72.994 110.725L72.935 110.248C72.9145 110.115 72.9889 109.984 73.1068 109.918C73.1196 109.91 73.5758 109.674 74.3216 109.567H74.3293C75.5596 109.403 77.5485 109.605 79.5297 111.82C79.563 111.212 79.7142 110.438 80.191 109.836C80.6395 109.262 81.2879 108.931 82.1209 108.864C84.0509 108.718 85.5502 109.849 86.396 110.707C86.3422 109.836 86.4217 108.618 87.0496 107.647C87.2418 107.35 87.4802 107.091 87.7493 106.873C88.1978 106.522 88.754 106.283 89.4025 106.166C89.5537 106.14 89.7126 106.224 89.7664 106.378L90.0432 107.098V107.106L90.7891 109.016V109.023L97.8502 127.318Z" fill="#302945"/>
</svg>
