<svg width="20" height="28" viewBox="0 0 20 28" fill="none" xmlns="http://www.w3.org/2000/svg">
<path d="M18.0781 10.783H5.82656V6.4337C5.82732 5.27718 6.29206 4.24132 7.04912 3.48224C7.80776 2.72524 8.84406 2.26088 9.99981 2.26012C11.1559 2.26088 12.1922 2.72562 12.9513 3.48224C13.7079 4.24132 14.1726 5.27718 14.1734 6.4337V8.16852H16.4335V6.4337C16.4343 4.66056 15.7116 3.04519 14.5491 1.88431C13.3883 0.721856 11.7729 -0.000816748 9.99981 6.92746e-07C8.227 -0.000816748 6.61168 0.721856 5.4508 1.88431C4.28835 3.04519 3.56611 4.66056 3.56649 6.4337V10.783H1.92191C0.860329 10.783 4.97463e-10 11.6436 4.97463e-10 12.7048V18.8028C-5.44956e-05 23.828 4.47734 27.902 10.0002 27.902C15.523 27.902 20 23.828 20 18.8028V12.7049C20 11.6436 19.1397 10.783 18.0781 10.783ZM18.192 18.8028C18.192 22.823 14.5172 26.094 10.0002 26.094C5.48318 26.094 1.80791 22.823 1.80791 18.8028V12.7049C1.80791 12.642 1.85935 12.591 1.92186 12.591H18.0781C18.141 12.591 18.192 12.642 18.192 12.7049V18.8028Z" fill="#00B0DC"/>
<path d="M9.99966 15.6038C8.91829 15.6038 8.04102 16.4806 8.04102 17.5624C8.04102 18.3863 8.55045 19.0904 9.2711 19.3795L8.68494 21.8852H11.3149L10.7287 19.3799C11.4489 19.0904 11.9587 18.3863 11.9587 17.5625C11.9587 16.4806 11.0814 15.6038 9.99966 15.6038Z" fill="#00B0DC"/>
</svg>
