<svg width="74" height="85" viewBox="0 0 74 85" fill="none" xmlns="http://www.w3.org/2000/svg">
<path opacity="0.6" d="M57.8243 0.852168C54.3484 0.553252 51.2884 3.12812 50.9894 6.60312C50.8828 7.8428 51.1427 9.02932 51.6784 10.057L50.128 12.2552L52.8532 11.6489C53.8645 12.6442 55.215 13.3071 56.7394 13.4382C60.2153 13.7371 63.2753 11.1622 63.5743 7.68721C63.8743 4.21207 61.2993 1.15122 57.8243 0.852168Z" fill="#00B0DC"/>
<path opacity="0.1" d="M57.8233 0.85229C54.3474 0.553374 51.2875 3.12824 50.9884 6.60325C50.8818 7.84292 51.1417 9.02944 51.6774 10.0571L50.127 12.2553L52.8522 11.649C53.8635 12.6443 55.214 13.3072 56.7384 13.4383C60.2144 13.7372 63.2743 11.1623 63.5733 7.68733C63.8733 4.2122 61.2983 1.15134 57.8233 0.85229Z" fill="black"/>
<path d="M58.1356 13.0951C57.6846 13.1593 57.2244 13.1722 56.7671 13.1321C55.3764 13.0126 54.0638 12.4075 53.0703 11.4297L52.9511 11.3118L50.8731 11.7743C50.8674 11.7741 50.8624 11.7729 50.8589 11.7686C50.8555 11.7643 50.8556 11.7586 50.8587 11.7534L52.0382 10.0806L51.9513 9.91405C51.4245 8.90234 51.1977 7.76659 51.296 6.62951C51.5377 3.82658 53.6484 1.59259 56.4293 1.19648C56.8794 1.13238 57.3406 1.11931 57.7978 1.15942C61.0986 1.44406 63.5525 4.36048 63.2688 7.6611C63.0271 10.464 60.9165 12.699 58.1356 13.0951ZM52.953 11.2848C52.9567 11.2842 52.9617 11.2854 52.9641 11.2889L53.0887 11.4118C54.0779 12.3854 55.3851 12.9865 56.7692 13.106C57.2244 13.1455 57.6827 13.1328 58.1318 13.0688C60.9006 12.6744 63.0022 10.4504 63.2427 7.65908C63.5256 4.37293 61.0821 1.46937 57.7959 1.18647C57.3407 1.14704 56.8823 1.15971 56.4332 1.22368C53.6644 1.61804 51.5629 3.84213 51.3224 6.63341C51.2244 7.76567 51.4505 8.89672 51.9747 9.90401L52.0655 10.0776C52.068 10.0821 52.0679 10.0878 52.0645 10.0912L50.9009 11.7406L52.9519 11.284C52.952 11.2849 52.953 11.2848 52.953 11.2848Z" fill="white"/>
<path d="M59.2974 5.77253C59.3184 5.69874 59.2853 5.62024 59.2186 5.5819C58.9125 5.40739 58.4914 5.2856 58.0652 5.24873C56.626 5.12464 55.3549 6.1944 55.2308 7.63364C55.1479 8.59634 55.7488 9.15457 56.3851 9.20935C56.942 9.25726 57.4122 9.07932 57.8116 8.66656C57.8466 8.85194 57.9219 8.98376 57.9939 9.073C58.1463 9.26365 58.3764 9.38107 58.6417 9.40355C59.6364 9.48955 60.7211 8.67593 60.8693 6.95584C61.0293 5.10397 59.838 3.69807 57.9735 3.53698C55.7334 3.34425 53.8922 4.97162 53.6895 7.3232C53.521 9.28343 54.7813 10.8249 56.6884 10.9895C57.4448 11.0549 58.0463 10.9721 58.6382 10.7223C58.7158 10.6892 58.7572 10.6039 58.7351 10.5229L58.6088 10.0655C58.5954 10.0186 58.5621 9.97931 58.5179 9.95787C58.4738 9.93735 58.4221 9.93707 58.3771 9.95687C57.9682 10.1423 57.4337 10.2175 56.8729 10.1692C55.3881 10.0411 54.482 8.90452 54.617 7.34033C54.7798 5.45456 56.1276 4.19116 57.8216 4.33732C59.2569 4.461 60.0694 5.45689 59.9415 6.93684C59.8855 7.5848 59.6564 8.11872 59.3124 8.40305C59.1591 8.52916 58.9974 8.5895 58.8527 8.57471C58.774 8.56583 58.7424 8.53207 58.7242 8.505C58.6729 8.42717 58.6119 8.20722 58.7855 7.60564L59.2974 5.77253ZM57.8658 6.11896C57.9782 6.12879 58.0843 6.14812 58.185 6.17682L57.9105 7.17159C57.7563 7.74746 57.1983 8.38369 56.7092 8.34144C56.2627 8.30268 56.2299 7.9113 56.2497 7.6808C56.3277 6.76471 57.0687 6.04979 57.8658 6.11896Z" fill="white"/>
<path d="M44.6977 15.3163C44.6977 15.3163 38.6955 10.5059 35.1892 18.0712C33.2115 22.3419 34.7963 31.3538 38.6955 34.411C42.5948 37.4639 50.7128 30.611 50.7128 30.611C50.7128 30.611 52.5048 21.91 49.7715 18.2483C46.2608 13.5502 44.6977 15.3163 44.6977 15.3163Z" fill="#263238"/>
<path d="M36.3099 33.8884C36.271 33.8884 36.2322 33.8668 36.2149 33.828C36.176 33.7459 32.1731 25.412 34.1551 19.1637C34.7338 17.3457 35.7356 16.0892 37.1433 15.4371C39.6866 14.254 42.7007 15.476 42.7309 15.489C42.787 15.5106 42.813 15.5753 42.7914 15.6315C42.7698 15.6876 42.705 15.7135 42.6489 15.6919C42.6186 15.679 39.6866 14.4915 37.234 15.6358C35.8867 16.2619 34.9194 17.471 34.3624 19.2328C32.4106 25.3947 36.3703 33.6553 36.4135 33.7373C36.4394 33.7891 36.4178 33.8539 36.3617 33.8798C36.3444 33.8841 36.3272 33.8884 36.3099 33.8884Z" fill="#263238"/>
<path d="M36.4683 37.1228C36.4683 37.1228 35.406 46.6874 35.0606 47.8274C34.7151 48.9674 29.8486 55.0559 29.8486 55.0559L31.2304 55.777C31.2304 55.777 36.4294 50.4485 37.2369 48.8681C38.0444 47.2876 39.2923 39.04 39.2923 39.04L36.4683 37.1228Z" fill="#EBB376"/>
<path d="M41.2319 41.3329L40.9642 41.2897L37.1599 40.6679L35.1348 40.3397C35.1348 40.3397 35.3118 34.5319 37.4406 32.8694L39.4874 34.765L41.2319 41.3329Z" fill="#00B0DC"/>
<path opacity="0.2" d="M40.9644 41.2896L37.1601 40.6678C36.8621 38.0165 38.1792 35.1968 38.1792 35.1968C39.8805 36.3411 40.8262 39.1003 40.9644 41.2896Z" fill="black"/>
<path d="M44.5067 49.9734L41.2811 55.0818C34.8773 53.592 14.3533 50.4614 11.8359 57.4999C8.70525 66.2527 31.3408 73.2265 43.8676 73.654C56.3945 74.0815 66.447 66.9479 58.5276 48.6866L44.5067 49.9734Z" fill="#263238"/>
<path opacity="0.2" d="M44.5067 49.9734L41.2811 55.0818C34.8773 53.592 14.3533 50.4614 11.8359 57.4999C8.70525 66.2527 31.3408 73.2265 43.8676 73.654C56.3945 74.0815 66.447 66.9479 58.5276 48.6866L44.5067 49.9734Z" fill="black"/>
<path d="M14.6892 69.3662C14.5035 69.2237 14.3654 69.0251 14.2963 68.8006C14.2704 68.6494 14.3265 68.494 14.4431 68.3947C14.5078 68.3256 14.6028 68.2997 14.6935 68.3213C15.1124 68.4465 15.5269 69.6512 15.5701 69.7937C15.5831 69.8196 15.5744 69.8542 15.5485 69.8715C15.5226 69.893 15.4837 69.893 15.4578 69.8758C15.1858 69.7333 14.9267 69.5606 14.6892 69.3662ZM14.7583 68.5328C14.7281 68.5069 14.6978 68.4897 14.6633 68.4767C14.6288 68.4638 14.5899 68.4767 14.564 68.5069C14.4776 68.5717 14.4344 68.6797 14.456 68.7833C14.6417 69.1676 14.9569 69.4699 15.3499 69.6426C15.2203 69.241 15.0217 68.8653 14.7583 68.5328Z" fill="#263238"/>
<path d="M15.4413 69.8756L15.4327 69.8368C15.2859 69.4654 15.247 68.4895 15.5493 68.2779C15.6529 68.2089 15.7911 68.2218 15.8818 68.3082C15.9854 68.3773 16.0588 68.4852 16.0804 68.6104C16.1754 69.1027 15.5968 69.8325 15.5579 69.867C15.5406 69.8929 15.5061 69.9016 15.4802 69.8886C15.4672 69.8886 15.4543 69.8843 15.4413 69.8756ZM15.8084 68.4593L15.7781 68.4377C15.6875 68.3729 15.6529 68.4032 15.6313 68.4118C15.4543 68.537 15.424 69.2193 15.519 69.6381C15.6745 69.4136 15.9681 68.9473 15.9077 68.6363C15.899 68.5673 15.8602 68.5025 15.8084 68.4593Z" fill="#263238"/>
<path d="M37.9087 72.7474C38.0037 72.9633 38.0296 73.2008 37.9778 73.434C37.926 73.5808 37.8051 73.6887 37.654 73.7146C37.5633 73.7405 37.4683 73.719 37.3992 73.6585C37.0926 73.3433 37.3128 72.091 37.3431 71.9485C37.3474 71.9183 37.369 71.8967 37.3992 71.8924C37.4337 71.8881 37.464 71.9053 37.4812 71.9313C37.6496 72.186 37.7921 72.4581 37.9087 72.7474ZM37.4467 73.4383C37.4596 73.4728 37.4769 73.5074 37.5028 73.5333C37.5287 73.5592 37.5676 73.5721 37.6021 73.5549C37.7101 73.5419 37.7965 73.4685 37.8267 73.3649C37.8483 72.9374 37.7187 72.5185 37.464 72.1817C37.3819 72.5962 37.3776 73.0237 37.4467 73.4383Z" fill="#263238"/>
<path d="M29.278 65.5879L34.4339 67.4231L36.9082 68.304L36.2734 71.0158L33.8768 70.5019L28.0215 69.254L29.278 65.5879Z" fill="#EBB376"/>
<path d="M35.6008 71.1409L36.0326 67.9455C36.0585 67.7684 36.2226 67.6432 36.3997 67.6735L37.9758 67.9369C37.9758 67.9369 40.1219 68.1398 40.5494 68.6882C41.7973 70.2945 41.0157 77.3892 40.1866 77.6396C39.8844 77.7303 39.5605 77.3158 39.431 77.0265C39.0121 76.111 38.2694 73.7231 37.911 72.9631C37.4922 72.0779 36.3392 71.6418 35.821 71.4863C35.6699 71.4432 35.5792 71.2963 35.6008 71.1409Z" fill="#00B0DC"/>
<path d="M37.4976 71.9355L37.489 71.9743C37.4415 72.3716 36.9967 73.2439 36.6297 73.2827C36.5045 73.2914 36.3879 73.2136 36.3533 73.0927C36.2972 72.9804 36.2843 72.8509 36.3231 72.73C36.4786 72.2507 37.3379 71.8923 37.3897 71.8837C37.4156 71.8707 37.4501 71.8793 37.4674 71.9009C37.4804 71.9096 37.4933 71.9225 37.4976 71.9355ZM36.4872 72.9977L36.5002 73.0323C36.5477 73.1316 36.5952 73.1229 36.6168 73.1229C36.8327 73.1014 37.1911 72.5141 37.3077 72.1039C37.0615 72.2248 36.5822 72.4925 36.4829 72.7948C36.4656 72.8595 36.4656 72.9329 36.4872 72.9977Z" fill="#263238"/>
<path opacity="0.2" d="M29.278 65.5879L34.4339 67.4231L33.8768 70.5019L28.0215 69.254L29.278 65.5879Z" fill="black"/>
<path d="M32.963 70.9682L31.4775 71.0719L32.4707 65.9722L34.1505 66.9049L32.963 70.9682Z" fill="#00B0DC"/>
<path opacity="0.6" d="M32.963 70.9682L31.4775 71.0719L32.4707 65.9722L34.1505 66.9049L32.963 70.9682Z" fill="white"/>
<path opacity="0.2" d="M54.4673 51.1481L46.7465 59.7066C46.7465 59.7066 38.2096 59.5166 27.8461 64.5817C27.8461 64.5817 16.7227 59.9872 15.7036 56.17C14.365 51.1697 41.2755 55.0775 41.2755 55.0775L54.4673 51.1481Z" fill="black"/>
<path d="M18.2549 57.1934L18.2549 58.4629C18.2549 58.7867 18.6392 58.9206 18.9587 58.9206L44.3104 58.9206C44.6342 58.9206 45.0272 58.7867 45.0272 58.4629L45.0272 57.1934L18.2549 57.1934Z" fill="#263238"/>
<path opacity="0.4" d="M18.2549 57.1934L18.2549 58.4629C18.2549 58.7867 18.6392 58.9206 18.9587 58.9206L44.3104 58.9206C44.6342 58.9206 45.0272 58.7867 45.0272 58.4629L45.0272 57.1934L18.2549 57.1934Z" fill="white"/>
<path opacity="0.2" d="M18.2549 57.1934L18.2549 58.4629C18.2549 58.7867 18.6392 58.9206 18.9587 58.9206L35.6785 58.9206C36.0023 58.9206 36.3909 58.7867 36.3909 58.4629L36.3909 57.1934L18.2549 57.1934Z" fill="black"/>
<path d="M14.0143 44.0233L17.0327 57.7117C17.132 58.1608 17.5681 58.489 18.0129 58.489L34.4995 58.489C34.9399 58.489 35.2206 58.0788 35.117 57.6297L32.1029 44.0449C31.9993 43.5958 31.5675 43.3756 31.1227 43.3756L14.6361 43.3756C14.1914 43.3756 13.915 43.5786 14.0143 44.0233Z" fill="#263238"/>
<path opacity="0.4" d="M14.0143 44.0233L17.0327 57.7117C17.132 58.1608 17.5681 58.489 18.0129 58.489L33.9381 58.489C34.3829 58.489 34.6592 58.0788 34.5599 57.6297L31.5416 44.0449C31.4422 43.5958 31.0061 43.3756 30.5613 43.3756L14.6361 43.3756C14.1914 43.3756 13.915 43.5786 14.0143 44.0233Z" fill="white"/>
<path opacity="0.2" d="M22.1406 50.9799C22.1406 52.1544 23.3972 53.1087 24.3169 53.1087C25.2367 53.1087 25.7851 52.1544 25.5217 50.9842C25.2583 49.8356 24.3429 48.8986 23.4404 48.864C23.7038 50.0342 23.1424 50.9842 22.2227 50.9842C22.2054 50.9842 22.1406 50.9842 22.1406 50.9799Z" fill="black"/>
<path d="M25.7002 71.4519L20.3026 72.3414L17.7117 72.7689L16.9561 70.0916L19.3008 69.3748L25.0266 67.6346L25.7002 71.4519Z" fill="#EBB376"/>
<path d="M17.4822 69.6513L18.6481 72.6567C18.7129 72.8251 18.6265 73.0108 18.4581 73.0713L16.9511 73.6067C16.9511 73.6067 14.9777 74.4703 14.3343 74.194C12.4646 73.3908 9.71395 66.8057 10.3185 66.1839C10.5387 65.955 11.0223 66.1666 11.2771 66.3523C12.0889 66.9482 13.8896 68.6841 14.5718 69.172C15.3707 69.742 16.5884 69.5649 17.1152 69.4527C17.275 69.4224 17.4261 69.5045 17.4822 69.6513Z" fill="#00B0DC"/>
<path opacity="0.2" d="M25.6992 71.4519L20.3016 72.3414L19.2998 69.3748L25.0256 67.6346L25.6992 71.4519Z" fill="black"/>
<path d="M20.2305 68.8178C20.2305 68.8178 42.2399 56.4421 49.8354 56.7962C57.431 57.1502 58.5278 63.8433 55.3928 68.0362C52.2579 72.2291 46.4716 73.2481 46.4716 73.2481C46.4716 73.2481 50.4097 67.6821 49.8398 66.1146C49.2698 64.5472 47.0416 66.7321 47.0416 66.7321C47.0416 66.7321 33.1934 71.2057 21.0811 72.2291L20.2305 68.8178Z" fill="#263238"/>
<path d="M19.8701 68.4765L21.1137 67.6388L22.7158 72.5571L20.7942 72.5571L19.8701 68.4765Z" fill="#00B0DC"/>
<path opacity="0.6" d="M19.8701 68.4765L21.1137 67.6388L22.7158 72.5571L20.7942 72.5571L19.8701 68.4765Z" fill="white"/>
<path d="M58.5185 48.6912L44.4976 49.978C44.4976 49.978 42.2997 45.4267 40.6156 43.652C38.9359 41.8729 37.4375 32.8697 37.4375 32.8697C38.6207 32.2954 39.7995 31.8247 40.9524 31.4361C45.4217 29.9204 49.4764 29.6441 51.6786 29.6311L51.7564 29.6311C52.8013 29.6268 53.4059 29.6829 53.4059 29.6829C53.7513 29.8729 54.0838 30.2702 54.4033 30.8186C55.9061 33.4094 57.1022 39.4548 57.8103 43.7945C58.2681 46.597 58.5185 48.6912 58.5185 48.6912Z" fill="#00B0DC"/>
<path opacity="0.2" d="M57.8115 43.7945C54.7197 42.3782 50.5009 39.9816 50.7212 37.5505C50.9587 34.8819 53.122 32.1961 54.4045 30.8186C55.9072 33.4095 57.1033 39.4548 57.8115 43.7945Z" fill="black"/>
<path opacity="0.4" d="M49.7036 42.0242C50.4118 44.058 49.4661 46.0098 47.5964 46.3769C45.7266 46.7439 43.6367 45.3967 42.9285 43.3585C42.2203 41.3247 43.166 39.3729 45.0357 39.0059C46.9098 38.6345 48.9998 39.9861 49.7036 42.0242Z" fill="white"/>
<path d="M44.9092 44.4773L45.3641 41.0228L48.3637 44.0081L44.9092 44.4773Z" fill="#00B0DC"/>
<path d="M51.759 29.6309C51.6165 30.2699 50.9904 32.6449 49.3452 34.3506C49.0774 34.6269 48.7838 34.8903 48.46 35.1149C47.6611 35.6892 46.6809 36.0908 45.4848 36.1598C43.5546 36.2764 42.5226 35.4344 41.918 34.3808C41.5726 33.7719 41.3653 33.094 41.2142 32.4894C41.1149 32.0965 41.0371 31.7295 40.9551 31.4358C41.1839 31.3581 41.4085 31.2847 41.633 31.2156C41.9742 31.1077 42.3066 31.0083 42.6391 30.9133C45.1177 30.2224 47.402 29.8899 49.2243 29.7388C49.5438 29.7172 49.8461 29.6956 50.1311 29.6784C50.7183 29.6481 51.2365 29.6352 51.6813 29.6309L51.759 29.6309Z" fill="#EBB376"/>
<path d="M43.3548 30.5464C43.3289 31.4229 42.8366 31.6259 42.8366 31.6259C42.6553 33.2365 44.0543 33.7418 44.7539 33.6683C47.5045 33.3877 48.3768 30.0757 48.3768 30.0757C46.3732 29.2811 45.9241 27.0746 45.842 25.7619C45.8032 25.1487 45.842 24.7299 45.842 24.7299L42.1025 27.0875C42.4739 27.7137 42.7416 28.2534 42.9403 28.7241C43.2598 29.5273 43.3634 30.1145 43.3548 30.5464Z" fill="#EBB376"/>
<path opacity="0.2" d="M42.3281 26.7938C42.6347 27.4545 42.842 28.0201 42.9931 28.5081C43.2349 29.3372 43.2824 29.9374 43.2263 30.3606C45.3292 30.5246 46.1626 25.8827 46.1626 25.8827L46.1799 25.8568C46.2015 25.2436 46.2835 24.8334 46.2835 24.8334L42.3281 26.7938Z" fill="black"/>
<path d="M39.2782 17.4496C35.6597 18.5507 35.0853 20.8436 35.9576 24.6522C37.0458 29.4107 39.0882 32.4075 43.307 30.0325C49.0415 26.8112 45.2847 15.6187 39.2782 17.4496Z" fill="#EBB376"/>
<path d="M38.2336 23.7366C38.2336 23.7366 38.022 24.8334 37.6377 25.5588C37.6377 25.5588 38.0954 25.9561 38.7172 25.6754L38.2336 23.7366Z" fill="#D58745"/>
<path d="M40.3586 22.7697C40.4406 23.0677 40.6738 23.2663 40.8725 23.2102C41.0711 23.154 41.1661 22.8647 41.0841 22.5668C41.002 22.2688 40.7688 22.0702 40.5702 22.1263C40.3716 22.1825 40.2766 22.4674 40.3586 22.7697Z" fill="#263238"/>
<path d="M40.6557 22.1176L39.9346 22.0442C39.9346 22.0442 40.4096 22.5019 40.6557 22.1176Z" fill="#263238"/>
<path d="M36.6257 23.7452C36.7077 24.0431 36.9409 24.2418 37.1395 24.1856C37.3382 24.1295 37.4331 23.8402 37.3511 23.5422C37.2691 23.2443 37.0359 23.0456 36.8372 23.1018C36.6343 23.1579 36.5393 23.4472 36.6257 23.7452Z" fill="#263238"/>
<path d="M36.9184 23.0931L36.1973 23.0197C36.1973 23.0197 36.6766 23.4774 36.9184 23.0931Z" fill="#263238"/>
<path d="M41.3722 20.4853C41.342 20.4853 41.3118 20.4766 41.2859 20.4594C40.6079 20.006 39.7098 20.3989 39.7011 20.4032C39.6234 20.4378 39.5284 20.4032 39.4939 20.3255C39.4593 20.2478 39.4939 20.1528 39.5716 20.1182C39.6148 20.101 40.6382 19.6476 41.4586 20.2003C41.532 20.2478 41.5493 20.3471 41.5018 20.4162C41.4716 20.4594 41.424 20.4853 41.3722 20.4853Z" fill="#263238"/>
<path d="M35.6095 21.8021C35.5749 21.8021 35.5404 21.7891 35.5102 21.7675C35.4454 21.7114 35.4325 21.6121 35.4886 21.5473C36.1708 20.7182 36.9395 20.7485 36.9697 20.7528C37.0561 20.7571 37.1208 20.8305 37.1165 20.9169C37.1122 21.0032 37.0388 21.0637 36.9524 21.0637C36.9265 21.055 36.3047 21.0421 35.7304 21.7459C35.7002 21.7805 35.6527 21.8021 35.6095 21.8021Z" fill="#263238"/>
<path d="M45.0917 22.3421C45.0917 22.3421 42.4922 19.8851 42.0518 17.5145C42.0518 17.5145 33.9898 16.7717 35.8553 24.1557C35.8553 24.1557 33.1867 17.9074 39.3573 15.8693C45.5235 13.8311 48.2785 22.9337 45.8949 26.6257C45.8949 26.6214 46.7024 23.8794 45.0917 22.3421Z" fill="#263238"/>
<path d="M44.7333 23.2833C44.5779 22.6917 44.8801 21.5258 45.9985 21.3142C47.1558 21.094 48.3908 23.2315 45.774 24.6348C45.3983 24.8378 45.0528 24.5139 44.7333 23.2833Z" fill="#EBB376"/>
<path d="M39.551 27.3078C39.4646 27.3078 39.3955 27.2387 39.3955 27.1566C39.3955 27.0703 39.4603 26.9969 39.5466 26.9969C41.0493 26.9623 41.235 25.628 41.2393 25.5719C41.248 25.4855 41.33 25.4251 41.4121 25.438C41.4984 25.4467 41.5589 25.5287 41.5459 25.6108C41.5502 25.628 41.3257 27.2689 39.551 27.3078C39.5553 27.3078 39.5553 27.3078 39.551 27.3078Z" fill="#263238"/>
<path d="M50.3558 26.2025C50.304 26.2025 50.2608 26.1636 50.2479 26.1118C50.2435 26.0902 49.8463 24.1125 46.0377 23.0071C42.078 21.8542 41.8059 17.1042 41.8059 17.0567C41.8016 16.9963 41.8491 16.9488 41.9096 16.9445C41.9743 16.9488 42.0218 16.9876 42.0218 17.0481C42.0262 17.0956 42.2896 21.6944 46.0981 22.7998C50.0492 23.9484 50.4422 25.9909 50.4594 26.0773C50.4681 26.1334 50.4292 26.1895 50.3731 26.2025C50.3687 26.2025 50.3644 26.2025 50.3558 26.2025Z" fill="#263238"/>
<path d="M51.7602 34.4023C51.7602 34.4023 51.3024 43.6301 50.5252 45.6985C49.7479 47.7669 41.591 55.41 41.591 55.41C41.591 55.41 39.3154 54.9004 38.9354 55.0515C38.5597 55.1984 36.3877 57.1933 36.3877 57.1933L42.6619 57.1933L43.2103 56.2218C43.2103 56.2218 51.6522 49.9691 52.5763 48.4794C53.2629 47.3783 55.4651 36.1641 55.4651 36.1641L51.7602 34.4023Z" fill="#EBB376"/>
<path d="M53.4089 29.6827C59.0872 31.0731 56.4316 39.5927 56.4316 39.5927L50.5244 38.1462C50.5244 38.1462 50.5244 28.9745 53.4089 29.6827Z" fill="#00B0DC"/>
<path d="M49.3475 34.3505C49.0798 34.6269 48.7862 34.8903 48.4623 35.1148C48.0435 32.7701 48.7991 30.6801 49.2266 29.7388C49.5461 29.7172 49.8484 29.6956 50.1334 29.6783C49.4123 31.3063 49.3043 33.1026 49.3475 34.3505Z" fill="#263238"/>
<path d="M42.6418 30.9135C42.1538 32.0793 41.9682 33.323 41.9207 34.3809C41.5752 33.772 41.3679 33.0941 41.2168 32.4896C41.342 31.993 41.4932 31.5612 41.6357 31.2157C41.9768 31.1078 42.3093 31.0085 42.6418 30.9135Z" fill="#263238"/>
<path opacity="0.4" d="M49.3475 34.3505C49.0798 34.6269 48.7862 34.8903 48.4623 35.1148C48.0435 32.7701 48.7991 30.6801 49.2266 29.7388C49.5461 29.7172 49.8484 29.6956 50.1334 29.6783C49.4123 31.3063 49.3043 33.1026 49.3475 34.3505Z" fill="white"/>
<path opacity="0.4" d="M42.6418 30.9135C42.1538 32.0793 41.9682 33.323 41.9207 34.3809C41.5752 33.772 41.3679 33.0941 41.2168 32.4896C41.342 31.993 41.4932 31.5612 41.6357 31.2157C41.9768 31.1078 42.3093 31.0085 42.6418 30.9135Z" fill="white"/>
</svg>
