<svg width="55" height="93" viewBox="0 0 55 93" fill="none" xmlns="http://www.w3.org/2000/svg">
<g clip-path="url(#clip0_260_10971)">
<path d="M32.0235 36.7331C26.8697 37.6401 23.4366 34.3024 20.8872 32.2862C17.5214 29.6243 14.9668 30.9987 14.9668 30.9987L18.6341 37.9681C24.0104 43.0593 29.4012 41.8035 32.7816 40.0567C32.8084 38.6974 32.4388 37.5664 32.0235 36.7331Z" fill="url(#paint0_linear_260_10971)"/>
<path d="M39.2282 33.3789L37.5319 34.3738C35.5007 35.7184 33.6741 36.4429 32.0234 36.7336C32.4387 37.5664 32.8083 38.6974 32.7815 40.0576C34.9336 38.9455 36.271 37.6344 36.271 37.6344C40.1086 35.1451 39.2282 33.3789 39.2282 33.3789Z" fill="url(#paint1_linear_260_10971)"/>
<path d="M19.9179 81.9883L19.5365 83.9752C18.8819 87.3842 20.2053 90.5074 22.4928 90.9512L25.2119 91.4786C27.4994 91.9224 29.8842 89.5182 30.5389 86.1091L30.9203 84.1222C30.9456 83.9908 30.9682 83.8584 30.9875 83.7261L39.7677 24.337L33.8435 23.1881L20.0021 81.5955C19.9711 81.7255 19.9433 81.8564 19.9179 81.9883ZM22.7011 82.3659C23.1939 79.799 24.824 77.9572 26.3411 78.2512C27.8587 78.5456 28.6892 80.8648 28.1964 83.4317C27.7035 85.9985 26.0735 87.8403 24.5559 87.5459C23.0388 87.2519 22.2082 84.9327 22.7011 82.3659Z" fill="url(#paint2_linear_260_10971)"/>
<path d="M34.7223 2.48035L32.5087 14.0082C32.3512 14.8292 32.5816 15.6766 33.1323 16.3033L35.9559 19.5139C36.762 20.4303 38.0811 20.686 39.1684 20.1368L42.9782 18.2127C43.7212 17.8375 44.2494 17.1366 44.4069 16.3161L46.6205 4.7882C46.9544 3.0494 49.185 2.48886 50.2615 3.89115C52.8363 7.24539 54.0186 11.7316 53.1377 16.318C51.5454 24.6079 44.018 29.0633 36.0838 27.524C28.1492 25.9851 22.8124 19.0346 24.4043 10.7447C25.2852 6.15835 28.0434 2.4364 31.6754 0.285937C33.1935 -0.613002 35.0563 0.741551 34.7223 2.48035Z" fill="url(#paint3_linear_260_10971)"/>
<path d="M35.8024 2.6902L33.5888 14.2181C33.4312 15.039 33.6617 15.8865 34.2124 16.5132L37.036 19.7237C37.842 20.6402 39.1612 20.8958 40.2485 20.3467L44.0583 18.4226C44.8013 18.0473 45.3294 17.3464 45.487 16.5259L47.7006 4.99804C48.0345 3.25925 50.2651 2.69871 51.3415 4.101C53.9164 7.45524 55.0982 11.9414 54.2178 16.5278C52.6259 24.8177 45.0985 29.2732 37.1639 27.7343C29.2297 26.1954 23.8925 19.245 25.4844 10.9551C26.3652 6.36819 29.1234 2.64672 32.7554 0.49626C34.2735 -0.403151 36.1363 0.950929 35.8024 2.6902Z" fill="#91B3FA"/>
<path d="M20.7812 82.1551L20.3998 84.142C19.7452 87.5511 21.0686 90.6742 23.3556 91.118L26.0748 91.6455C28.3622 92.0893 30.747 89.685 31.4017 86.2759L31.7831 84.289C31.8085 84.1576 31.831 84.0253 31.8503 83.8929L40.6305 24.5039L34.7064 23.3549L20.8649 81.7623C20.8344 81.8928 20.8062 82.0237 20.7812 82.1551ZM23.5644 82.5332C24.0572 79.9663 25.6872 78.1245 27.2044 78.4185C28.722 78.7129 29.5525 81.0321 29.0596 83.599C28.5668 86.1658 26.9368 88.0076 25.4192 87.7132C23.902 87.4192 23.0715 85.1 23.5644 82.5332Z" fill="#91B3FA"/>
<path d="M39.4481 35.95C39.5111 35.5776 39.403 35.1995 39.157 34.9135C38.6806 34.3596 37.8576 33.601 37.2608 34.1124C36.372 34.8743 37.346 37.4789 37.346 37.4789L38.3317 38.9918L38.3458 39.9574C38.8786 39.3298 39.1975 37.7862 39.4481 35.95Z" fill="url(#paint4_linear_260_10971)"/>
<path d="M5.62853 48.4316C4.8883 49.2559 3.78971 49.9771 3.01562 50.4285C4.21156 51.8577 5.81993 53.2818 7.93997 54.6647L8.56451 56.0046L10.4405 53.6561C10.4405 53.6565 6.96413 51.999 5.62853 48.4316Z" fill="url(#paint5_linear_260_10971)"/>
<path d="M16.7245 92.0883C16.7245 92.0472 16.7207 92.0051 16.7094 91.9631C16.0411 89.4978 12.9264 88.0133 12.9264 88.0133L11.7056 88.1329C11.0434 90.3297 11.1591 91.6667 11.2833 92.2613C11.2866 92.2778 11.2922 92.2939 11.2969 92.31C12.3071 92.3813 14.3843 92.4007 16.7245 92.0883Z" fill="url(#paint6_linear_260_10971)"/>
<path d="M11.2969 92.3095C11.3552 92.5075 11.5043 92.6597 11.6924 92.6961C13.1329 92.9721 15.409 92.6848 16.3642 92.5406C16.5749 92.509 16.7258 92.3095 16.7249 92.0878C14.3848 92.4007 12.3075 92.3813 11.2969 92.3095Z" fill="url(#paint7_linear_260_10971)"/>
<path d="M11.1797 86.3119L11.7445 88.8078C11.7859 88.9907 11.9289 89.1254 12.0991 89.1382C12.3074 89.1538 12.6042 89.1599 12.9014 89.1103C13.168 89.0659 13.3486 88.7894 13.296 88.4973L12.8943 86.2792L11.1797 86.3119Z" fill="url(#paint8_linear_260_10971)"/>
<path d="M22.0223 92.0812C20.6711 92.0689 19.9695 91.9224 19.6055 91.7806C19.6073 91.9158 19.6106 92.0529 19.6177 92.1951C19.6252 92.3468 19.7395 92.4664 19.8773 92.4626L27.2913 92.2741C27.5279 92.2679 27.661 91.9895 27.5542 91.7735C26.5835 91.8723 24.1108 92.1001 22.0223 92.0812Z" fill="url(#paint9_linear_260_10971)"/>
<path d="M27.5552 91.7735C27.5457 91.7546 27.5378 91.7357 27.5246 91.7178C26.8526 90.8108 25.1501 89.011 21.8398 88.2794L20.2578 88.2591C20.2578 88.2591 19.5768 89.5021 19.6064 91.7802C19.9704 91.9215 20.6716 92.068 22.0232 92.0808C24.1117 92.1001 26.5845 91.8723 27.5552 91.7735Z" fill="url(#paint10_linear_260_10971)"/>
<path d="M19.9199 85.8567C19.9397 85.9749 20.1903 87.7709 20.2872 88.467C20.3103 88.6325 20.4321 88.7587 20.583 88.7738C20.853 88.8012 21.2889 88.822 21.6689 88.7364C21.874 88.6901 22.0188 88.4888 22.0146 88.2581L21.9614 85.4323L19.9199 85.8567Z" fill="url(#paint11_linear_260_10971)"/>
<path d="M18.0332 53.0303C18.0332 53.0303 22.12 67.5225 22.3956 85.8515C22.4007 86.1857 22.1726 86.4787 21.8486 86.5534C21.3713 86.664 20.6687 86.7977 20.0846 86.7925C19.7728 86.7897 19.508 86.5623 19.4502 86.2547C18.8562 83.1136 15.4542 65.4193 13.652 62.5703C13.652 62.5703 12.7989 78.4034 13.3205 86.5992C13.3337 86.8029 13.1883 86.9825 12.9866 87.0099C12.6809 87.0515 12.1918 87.0874 11.5673 87.0331C11.3302 87.0123 11.136 86.836 11.0979 86.6002C10.6671 83.9402 8.17651 68.1072 8.05471 56.6696C8.04766 56.0244 9.68707 53.1886 9.68707 53.1886L18.0332 53.0303Z" fill="url(#paint12_linear_260_10971)"/>
<path d="M23.0058 35.3034C22.3724 34.5354 21.8146 33.7102 21.3448 32.8576C20.6887 31.667 21.3086 33.637 21.1101 32.2824C16.3019 28.9324 9.19216 30.8092 6.43582 31.2114C5.53194 31.3433 4.71176 31.8079 4.12814 32.5135C1.81246 35.3119 -3.24122 42.9491 3.01639 50.429C3.79047 49.9776 4.88953 49.2564 5.62929 48.4321C4.91681 46.5284 4.81522 44.0801 6.1767 41.0501C6.22984 41.2874 6.2938 41.5218 6.37092 41.7525C8.44206 47.9368 8.64334 53.1125 8.66168 54.3059C8.66403 54.468 8.76373 54.6122 8.91469 54.6694C11.506 55.6562 16.4449 54.9459 18.1022 54.6656C18.406 54.6141 18.6058 54.3253 18.5579 54.019C17.6305 48.0961 21.6331 38.2474 22.6926 35.7798C22.7683 35.6017 22.8756 35.4414 23.0058 35.3034Z" fill="url(#paint13_linear_260_10971)"/>
<path d="M10.7869 26.1264L10.3867 31.2251C10.3867 31.2251 13.2517 32.0333 15.296 30.5247L13.7525 25.927L10.7869 26.1264Z" fill="url(#paint14_linear_260_10971)"/>
<path d="M13.982 20.263C14.0516 20.3268 16.9815 25.8485 16.9815 25.8485L13.8085 27.4625L10.2578 22.6436C10.2583 22.6436 12.8138 19.1986 13.982 20.263Z" fill="url(#paint15_linear_260_10971)"/>
<path d="M11.6781 22.7519C11.624 22.9017 11.6409 23.0671 11.7251 23.2018L13.3725 25.8471C13.3975 25.8873 13.4271 25.9232 13.4624 25.9549C13.6556 26.1293 14.3159 26.634 14.8055 25.9204C15.2226 25.3121 15.6148 24.7586 16.0414 24.5256C16.2906 24.3895 16.602 24.4883 16.7346 24.7407C17.0074 25.2596 17.5374 26.3183 17.8764 27.3255C17.9616 27.5779 17.836 27.8529 17.5924 27.9579C16.949 28.2343 15.6765 28.7358 14.5421 28.9154C14.3559 28.9447 14.1692 28.8691 14.0554 28.7183C13.5536 28.0543 12.1394 26.1978 11.6598 25.7356C11.2144 25.3059 10.4102 25.4865 10.049 25.5985C9.91171 25.641 9.76451 25.6245 9.63988 25.5526C9.26695 25.3362 8.61231 24.7927 9.18371 23.8398C9.32573 23.6031 9.24531 23.2925 9.01252 23.1451C8.59538 22.8804 8.13921 22.378 8.54929 21.5424C8.96455 20.6964 9.733 20.6066 10.2583 20.6609C10.4906 20.685 10.7239 20.5584 10.809 20.3396C10.8466 20.2422 10.9233 20.1585 11.0686 20.1259C11.3423 20.0645 11.5177 19.8088 11.4589 19.5333C11.3574 19.0606 11.4157 18.4434 12.1611 18.0128C13.5282 17.223 14.7618 18.4443 15.0895 19.4884C15.4169 20.5324 13.8861 21.3042 12.9168 21.4465C12.2048 21.5495 11.8281 22.3397 11.6781 22.7519Z" fill="url(#paint16_linear_260_10971)"/>
<path d="M12.2779 26.7063C12.2779 26.7063 11.6293 24.9113 10.8444 24.9926C10.0591 25.0739 9.45521 25.8726 10.4466 26.7394C11.6792 27.8175 12.2779 26.7063 12.2779 26.7063Z" fill="url(#paint17_linear_260_10971)"/>
<path d="M5.90893 40.5893C4.81882 37.7583 5.13014 34.3086 5.13344 34.2741L5.41984 34.3015C5.41655 34.3355 5.11227 37.719 6.17747 40.4853L5.90893 40.5893Z" fill="url(#paint18_linear_260_10971)"/>
<path d="M13.5051 62.2021C13.4411 62.2035 13.3819 62.1615 13.364 62.0967C13.0249 60.8769 10.6316 59.5748 10.6072 59.562C10.5371 59.5242 10.5108 59.4368 10.5484 59.3664C10.586 59.2959 10.6726 59.2695 10.7431 59.3073C10.8461 59.3626 13.2685 60.6807 13.641 62.0192C13.6622 62.0963 13.6175 62.1757 13.5413 62.1974C13.5291 62.1998 13.5168 62.2017 13.5051 62.2021Z" fill="url(#paint19_linear_260_10971)"/>
<path d="M15.6329 18.587L8.29836 24.3276C8.19255 24.4103 8.03688 24.3474 8.0176 24.2142L7.94142 23.6881C7.94142 23.6881 4.88927 20.6038 8.02513 17.8152C11.1615 15.0267 14.8617 18.1858 14.8617 18.1858L15.5713 18.3271C15.6945 18.3512 15.7321 18.5095 15.6329 18.587Z" fill="url(#paint20_linear_260_10971)"/>
</g>
<defs>
<linearGradient id="paint0_linear_260_10971" x1="95.7343" y1="-62.2121" x2="70.0784" y2="-27.6616" gradientUnits="userSpaceOnUse">
<stop stop-color="#FF928E"/>
<stop offset="1" stop-color="#FE7062"/>
</linearGradient>
<linearGradient id="paint1_linear_260_10971" x1="44.4851" y1="23.9111" x2="20.6879" y2="55.4161" gradientUnits="userSpaceOnUse">
<stop stop-color="#FEBBBA"/>
<stop offset="1" stop-color="#FF928E"/>
</linearGradient>
<linearGradient id="paint2_linear_260_10971" x1="117.622" y1="547.457" x2="93.7608" y2="415.433" gradientUnits="userSpaceOnUse">
<stop stop-color="#4F52FF"/>
<stop offset="1" stop-color="#4042E2"/>
</linearGradient>
<linearGradient id="paint3_linear_260_10971" x1="-1020.81" y1="495.833" x2="-898.988" y2="440.9" gradientUnits="userSpaceOnUse">
<stop stop-color="#4F52FF"/>
<stop offset="1" stop-color="#4042E2"/>
</linearGradient>
<linearGradient id="paint4_linear_260_10971" x1="34.5651" y1="33.1051" x2="55.0403" y2="54.0421" gradientUnits="userSpaceOnUse">
<stop stop-color="#FEBBBA"/>
<stop offset="1" stop-color="#FF928E"/>
</linearGradient>
<linearGradient id="paint5_linear_260_10971" x1="3.05075" y1="52.2952" x2="10.4123" y2="52.1567" gradientUnits="userSpaceOnUse">
<stop stop-color="#FEBBBA"/>
<stop offset="1" stop-color="#FF928E"/>
</linearGradient>
<linearGradient id="paint6_linear_260_10971" x1="13.4991" y1="75.296" x2="14.0734" y2="95.7026" gradientUnits="userSpaceOnUse">
<stop stop-color="#09005D"/>
<stop offset="1" stop-color="#1A0F91"/>
</linearGradient>
<linearGradient id="paint7_linear_260_10971" x1="13.9956" y1="84.0072" x2="13.9513" y2="60.7413" gradientUnits="userSpaceOnUse">
<stop stop-color="#09005D"/>
<stop offset="1" stop-color="#1A0F91"/>
</linearGradient>
<linearGradient id="paint8_linear_260_10971" x1="12.5842" y1="83.8727" x2="11.695" y2="93.1402" gradientUnits="userSpaceOnUse">
<stop stop-color="#FEBBBA"/>
<stop offset="1" stop-color="#FF928E"/>
</linearGradient>
<linearGradient id="paint9_linear_260_10971" x1="23.5837" y1="83.9889" x2="23.5394" y2="60.7229" gradientUnits="userSpaceOnUse">
<stop stop-color="#09005D"/>
<stop offset="1" stop-color="#1A0F91"/>
</linearGradient>
<linearGradient id="paint10_linear_260_10971" x1="23.1142" y1="75.0255" x2="23.6884" y2="95.4323" gradientUnits="userSpaceOnUse">
<stop stop-color="#09005D"/>
<stop offset="1" stop-color="#1A0F91"/>
</linearGradient>
<linearGradient id="paint11_linear_260_10971" x1="21.1929" y1="84.6988" x2="20.3037" y2="93.9662" gradientUnits="userSpaceOnUse">
<stop stop-color="#FEBBBA"/>
<stop offset="1" stop-color="#FF928E"/>
</linearGradient>
<linearGradient id="paint12_linear_260_10971" x1="32.9255" y1="42.17" x2="-0.0461495" y2="95.2567" gradientUnits="userSpaceOnUse">
<stop stop-color="#09005D"/>
<stop offset="1" stop-color="#1A0F91"/>
</linearGradient>
<linearGradient id="paint13_linear_260_10971" x1="91.3626" y1="-65.4579" x2="65.7067" y2="-30.9073" gradientUnits="userSpaceOnUse">
<stop stop-color="#FF928E"/>
<stop offset="1" stop-color="#FE7062"/>
</linearGradient>
<linearGradient id="paint14_linear_260_10971" x1="13.8032" y1="24.707" x2="10.0707" y2="42.2609" gradientUnits="userSpaceOnUse">
<stop stop-color="#FEBBBA"/>
<stop offset="1" stop-color="#FF928E"/>
</linearGradient>
<linearGradient id="paint15_linear_260_10971" x1="13.071" y1="21.3348" x2="15.2973" y2="33.0283" gradientUnits="userSpaceOnUse">
<stop stop-color="#FEBBBA"/>
<stop offset="1" stop-color="#FF928E"/>
</linearGradient>
<linearGradient id="paint16_linear_260_10971" x1="11.0898" y1="26.929" x2="16.8516" y2="20.6033" gradientUnits="userSpaceOnUse">
<stop stop-color="#09005D"/>
<stop offset="1" stop-color="#1A0F91"/>
</linearGradient>
<linearGradient id="paint17_linear_260_10971" x1="11.5438" y1="33.4149" x2="11.0308" y2="25.1811" gradientUnits="userSpaceOnUse">
<stop stop-color="#FEBBBA"/>
<stop offset="1" stop-color="#FF928E"/>
</linearGradient>
<linearGradient id="paint18_linear_260_10971" x1="19.3391" y1="34.9886" x2="-6.17711" y2="39.4553" gradientUnits="userSpaceOnUse">
<stop stop-color="#E1473D"/>
<stop offset="1" stop-color="#E9605A"/>
</linearGradient>
<linearGradient id="paint19_linear_260_10971" x1="14.278" y1="56.6509" x2="11.524" y2="61.7511" gradientUnits="userSpaceOnUse">
<stop stop-color="#4F52FF"/>
<stop offset="1" stop-color="#4042E2"/>
</linearGradient>
<linearGradient id="paint20_linear_260_10971" x1="16.3588" y1="-12.782" x2="11.1118" y2="19.3352" gradientUnits="userSpaceOnUse">
<stop stop-color="#FF928E"/>
<stop offset="1" stop-color="#FE7062"/>
</linearGradient>
<clipPath id="clip0_260_10971">
<rect width="54.5083" height="92.8114" fill="white"/>
</clipPath>
</defs>
</svg>
