<svg width="257" height="207" viewBox="0 0 257 207" fill="none" xmlns="http://www.w3.org/2000/svg">
<path d="M128.5 207.005C199.469 207.005 257 203.646 257 199.502C257 195.359 199.469 192 128.5 192C57.5314 192 0 195.359 0 199.502C0 203.646 57.5314 207.005 128.5 207.005Z" fill="#EBF3FA"/>
<path d="M16.9554 199.498C16.9554 199.498 -17.6667 154.786 18.4387 115.86C58.5675 72.5979 20.653 24.1946 60.6361 6.96194C117.017 -17.3375 127.123 30.7244 190.262 18.81C242.986 8.86113 241.867 86.5953 226.285 114.336C213.365 137.338 263.158 148.738 237.672 199.393L16.9554 199.498Z" fill="#EBF3FA"/>
<g opacity="0.3">
<path d="M147.936 79.9518C147.936 79.9518 153.404 53.3263 174.356 49.8077C174.356 49.8077 178.434 49.1865 179.927 53.6559C181.421 58.1253 173.285 58.3944 168.307 60.354C163.33 62.3149 151.826 70.3444 147.936 79.9518Z" fill="#AEC3FF"/>
</g>
<g opacity="0.3">
<path d="M147.316 75.0163C147.316 75.0163 144.495 53.1744 159.619 44.9553C159.619 44.9553 162.58 43.4034 164.901 46.4348C167.222 49.4661 161.059 51.817 157.762 54.6302C154.466 57.4446 147.766 66.63 147.316 75.0163Z" fill="#AEC3FF"/>
</g>
<path d="M62.3502 67.0271C64.9164 59.7219 77.3137 62.9774 77.3137 62.9774C77.3137 62.9774 84.889 76.6499 87.3485 77.1431C89.8081 77.6362 83.1533 64.1878 83.1533 64.1878C87.9978 64.0763 99.8228 70.88 99.8228 70.88C99.8228 70.88 97.9272 86.0403 100.433 85.9123C102.939 85.7843 101.427 72.4034 101.427 72.4034C105.98 74.1437 109.925 79.8982 109.925 79.8982C114.706 89.1488 102.587 94.8131 102.587 94.8131C102.587 94.8131 102.043 100.082 104.857 106.377C104.857 106.377 105.51 107.549 106.117 109.504L104.849 109.41C104.77 109.062 104.68 108.725 104.577 108.399C104.577 108.397 104.577 108.394 104.575 108.393C104.574 108.388 104.571 108.384 104.57 108.379C104.498 108.176 104.394 107.888 104.262 107.536V107.535C104.262 107.534 104.261 107.534 104.261 107.534C103.929 106.745 103.709 106.166 103.573 105.748C103.573 105.747 103.571 105.746 103.571 105.745C102.584 103.275 101.14 100.045 100.072 99.311C100.072 99.311 100.227 99.1237 100.386 98.7479C100.285 98.9269 100.181 99.1142 100.072 99.311C97.5564 103.809 86.6365 103.785 80.676 102.097C74.7155 100.409 77.4795 98.8949 80.9414 96.3626C84.4044 93.8303 91.1777 95.0645 93.2759 94.1255C95.3729 93.1866 92.5046 91.8825 88.4468 91.8968C84.389 91.9098 82.0752 95.7983 75.5116 95.9394C68.9481 96.0805 64.8856 83.4476 64.8856 83.4476C69.2834 85.1761 77.5352 83.2864 77.9593 81.7571C78.3835 80.2266 66.4234 79.5022 64.5953 78.8988C62.7696 78.2989 59.7852 74.3322 62.3502 67.0271Z" fill="#CDE0FB"/>
<path d="M43.3508 181.844C38.8559 173.999 51.1939 165.518 51.1939 165.518C51.1939 165.518 69.0529 169.252 71.3667 167.453C73.6805 165.653 56.7208 161.277 56.7208 161.277C60.3201 156.906 75.3546 151.64 75.3546 151.64C75.3546 151.64 87.3005 164.887 89.1001 162.573C90.8997 160.259 77.9243 151.384 77.9243 151.384C82.9358 148.686 91.0313 149.588 91.0313 149.588C102.852 152.42 98.6066 167.462 98.6066 167.462C98.6066 167.462 102.846 171.964 110.554 174.28C110.554 174.28 112.088 174.597 114.279 175.552L113.228 176.604C112.86 176.407 112.493 176.229 112.127 176.073C112.125 176.07 112.123 176.07 112.12 176.07C112.115 176.068 112.109 176.065 112.104 176.063C111.87 175.973 111.536 175.845 111.125 175.692H111.124C111.122 175.692 111.122 175.692 111.121 175.692C110.172 175.384 109.491 175.136 109.018 174.938C109.017 174.938 109.016 174.937 109.013 174.936C106.079 173.923 102.123 172.737 100.659 173.122C100.659 173.122 100.611 172.842 100.401 172.414C100.483 172.639 100.569 172.875 100.659 173.122C102.713 178.779 94.3581 188.42 88.3182 192.404C82.2783 196.389 83.0496 192.788 83.4559 187.793C83.8623 182.797 90.1214 177.747 90.8926 175.176C91.6639 172.605 88.3229 174.147 85.2378 177.747C82.1527 181.346 83.822 186.36 78.9373 192.274C74.0525 198.187 59.7928 192.14 59.7928 192.14C64.6764 189.57 69.304 180.828 68.2769 179.285C67.2497 177.742 57.4814 187.768 55.5538 188.925C53.6274 190.075 47.8458 189.687 43.3508 181.844Z" fill="#AFCDFB"/>
<g opacity="0.5">
<path d="M215.478 77.2493C214.606 69.1191 201.075 69.4653 201.075 69.4653C201.075 69.4653 189.983 81.6855 187.335 81.5978C184.687 81.5101 194.779 69.2969 194.779 69.2969C189.825 68.0095 176.025 72.1422 176.025 72.1422C176.025 72.1422 174.31 88.1845 171.765 87.4471C169.22 86.7097 174.009 73.3205 174.009 73.3205C168.909 74.0081 163.462 78.9683 163.462 78.9683C156.312 87.3203 167.4 96.0765 167.4 96.0765C167.4 96.0765 166.686 101.623 162.273 107.414C162.273 107.414 161.318 108.46 160.221 110.324L161.548 110.535C161.712 110.196 161.886 109.871 162.071 109.562C162.071 109.559 162.072 109.557 162.075 109.556C162.077 109.551 162.081 109.546 162.083 109.543C162.206 109.352 162.384 109.08 162.603 108.751C162.603 108.751 162.603 108.75 162.604 108.75C162.604 108.748 162.606 108.748 162.606 108.748C163.138 108.018 163.505 107.475 163.745 107.079C163.747 107.078 163.747 107.077 163.748 107.076C165.359 104.776 167.625 101.805 168.9 101.309C168.9 101.309 168.786 101.079 168.713 100.655C168.772 100.864 168.835 101.081 168.9 101.309C170.399 106.542 181.629 109.16 188.164 108.868C194.699 108.575 192.224 106.35 189.277 102.91C186.329 99.4694 179.068 99.0972 177.139 97.6259C175.21 96.1535 178.474 95.5074 182.641 96.5033C186.809 97.4991 188.247 102.056 194.96 103.789C201.673 105.523 208.902 93.5205 208.902 93.5205C203.964 94.2342 195.939 90.2935 195.871 88.6184C195.805 86.9433 208.274 89.0926 210.299 88.9148C212.323 88.7346 216.35 85.3796 215.478 77.2493Z" fill="#AFCDFB"/>
</g>
<g opacity="0.2">
<path d="M222.585 176.145C231.549 168.784 220.611 152.985 220.611 152.985C220.611 152.985 197.487 149.321 195.532 146.109C193.578 142.896 215.914 145.377 215.914 145.377C213.587 138.494 197.949 125.321 197.949 125.321C197.949 125.321 177.588 135.765 176.483 132.168C175.377 128.573 194.984 123.841 194.984 123.841C190.2 118.319 180.08 115.711 180.08 115.711C164.61 113.719 162.853 133.699 162.853 133.699C162.853 133.699 155.719 137.166 145.417 136.43C145.417 136.43 143.433 136.111 140.369 136.257L141.151 137.997C141.682 137.93 142.203 137.884 142.714 137.862C142.717 137.861 142.72 137.861 142.723 137.862C142.73 137.862 142.737 137.862 142.746 137.861C143.068 137.86 143.528 137.859 144.089 137.862C144.089 137.862 144.09 137.862 144.092 137.862C144.093 137.862 144.093 137.862 144.094 137.862C145.374 137.926 146.304 137.939 146.96 137.917C146.962 137.917 146.963 137.917 146.966 137.917C150.948 138.04 156.233 138.421 157.813 139.549C157.813 139.549 157.997 139.235 158.444 138.818C158.242 139.051 158.034 139.294 157.813 139.549C152.774 145.4 158.406 160.773 163.838 168.306C169.27 175.839 169.983 171.169 171.77 164.991C173.558 158.814 168.348 149.902 168.594 146.465C168.839 143.03 172.144 146.403 174.207 152.126C176.268 157.85 171.983 163.105 175.15 172.425C178.317 181.745 198.177 180.992 198.177 180.992C193.489 175.682 191.918 163.086 193.853 161.704C195.787 160.322 202.941 176.802 204.726 179.068C206.509 181.334 213.621 183.506 222.585 176.145Z" fill="#AFCDFB"/>
</g>
<path d="M84.7941 120.919C84.3687 122.064 83.6306 123.393 82.857 123.723C81.9791 124.097 81.613 124.626 81.613 124.626L80.9045 124.215L80.0586 123.723C80.0586 123.723 80.0787 123.629 80.1202 123.476C80.1605 123.323 80.2245 123.111 80.3098 122.876C80.3098 122.876 80.5692 122.542 80.4105 122.122C80.2517 121.704 80.2837 121.055 80.555 120.661C80.8263 120.266 81.0881 119.294 81.2516 119.322C81.6474 119.39 81.0573 120.727 81.2268 120.975C81.3796 121.199 81.5715 121.122 81.6071 121.105C81.6094 121.104 81.6118 121.103 81.6142 121.102C82.7243 120.613 84.0714 117.979 84.6673 118.335C84.89 118.467 84.9753 120.431 84.7941 120.919Z" fill="#FFB27D"/>
<path d="M80.9539 122.514L82.3448 123.492C82.4432 123.561 82.5794 123.537 82.6493 123.439L86.2131 118.366C86.2818 118.268 86.2581 118.131 86.1597 118.061L84.7688 117.083C84.6705 117.014 84.5343 117.038 84.4644 117.137L80.9006 122.209C80.8319 122.308 80.8556 122.444 80.9539 122.514Z" fill="#2B478B"/>
<path d="M82.2284 123.409L83.0435 123.983C83.1181 124.035 83.2224 124.017 83.2745 123.943L86.8975 118.785C86.9496 118.71 86.9318 118.606 86.8572 118.553L86.0421 117.98C85.9674 117.927 85.8632 117.945 85.811 118.02L82.1881 123.179C82.1359 123.253 82.1537 123.357 82.2284 123.409Z" fill="#233862"/>
<path d="M60.9981 115.233C60.9981 115.233 68.0758 127.586 70.6432 129.859L80.0585 122.835C80.0585 122.835 81.4245 123.255 82.0228 124.626C82.0228 124.626 76.3051 136.282 70.6764 136.777C65.0476 137.271 57.1465 122.805 57.1465 122.805L60.9981 115.233Z" fill="#94B0ED"/>
<path d="M44.982 199.25H40.8922C40.3769 198.97 39.9184 198.33 39.7738 197.375C39.5736 196.056 38.0974 195.338 37.7775 194.259C37.4588 193.181 39.0949 191.664 39.0949 191.664L39.3686 191.311L39.653 190.944L42.3672 191.583C42.3672 191.583 42.4348 192.231 42.4751 193.055C42.5047 193.648 42.5201 194.336 42.4869 194.938C42.4075 196.376 42.8885 197.925 44.1657 198.204C45.1111 198.412 45.0685 198.973 44.982 199.25Z" fill="#233862"/>
<path d="M68.7159 199.251H59.3634C58.9132 198.702 59.0791 196.674 59.1478 196.013C59.162 195.88 59.1715 195.802 59.1715 195.802C59.1715 195.802 62.3656 193.246 62.8039 195.203C62.817 195.265 62.8336 195.324 62.8513 195.383C63.4034 197.214 65.8831 198.046 67.3143 198.277C68.2443 198.429 68.5879 198.914 68.7159 199.251Z" fill="#233862"/>
<path d="M66.9324 147.014C66.9324 147.014 66.4479 153.069 65.878 160.345C65.1032 170.231 64.172 182.374 64.0795 184.674C63.9208 188.668 63.281 195.058 63.281 195.058C63.281 195.058 61.7657 196.576 58.7316 195.937C58.7316 195.937 56.028 186.815 55.2555 177.164C55.2436 177.006 55.2318 176.846 55.2199 176.688C54.502 166.863 53.3848 146.175 53.3848 146.175L66.9324 147.014Z" fill="#004556"/>
<path d="M66.9324 147.014C66.9324 147.014 66.4479 153.069 65.878 160.345L55.2555 177.164C55.2436 177.006 55.2318 176.846 55.2199 176.688C54.502 166.863 53.3848 146.175 53.3848 146.175L66.9324 147.014Z" fill="#014C5F"/>
<path d="M64.7176 147.732C64.7176 147.732 55.9765 169.658 50.2293 179.962C44.482 190.266 42.6859 193.141 42.6859 193.141C42.6859 193.141 39.3935 191.823 39.0938 190.924C39.0938 190.924 41.2915 171.032 45.1407 166.182C47.3159 163.443 49.8703 155.22 49.9899 152.344C50.1096 149.469 50.7683 143.777 50.7683 143.777L64.7176 147.732Z" fill="#004556"/>
<path d="M62.544 115.77C59.1283 116.849 53.2188 113.939 53.2188 113.939C53.2188 113.939 56.3678 111.574 56.2031 106.656L58.844 108.785L60.6377 110.232C60.6377 110.232 60.6306 111.084 60.4339 112.579C60.3818 112.973 60.8249 113.839 61.2099 114.327C62.2442 115.641 62.544 115.77 62.544 115.77Z" fill="#FFB27D"/>
<path d="M60.6339 110.232C60.6339 110.232 60.6268 111.084 60.4301 112.579C58.4421 112.237 56.1875 109.022 56.1875 109.022C57.1993 108.729 58.0855 108.677 58.8402 108.785L60.6339 110.232Z" fill="#ED975D"/>
<path d="M61.682 110.151C61.682 110.151 56.0402 111.089 55.5106 107.564C54.981 104.04 53.8958 101.787 57.4761 101.039C61.0565 100.291 61.9592 101.531 62.4225 102.665C62.8845 103.797 63.1357 109.816 61.682 110.151Z" fill="#FFB27D"/>
<path d="M67.3092 147.519C67.2061 147.604 67.0865 147.655 66.9502 147.655C65.6671 147.637 61.9269 148.351 58.7624 148.025C56.0943 147.769 53.7331 146.978 51.1965 145.84C50.8601 145.689 50.0852 145.274 50.1018 144.899C50.1137 144.486 50.154 143.889 50.2061 143.135C50.3862 140.516 50.6989 136.01 50.3933 130.812C50.3388 129.845 50.3092 128.885 50.3056 127.94C50.2795 120.896 51.6752 114.7 54.4807 112.603C54.72 112.431 56.1915 113.151 57.5421 113.818C58.7908 114.435 60.0395 114.502 61.2196 114.264L62.3996 115.307C63.8367 116.642 65.41 118.457 66.0936 121.212C66.6754 123.557 67.0177 127.785 67.2049 132.166C67.2902 134.152 67.359 136.154 67.3767 138.055V138.122C67.3933 138.311 67.3933 138.517 67.3933 138.704C67.4632 143.583 67.3945 147.45 67.3092 147.519Z" fill="#AEC3FF"/>
<path d="M50.2051 143.136C50.3852 140.517 50.6979 136.011 50.3923 130.814C50.3378 129.846 50.3082 128.886 50.3046 127.941C51.4728 125.104 52.4277 123.047 52.4277 123.047H55.373C55.373 123.047 57.5328 137.806 50.2051 143.136Z" fill="#94B0ED"/>
<path d="M35.1215 159.862L47.6823 161.654C49.3173 161.887 50.8456 160.74 51.0778 159.104L51.8538 153.656C52.0872 152.02 50.9404 150.491 49.3054 150.259L36.7447 148.467C35.1097 148.234 33.5814 149.381 33.3491 151.017L32.5731 156.465C32.3397 158.1 33.4866 159.629 35.1215 159.862Z" fill="#233862"/>
<path d="M50.0128 151.881C49.6597 150.997 48.8979 150.299 47.9324 150.062H47.9312C47.93 150.062 47.93 150.062 47.9288 150.061C47.834 150.038 47.7381 150.018 47.6386 150.005L45.1375 149.649L45.3046 148.473C45.3425 148.211 45.275 147.949 45.115 147.736C44.9551 147.524 44.7217 147.385 44.4599 147.348L43.8071 147.254L41.1805 146.88L40.7066 146.812C40.1639 146.735 39.6592 147.113 39.5822 147.656L39.4152 148.832L35.0979 148.217C33.457 147.983 31.924 149.135 31.6894 150.777L30.9051 156.287C30.6717 157.929 31.8221 159.463 33.463 159.698L46.0012 161.487C46.2228 161.519 46.442 161.524 46.6552 161.507H46.6564C46.6576 161.507 46.6576 161.507 46.6576 161.507C47.0012 161.481 47.3305 161.395 47.6362 161.259C48.5579 160.852 49.2581 159.992 49.4098 158.925L50.1941 153.416C50.2734 152.878 50.2024 152.353 50.0128 151.881ZM40.2019 147.745C40.2255 147.58 40.3547 147.456 40.5099 147.431C40.5466 147.425 40.5833 147.424 40.6213 147.43L41.1793 147.509L43.2467 147.804L44.3734 147.966C44.576 147.994 44.717 148.184 44.6885 148.385L44.5215 149.561L40.0348 148.921L40.2019 147.745Z" fill="#2B478B"/>
<path d="M44.6695 143.643C44.6695 143.643 44.0096 144.523 43.9836 144.874C43.8059 147.256 44.8935 147.584 42.0785 148.907C42.0785 148.907 40.8771 149.366 40.8558 148.432C40.8357 147.499 41.6899 147.483 41.5335 146.176C41.3534 144.668 41.3712 144.653 42.3605 143.866L43.0156 142.783L44.6695 143.643Z" fill="#FFB27D"/>
<path d="M42.9944 144.316C44.0547 144.524 45.2051 144.44 45.2051 144.44C45.2051 144.44 48.3542 134.707 48.7594 133.818C49.1646 132.928 58.1118 122.406 58.1118 122.406L54.3846 113.072C54.3846 113.072 44.7075 129.247 43.7242 131.52C42.0999 135.276 41.5371 143.696 41.5371 143.696C41.5371 143.696 42.1615 144.154 42.9944 144.316Z" fill="#AEC3FF"/>
<path d="M55.5021 107.225C55.5021 107.225 56.0814 107.128 55.9878 106.33C55.8942 105.532 55.8954 104.489 56.5435 104.683C57.1915 104.878 57.2235 105.397 57.4901 105.094C57.7567 104.79 57.7614 103.512 59.6902 103.423C61.619 103.334 62.4033 104.006 63.3001 103.612C64.197 103.217 64.2444 101.858 64.2444 101.858C64.2444 101.858 63.9897 102.343 63.6034 102.497C63.6034 102.497 65.0998 100.449 63.3677 99.0439C61.6344 97.6391 59.8679 98.5591 58.8644 98.6195C56.6549 98.7535 55.2272 98.8863 54.5057 100.339C53.7866 101.792 54.0851 105.826 55.5021 107.225Z" fill="#2B478B"/>
<path d="M43.633 144.689C43.633 144.689 44.2681 145.352 44.3083 145.627C44.4375 146.512 44.7325 146.895 44.5844 146.991C44.2764 147.191 43.87 146.535 43.6757 145.947C43.4802 145.36 43.633 144.689 43.633 144.689Z" fill="#FFB27D"/>
<path d="M160.763 198.242H99.4688C95.6172 198.242 92.4941 195.117 92.4941 191.263V73.9327C92.4941 70.0786 95.6172 66.9536 99.4688 66.9536H160.763C164.615 66.9536 167.738 70.0786 167.738 73.9327V191.263C167.738 195.117 164.616 198.242 160.763 198.242Z" fill="#6376E5"/>
<path d="M160.766 199.118H99.4713C95.1434 199.118 91.6211 195.594 91.6211 191.263V73.9324C91.6211 69.6017 95.1422 66.0771 99.4713 66.0771H160.767C165.095 66.0771 168.616 69.6005 168.616 73.9324V191.263C168.616 195.593 165.095 199.118 160.766 199.118ZM99.4713 67.8293C96.1089 67.8293 93.3722 70.5667 93.3722 73.9324V191.263C93.3722 194.628 96.1078 197.366 99.4713 197.366H160.767C164.129 197.366 166.866 194.628 166.866 191.263V73.9324C166.866 70.5679 164.13 67.8293 160.767 67.8293H99.4713Z" fill="#2B478B"/>
<g opacity="0.9">
<path d="M154.863 101.5H105.373V151.022H154.863V101.5Z" fill="white"/>
</g>
<path d="M112.301 145.825H110.334V147.793H112.301V145.825Z" fill="#2B478B"/>
<path d="M114.267 145.825H112.301V147.793H114.267V145.825Z" fill="#2B478B"/>
<path d="M116.236 145.825H114.27V147.793H116.236V145.825Z" fill="#2B478B"/>
<path d="M118.199 145.825H116.232V147.793H118.199V145.825Z" fill="#2B478B"/>
<path d="M120.168 145.825H118.201V147.793H120.168V145.825Z" fill="#2B478B"/>
<path d="M124.101 145.825H122.135V147.793H124.101V145.825Z" fill="#2B478B"/>
<path d="M126.068 145.824H124.102V147.792H126.068V145.824Z" fill="#2B478B"/>
<path d="M131.969 145.825H130.002V147.793H131.969V145.825Z" fill="#2B478B"/>
<path d="M136.018 145.824H133.936V147.792H136.018V145.824Z" fill="#2B478B"/>
<path d="M137.984 145.824H136.018V147.792H137.984V145.824Z" fill="#2B478B"/>
<path d="M141.918 145.824H139.951V147.792H141.918V145.824Z" fill="#2B478B"/>
<path d="M143.887 145.825H141.92V147.793H143.887V145.825Z" fill="#2B478B"/>
<path d="M145.851 145.825H143.885V147.793H145.851V145.825Z" fill="#2B478B"/>
<path d="M147.818 145.825H145.852V147.793H147.818V145.825Z" fill="#2B478B"/>
<path d="M149.787 145.825H147.82V147.793H149.787V145.825Z" fill="#2B478B"/>
<path d="M151.87 145.825H149.787V147.793H151.87V145.825Z" fill="#2B478B"/>
<path d="M110.334 145.824H108.367V147.792H110.334V145.824Z" fill="#2B478B"/>
<path d="M120.168 143.856H118.201V145.824H120.168V143.856Z" fill="#2B478B"/>
<path d="M126.068 143.856H124.102V145.824H126.068V143.856Z" fill="#2B478B"/>
<path d="M130.002 143.856H128.035V145.824H130.002V143.856Z" fill="#2B478B"/>
<path d="M131.969 143.856H130.002V145.824H131.969V143.856Z" fill="#2B478B"/>
<path d="M133.933 143.856H131.967V145.824H133.933V143.856Z" fill="#2B478B"/>
<path d="M136.018 143.856H133.936V145.824H136.018V143.856Z" fill="#2B478B"/>
<path d="M141.918 143.856H139.951V145.824H141.918V143.856Z" fill="#2B478B"/>
<path d="M151.87 143.856H149.787V145.824H151.87V143.856Z" fill="#2B478B"/>
<path d="M110.334 143.856H108.367V145.824H110.334V143.856Z" fill="#2B478B"/>
<path d="M114.267 141.889H112.301V143.857H114.267V141.889Z" fill="#2B478B"/>
<path d="M116.236 141.889H114.27V143.857H116.236V141.889Z" fill="#2B478B"/>
<path d="M120.168 141.889H118.201V143.857H120.168V141.889Z" fill="#2B478B"/>
<path d="M124.101 141.889H122.135V143.857H124.101V141.889Z" fill="#2B478B"/>
<path d="M126.068 141.889H124.102V143.857H126.068V141.889Z" fill="#2B478B"/>
<path d="M128.035 141.889H126.068V143.857H128.035V141.889Z" fill="#2B478B"/>
<path d="M131.969 141.889H130.002V143.857H131.969V141.889Z" fill="#2B478B"/>
<path d="M133.933 141.889H131.967V143.857H133.933V141.889Z" fill="#2B478B"/>
<path d="M136.018 141.889H133.936V143.857H136.018V141.889Z" fill="#2B478B"/>
<path d="M137.984 141.889H136.018V143.857H137.984V141.889Z" fill="#2B478B"/>
<path d="M141.918 141.889H139.951V143.857H141.918V141.889Z" fill="#2B478B"/>
<path d="M145.851 141.889H143.885V143.857H145.851V141.889Z" fill="#2B478B"/>
<path d="M147.818 141.889H145.852V143.857H147.818V141.889Z" fill="#2B478B"/>
<path d="M151.87 141.889H149.787V143.857H151.87V141.889Z" fill="#2B478B"/>
<path d="M110.334 141.889H108.367V143.857H110.334V141.889Z" fill="#2B478B"/>
<path d="M114.267 139.921H112.301V141.889H114.267V139.921Z" fill="#2B478B"/>
<path d="M116.236 139.921H114.27V141.889H116.236V139.921Z" fill="#2B478B"/>
<path d="M120.168 139.921H118.201V141.889H120.168V139.921Z" fill="#2B478B"/>
<path d="M124.101 139.921H122.135V141.889H124.101V139.921Z" fill="#2B478B"/>
<path d="M128.035 139.92H126.068V141.888H128.035V139.92Z" fill="#2B478B"/>
<path d="M131.969 139.921H130.002V141.889H131.969V139.921Z" fill="#2B478B"/>
<path d="M141.918 139.92H139.951V141.888H141.918V139.92Z" fill="#2B478B"/>
<path d="M145.851 139.921H143.885V141.889H145.851V139.921Z" fill="#2B478B"/>
<path d="M147.818 139.921H145.852V141.889H147.818V139.921Z" fill="#2B478B"/>
<path d="M151.87 139.921H149.787V141.889H151.87V139.921Z" fill="#2B478B"/>
<path d="M110.334 139.92H108.367V141.888H110.334V139.92Z" fill="#2B478B"/>
<path d="M120.168 137.952H118.201V139.92H120.168V137.952Z" fill="#2B478B"/>
<path d="M124.101 137.952H122.135V139.92H124.101V137.952Z" fill="#2B478B"/>
<path d="M126.068 137.953H124.102V139.921H126.068V137.953Z" fill="#2B478B"/>
<path d="M128.035 137.953H126.068V139.921H128.035V137.953Z" fill="#2B478B"/>
<path d="M131.969 137.952H130.002V139.92H131.969V137.952Z" fill="#2B478B"/>
<path d="M133.933 137.953H131.967V139.921H133.933V137.953Z" fill="#2B478B"/>
<path d="M137.984 137.953H136.018V139.921H137.984V137.953Z" fill="#2B478B"/>
<path d="M141.918 137.953H139.951V139.921H141.918V137.953Z" fill="#2B478B"/>
<path d="M151.87 137.952H149.787V139.92H151.87V137.952Z" fill="#2B478B"/>
<path d="M110.334 137.953H108.367V139.921H110.334V137.953Z" fill="#2B478B"/>
<path d="M112.301 135.984H110.334V137.952H112.301V135.984Z" fill="#2B478B"/>
<path d="M114.267 135.984H112.301V137.952H114.267V135.984Z" fill="#2B478B"/>
<path d="M116.236 135.984H114.27V137.952H116.236V135.984Z" fill="#2B478B"/>
<path d="M118.199 135.984H116.232V137.952H118.199V135.984Z" fill="#2B478B"/>
<path d="M120.168 135.984H118.201V137.952H120.168V135.984Z" fill="#2B478B"/>
<path d="M124.101 135.984H122.135V137.952H124.101V135.984Z" fill="#2B478B"/>
<path d="M128.035 135.984H126.068V137.952H128.035V135.984Z" fill="#2B478B"/>
<path d="M130.002 135.984H128.035V137.952H130.002V135.984Z" fill="#2B478B"/>
<path d="M133.933 135.984H131.967V137.952H133.933V135.984Z" fill="#2B478B"/>
<path d="M141.918 135.984H139.951V137.952H141.918V135.984Z" fill="#2B478B"/>
<path d="M143.887 135.984H141.92V137.952H143.887V135.984Z" fill="#2B478B"/>
<path d="M145.851 135.984H143.885V137.952H145.851V135.984Z" fill="#2B478B"/>
<path d="M147.818 135.984H145.852V137.952H147.818V135.984Z" fill="#2B478B"/>
<path d="M149.787 135.984H147.82V137.952H149.787V135.984Z" fill="#2B478B"/>
<path d="M151.87 135.984H149.787V137.952H151.87V135.984Z" fill="#2B478B"/>
<path d="M110.334 135.984H108.367V137.952H110.334V135.984Z" fill="#2B478B"/>
<path d="M130.002 134.017H128.035V135.985H130.002V134.017Z" fill="#2B478B"/>
<path d="M131.969 134.017H130.002V135.985H131.969V134.017Z" fill="#2B478B"/>
<path d="M133.933 134.017H131.967V135.985H133.933V134.017Z" fill="#2B478B"/>
<path d="M137.984 134.017H136.018V135.985H137.984V134.017Z" fill="#2B478B"/>
<path d="M112.301 132.049H110.334V134.017H112.301V132.049Z" fill="#2B478B"/>
<path d="M114.267 132.049H112.301V134.017H114.267V132.049Z" fill="#2B478B"/>
<path d="M116.236 132.049H114.27V134.017H116.236V132.049Z" fill="#2B478B"/>
<path d="M118.199 132.049H116.232V134.017H118.199V132.049Z" fill="#2B478B"/>
<path d="M124.101 132.049H122.135V134.017H124.101V132.049Z" fill="#2B478B"/>
<path d="M126.068 132.049H124.102V134.017H126.068V132.049Z" fill="#2B478B"/>
<path d="M128.035 132.049H126.068V134.017H128.035V132.049Z" fill="#2B478B"/>
<path d="M131.969 132.049H130.002V134.017H131.969V132.049Z" fill="#2B478B"/>
<path d="M133.933 132.049H131.967V134.017H133.933V132.049Z" fill="#2B478B"/>
<path d="M136.018 132.049H133.936V134.017H136.018V132.049Z" fill="#2B478B"/>
<path d="M137.984 132.049H136.018V134.017H137.984V132.049Z" fill="#2B478B"/>
<path d="M139.951 132.049H137.984V134.017H139.951V132.049Z" fill="#2B478B"/>
<path d="M141.918 132.049H139.951V134.017H141.918V132.049Z" fill="#2B478B"/>
<path d="M143.887 132.049H141.92V134.017H143.887V132.049Z" fill="#2B478B"/>
<path d="M145.851 132.049H143.885V134.017H145.851V132.049Z" fill="#2B478B"/>
<path d="M149.787 132.049H147.82V134.017H149.787V132.049Z" fill="#2B478B"/>
<path d="M151.87 132.049H149.787V134.017H151.87V132.049Z" fill="#2B478B"/>
<path d="M114.267 130.081H112.301V132.049H114.267V130.081Z" fill="#2B478B"/>
<path d="M116.236 130.081H114.27V132.049H116.236V130.081Z" fill="#2B478B"/>
<path d="M122.135 130.081H120.168V132.049H122.135V130.081Z" fill="#2B478B"/>
<path d="M124.101 130.081H122.135V132.049H124.101V130.081Z" fill="#2B478B"/>
<path d="M128.035 130.081H126.068V132.049H128.035V130.081Z" fill="#2B478B"/>
<path d="M133.933 130.081H131.967V132.049H133.933V130.081Z" fill="#2B478B"/>
<path d="M137.984 130.081H136.018V132.049H137.984V130.081Z" fill="#2B478B"/>
<path d="M139.951 130.081H137.984V132.049H139.951V130.081Z" fill="#2B478B"/>
<path d="M143.887 130.081H141.92V132.049H143.887V130.081Z" fill="#2B478B"/>
<path d="M145.851 130.081H143.885V132.049H145.851V130.081Z" fill="#2B478B"/>
<path d="M112.301 128.113H110.334V130.081H112.301V128.113Z" fill="#2B478B"/>
<path d="M116.236 128.113H114.27V130.081H116.236V128.113Z" fill="#2B478B"/>
<path d="M118.199 128.113H116.232V130.081H118.199V128.113Z" fill="#2B478B"/>
<path d="M120.168 128.113H118.201V130.081H120.168V128.113Z" fill="#2B478B"/>
<path d="M122.135 128.113H120.168V130.081H122.135V128.113Z" fill="#2B478B"/>
<path d="M126.068 128.113H124.102V130.081H126.068V128.113Z" fill="#2B478B"/>
<path d="M128.035 128.113H126.068V130.081H128.035V128.113Z" fill="#2B478B"/>
<path d="M130.002 128.113H128.035V130.081H130.002V128.113Z" fill="#2B478B"/>
<path d="M131.969 128.113H130.002V130.081H131.969V128.113Z" fill="#2B478B"/>
<path d="M133.933 128.113H131.967V130.081H133.933V128.113Z" fill="#2B478B"/>
<path d="M136.018 128.113H133.936V130.081H136.018V128.113Z" fill="#2B478B"/>
<path d="M145.851 128.113H143.885V130.081H145.851V128.113Z" fill="#2B478B"/>
<path d="M147.818 128.113H145.852V130.081H147.818V128.113Z" fill="#2B478B"/>
<path d="M151.87 128.113H149.787V130.081H151.87V128.113Z" fill="#2B478B"/>
<path d="M110.334 128.113H108.367V130.081H110.334V128.113Z" fill="#2B478B"/>
<path d="M112.301 126.145H110.334V128.113H112.301V126.145Z" fill="#2B478B"/>
<path d="M114.267 126.145H112.301V128.113H114.267V126.145Z" fill="#2B478B"/>
<path d="M116.236 126.145H114.27V128.113H116.236V126.145Z" fill="#2B478B"/>
<path d="M124.101 126.145H122.135V128.113H124.101V126.145Z" fill="#2B478B"/>
<path d="M126.068 126.145H124.102V128.113H126.068V126.145Z" fill="#2B478B"/>
<path d="M133.933 126.145H131.967V128.113H133.933V126.145Z" fill="#2B478B"/>
<path d="M139.951 126.145H137.984V128.113H139.951V126.145Z" fill="#2B478B"/>
<path d="M141.918 126.145H139.951V128.113H141.918V126.145Z" fill="#2B478B"/>
<path d="M145.851 126.145H143.885V128.113H145.851V126.145Z" fill="#2B478B"/>
<path d="M147.818 126.145H145.852V128.113H147.818V126.145Z" fill="#2B478B"/>
<path d="M149.787 126.145H147.82V128.113H149.787V126.145Z" fill="#2B478B"/>
<path d="M151.87 126.145H149.787V128.113H151.87V126.145Z" fill="#2B478B"/>
<path d="M110.334 126.145H108.367V128.113H110.334V126.145Z" fill="#2B478B"/>
<path d="M116.236 124.177H114.27V126.145H116.236V124.177Z" fill="#2B478B"/>
<path d="M118.199 124.177H116.232V126.145H118.199V124.177Z" fill="#2B478B"/>
<path d="M120.168 124.177H118.201V126.145H120.168V124.177Z" fill="#2B478B"/>
<path d="M122.135 124.177H120.168V126.145H122.135V124.177Z" fill="#2B478B"/>
<path d="M124.101 124.177H122.135V126.145H124.101V124.177Z" fill="#2B478B"/>
<path d="M126.068 124.177H124.102V126.145H126.068V124.177Z" fill="#2B478B"/>
<path d="M131.969 124.177H130.002V126.145H131.969V124.177Z" fill="#2B478B"/>
<path d="M137.984 124.177H136.018V126.145H137.984V124.177Z" fill="#2B478B"/>
<path d="M139.951 124.177H137.984V126.145H139.951V124.177Z" fill="#2B478B"/>
<path d="M147.818 124.177H145.852V126.145H147.818V124.177Z" fill="#2B478B"/>
<path d="M110.334 124.177H108.367V126.145H110.334V124.177Z" fill="#2B478B"/>
<path d="M112.301 122.209H110.334V124.177H112.301V122.209Z" fill="#2B478B"/>
<path d="M114.267 122.209H112.301V124.177H114.267V122.209Z" fill="#2B478B"/>
<path d="M116.236 122.209H114.27V124.177H116.236V122.209Z" fill="#2B478B"/>
<path d="M118.199 122.209H116.232V124.177H118.199V122.209Z" fill="#2B478B"/>
<path d="M122.135 122.209H120.168V124.177H122.135V122.209Z" fill="#2B478B"/>
<path d="M126.068 122.209H124.102V124.177H126.068V122.209Z" fill="#2B478B"/>
<path d="M128.035 122.209H126.068V124.177H128.035V122.209Z" fill="#2B478B"/>
<path d="M131.969 122.209H130.002V124.177H131.969V122.209Z" fill="#2B478B"/>
<path d="M133.933 122.209H131.967V124.177H133.933V122.209Z" fill="#2B478B"/>
<path d="M136.018 122.209H133.936V124.177H136.018V122.209Z" fill="#2B478B"/>
<path d="M137.984 122.209H136.018V124.177H137.984V122.209Z" fill="#2B478B"/>
<path d="M141.918 122.209H139.951V124.177H141.918V122.209Z" fill="#2B478B"/>
<path d="M143.887 122.209H141.92V124.177H143.887V122.209Z" fill="#2B478B"/>
<path d="M145.851 122.209H143.885V124.177H145.851V122.209Z" fill="#2B478B"/>
<path d="M147.818 122.209H145.852V124.177H147.818V122.209Z" fill="#2B478B"/>
<path d="M151.87 122.209H149.787V124.177H151.87V122.209Z" fill="#2B478B"/>
<path d="M112.301 120.24H110.334V122.208H112.301V120.24Z" fill="#2B478B"/>
<path d="M116.236 120.24H114.27V122.208H116.236V120.24Z" fill="#2B478B"/>
<path d="M120.168 120.24H118.201V122.208H120.168V120.24Z" fill="#2B478B"/>
<path d="M122.135 120.24H120.168V122.208H122.135V120.24Z" fill="#2B478B"/>
<path d="M128.035 120.24H126.068V122.208H128.035V120.24Z" fill="#2B478B"/>
<path d="M130.002 120.24H128.035V122.208H130.002V120.24Z" fill="#2B478B"/>
<path d="M131.969 120.24H130.002V122.208H131.969V120.24Z" fill="#2B478B"/>
<path d="M136.018 120.24H133.936V122.208H136.018V120.24Z" fill="#2B478B"/>
<path d="M137.984 120.24H136.018V122.208H137.984V120.24Z" fill="#2B478B"/>
<path d="M139.951 120.24H137.984V122.208H139.951V120.24Z" fill="#2B478B"/>
<path d="M143.887 120.24H141.92V122.208H143.887V120.24Z" fill="#2B478B"/>
<path d="M147.818 120.24H145.852V122.208H147.818V120.24Z" fill="#2B478B"/>
<path d="M149.787 120.24H147.82V122.208H149.787V120.24Z" fill="#2B478B"/>
<path d="M151.87 120.24H149.787V122.208H151.87V120.24Z" fill="#2B478B"/>
<path d="M110.334 120.24H108.367V122.208H110.334V120.24Z" fill="#2B478B"/>
<path d="M112.301 118.272H110.334V120.24H112.301V118.272Z" fill="#2B478B"/>
<path d="M120.168 118.272H118.201V120.24H120.168V118.272Z" fill="#2B478B"/>
<path d="M122.135 118.272H120.168V120.24H122.135V118.272Z" fill="#2B478B"/>
<path d="M126.068 118.272H124.102V120.24H126.068V118.272Z" fill="#2B478B"/>
<path d="M128.035 118.272H126.068V120.24H128.035V118.272Z" fill="#2B478B"/>
<path d="M131.969 118.272H130.002V120.24H131.969V118.272Z" fill="#2B478B"/>
<path d="M133.933 118.272H131.967V120.24H133.933V118.272Z" fill="#2B478B"/>
<path d="M137.984 118.272H136.018V120.24H137.984V118.272Z" fill="#2B478B"/>
<path d="M139.951 118.272H137.984V120.24H139.951V118.272Z" fill="#2B478B"/>
<path d="M141.918 118.272H139.951V120.24H141.918V118.272Z" fill="#2B478B"/>
<path d="M143.887 118.272H141.92V120.24H143.887V118.272Z" fill="#2B478B"/>
<path d="M145.851 118.272H143.885V120.24H145.851V118.272Z" fill="#2B478B"/>
<path d="M147.818 118.272H145.852V120.24H147.818V118.272Z" fill="#2B478B"/>
<path d="M110.334 118.272H108.367V120.24H110.334V118.272Z" fill="#2B478B"/>
<path d="M126.068 116.304H124.102V118.272H126.068V116.304Z" fill="#2B478B"/>
<path d="M130.002 116.304H128.035V118.272H130.002V116.304Z" fill="#2B478B"/>
<path d="M131.969 116.304H130.002V118.272H131.969V116.304Z" fill="#2B478B"/>
<path d="M136.018 116.304H133.936V118.272H136.018V116.304Z" fill="#2B478B"/>
<path d="M137.984 116.304H136.018V118.272H137.984V116.304Z" fill="#2B478B"/>
<path d="M139.951 116.304H137.984V118.272H139.951V116.304Z" fill="#2B478B"/>
<path d="M112.301 114.336H110.334V116.304H112.301V114.336Z" fill="#2B478B"/>
<path d="M114.267 114.336H112.301V116.304H114.267V114.336Z" fill="#2B478B"/>
<path d="M116.236 114.336H114.27V116.304H116.236V114.336Z" fill="#2B478B"/>
<path d="M118.199 114.336H116.232V116.304H118.199V114.336Z" fill="#2B478B"/>
<path d="M120.168 114.336H118.201V116.304H120.168V114.336Z" fill="#2B478B"/>
<path d="M124.101 114.336H122.135V116.304H124.101V114.336Z" fill="#2B478B"/>
<path d="M126.068 114.336H124.102V116.304H126.068V114.336Z" fill="#2B478B"/>
<path d="M131.969 114.336H130.002V116.304H131.969V114.336Z" fill="#2B478B"/>
<path d="M139.951 114.336H137.984V116.304H139.951V114.336Z" fill="#2B478B"/>
<path d="M141.918 114.336H139.951V116.304H141.918V114.336Z" fill="#2B478B"/>
<path d="M145.851 114.336H143.885V116.304H145.851V114.336Z" fill="#2B478B"/>
<path d="M151.87 114.336H149.787V116.304H151.87V114.336Z" fill="#2B478B"/>
<path d="M110.334 114.336H108.367V116.304H110.334V114.336Z" fill="#2B478B"/>
<path d="M120.168 112.368H118.201V114.336H120.168V112.368Z" fill="#2B478B"/>
<path d="M136.018 112.368H133.936V114.336H136.018V112.368Z" fill="#2B478B"/>
<path d="M137.984 112.368H136.018V114.336H137.984V112.368Z" fill="#2B478B"/>
<path d="M141.918 112.368H139.951V114.336H141.918V112.368Z" fill="#2B478B"/>
<path d="M143.887 112.368H141.92V114.336H143.887V112.368Z" fill="#2B478B"/>
<path d="M147.818 112.368H145.852V114.336H147.818V112.368Z" fill="#2B478B"/>
<path d="M149.787 112.368H147.82V114.336H149.787V112.368Z" fill="#2B478B"/>
<path d="M151.87 112.368H149.787V114.336H151.87V112.368Z" fill="#2B478B"/>
<path d="M110.334 112.368H108.367V114.336H110.334V112.368Z" fill="#2B478B"/>
<path d="M114.267 110.4H112.301V112.368H114.267V110.4Z" fill="#2B478B"/>
<path d="M116.236 110.4H114.27V112.368H116.236V110.4Z" fill="#2B478B"/>
<path d="M120.168 110.4H118.201V112.368H120.168V110.4Z" fill="#2B478B"/>
<path d="M124.101 110.4H122.135V112.368H124.101V110.4Z" fill="#2B478B"/>
<path d="M126.068 110.4H124.102V112.368H126.068V110.4Z" fill="#2B478B"/>
<path d="M130.002 110.4H128.035V112.368H130.002V110.4Z" fill="#2B478B"/>
<path d="M131.969 110.4H130.002V112.368H131.969V110.4Z" fill="#2B478B"/>
<path d="M136.018 110.4H133.936V112.368H136.018V110.4Z" fill="#2B478B"/>
<path d="M143.887 110.4H141.92V112.368H143.887V110.4Z" fill="#2B478B"/>
<path d="M145.851 110.4H143.885V112.368H145.851V110.4Z" fill="#2B478B"/>
<path d="M147.818 110.4H145.852V112.368H147.818V110.4Z" fill="#2B478B"/>
<path d="M110.334 110.4H108.367V112.368H110.334V110.4Z" fill="#2B478B"/>
<path d="M114.267 108.432H112.301V110.4H114.267V108.432Z" fill="#2B478B"/>
<path d="M116.236 108.432H114.27V110.4H116.236V108.432Z" fill="#2B478B"/>
<path d="M120.168 108.432H118.201V110.4H120.168V108.432Z" fill="#2B478B"/>
<path d="M124.101 108.432H122.135V110.4H124.101V108.432Z" fill="#2B478B"/>
<path d="M128.035 108.432H126.068V110.4H128.035V108.432Z" fill="#2B478B"/>
<path d="M130.002 108.432H128.035V110.4H130.002V108.432Z" fill="#2B478B"/>
<path d="M131.969 108.432H130.002V110.4H131.969V108.432Z" fill="#2B478B"/>
<path d="M133.933 108.432H131.967V110.4H133.933V108.432Z" fill="#2B478B"/>
<path d="M136.018 108.432H133.936V110.4H136.018V108.432Z" fill="#2B478B"/>
<path d="M139.951 108.432H137.984V110.4H139.951V108.432Z" fill="#2B478B"/>
<path d="M141.918 108.432H139.951V110.4H141.918V108.432Z" fill="#2B478B"/>
<path d="M143.887 108.432H141.92V110.4H143.887V108.432Z" fill="#2B478B"/>
<path d="M147.818 108.432H145.852V110.4H147.818V108.432Z" fill="#2B478B"/>
<path d="M149.787 108.432H147.82V110.4H149.787V108.432Z" fill="#2B478B"/>
<path d="M151.87 108.432H149.787V110.4H151.87V108.432Z" fill="#2B478B"/>
<path d="M110.334 108.432H108.367V110.4H110.334V108.432Z" fill="#2B478B"/>
<path d="M120.168 106.464H118.201V108.432H120.168V106.464Z" fill="#2B478B"/>
<path d="M128.035 106.464H126.068V108.432H128.035V106.464Z" fill="#2B478B"/>
<path d="M130.002 106.464H128.035V108.432H130.002V106.464Z" fill="#2B478B"/>
<path d="M133.933 106.464H131.967V108.432H133.933V106.464Z" fill="#2B478B"/>
<path d="M136.018 106.464H133.936V108.432H136.018V106.464Z" fill="#2B478B"/>
<path d="M137.984 106.464H136.018V108.432H137.984V106.464Z" fill="#2B478B"/>
<path d="M139.951 106.464H137.984V108.432H139.951V106.464Z" fill="#2B478B"/>
<path d="M149.787 106.464H147.82V108.432H149.787V106.464Z" fill="#2B478B"/>
<path d="M110.334 106.464H108.367V108.432H110.334V106.464Z" fill="#2B478B"/>
<path d="M112.301 104.496H110.334V106.464H112.301V104.496Z" fill="#2B478B"/>
<path d="M114.267 104.496H112.301V106.464H114.267V104.496Z" fill="#2B478B"/>
<path d="M116.236 104.496H114.27V106.464H116.236V104.496Z" fill="#2B478B"/>
<path d="M118.199 104.496H116.232V106.464H118.199V104.496Z" fill="#2B478B"/>
<path d="M120.168 104.496H118.201V106.464H120.168V104.496Z" fill="#2B478B"/>
<path d="M124.101 104.496H122.135V106.464H124.101V104.496Z" fill="#2B478B"/>
<path d="M126.068 104.496H124.102V106.464H126.068V104.496Z" fill="#2B478B"/>
<path d="M136.018 104.496H133.936V106.464H136.018V104.496Z" fill="#2B478B"/>
<path d="M139.951 104.496H137.984V106.464H139.951V104.496Z" fill="#2B478B"/>
<path d="M143.887 104.496H141.92V106.464H143.887V104.496Z" fill="#2B478B"/>
<path d="M145.851 104.496H143.885V106.464H145.851V104.496Z" fill="#2B478B"/>
<path d="M151.87 104.496H149.787V106.464H151.87V104.496Z" fill="#2B478B"/>
<path d="M110.334 104.496H108.367V106.464H110.334V104.496Z" fill="#2B478B"/>
<g opacity="0.8">
<path d="M101.795 108.372C101.408 108.372 101.096 108.059 101.096 107.672V98.1277C101.096 97.7412 101.408 97.4282 101.795 97.4282H111.42C111.806 97.4282 112.119 97.7412 112.119 98.1277C112.119 98.5141 111.806 98.8271 111.42 98.8271H102.495V107.672C102.494 108.059 102.181 108.372 101.795 108.372Z" fill="white"/>
<path d="M158.441 108.415C158.054 108.415 157.742 108.102 157.742 107.715V98.7846H148.902C148.516 98.7846 148.203 98.4717 148.203 98.0852C148.203 97.6987 148.516 97.3857 148.902 97.3857H158.441C158.827 97.3857 159.14 97.6987 159.14 98.0852V107.716C159.141 108.102 158.827 108.415 158.441 108.415Z" fill="white"/>
</g>
<g opacity="0.8">
<path d="M158.443 156.38H148.818C148.432 156.38 148.119 156.067 148.119 155.681C148.119 155.294 148.432 154.98 148.818 154.98H157.743V146.135C157.743 145.749 158.056 145.436 158.442 145.436C158.828 145.436 159.141 145.749 159.141 146.135V155.68C159.143 156.067 158.829 156.38 158.443 156.38Z" fill="white"/>
<path d="M111.333 156.422H101.795C101.408 156.422 101.096 156.109 101.096 155.723V146.092C101.096 145.705 101.408 145.392 101.795 145.392C102.181 145.392 102.494 145.705 102.494 146.092V155.022H111.333C111.719 155.022 112.032 155.335 112.032 155.721C112.032 156.108 111.719 156.422 111.333 156.422Z" fill="white"/>
</g>
<path d="M154.865 169.661V171C154.865 171.73 154.268 172.326 153.54 172.326H106.703C105.973 172.326 105.377 171.729 105.377 171V169.661C105.377 168.931 105.974 168.334 106.703 168.334H153.54C154.268 168.334 154.865 168.931 154.865 169.661Z" fill="white"/>
<path d="M139.954 168.333V172.325H106.703C105.973 172.325 105.377 171.728 105.377 170.999V169.66C105.377 168.93 105.974 168.333 106.703 168.333H139.954Z" fill="#00A1C9"/>
<path d="M133.026 168.333L129.347 172.325H122.463L126.143 168.333H133.026Z" fill="#6ED1EA"/>
<path d="M139.956 168.333V172.325H133.576L137.255 168.333H139.956Z" fill="#6ED1EA"/>
<path d="M121.942 168.333L118.262 172.325H111.379L115.059 168.333H121.942Z" fill="#6ED1EA"/>
<path d="M110.86 168.333L107.18 172.325H106.675C105.946 172.325 105.35 171.728 105.35 170.999V169.66C105.35 168.93 105.947 168.333 106.675 168.333H110.86Z" fill="#6ED1EA"/>
<path d="M125.043 166.056L125.305 165.745C125.542 165.951 125.779 166.067 126.086 166.067C126.354 166.067 126.524 165.943 126.524 165.749C126.524 165.572 126.424 165.476 125.966 165.367C125.44 165.244 125.142 165.088 125.142 164.625C125.142 164.201 125.496 163.907 125.987 163.907C126.347 163.907 126.634 164.016 126.885 164.217L126.652 164.546C126.429 164.38 126.206 164.291 125.98 164.291C125.725 164.291 125.577 164.421 125.577 164.592C125.577 164.783 125.691 164.868 126.164 164.981C126.687 165.108 126.959 165.296 126.959 165.712C126.959 166.176 126.595 166.451 126.075 166.451C125.697 166.452 125.339 166.322 125.043 166.056Z" fill="white"/>
<path d="M127.361 165.179C127.361 164.475 127.889 163.898 128.637 163.898C129.093 163.898 129.368 164.057 129.605 164.284L129.326 164.605C129.128 164.421 128.916 164.297 128.633 164.297C128.159 164.297 127.816 164.686 127.816 165.178C127.816 165.662 128.159 166.058 128.633 166.058C128.937 166.058 129.131 165.935 129.343 165.737L129.623 166.021C129.365 166.29 129.083 166.459 128.62 166.459C127.898 166.459 127.361 165.897 127.361 165.179Z" fill="white"/>
<path d="M130.956 163.923H131.359L132.448 166.416H131.988L131.737 165.819H130.567L130.313 166.416H129.867L130.956 163.923ZM131.578 165.434L131.15 164.444L130.726 165.434H131.578Z" fill="white"/>
<path d="M132.873 163.941H133.276L134.602 165.653V163.941H135.029V166.417H134.666L133.302 164.655V166.417H132.874V163.941H132.873Z" fill="white"/>
<path d="M167.224 146.539C169.506 145.873 172.082 146.637 173.694 148.387C177.677 152.717 174.74 156.054 176.734 159.084C177.939 160.914 178.95 164.121 175.218 166.018C173.493 166.895 168.353 171.479 167.301 171.586C156.634 172.683 156.442 161.855 160.038 158.717C165.09 154.306 160.473 148.509 167.224 146.539Z" fill="#233862"/>
<path d="M172.799 163.279C172.799 163.279 182.533 167.997 184.357 167.918C186.18 167.838 197.577 163.822 197.577 163.822L197.292 165.755C197.292 165.755 188.621 170.745 185.59 171.029C182.606 171.307 172.4 168.348 171.416 167.723C170.43 167.1 169.937 163.912 172.799 163.279Z" fill="#ED985F"/>
<path d="M173.873 167.73C172.99 168.343 171.885 168.848 170.497 169.168C165.291 170.372 163.296 165.97 162.547 162.948C163.257 162.541 163.925 162.452 164.311 162.406C164.688 162.362 165.083 162.333 165.41 162.316C165.995 161.868 166.866 160.035 167.058 157.188L167.304 157.253L171.406 158.377C171.406 158.377 171.218 159.682 171.127 160.915C171.056 161.88 171.044 162.802 171.228 163.029C171.547 163.098 171.739 163.144 171.739 163.144C171.739 163.144 171.739 163.145 171.742 163.147C171.795 163.236 172.985 165.194 173.873 167.73Z" fill="#FFB27D"/>
<path d="M171.404 158.377C171.404 158.377 171.215 159.681 171.124 160.915C168.799 160.683 167.721 158.468 167.301 157.253L171.404 158.377Z" fill="#ED985F"/>
<path d="M172.099 159.601C172.099 159.601 166.581 159.297 166.824 155.862C167.067 152.428 166.519 150.075 170.05 150.124C173.583 150.174 174.174 151.533 174.372 152.699C174.57 153.866 173.539 159.592 172.099 159.601Z" fill="#FFB27D"/>
<path d="M174.345 150.777C173.568 149.682 172.908 149.862 172.524 150.147C169.631 148.274 167.515 150.584 167.515 150.584C166.97 153.022 165.092 154.307 165.092 154.307C165.092 154.307 166.069 155.089 168.409 154.57C171.403 153.906 172.431 151.308 172.571 150.909C172.886 151.235 173.293 151.443 173.604 152.152C173.975 152.992 174.207 153.481 174.214 154.862C174.214 154.863 175.511 152.418 174.345 150.777Z" fill="#233862"/>
<path d="M160.974 178.953C160.475 176.404 158.851 166.223 160.475 162.946C161.058 161.769 163.348 161.664 165.86 161.767C166.642 162.272 169.619 164.179 170.843 163.941C170.856 163.939 170.88 163.933 170.912 163.924C171.488 163.78 171.706 163.375 171.225 163.026C171.223 163.025 172.328 163.104 173.872 163.394C174.746 163.559 177.141 165.03 177.141 165.03C177.141 165.03 176.055 166.722 174.307 167.461C174.605 170.121 174.163 171.295 171.405 177.438C169.074 182.632 171.719 187.307 171.719 187.307C171.719 187.307 158 198.343 157.924 192.724C157.866 188.495 161.611 182.211 160.974 178.953Z" fill="#007490"/>
<path d="M172.398 199.31C173.145 199.226 173.816 198.817 174.234 198.192C174.3 198.093 174.371 197.986 174.446 197.872C176.007 195.507 176.615 188.264 180.126 180.546C180.982 178.667 184.053 178.329 184.89 176.206C184.89 176.206 186.952 169.321 180.945 169.119C174.938 168.916 164.861 188.272 164.702 190.303C164.548 192.269 160.731 200.627 172.398 199.31Z" fill="#94B0ED"/>
<path d="M196.268 199.27H187.72C187.72 199.27 187.4 197.87 187.961 196.916C188.458 196.073 188.268 195.592 187.9 194.895C188.287 195.057 188.788 195.206 189.339 195.174C189.765 195.149 190.216 194.95 190.61 194.715C190.979 195.145 192.553 196.98 193.046 197.343C193.604 197.755 196.096 197.608 196.268 199.27Z" fill="#0D2644"/>
<path d="M185.086 171.109C185.6 174.97 187.61 187.157 191.156 193.104C192.3 195.021 188.276 196.095 188.255 196.09C187.716 195.949 186.817 195.088 186.402 194.715C183.523 192.119 177.68 184.768 177.68 178.875C177.68 176.002 177.63 170.514 179.718 169.118C181.003 168.259 184.881 169.575 185.086 171.109Z" fill="#94B0ED"/>
<path d="M161.309 167.725C161.309 167.725 163.043 171.256 171.141 173.75C179.239 176.246 174.606 169.977 174.606 169.977L163.286 166.019L161.309 167.725Z" fill="#046B84"/>
<path d="M168.225 199.318C168.225 199.318 168.658 198.669 168.933 197.703C169.393 196.089 169.556 194.914 170.439 192.401C171.367 189.762 172.466 186.516 173.841 183.139C174.265 182.096 174.715 181.041 175.195 179.987C176.05 178.108 178.404 178.368 179.241 176.245C179.241 176.245 182.508 168.883 176.501 168.679C170.496 168.476 159.083 188.375 158.428 190.301C157.709 192.413 155.13 201.34 168.225 199.318Z" fill="#AEC3FF"/>
<path d="M189.992 199.27H181.444C181.444 199.27 181.124 197.87 181.686 196.916C182.182 196.073 181.993 195.592 181.624 194.895C182.012 195.057 182.513 195.206 183.064 195.174C183.489 195.149 183.941 194.95 184.335 194.715C184.703 195.145 186.278 196.98 186.771 197.343C187.33 197.755 189.82 197.608 189.992 199.27Z" fill="#163560"/>
<g opacity="0.5">
<path d="M170.439 192.402C171.366 189.763 172.466 186.517 173.84 183.139C173.481 180.581 172.706 178.342 171.404 177.439C171.406 177.441 168.246 187.233 170.439 192.402Z" fill="#94B0ED"/>
</g>
<path d="M180.098 170.835C180.612 174.696 181.337 187.157 184.883 193.104C186.026 195.021 182.003 196.095 181.981 196.09C181.442 195.949 180.543 195.088 180.128 194.715C177.249 192.119 171.406 184.769 171.406 178.875C171.406 176.002 174.777 170.744 176.864 169.35C178.15 168.489 179.893 169.302 180.098 170.835Z" fill="#AEC3FF"/>
<path d="M198.6 158.846L189.845 157.915C189.591 157.888 189.349 158.036 189.258 158.277L186.125 166.513C185.988 166.874 186.245 167.263 186.631 167.279L195.318 167.629C195.554 167.639 195.77 167.5 195.862 167.283L199.062 159.627C199.207 159.277 198.976 158.886 198.6 158.846Z" fill="#004556"/>
<path d="M199.359 158.925L190.605 157.994C190.351 157.967 190.109 158.115 190.018 158.356L186.885 166.592C186.748 166.953 187.005 167.342 187.391 167.358L196.078 167.709C196.313 167.718 196.53 167.579 196.621 167.361L199.821 159.705C199.967 159.357 199.735 158.965 199.359 158.925Z" fill="#007490"/>
<path d="M194.508 162.771C194.615 162.477 194.463 162.239 194.169 162.239C193.876 162.239 193.551 162.477 193.444 162.771C193.338 163.065 193.489 163.303 193.783 163.303C194.077 163.303 194.402 163.065 194.508 162.771Z" fill="#EBF3FA"/>
<path d="M199.1 159.704C199.152 159.56 199.078 159.442 198.934 159.442C198.789 159.442 198.629 159.56 198.577 159.704C198.525 159.849 198.6 159.966 198.743 159.966C198.886 159.966 199.048 159.849 199.1 159.704Z" fill="#EBF3FA"/>
<path d="M162.546 162.947C162.546 162.947 174.679 167.417 176.501 167.326C177.68 167.267 187.473 163.822 187.473 163.822L188.352 165.486C188.352 165.486 178.82 171.616 176.199 171.587C171.025 171.528 162.295 168.349 161.31 167.724C160.326 167.1 159.683 163.58 162.546 162.947Z" fill="#FFB27D"/>
<path d="M187.475 163.821C187.475 163.821 188.354 162.467 189.229 162.427C190.105 162.387 191.617 163.025 192.134 163.124C192.652 163.224 194.123 163.702 193.686 164.419C193.248 165.136 191.218 165.295 190.344 165.136C189.469 164.977 188.355 165.487 188.355 165.487L187.475 163.821Z" fill="#FFB27D"/>
<path d="M188.99 162.47C188.99 162.47 190.382 161.831 190.78 161.711C191.178 161.592 191.099 161.714 190.979 162.091C190.86 162.468 190.144 162.828 190.144 162.947C190.144 163.065 188.99 162.47 188.99 162.47Z" fill="#FFB27D"/>
<path d="M198.458 163.106C198.458 163.106 197.903 161.274 197.292 161.85C196.657 162.449 197.042 163.048 197.121 163.811C197.269 165.271 197.564 165.208 197.751 165.143C197.938 165.077 198.664 163.84 198.458 163.106Z" fill="#FFB27D"/>
<path d="M198.492 163.384C198.492 163.384 198.773 164.943 197.293 165.756L197.731 164.684L198.492 163.384Z" fill="#FFB27D"/>
<path d="M173.13 157.626C173.13 157.626 172.609 157.42 171.141 157.539C171.141 157.539 171.219 158.111 172.3 158.168C172.914 158.2 173.13 157.626 173.13 157.626Z" fill="white"/>
<path d="M168.795 165.152C168.795 165.152 167.71 168.589 163.984 169.371C163.984 169.371 157.83 167.474 160.894 163.279C160.894 163.279 163.924 161.026 168.795 165.152Z" fill="#007490"/>
<path d="M198.491 163.605C198.491 163.605 198.747 162.747 198.761 162.598C198.775 162.45 198.758 162.375 198.626 162.48C198.495 162.584 198.293 162.859 198.352 163.119C198.412 163.378 198.491 163.605 198.491 163.605Z" fill="#FFB27D"/>
<path d="M118.541 86.4661C118.293 86.7506 118.261 87.0672 118.384 87.4062C118.384 87.4074 118.386 87.4098 118.387 87.411C118.613 88.0381 119.362 88.7376 120.231 89.4358C120.343 89.5259 120.441 89.6077 120.528 89.6824C120.55 89.7026 120.573 89.7227 120.594 89.7417C120.612 89.7571 120.628 89.7737 120.645 89.7879C121.455 90.536 121.151 90.7067 122.607 92.2253C124.268 93.955 125.411 93.9858 125.737 93.8282C126.012 93.6942 125.453 92.7766 124.833 91.7452C124.803 91.6954 124.774 91.6456 124.743 91.5946C124.66 91.4571 124.578 91.3184 124.497 91.1809C123.77 89.9397 123.958 89.3576 124.129 87.5117C124.269 86.0109 126.462 79.129 126.462 79.129L123.279 78.5801C123.279 78.5801 122.32 84.0607 121.263 84.9048C120.698 85.3553 120.067 85.36 119.523 85.6943C119.485 85.7181 119.447 85.7418 119.41 85.7655C119.102 85.9694 118.788 86.1804 118.541 86.4661Z" fill="#FFC49C"/>
<path d="M118.541 86.4666C118.293 86.7511 118.261 87.0676 118.384 87.4067C118.384 87.4079 118.386 87.4103 118.387 87.4114C118.664 88.0374 119.394 88.7333 120.235 89.4304C120.345 89.5217 120.442 89.6058 120.528 89.6841C120.55 89.7042 120.573 89.7244 120.594 89.7433C120.612 89.7588 120.628 89.7754 120.645 89.7896C121.455 90.5376 121.151 90.7084 122.607 92.227C124.268 93.9567 125.411 93.9875 125.737 93.8298C126.012 93.6959 125.453 92.7783 124.833 91.7469C124.51 91.6283 123.007 91.0178 121.872 89.5631C120.872 88.2863 120.205 86.6444 119.524 85.6948C119.486 85.7185 119.448 85.7422 119.412 85.766C119.102 85.9699 118.788 86.1809 118.541 86.4666Z" fill="#233862"/>
<path d="M144.211 84.4757C144.408 85.4584 145.808 85.2948 147.373 84.9119C148.938 84.529 148.566 84.9842 150.793 84.7377C153.021 84.4911 153.695 83.66 153.764 83.3281C153.824 83.0341 152.723 82.9309 151.543 82.7946C151.395 82.778 151.246 82.759 151.097 82.7412C149.764 82.5741 148.788 81.7134 147.578 81.0068C146.431 80.337 144.72 77.6104 144.72 77.6104L141.666 77.8522C141.666 77.8522 143.269 80.2884 143.889 81.3471C144.254 81.9695 144.233 82.7934 144.188 83.43C144.163 83.7762 144.141 84.1295 144.211 84.4757Z" fill="#FFC49C"/>
<path d="M147.374 84.9132C148.939 84.5303 148.567 84.9855 150.794 84.739C153.022 84.4924 153.696 83.6613 153.764 83.3294C153.825 83.0354 152.724 82.9322 151.544 82.7959L151.534 82.8184C151.534 82.8184 150.198 83.7656 148.344 83.8107C146.834 83.8474 145.233 83.4147 144.189 83.4313C144.166 83.7775 144.143 84.1308 144.213 84.477C144.408 85.4597 145.809 85.295 147.374 84.9132Z" fill="#233862"/>
<path d="M132.506 64.9335L129.651 72.6216L125.924 82.6605C125.924 82.6605 124.912 82.7577 123.943 82.4791C123.051 82.2207 122.027 81.5461 122.027 81.5461C122.027 81.5461 123.063 70.7674 124.994 64.5802C125.489 62.9916 126.044 61.7077 126.655 60.9846C129.649 57.4446 132.506 64.9335 132.506 64.9335Z" fill="#037B99"/>
<path d="M129.605 52.7242C127.823 52.1492 122.898 52.825 117.803 53.7983C117.344 53.886 116.877 53.6774 116.634 53.2767L115.917 52.0935L104.341 51.189C104.341 51.189 101.353 57.982 102.623 63.6333C102.935 65.018 104.626 66.8105 107.213 66.9717C114.463 67.4234 119.355 64.903 126.882 62.2557C128.191 61.7958 128.787 64.7062 130.148 67.5656C131.51 70.4251 142.94 80.2293 142.94 80.2293C142.94 80.2293 144.697 80.2471 145.422 79.9744C146.203 79.6816 146.489 79.301 146.489 79.301C146.489 79.301 133.822 54.0852 129.605 52.7242Z" fill="#007490"/>
<path d="M115.459 18.3647C113.976 17.5858 111.72 17.4803 111.353 17.4305C106.967 16.8401 104.326 23.2194 104.171 25.1518C103.884 28.7142 102.001 29.2572 99.3498 31.4883C94.035 35.9613 95.5929 41.1597 98.4991 43.091C100.243 44.2492 103.316 43.091 103.316 43.091C103.36 43.1218 111.722 38.4129 115.844 36.1415C122.026 35.2618 119.238 20.3504 115.459 18.3647Z" fill="#233862"/>
<path d="M112.392 34.2076C112.409 34.2195 110.363 34.9189 108.995 34.3119C107.707 33.7429 106.732 31.6232 106.752 31.622C107.338 31.5948 107.981 31.0826 108.476 27.7217L108.725 27.8106L112.918 29.3198C112.918 29.3198 112.614 30.6653 112.418 31.948C112.252 33.0245 112.163 34.0559 112.392 34.2076Z" fill="#FFB27D"/>
<path d="M112.917 29.3207C112.917 29.3207 112.708 30.2762 112.476 31.5826C110.067 31.1487 109.063 29.1144 108.725 27.8115L112.917 29.3207Z" fill="#ED975D"/>
<path d="M113.541 30.6572C113.541 30.6572 107.804 29.8866 108.34 26.3194C108.874 22.7522 108.494 20.2508 112.179 20.5922C115.863 20.9336 116.369 22.4013 116.48 23.6354C116.591 24.8683 115.047 30.7651 113.541 30.6572Z" fill="#FFB27D"/>
<path d="M116.274 21.6793C116.274 21.6793 112.602 24.8458 110.105 25.1007C107.608 25.3556 106.662 24.5542 106.662 24.5542C106.662 24.5542 108.135 23.3307 109.02 21.3569C109.28 20.7748 109.833 20.3753 110.468 20.3207C112.251 20.1666 115.632 20.0967 116.274 21.6793Z" fill="#233862"/>
<path d="M113.977 21.396C113.977 21.396 115.205 22.5851 115.591 23.4659C115.965 24.3171 116.077 26.3514 115.78 27.1588C115.78 27.1588 117.693 23.4351 116.61 21.626C115.461 19.7078 113.977 21.396 113.977 21.396Z" fill="#233862"/>
<path d="M117.222 42.6625C117.661 53.0227 116.966 52.4513 115.904 52.9563C115.538 53.1306 114.739 53.3796 113.606 53.4554C110.046 53.6914 103.787 53.1045 103.549 52.4466C102.728 50.168 103.307 49.4603 102.622 45.9725C102.551 45.6014 102.462 45.1995 102.359 44.7633C101.788 42.3673 101.231 41.5529 103.258 37.7047C105.096 34.2181 107.006 31.3895 107.177 31.4914C112.027 34.3722 112.418 31.9514 112.418 31.9514C112.418 31.9514 116.981 36.9993 117.222 42.6625Z" fill="#AEC3FF"/>
<path d="M129.651 72.6219L125.924 82.6608C125.924 82.6608 124.912 82.758 123.943 82.4794C123.051 82.221 122.027 81.5464 122.027 81.5464C122.027 81.5464 123.063 70.7678 124.994 64.5806L129.651 72.6219Z" fill="#007490"/>
<path d="M112.418 31.9492C112.418 31.9492 117.408 32.7957 117.993 34.945C118.58 37.0943 122.028 49.7319 122.028 49.7319C122.028 49.7319 119.491 50.1883 118.319 49.0159C117.148 47.8434 114.241 38.1376 114.241 38.1376L112.418 31.9492Z" fill="#AEC3FF"/>
<path d="M113.605 53.4548C110.045 53.6907 103.786 53.1039 103.548 52.446C102.727 50.1674 103.306 49.4596 102.621 45.9719L104.339 41.1338C104.339 41.1338 104.055 46.5219 105.643 47.9398C107.23 49.3565 112.145 50.676 112.918 51.8591C113.29 52.427 113.534 52.9972 113.605 53.4548Z" fill="#94B0ED"/>
<path d="M109.525 51.1891C109.525 51.1891 113.038 50.4066 113.604 50.7184C114.171 51.0302 115.557 52.1659 115.73 52.5619C115.903 52.9567 114.468 52.262 114.001 52.1363C113.699 52.0557 112.903 52.3319 112.51 52.4635C110.852 53.0159 109.836 52.7326 109.836 52.7326L109.525 51.1891Z" fill="#FFB27D"/>
<path d="M107.173 31.4868C107.173 31.4868 102.457 31.7773 100.824 34.0558C98.5259 37.2638 93.967 50.934 96.5793 52.7573C99.5223 54.8106 109.972 53.2943 109.972 53.2943C109.972 53.2943 110.32 51.6678 109.836 50.8806C109.352 50.0934 101.489 48.8226 101.126 48.4598C100.764 48.097 105.663 41.3787 105.663 40.2893C105.663 39.201 107.173 31.4868 107.173 31.4868Z" fill="#AEC3FF"/>
<path d="M113.775 51.6963C113.775 51.6963 114.511 52.6459 114.753 52.7597C114.995 52.8735 115.15 52.8451 115.15 52.8451L114.653 51.9524L113.775 51.6963Z" fill="#FFB27D"/>
<path d="M113.605 50.7183L115.745 51.758C115.745 51.758 115.654 51.9073 115.391 51.8955C115.128 51.8836 114.463 51.6406 114.463 51.6406L113.605 50.7183Z" fill="#FFB27D"/>
<path d="M114.754 54.2145H131.68L136.771 41.5449H119.872L114.754 54.2145Z" fill="#2B478B"/>
<path d="M131.877 53.7212H109.525V54.2144H131.679L131.877 53.7212Z" fill="#2B478B"/>
<path d="M127.408 47.8799C127.536 47.4341 127.277 47.0737 126.833 47.0737C126.389 47.0737 125.924 47.4353 125.797 47.8799C125.669 48.3256 125.926 48.686 126.371 48.686C126.817 48.686 127.281 48.3244 127.408 47.8799Z" fill="#EBF3FA"/>
</svg>
