<svg width="34" height="34" viewBox="0 0 34 34" fill="none" xmlns="http://www.w3.org/2000/svg">
<path d="M1 24.6966C1 22.6142 1 21.573 1.46872 20.8082C1.73098 20.3802 2.09082 20.0203 2.51881 19.7581C3.28368 19.2894 4.32489 19.2894 6.40728 19.2894H8.15669C11.1555 19.2894 12.655 19.2894 13.5866 20.221C14.5182 21.1527 14.5182 22.6521 14.5182 25.6509V27.4003C14.5182 29.4827 14.5182 30.5239 14.0495 31.2888C13.7873 31.7167 13.4274 32.0766 12.9994 32.3389C12.2345 32.8076 11.1933 32.8076 9.11092 32.8076C5.98732 32.8076 4.42553 32.8076 3.27821 32.1045C2.63624 31.7112 2.09648 31.1714 1.70307 30.5293C1 29.3821 1 27.8203 1 24.6966Z" stroke="#00B0DC" stroke-width="1.7"/>
<path d="M19.2871 6.40728C19.2871 4.32489 19.2871 3.28368 19.7558 2.51881C20.018 2.09082 20.3779 1.73098 20.8059 1.46872C21.5707 1 22.6119 1 24.6944 1C27.818 1 29.3798 1 30.5271 1.70307C31.1691 2.09648 31.7089 2.63624 32.1022 3.27821C32.8053 4.42553 32.8053 5.98732 32.8053 9.11092C32.8053 11.1933 32.8053 12.2345 32.3366 12.9994C32.0744 13.4274 31.7145 13.7873 31.2865 14.0495C30.5217 14.5182 29.4805 14.5182 27.398 14.5182H25.6486C22.6498 14.5182 21.1504 14.5182 20.2188 13.5866C19.2871 12.655 19.2871 11.1555 19.2871 8.15669V6.40728Z" stroke="#00B0DC" stroke-width="1.7"/>
<path d="M24.0625 7.75903C24.0625 6.93933 24.0625 6.52949 24.2678 6.24011C24.3403 6.13799 24.4294 6.04883 24.5315 5.97639C24.821 5.77106 25.2308 5.77106 26.0505 5.77106C26.8702 5.77106 27.28 5.77106 27.5694 5.97639C27.6715 6.04883 27.7606 6.13799 27.8331 6.24011C28.0384 6.52949 28.0384 6.93933 28.0384 7.75903C28.0384 8.57872 28.0384 8.98856 27.8331 9.27795C27.7606 9.38007 27.6715 9.46922 27.5694 9.54166C27.28 9.747 26.8702 9.747 26.0505 9.747C25.2308 9.747 24.821 9.747 24.5315 9.54166C24.4294 9.46922 24.3403 9.38007 24.2678 9.27795C24.0625 8.98856 24.0625 8.57872 24.0625 7.75903Z" fill="#00B0DC"/>
<path d="M18.0938 32.8075C18.0938 33.4663 18.6278 34.0003 19.2865 34.0003C19.9453 34.0003 20.4793 33.4663 20.4793 32.8075H18.0938ZM28.0336 18.0966H24.8529V20.4821H28.0336V18.0966ZM18.0938 28.0364V32.8075H20.4793V28.0364H18.0938ZM24.8529 18.0966C23.7609 18.0966 22.8522 18.0951 22.119 18.1697C21.366 18.2462 20.6673 18.4129 20.0375 18.8337L21.3628 20.8172C21.5353 20.7019 21.7961 20.6004 22.3604 20.543C22.9447 20.4836 23.7113 20.4821 24.8529 20.4821V18.0966ZM20.4793 24.8557C20.4793 23.7141 20.4807 22.9475 20.5402 22.3632C20.5976 21.799 20.6991 21.5381 20.8144 21.3656L18.8309 20.0403C18.4101 20.6701 18.2434 21.3688 18.1669 22.1218C18.0923 22.855 18.0938 23.7637 18.0938 24.8557H20.4793ZM20.0375 18.8337C19.5599 19.1527 19.1499 19.5627 18.8309 20.0403L20.8144 21.3656C20.9595 21.1485 21.1457 20.9623 21.3628 20.8172L20.0375 18.8337Z" fill="#00B0DC"/>
<path d="M34.0001 19.2893C34.0001 18.6306 33.4661 18.0966 32.8073 18.0966C32.1486 18.0966 31.6146 18.6306 31.6146 19.2893H34.0001ZM24.8555 34.0003H28.0362V31.6148H24.8555V34.0003ZM34.0001 24.8557V19.2893H31.6146V24.8557H34.0001ZM28.0362 34.0003C28.761 34.0003 29.3642 34.001 29.8578 33.9672C30.3621 33.9329 30.8385 33.8588 31.3003 33.6675L30.3874 31.4634C30.2647 31.5142 30.0783 31.5612 29.6955 31.5872C29.3018 31.6141 28.7936 31.6148 28.0362 31.6148V34.0003ZM31.6146 28.0364C31.6146 28.7937 31.6139 29.302 31.5871 29.6957C31.561 30.0785 31.5141 30.2648 31.4632 30.3876L33.6673 31.3005C33.8586 30.8387 33.9327 30.3623 33.9671 29.858C34.0008 29.3644 34.0001 28.7611 34.0001 28.0364H31.6146ZM31.3003 33.6675C32.3719 33.2236 33.2234 32.3721 33.6673 31.3005L31.4632 30.3876C31.2615 30.8746 30.8744 31.2615 30.3874 31.4634L31.3003 33.6675Z" fill="#00B0DC"/>
<path d="M1 9.11107C1 5.98748 1 4.42568 1.70307 3.27837C2.09648 2.63639 2.63624 2.09664 3.27821 1.70323C4.42553 1.00015 5.98732 1.00015 9.11092 1.00015C11.1933 1.00015 12.2345 1.00015 12.9994 1.46887C13.4274 1.73114 13.7873 2.09098 14.0495 2.51896C14.5182 3.28384 14.5182 4.32504 14.5182 6.40743V8.15684C14.5182 11.1557 14.5182 12.6551 13.5866 13.5867C12.655 14.5183 11.1555 14.5183 8.15669 14.5183H6.40728C4.32489 14.5183 3.28368 14.5183 2.51881 14.0497C2.09082 13.7874 1.73098 13.4275 1.46872 12.9995C1 12.2347 1 11.1935 1 9.11107Z" stroke="#00B0DC" stroke-width="1.7"/>
<path d="M5.77148 7.75903C5.77148 6.93933 5.77148 6.52949 5.97682 6.24011C6.04926 6.13799 6.13842 6.04883 6.24053 5.97639C6.52992 5.77106 6.93976 5.77106 7.75945 5.77106C8.57915 5.77106 8.98899 5.77106 9.27838 5.97639C9.38049 6.04883 9.46965 6.13799 9.54209 6.24011C9.74742 6.52949 9.74742 6.93933 9.74742 7.75903C9.74742 8.57872 9.74742 8.98856 9.54209 9.27795C9.46965 9.38007 9.38049 9.46922 9.27838 9.54166C8.98899 9.747 8.57915 9.747 7.75945 9.747C6.93976 9.747 6.52992 9.747 6.24053 9.54166C6.13842 9.46922 6.04926 9.38007 5.97682 9.27795C5.77148 8.98856 5.77148 8.57872 5.77148 7.75903Z" fill="#00B0DC"/>
<path d="M5.77148 26.0484C5.77148 25.2287 5.77148 24.8189 5.97682 24.5294C6.04926 24.4273 6.13842 24.3383 6.24053 24.2657C6.52992 24.0604 6.93976 24.0604 7.75945 24.0604C8.57915 24.0604 8.98899 24.0604 9.27838 24.2657C9.38049 24.3383 9.46965 24.4273 9.54209 24.5294C9.74742 24.8189 9.74742 25.2287 9.74742 26.0484C9.74742 26.8681 9.74742 27.2779 9.54209 27.5674C9.46965 27.6695 9.38049 27.7585 9.27838 27.831C8.98899 28.0364 8.57915 28.0364 7.75945 28.0364C6.93976 28.0364 6.52992 28.0364 6.24053 27.831C6.13842 27.7585 6.04926 27.6695 5.97682 27.5674C5.77148 27.2779 5.77148 26.8681 5.77148 26.0484Z" fill="#00B0DC"/>
<path d="M23.2676 26.0482C23.2676 24.9315 23.2676 24.3731 23.5356 23.9718C23.6517 23.7982 23.8007 23.6492 23.9743 23.5331C24.3756 23.2651 24.934 23.2651 26.0507 23.2651C27.1675 23.2651 27.7259 23.2651 28.1271 23.5331C28.3008 23.6492 28.4498 23.7982 28.5659 23.9718C28.8339 24.3731 28.8339 24.9315 28.8339 26.0482C28.8339 27.165 28.8339 27.7234 28.5659 28.1246C28.4498 28.2983 28.3008 28.4473 28.1271 28.5634C27.7259 28.8314 27.1675 28.8314 26.0507 28.8314C24.934 28.8314 24.3756 28.8314 23.9743 28.5634C23.8007 28.4473 23.6517 28.2983 23.5356 28.1246C23.2676 27.7234 23.2676 27.165 23.2676 26.0482Z" fill="#00B0DC"/>
</svg>
