<svg width="33" height="68" viewBox="0 0 33 68" fill="none" xmlns="http://www.w3.org/2000/svg">
<path d="M12.623 38.9369C12.623 38.9369 8.22883 39.5199 6.3588 38.9369C4.48878 38.3538 5.1856 29.8356 3.2658 29.6578C-1.14262 29.2525 -0.396032 40.5651 1.4811 42.9471C3.35824 45.3291 13.0212 44.3194 13.0212 44.3194L12.623 38.9369Z" fill="#00B0DC"/>
<path opacity="0.2" d="M12.623 38.9369C12.623 38.9369 8.22883 39.5199 6.3588 38.9369C4.48878 38.3538 5.1856 29.8356 3.2658 29.6578C-1.14262 29.2525 -0.396032 40.5651 1.4811 42.9471C3.35824 45.3291 13.0212 44.3194 13.0212 44.3194L12.623 38.9369Z" fill="white"/>
<path d="M12.9932 59.0023C12.9932 59.0023 6.48728 1.23778 14.2518 0.569405C22.0163 -0.0989683 23.8934 20.2722 20.8929 58.2628L12.9932 59.0023Z" fill="#00B0DC"/>
<path opacity="0.3" d="M12.9932 59.0023C12.9932 59.0023 6.48728 1.23778 14.2518 0.569405C22.0163 -0.0989683 23.8934 20.2722 20.8929 58.2628L12.9932 59.0023Z" fill="white"/>
<path d="M3.86914 52.0057H29.4166L27.2835 68.3524H6.00225L3.86914 52.0057Z" fill="#263238"/>
<path d="M20.7074 19.5114C20.7074 19.5114 27.7822 19.8883 27.9955 19.5114C28.2089 19.1346 28.2089 10.9576 31.2094 11.4412C34.21 11.9247 32.8946 21.7654 31.2094 22.9102C29.5243 24.0549 20.7074 24.6735 20.7074 24.6735C20.7074 24.6735 19.52 21.0401 20.7074 19.5114Z" fill="#00B0DC"/>
<path opacity="0.4" d="M20.7074 19.5114C20.7074 19.5114 27.7822 19.8883 27.9955 19.5114C28.2089 19.1346 28.2089 10.9576 31.2094 11.4412C34.21 11.9247 32.8946 21.7654 31.2094 22.9102C29.5243 24.0549 20.7074 24.6735 20.7074 24.6735C20.7074 24.6735 19.52 21.0401 20.7074 19.5114Z" fill="white"/>
<path d="M16.2203 53.7264C15.2462 44.9238 14.4285 36.1069 13.8455 27.2616C13.5468 22.839 13.3406 18.4164 13.2553 13.9795C13.2197 11.7611 13.2197 9.54264 13.3335 7.32421C13.3904 6.215 13.4757 5.09867 13.6464 3.98946C13.7388 3.43485 13.8383 2.88024 14.0232 2.32563C14.1299 2.04833 14.2223 1.77103 14.4285 1.50794C14.4712 1.43684 14.5281 1.37285 14.6063 1.31596C14.6703 1.25197 14.7414 1.19509 14.848 1.15243C14.8978 1.13109 14.9476 1.10976 14.9973 1.09554C15.0542 1.08843 15.1182 1.08843 15.1822 1.09554C15.3173 1.09554 15.3955 1.15954 15.4951 1.20931C15.815 1.45106 15.9288 1.73547 16.0568 2.00567C16.1705 2.27586 16.263 2.55317 16.3412 2.82336C16.4976 3.37086 16.6185 3.91835 16.718 4.46585C16.9242 5.56796 17.0664 6.67006 17.1944 7.77216C17.4433 9.97637 17.6139 12.1877 17.7633 14.399C18.0406 18.8217 18.2325 23.2514 18.3321 27.674C18.4459 32.1038 18.5099 36.5335 18.5383 40.9562C18.5525 45.3859 18.5383 49.8157 18.4885 54.2383C18.4459 49.8086 18.3676 45.3859 18.261 40.9562C18.1757 36.5335 18.0619 32.1038 17.8984 27.6812C17.7277 23.2585 17.5571 18.8359 17.2513 14.4203C17.102 12.2161 16.9171 10.0119 16.6612 7.82194C16.5332 6.72694 16.3839 5.63195 16.1777 4.55828C16.0781 4.0179 15.9572 3.48462 15.8079 2.96557C15.7297 2.70959 15.6444 2.45362 15.5448 2.21898C15.4453 1.99145 15.3031 1.75681 15.1822 1.66437C15.1538 1.66437 15.1324 1.62171 15.1182 1.63593C15.1111 1.63593 15.104 1.63593 15.0969 1.62882C15.0827 1.63593 15.0684 1.64304 15.0613 1.65015C15.0329 1.65015 14.9973 1.67859 14.9618 1.71414C14.9333 1.76392 14.8978 1.79947 14.8694 1.84924C14.7271 2.01989 14.6347 2.26875 14.5423 2.5105C14.3716 3.00823 14.2721 3.5415 14.1796 4.08189C14.009 5.16266 13.9237 6.25766 13.8597 7.35976C13.7388 9.56397 13.7317 11.7753 13.7601 13.9795C13.817 18.4021 14.0374 22.8248 14.265 27.2403C14.5067 31.663 14.8125 36.0785 15.1467 40.4869C15.4666 44.9024 15.8221 49.318 16.2203 53.7264Z" fill="#00B0DC"/>
<path d="M21.5977 21.4455L25.7074 21.1327C26.39 21.0687 27.0726 21.0189 27.7481 20.9265C28.0823 20.8838 28.4236 20.8411 28.7365 20.7629C28.8858 20.7274 29.0493 20.6776 29.1489 20.6278C29.1489 20.6207 29.1986 20.5923 29.1702 20.6136C29.156 20.6278 29.1631 20.6278 29.1489 20.6563C29.1346 20.6776 29.1417 20.7416 29.1489 20.7416C29.1346 20.6349 29.1133 20.4998 29.1133 20.4145C29.1915 18.9711 29.4759 17.6486 29.7675 16.2905C30.0803 14.9467 30.3789 13.5957 30.8767 12.3087C30.7273 12.9842 30.6207 13.6597 30.514 14.3423L30.1799 16.3758L29.8741 18.4094C29.7817 19.0778 29.675 19.7746 29.6608 20.4145C29.6537 20.4998 29.675 20.5354 29.6679 20.5994C29.675 20.642 29.6821 20.7416 29.6679 20.8127C29.6537 20.8838 29.6181 20.9194 29.5826 20.9691C29.5044 21.0687 29.4617 21.0687 29.4048 21.1184C29.1986 21.2251 29.0209 21.2607 28.8431 21.3033C28.4876 21.3815 28.1392 21.4242 27.7979 21.4597C27.1011 21.5237 26.4114 21.5664 25.7217 21.5664C24.3494 21.5806 22.97 21.5593 21.5977 21.4455Z" fill="#00B0DC"/>
<path d="M21.5977 23.3367C23.1406 23.0736 24.6907 22.8674 26.2407 22.6399L28.5587 22.3128C29.3053 22.1919 30.1443 22.0853 30.7771 21.8719C30.8056 21.8648 30.9264 21.7155 30.9833 21.5591C31.0544 21.4027 31.1113 21.2178 31.1611 21.04C31.2606 20.6774 31.3317 20.3006 31.3957 19.9166C31.5308 19.1558 31.6019 18.3808 31.7015 17.6057C31.8721 16.0557 32.0001 14.4985 32.1494 12.9413C32.2276 14.5056 32.2134 16.077 32.1281 17.6413C32.0996 18.4234 32.0072 19.2056 31.9006 19.9948C31.8437 20.3859 31.7797 20.777 31.6801 21.1751C31.6304 21.3742 31.5735 21.5662 31.4882 21.7724C31.3957 21.9644 31.3317 22.1919 31.0118 22.3839C30.5638 22.5474 30.2012 22.583 29.803 22.6541L28.6369 22.8176C27.8548 22.9101 27.0797 23.0167 26.2976 23.0665C24.7262 23.2016 23.1619 23.3011 21.5977 23.3367Z" fill="#00B0DC"/>
<path d="M10.4383 40.5224C9.13 40.5935 7.82881 40.5651 6.5205 40.4442C5.86635 40.3802 5.2122 40.302 4.55094 40.0887C4.46561 40.0531 4.39451 40.0389 4.29496 39.9891C4.1812 39.9323 4.09587 39.8541 4.03188 39.7758C3.88967 39.6194 3.81146 39.4559 3.73325 39.2923C3.59104 38.9653 3.50571 38.6382 3.4275 38.3111C3.1502 37.0028 3.06487 35.6945 3.04354 34.3862C3.02221 33.0779 3.05065 31.7696 3.17864 30.4684C3.27818 31.7696 3.3564 33.0708 3.47016 34.3649C3.59104 35.6518 3.69769 36.953 3.96789 38.1902C4.1172 38.7733 4.25941 39.5056 4.73581 39.5981C5.30463 39.8114 5.95168 39.9038 6.5845 40.0247C7.85014 40.2238 9.14423 40.3589 10.4383 40.5224Z" fill="#00B0DC"/>
<path d="M1.85679 31.4924L2.31897 36.0359C2.4825 37.5433 2.61049 39.0649 2.89491 40.5367C2.9589 40.9065 3.03711 41.2691 3.14377 41.6104C3.20065 41.7668 3.27175 41.9517 3.33575 42.0157L3.51351 42.1437C3.58461 42.1792 3.66993 42.2148 3.74815 42.2503C4.4023 42.5205 5.17022 42.6201 5.9097 42.7552C7.40287 42.9827 8.91738 43.1249 10.439 43.2742C8.91026 43.3524 7.38865 43.324 5.85992 43.1747C5.092 43.0965 4.3312 42.9969 3.56328 42.7125C3.46373 42.6698 3.3713 42.6343 3.27175 42.5845C3.17221 42.5205 3.07266 42.4565 2.98023 42.3783C2.78114 42.165 2.73137 41.973 2.64604 41.7811C2.51095 41.3971 2.42562 41.0202 2.34741 40.6363C2.09855 39.1076 1.96345 37.5931 1.89235 36.0643C1.82835 34.5427 1.79991 33.014 1.85679 31.4924Z" fill="#00B0DC"/>
</svg>
