<svg width="52" height="50" viewBox="0 0 52 50" fill="none" xmlns="http://www.w3.org/2000/svg">
<path d="M0 43.4825C0 47.0839 2.8751 50 6.42588 50H45.5741C49.1249 50 52 47.0839 52 43.4825V6.51748C52.0069 2.91608 49.1249 0 45.5741 0H6.42588C2.8751 0 0 2.91608 0 6.51748V43.4825Z" fill="#00B0DC"/>
<path d="M11 31.5424C11 29.6493 11 28.7027 11.4261 28.0074C11.6645 27.6184 11.9917 27.2912 12.3807 27.0528C13.0761 26.6267 14.0226 26.6267 15.9157 26.6267H17.506C20.2323 26.6267 21.5954 26.6267 22.4423 27.4737C23.2892 28.3206 23.2892 29.6837 23.2892 32.4099V34.0002C23.2892 35.8933 23.2892 36.8399 22.8631 37.5352C22.6247 37.9242 22.2975 38.2514 21.9085 38.4898C21.2131 38.9159 20.2666 38.9159 18.3735 38.9159C15.5339 38.9159 14.1141 38.9159 13.0711 38.2767C12.4875 37.9192 11.9968 37.4285 11.6392 36.8448C11 35.8018 11 34.3821 11 31.5424Z" stroke="white" stroke-width="2"/>
<path d="M27.627 14.9157C27.627 13.0226 27.627 12.0761 28.053 11.3807C28.2914 10.9917 28.6186 10.6645 29.0077 10.4261C29.703 10 30.6495 10 32.5426 10C35.3823 10 36.8021 10 37.8451 10.6392C38.4287 10.9968 38.9194 11.4875 39.277 12.0711C39.9161 13.1141 39.9161 14.5339 39.9161 17.3735C39.9161 19.2666 39.9161 20.2131 39.4901 20.9085C39.2517 21.2975 38.9245 21.6247 38.5354 21.8631C37.8401 22.2892 36.8936 22.2892 35.0005 22.2892H33.4101C30.6839 22.2892 29.3208 22.2892 28.4739 21.4423C27.627 20.5954 27.627 19.2323 27.627 16.506V14.9157Z" stroke="white" stroke-width="2"/>
<path d="M31.9648 16.1446C31.9648 15.3995 31.9648 15.0269 32.1515 14.7638C32.2174 14.671 32.2984 14.5899 32.3912 14.5241C32.6543 14.3374 33.0269 14.3374 33.7721 14.3374C34.5172 14.3374 34.8898 14.3374 35.1529 14.5241C35.2458 14.5899 35.3267 14.671 35.3927 14.7638C35.5793 15.0269 35.5793 15.3995 35.5793 16.1446C35.5793 16.8898 35.5793 17.2624 35.3927 17.5255C35.3267 17.6183 35.2458 17.6994 35.1529 17.7652C34.8898 17.9519 34.5172 17.9519 33.7721 17.9519C33.0269 17.9519 32.6543 17.9519 32.3912 17.7652C32.2984 17.6994 32.2174 17.6183 32.1515 17.5255C31.9648 17.2624 31.9648 16.8898 31.9648 16.1446Z" fill="white"/>
<path d="M26.541 38.9158C26.541 39.5146 27.0265 40.0001 27.6254 40.0001C28.2242 40.0001 28.7097 39.5146 28.7097 38.9158H26.541ZM35.5772 25.5422H32.6856V27.7109H35.5772V25.5422ZM26.541 34.5784V38.9158H28.7097V34.5784H26.541ZM32.6856 25.5422C31.6929 25.5422 30.8668 25.5409 30.2003 25.6087C29.5157 25.6783 28.8806 25.8298 28.3081 26.2124L29.5128 28.0155C29.6697 27.9107 29.9068 27.8185 30.4198 27.7663C30.951 27.7122 31.6478 27.7109 32.6856 27.7109V25.5422ZM28.7097 31.6868C28.7097 30.6491 28.711 29.9522 28.7651 29.421C28.8173 28.908 28.9095 28.6709 29.0143 28.5141L27.2111 27.3093C26.8286 27.8818 26.6771 28.5169 26.6075 29.2015C26.5397 29.868 26.541 30.6942 26.541 31.6868H28.7097ZM28.3081 26.2124C27.8739 26.5024 27.5012 26.8751 27.2111 27.3093L29.0143 28.5141C29.1462 28.3167 29.3155 28.1474 29.5128 28.0155L28.3081 26.2124Z" fill="white"/>
<path d="M40.9988 26.6266C40.9988 26.0277 40.5133 25.5422 39.9145 25.5422C39.3156 25.5422 38.8301 26.0277 38.8301 26.6266H40.9988ZM32.6855 40.0001H35.5771V37.8314H32.6855V40.0001ZM40.9988 31.6868V26.6266H38.8301V31.6868H40.9988ZM35.5771 40.0001C36.236 40.0001 36.7844 40.0007 37.2331 39.97C37.6916 39.9388 38.1246 39.8714 38.5445 39.6975L37.7146 37.6938C37.603 37.7401 37.4335 37.7827 37.0855 37.8064C36.7277 37.8309 36.2656 37.8314 35.5771 37.8314V40.0001ZM38.8301 34.5784C38.8301 35.2669 38.8296 35.729 38.8051 36.0868C38.7814 36.4348 38.7388 36.6042 38.6925 36.7159L40.6962 37.5457C40.8702 37.1259 40.9375 36.6929 40.9688 36.2344C40.9994 35.7856 40.9988 35.2373 40.9988 34.5784H38.8301ZM38.5445 39.6975C39.5186 39.294 40.2927 38.5199 40.6962 37.5457L38.6925 36.7159C38.5092 37.1586 38.1573 37.5103 37.7146 37.6938L38.5445 39.6975Z" fill="white"/>
<path d="M11 17.3735C11 14.5339 11 13.1141 11.6392 12.0711C11.9968 11.4875 12.4875 10.9968 13.0711 10.6392C14.1141 10 15.5339 10 18.3735 10C20.2666 10 21.2131 10 21.9085 10.4261C22.2975 10.6645 22.6247 10.9917 22.8631 11.3807C23.2892 12.0761 23.2892 13.0226 23.2892 14.9157V16.506C23.2892 19.2323 23.2892 20.5954 22.4423 21.4423C21.5954 22.2892 20.2323 22.2892 17.506 22.2892H15.9157C14.0226 22.2892 13.0761 22.2892 12.3807 21.8631C11.9917 21.6247 11.6645 21.2975 11.4261 20.9085C11 20.2131 11 19.2666 11 17.3735Z" stroke="white" stroke-width="2"/>
<path d="M15.3379 16.1446C15.3379 15.3995 15.3379 15.0269 15.5246 14.7638C15.5904 14.671 15.6715 14.5899 15.7643 14.5241C16.0274 14.3374 16.4 14.3374 17.1451 14.3374C17.8903 14.3374 18.2629 14.3374 18.526 14.5241C18.6188 14.5899 18.6998 14.671 18.7657 14.7638C18.9524 15.0269 18.9524 15.3995 18.9524 16.1446C18.9524 16.8898 18.9524 17.2624 18.7657 17.5255C18.6998 17.6183 18.6188 17.6994 18.526 17.7652C18.2629 17.9519 17.8903 17.9519 17.1451 17.9519C16.4 17.9519 16.0274 17.9519 15.7643 17.7652C15.6715 17.6994 15.5904 17.6183 15.5246 17.5255C15.3379 17.2624 15.3379 16.8898 15.3379 16.1446Z" fill="white"/>
<path d="M15.3379 32.7711C15.3379 32.0259 15.3379 31.6534 15.5246 31.3902C15.5904 31.2974 15.6715 31.2164 15.7643 31.1505C16.0274 30.9639 16.4 30.9639 17.1451 30.9639C17.8903 30.9639 18.2629 30.9639 18.526 31.1505C18.6188 31.2164 18.6998 31.2974 18.7657 31.3902C18.9524 31.6534 18.9524 32.0259 18.9524 32.7711C18.9524 33.5163 18.9524 33.8888 18.7657 34.152C18.6998 34.2448 18.6188 34.3258 18.526 34.3917C18.2629 34.5783 17.8903 34.5783 17.1451 34.5783C16.4 34.5783 16.0274 34.5783 15.7643 34.3917C15.6715 34.3258 15.5904 34.2448 15.5246 34.152C15.3379 33.8888 15.3379 33.5163 15.3379 32.7711Z" fill="white"/>
<path d="M31.2422 32.771C31.2422 31.7557 31.2422 31.2481 31.4858 30.8834C31.5913 30.7255 31.7268 30.59 31.8847 30.4845C32.2495 30.2408 32.7571 30.2408 33.7723 30.2408C34.7875 30.2408 35.2952 30.2408 35.6599 30.4845C35.8178 30.59 35.9533 30.7255 36.0588 30.8834C36.3024 31.2481 36.3024 31.7557 36.3024 32.771C36.3024 33.7862 36.3024 34.2938 36.0588 34.6586C35.9533 34.8165 35.8178 34.9519 35.6599 35.0575C35.2952 35.3011 34.7875 35.3011 33.7723 35.3011C32.7571 35.3011 32.2495 35.3011 31.8847 35.0575C31.7268 34.9519 31.5913 34.8165 31.4858 34.6586C31.2422 34.2938 31.2422 33.7862 31.2422 32.771Z" fill="white"/>
</svg>
