<svg width="125" height="153" viewBox="0 0 125 153" fill="none" xmlns="http://www.w3.org/2000/svg">
<path d="M79.7226 151.205H9.55291C5.14357 151.205 1.56836 147.63 1.56836 143.22V8.98693C1.56836 4.57759 5.14357 1.00238 9.55291 1.00238H79.7226C84.1319 1.00238 87.7071 4.57759 87.7071 8.98693V143.22C87.7071 147.63 84.1333 151.205 79.7226 151.205Z" fill="#00B0DC"/>
<path d="M79.7229 152.207H9.55326C4.59869 152.207 0.566406 148.176 0.566406 143.22V8.98686C0.566406 4.03229 4.59733 0 9.55326 0H79.7243C84.6789 0 88.7098 4.03093 88.7098 8.98686V143.22C88.7098 148.175 84.6789 152.207 79.7229 152.207ZM9.55326 2.00462C5.70407 2.00462 2.57102 5.13632 2.57102 8.98686V143.22C2.57102 147.071 5.70272 150.202 9.55326 150.202H79.7243C83.5735 150.202 86.7065 147.071 86.7065 143.22V8.98686C86.7065 5.13768 83.5748 2.00462 79.7243 2.00462H9.55326Z" fill="#2B478B"/>
<g opacity="0.9">
<path d="M72.9602 40.5265H16.3047V97.182H72.9602V40.5265Z" fill="white"/>
</g>
<path d="M24.2358 91.236H21.9844V93.4874H24.2358V91.236Z" fill="#2B478B"/>
<path d="M26.4878 91.236H24.2363V93.4874H26.4878V91.236Z" fill="#2B478B"/>
<path d="M28.7397 91.236H26.4883V93.4874H28.7397V91.236Z" fill="#2B478B"/>
<path d="M30.9917 91.236H28.7402V93.4874H30.9917V91.236Z" fill="#2B478B"/>
<path d="M33.2437 91.236H30.9922V93.4874H33.2437V91.236Z" fill="#2B478B"/>
<path d="M37.7476 91.2359H35.4961V93.4874H37.7476V91.2359Z" fill="#2B478B"/>
<path d="M39.9976 91.2359H37.7461V93.4874H39.9976V91.2359Z" fill="#2B478B"/>
<path d="M46.7515 91.236H44.5V93.4874H46.7515V91.236Z" fill="#2B478B"/>
<path d="M51.3902 91.236H49.0059V93.4874H51.3902V91.236Z" fill="#2B478B"/>
<path d="M53.6401 91.236H51.3887V93.4874H53.6401V91.236Z" fill="#2B478B"/>
<path d="M58.1421 91.2359H55.8906V93.4874H58.1421V91.2359Z" fill="#2B478B"/>
<path d="M60.394 91.236H58.1426V93.4874H60.394V91.236Z" fill="#2B478B"/>
<path d="M62.644 91.236H60.3926V93.4874H62.644V91.236Z" fill="#2B478B"/>
<path d="M64.898 91.236H62.6465V93.4874H64.898V91.236Z" fill="#2B478B"/>
<path d="M67.1518 91.236H64.9004V93.4874H67.1518V91.236Z" fill="#2B478B"/>
<path d="M69.5348 91.236H67.1504V93.4874H69.5348V91.236Z" fill="#2B478B"/>
<path d="M21.9839 91.2359H19.7324V93.4874H21.9839V91.2359Z" fill="#2B478B"/>
<path d="M33.2437 88.9844H30.9922V91.2359H33.2437V88.9844Z" fill="#2B478B"/>
<path d="M39.9976 88.9844H37.7461V91.2359H39.9976V88.9844Z" fill="#2B478B"/>
<path d="M44.4995 88.9844H42.248V91.2359H44.4995V88.9844Z" fill="#2B478B"/>
<path d="M46.7515 88.9844H44.5V91.2359H46.7515V88.9844Z" fill="#2B478B"/>
<path d="M49.0054 88.9844H46.7539V91.2359H49.0054V88.9844Z" fill="#2B478B"/>
<path d="M51.3902 88.9844H49.0059V91.2359H51.3902V88.9844Z" fill="#2B478B"/>
<path d="M58.1421 88.9844H55.8906V91.2359H58.1421V88.9844Z" fill="#2B478B"/>
<path d="M69.5348 88.9844H67.1504V91.2359H69.5348V88.9844Z" fill="#2B478B"/>
<path d="M21.9839 88.9844H19.7324V91.2359H21.9839V88.9844Z" fill="#2B478B"/>
<path d="M26.4878 86.733H24.2363V88.9844H26.4878V86.733Z" fill="#2B478B"/>
<path d="M28.7397 86.733H26.4883V88.9844H28.7397V86.733Z" fill="#2B478B"/>
<path d="M33.2437 86.733H30.9922V88.9844H33.2437V86.733Z" fill="#2B478B"/>
<path d="M37.7476 86.733H35.4961V88.9844H37.7476V86.733Z" fill="#2B478B"/>
<path d="M39.9976 86.733H37.7461V88.9844H39.9976V86.733Z" fill="#2B478B"/>
<path d="M42.2495 86.733H39.998V88.9844H42.2495V86.733Z" fill="#2B478B"/>
<path d="M46.7515 86.733H44.5V88.9844H46.7515V86.733Z" fill="#2B478B"/>
<path d="M49.0054 86.733H46.7539V88.9844H49.0054V86.733Z" fill="#2B478B"/>
<path d="M51.3902 86.733H49.0059V88.9844H51.3902V86.733Z" fill="#2B478B"/>
<path d="M53.6401 86.733H51.3887V88.9844H53.6401V86.733Z" fill="#2B478B"/>
<path d="M58.1421 86.733H55.8906V88.9844H58.1421V86.733Z" fill="#2B478B"/>
<path d="M62.644 86.733H60.3926V88.9844H62.644V86.733Z" fill="#2B478B"/>
<path d="M64.898 86.733H62.6465V88.9844H64.898V86.733Z" fill="#2B478B"/>
<path d="M69.5348 86.733H67.1504V88.9844H69.5348V86.733Z" fill="#2B478B"/>
<path d="M21.9839 86.733H19.7324V88.9844H21.9839V86.733Z" fill="#2B478B"/>
<path d="M26.4878 84.4814H24.2363V86.7329H26.4878V84.4814Z" fill="#2B478B"/>
<path d="M28.7397 84.4814H26.4883V86.7329H28.7397V84.4814Z" fill="#2B478B"/>
<path d="M33.2437 84.4814H30.9922V86.7329H33.2437V84.4814Z" fill="#2B478B"/>
<path d="M37.7476 84.4815H35.4961V86.733H37.7476V84.4815Z" fill="#2B478B"/>
<path d="M42.2495 84.4814H39.998V86.7329H42.2495V84.4814Z" fill="#2B478B"/>
<path d="M46.7515 84.4814H44.5V86.7329H46.7515V84.4814Z" fill="#2B478B"/>
<path d="M58.1421 84.4815H55.8906V86.733H58.1421V84.4815Z" fill="#2B478B"/>
<path d="M62.644 84.4816H60.3926V86.733H62.644V84.4816Z" fill="#2B478B"/>
<path d="M64.898 84.4814H62.6465V86.7329H64.898V84.4814Z" fill="#2B478B"/>
<path d="M69.5348 84.4814H67.1504V86.7329H69.5348V84.4814Z" fill="#2B478B"/>
<path d="M21.9839 84.4815H19.7324V86.733H21.9839V84.4815Z" fill="#2B478B"/>
<path d="M33.2437 82.23H30.9922V84.4815H33.2437V82.23Z" fill="#2B478B"/>
<path d="M37.7476 82.23H35.4961V84.4814H37.7476V82.23Z" fill="#2B478B"/>
<path d="M39.9976 82.23H37.7461V84.4814H39.9976V82.23Z" fill="#2B478B"/>
<path d="M42.2495 82.23H39.998V84.4815H42.2495V82.23Z" fill="#2B478B"/>
<path d="M46.7515 82.23H44.5V84.4815H46.7515V82.23Z" fill="#2B478B"/>
<path d="M49.0054 82.23H46.7539V84.4815H49.0054V82.23Z" fill="#2B478B"/>
<path d="M53.6401 82.23H51.3887V84.4815H53.6401V82.23Z" fill="#2B478B"/>
<path d="M58.1421 82.23H55.8906V84.4814H58.1421V82.23Z" fill="#2B478B"/>
<path d="M69.5348 82.23H67.1504V84.4815H69.5348V82.23Z" fill="#2B478B"/>
<path d="M21.9839 82.23H19.7324V84.4814H21.9839V82.23Z" fill="#2B478B"/>
<path d="M24.2358 79.9785H21.9844V82.23H24.2358V79.9785Z" fill="#2B478B"/>
<path d="M26.4878 79.9785H24.2363V82.23H26.4878V79.9785Z" fill="#2B478B"/>
<path d="M28.7397 79.9785H26.4883V82.23H28.7397V79.9785Z" fill="#2B478B"/>
<path d="M30.9917 79.9786H28.7402V82.23H30.9917V79.9786Z" fill="#2B478B"/>
<path d="M33.2437 79.9785H30.9922V82.23H33.2437V79.9785Z" fill="#2B478B"/>
<path d="M37.7476 79.9785H35.4961V82.23H37.7476V79.9785Z" fill="#2B478B"/>
<path d="M42.2495 79.9785H39.998V82.23H42.2495V79.9785Z" fill="#2B478B"/>
<path d="M44.4995 79.9785H42.248V82.23H44.4995V79.9785Z" fill="#2B478B"/>
<path d="M49.0054 79.9786H46.7539V82.23H49.0054V79.9786Z" fill="#2B478B"/>
<path d="M58.1421 79.9785H55.8906V82.23H58.1421V79.9785Z" fill="#2B478B"/>
<path d="M60.394 79.9785H58.1426V82.23H60.394V79.9785Z" fill="#2B478B"/>
<path d="M62.644 79.9786H60.3926V82.23H62.644V79.9786Z" fill="#2B478B"/>
<path d="M64.898 79.9785H62.6465V82.23H64.898V79.9785Z" fill="#2B478B"/>
<path d="M67.1518 79.9785H64.9004V82.23H67.1518V79.9785Z" fill="#2B478B"/>
<path d="M69.5348 79.9785H67.1504V82.23H69.5348V79.9785Z" fill="#2B478B"/>
<path d="M21.9839 79.9785H19.7324V82.23H21.9839V79.9785Z" fill="#2B478B"/>
<path d="M44.4995 77.7272H42.248V79.9787H44.4995V77.7272Z" fill="#2B478B"/>
<path d="M46.7515 77.7272H44.5V79.9787H46.7515V77.7272Z" fill="#2B478B"/>
<path d="M49.0054 77.7271H46.7539V79.9786H49.0054V77.7271Z" fill="#2B478B"/>
<path d="M53.6401 77.7271H51.3887V79.9786H53.6401V77.7271Z" fill="#2B478B"/>
<path d="M24.2358 75.4756H21.9844V77.7271H24.2358V75.4756Z" fill="#2B478B"/>
<path d="M26.4878 75.4756H24.2363V77.7271H26.4878V75.4756Z" fill="#2B478B"/>
<path d="M28.7397 75.4756H26.4883V77.7271H28.7397V75.4756Z" fill="#2B478B"/>
<path d="M30.9917 75.4756H28.7402V77.7271H30.9917V75.4756Z" fill="#2B478B"/>
<path d="M37.7476 75.4756H35.4961V77.7271H37.7476V75.4756Z" fill="#2B478B"/>
<path d="M39.9976 75.4756H37.7461V77.7271H39.9976V75.4756Z" fill="#2B478B"/>
<path d="M42.2495 75.4756H39.998V77.7271H42.2495V75.4756Z" fill="#2B478B"/>
<path d="M46.7515 75.4756H44.5V77.7271H46.7515V75.4756Z" fill="#2B478B"/>
<path d="M49.0054 75.4756H46.7539V77.7271H49.0054V75.4756Z" fill="#2B478B"/>
<path d="M51.3902 75.4756H49.0059V77.7271H51.3902V75.4756Z" fill="#2B478B"/>
<path d="M53.6401 75.4756H51.3887V77.7271H53.6401V75.4756Z" fill="#2B478B"/>
<path d="M55.8921 75.4756H53.6406V77.7271H55.8921V75.4756Z" fill="#2B478B"/>
<path d="M58.1421 75.4756H55.8906V77.7271H58.1421V75.4756Z" fill="#2B478B"/>
<path d="M60.394 75.4756H58.1426V77.7271H60.394V75.4756Z" fill="#2B478B"/>
<path d="M62.644 75.4756H60.3926V77.7271H62.644V75.4756Z" fill="#2B478B"/>
<path d="M67.1518 75.4756H64.9004V77.7271H67.1518V75.4756Z" fill="#2B478B"/>
<path d="M69.5348 75.4756H67.1504V77.7271H69.5348V75.4756Z" fill="#2B478B"/>
<path d="M26.4878 73.2242H24.2363V75.4757H26.4878V73.2242Z" fill="#2B478B"/>
<path d="M28.7397 73.2242H26.4883V75.4757H28.7397V73.2242Z" fill="#2B478B"/>
<path d="M35.4936 73.2242H33.2422V75.4757H35.4936V73.2242Z" fill="#2B478B"/>
<path d="M37.7476 73.2242H35.4961V75.4757H37.7476V73.2242Z" fill="#2B478B"/>
<path d="M42.2495 73.2242H39.998V75.4757H42.2495V73.2242Z" fill="#2B478B"/>
<path d="M49.0054 73.2242H46.7539V75.4757H49.0054V73.2242Z" fill="#2B478B"/>
<path d="M53.6401 73.2242H51.3887V75.4757H53.6401V73.2242Z" fill="#2B478B"/>
<path d="M55.8921 73.2242H53.6406V75.4757H55.8921V73.2242Z" fill="#2B478B"/>
<path d="M60.394 73.2242H58.1426V75.4757H60.394V73.2242Z" fill="#2B478B"/>
<path d="M62.644 73.2242H60.3926V75.4757H62.644V73.2242Z" fill="#2B478B"/>
<path d="M24.2358 70.9727H21.9844V73.2242H24.2358V70.9727Z" fill="#2B478B"/>
<path d="M28.7397 70.9727H26.4883V73.2242H28.7397V70.9727Z" fill="#2B478B"/>
<path d="M30.9917 70.9727H28.7402V73.2242H30.9917V70.9727Z" fill="#2B478B"/>
<path d="M33.2437 70.9727H30.9922V73.2242H33.2437V70.9727Z" fill="#2B478B"/>
<path d="M35.4936 70.9727H33.2422V73.2242H35.4936V70.9727Z" fill="#2B478B"/>
<path d="M39.9976 70.9727H37.7461V73.2242H39.9976V70.9727Z" fill="#2B478B"/>
<path d="M42.2495 70.9727H39.998V73.2242H42.2495V70.9727Z" fill="#2B478B"/>
<path d="M44.4995 70.9727H42.248V73.2242H44.4995V70.9727Z" fill="#2B478B"/>
<path d="M46.7515 70.9727H44.5V73.2242H46.7515V70.9727Z" fill="#2B478B"/>
<path d="M49.0054 70.9727H46.7539V73.2242H49.0054V70.9727Z" fill="#2B478B"/>
<path d="M51.3902 70.9727H49.0059V73.2242H51.3902V70.9727Z" fill="#2B478B"/>
<path d="M62.644 70.9727H60.3926V73.2242H62.644V70.9727Z" fill="#2B478B"/>
<path d="M64.898 70.9727H62.6465V73.2242H64.898V70.9727Z" fill="#2B478B"/>
<path d="M69.5348 70.9727H67.1504V73.2242H69.5348V70.9727Z" fill="#2B478B"/>
<path d="M21.9839 70.9727H19.7324V73.2242H21.9839V70.9727Z" fill="#2B478B"/>
<path d="M24.2358 68.7212H21.9844V70.9727H24.2358V68.7212Z" fill="#2B478B"/>
<path d="M26.4878 68.7212H24.2363V70.9727H26.4878V68.7212Z" fill="#2B478B"/>
<path d="M28.7397 68.7212H26.4883V70.9727H28.7397V68.7212Z" fill="#2B478B"/>
<path d="M37.7476 68.7213H35.4961V70.9727H37.7476V68.7213Z" fill="#2B478B"/>
<path d="M39.9976 68.7213H37.7461V70.9727H39.9976V68.7213Z" fill="#2B478B"/>
<path d="M49.0054 68.7212H46.7539V70.9727H49.0054V68.7212Z" fill="#2B478B"/>
<path d="M55.8921 68.7213H53.6406V70.9727H55.8921V68.7213Z" fill="#2B478B"/>
<path d="M58.1421 68.7213H55.8906V70.9727H58.1421V68.7213Z" fill="#2B478B"/>
<path d="M62.644 68.7212H60.3926V70.9727H62.644V68.7212Z" fill="#2B478B"/>
<path d="M64.898 68.7212H62.6465V70.9727H64.898V68.7212Z" fill="#2B478B"/>
<path d="M67.1518 68.7212H64.9004V70.9727H67.1518V68.7212Z" fill="#2B478B"/>
<path d="M69.5348 68.7212H67.1504V70.9727H69.5348V68.7212Z" fill="#2B478B"/>
<path d="M21.9839 68.7213H19.7324V70.9727H21.9839V68.7213Z" fill="#2B478B"/>
<path d="M28.7397 66.4698H26.4883V68.7213H28.7397V66.4698Z" fill="#2B478B"/>
<path d="M30.9917 66.4698H28.7402V68.7213H30.9917V66.4698Z" fill="#2B478B"/>
<path d="M33.2437 66.4698H30.9922V68.7213H33.2437V66.4698Z" fill="#2B478B"/>
<path d="M35.4936 66.4698H33.2422V68.7213H35.4936V66.4698Z" fill="#2B478B"/>
<path d="M37.7476 66.4697H35.4961V68.7212H37.7476V66.4697Z" fill="#2B478B"/>
<path d="M39.9976 66.4697H37.7461V68.7212H39.9976V66.4697Z" fill="#2B478B"/>
<path d="M46.7515 66.4698H44.5V68.7213H46.7515V66.4698Z" fill="#2B478B"/>
<path d="M53.6401 66.4698H51.3887V68.7213H53.6401V66.4698Z" fill="#2B478B"/>
<path d="M55.8921 66.4697H53.6406V68.7212H55.8921V66.4697Z" fill="#2B478B"/>
<path d="M64.898 66.4698H62.6465V68.7213H64.898V66.4698Z" fill="#2B478B"/>
<path d="M21.9839 66.4697H19.7324V68.7212H21.9839V66.4697Z" fill="#2B478B"/>
<path d="M24.2358 64.2184H21.9844V66.4699H24.2358V64.2184Z" fill="#2B478B"/>
<path d="M26.4878 64.2184H24.2363V66.4699H26.4878V64.2184Z" fill="#2B478B"/>
<path d="M28.7397 64.2184H26.4883V66.4699H28.7397V64.2184Z" fill="#2B478B"/>
<path d="M30.9917 64.2184H28.7402V66.4698H30.9917V64.2184Z" fill="#2B478B"/>
<path d="M35.4936 64.2184H33.2422V66.4699H35.4936V64.2184Z" fill="#2B478B"/>
<path d="M39.9976 64.2184H37.7461V66.4698H39.9976V64.2184Z" fill="#2B478B"/>
<path d="M42.2495 64.2184H39.998V66.4699H42.2495V64.2184Z" fill="#2B478B"/>
<path d="M46.7515 64.2184H44.5V66.4699H46.7515V64.2184Z" fill="#2B478B"/>
<path d="M49.0054 64.2184H46.7539V66.4698H49.0054V64.2184Z" fill="#2B478B"/>
<path d="M51.3902 64.2184H49.0059V66.4699H51.3902V64.2184Z" fill="#2B478B"/>
<path d="M53.6401 64.2184H51.3887V66.4698H53.6401V64.2184Z" fill="#2B478B"/>
<path d="M58.1421 64.2185H55.8906V66.47H58.1421V64.2185Z" fill="#2B478B"/>
<path d="M60.394 64.2184H58.1426V66.4699H60.394V64.2184Z" fill="#2B478B"/>
<path d="M62.644 64.2184H60.3926V66.4698H62.644V64.2184Z" fill="#2B478B"/>
<path d="M64.898 64.2184H62.6465V66.4699H64.898V64.2184Z" fill="#2B478B"/>
<path d="M69.5348 64.2184H67.1504V66.4699H69.5348V64.2184Z" fill="#2B478B"/>
<path d="M24.2358 61.9655H21.9844V64.217H24.2358V61.9655Z" fill="#2B478B"/>
<path d="M28.7397 61.9655H26.4883V64.217H28.7397V61.9655Z" fill="#2B478B"/>
<path d="M33.2437 61.9655H30.9922V64.217H33.2437V61.9655Z" fill="#2B478B"/>
<path d="M35.4936 61.9655H33.2422V64.217H35.4936V61.9655Z" fill="#2B478B"/>
<path d="M42.2495 61.9655H39.998V64.217H42.2495V61.9655Z" fill="#2B478B"/>
<path d="M44.4995 61.9655H42.248V64.217H44.4995V61.9655Z" fill="#2B478B"/>
<path d="M46.7515 61.9655H44.5V64.217H46.7515V61.9655Z" fill="#2B478B"/>
<path d="M51.3902 61.9655H49.0059V64.217H51.3902V61.9655Z" fill="#2B478B"/>
<path d="M53.6401 61.9656H51.3887V64.217H53.6401V61.9656Z" fill="#2B478B"/>
<path d="M55.8921 61.9655H53.6406V64.2169H55.8921V61.9655Z" fill="#2B478B"/>
<path d="M60.394 61.9655H58.1426V64.217H60.394V61.9655Z" fill="#2B478B"/>
<path d="M64.898 61.9655H62.6465V64.217H64.898V61.9655Z" fill="#2B478B"/>
<path d="M67.1518 61.9655H64.9004V64.217H67.1518V61.9655Z" fill="#2B478B"/>
<path d="M69.5348 61.9655H67.1504V64.217H69.5348V61.9655Z" fill="#2B478B"/>
<path d="M21.9839 61.9655H19.7324V64.2169H21.9839V61.9655Z" fill="#2B478B"/>
<path d="M24.2358 59.7141H21.9844V61.9656H24.2358V59.7141Z" fill="#2B478B"/>
<path d="M33.2437 59.7141H30.9922V61.9656H33.2437V59.7141Z" fill="#2B478B"/>
<path d="M35.4936 59.7141H33.2422V61.9656H35.4936V59.7141Z" fill="#2B478B"/>
<path d="M39.9976 59.7141H37.7461V61.9656H39.9976V59.7141Z" fill="#2B478B"/>
<path d="M42.2495 59.7141H39.998V61.9656H42.2495V59.7141Z" fill="#2B478B"/>
<path d="M46.7515 59.7141H44.5V61.9656H46.7515V59.7141Z" fill="#2B478B"/>
<path d="M49.0054 59.7141H46.7539V61.9656H49.0054V59.7141Z" fill="#2B478B"/>
<path d="M53.6401 59.7141H51.3887V61.9656H53.6401V59.7141Z" fill="#2B478B"/>
<path d="M55.8921 59.7141H53.6406V61.9656H55.8921V59.7141Z" fill="#2B478B"/>
<path d="M58.1421 59.7141H55.8906V61.9656H58.1421V59.7141Z" fill="#2B478B"/>
<path d="M60.394 59.7141H58.1426V61.9656H60.394V59.7141Z" fill="#2B478B"/>
<path d="M62.644 59.7141H60.3926V61.9656H62.644V59.7141Z" fill="#2B478B"/>
<path d="M64.898 59.7141H62.6465V61.9656H64.898V59.7141Z" fill="#2B478B"/>
<path d="M21.9839 59.7141H19.7324V61.9656H21.9839V59.7141Z" fill="#2B478B"/>
<path d="M39.9976 57.4625H37.7461V59.7139H39.9976V57.4625Z" fill="#2B478B"/>
<path d="M44.4995 57.4626H42.248V59.7141H44.4995V57.4626Z" fill="#2B478B"/>
<path d="M46.7515 57.4626H44.5V59.7141H46.7515V57.4626Z" fill="#2B478B"/>
<path d="M51.3902 57.4624H49.0059V59.7139H51.3902V57.4624Z" fill="#2B478B"/>
<path d="M53.6401 57.4625H51.3887V59.7139H53.6401V57.4625Z" fill="#2B478B"/>
<path d="M55.8921 57.4624H53.6406V59.7139H55.8921V57.4624Z" fill="#2B478B"/>
<path d="M24.2358 55.2112H21.9844V57.4626H24.2358V55.2112Z" fill="#2B478B"/>
<path d="M26.4878 55.2112H24.2363V57.4626H26.4878V55.2112Z" fill="#2B478B"/>
<path d="M28.7397 55.2112H26.4883V57.4626H28.7397V55.2112Z" fill="#2B478B"/>
<path d="M30.9917 55.2112H28.7402V57.4626H30.9917V55.2112Z" fill="#2B478B"/>
<path d="M33.2437 55.2112H30.9922V57.4626H33.2437V55.2112Z" fill="#2B478B"/>
<path d="M37.7476 55.2111H35.4961V57.4626H37.7476V55.2111Z" fill="#2B478B"/>
<path d="M39.9976 55.2111H37.7461V57.4626H39.9976V55.2111Z" fill="#2B478B"/>
<path d="M46.7515 55.2112H44.5V57.4626H46.7515V55.2112Z" fill="#2B478B"/>
<path d="M55.8921 55.2111H53.6406V57.4626H55.8921V55.2111Z" fill="#2B478B"/>
<path d="M58.1421 55.2111H55.8906V57.4626H58.1421V55.2111Z" fill="#2B478B"/>
<path d="M62.644 55.2112H60.3926V57.4626H62.644V55.2112Z" fill="#2B478B"/>
<path d="M69.5348 55.2112H67.1504V57.4626H69.5348V55.2112Z" fill="#2B478B"/>
<path d="M21.9839 55.2111H19.7324V57.4626H21.9839V55.2111Z" fill="#2B478B"/>
<path d="M33.2437 52.9597H30.9922V55.2111H33.2437V52.9597Z" fill="#2B478B"/>
<path d="M51.3902 52.9597H49.0059V55.2111H51.3902V52.9597Z" fill="#2B478B"/>
<path d="M53.6401 52.9597H51.3887V55.2111H53.6401V52.9597Z" fill="#2B478B"/>
<path d="M58.1421 52.9596H55.8906V55.2111H58.1421V52.9596Z" fill="#2B478B"/>
<path d="M60.394 52.9597H58.1426V55.2111H60.394V52.9597Z" fill="#2B478B"/>
<path d="M64.898 52.9597H62.6465V55.2111H64.898V52.9597Z" fill="#2B478B"/>
<path d="M67.1518 52.9597H64.9004V55.2111H67.1518V52.9597Z" fill="#2B478B"/>
<path d="M69.5348 52.9597H67.1504V55.2112H69.5348V52.9597Z" fill="#2B478B"/>
<path d="M21.9839 52.9597H19.7324V55.2112H21.9839V52.9597Z" fill="#2B478B"/>
<path d="M26.4878 50.7082H24.2363V52.9597H26.4878V50.7082Z" fill="#2B478B"/>
<path d="M28.7397 50.7082H26.4883V52.9597H28.7397V50.7082Z" fill="#2B478B"/>
<path d="M33.2437 50.7082H30.9922V52.9597H33.2437V50.7082Z" fill="#2B478B"/>
<path d="M37.7476 50.7083H35.4961V52.9597H37.7476V50.7083Z" fill="#2B478B"/>
<path d="M39.9976 50.7083H37.7461V52.9597H39.9976V50.7083Z" fill="#2B478B"/>
<path d="M44.4995 50.7081H42.248V52.9596H44.4995V50.7081Z" fill="#2B478B"/>
<path d="M46.7515 50.7081H44.5V52.9596H46.7515V50.7081Z" fill="#2B478B"/>
<path d="M51.3902 50.7082H49.0059V52.9597H51.3902V50.7082Z" fill="#2B478B"/>
<path d="M60.394 50.7082H58.1426V52.9597H60.394V50.7082Z" fill="#2B478B"/>
<path d="M62.644 50.7082H60.3926V52.9597H62.644V50.7082Z" fill="#2B478B"/>
<path d="M64.898 50.7082H62.6465V52.9597H64.898V50.7082Z" fill="#2B478B"/>
<path d="M21.9839 50.7081H19.7324V52.9596H21.9839V50.7081Z" fill="#2B478B"/>
<path d="M26.4878 48.4567H24.2363V50.7081H26.4878V48.4567Z" fill="#2B478B"/>
<path d="M28.7397 48.4567H26.4883V50.7081H28.7397V48.4567Z" fill="#2B478B"/>
<path d="M33.2437 48.4567H30.9922V50.7081H33.2437V48.4567Z" fill="#2B478B"/>
<path d="M37.7476 48.4567H35.4961V50.7082H37.7476V48.4567Z" fill="#2B478B"/>
<path d="M42.2495 48.4567H39.998V50.7081H42.2495V48.4567Z" fill="#2B478B"/>
<path d="M44.4995 48.4567H42.248V50.7081H44.4995V48.4567Z" fill="#2B478B"/>
<path d="M46.7515 48.4567H44.5V50.7081H46.7515V48.4567Z" fill="#2B478B"/>
<path d="M49.0054 48.4567H46.7539V50.7081H49.0054V48.4567Z" fill="#2B478B"/>
<path d="M51.3902 48.4567H49.0059V50.7081H51.3902V48.4567Z" fill="#2B478B"/>
<path d="M55.8921 48.4567H53.6406V50.7082H55.8921V48.4567Z" fill="#2B478B"/>
<path d="M58.1421 48.4567H55.8906V50.7082H58.1421V48.4567Z" fill="#2B478B"/>
<path d="M60.394 48.4567H58.1426V50.7081H60.394V48.4567Z" fill="#2B478B"/>
<path d="M64.898 48.4567H62.6465V50.7081H64.898V48.4567Z" fill="#2B478B"/>
<path d="M67.1518 48.4567H64.9004V50.7081H67.1518V48.4567Z" fill="#2B478B"/>
<path d="M69.5348 48.4567H67.1504V50.7081H69.5348V48.4567Z" fill="#2B478B"/>
<path d="M21.9839 48.4567H19.7324V50.7082H21.9839V48.4567Z" fill="#2B478B"/>
<path d="M33.2437 46.2055H30.9922V48.457H33.2437V46.2055Z" fill="#2B478B"/>
<path d="M42.2495 46.2055H39.998V48.457H42.2495V46.2055Z" fill="#2B478B"/>
<path d="M44.4995 46.2053H42.248V48.4567H44.4995V46.2053Z" fill="#2B478B"/>
<path d="M49.0054 46.2054H46.7539V48.4569H49.0054V46.2054Z" fill="#2B478B"/>
<path d="M51.3902 46.2055H49.0059V48.457H51.3902V46.2055Z" fill="#2B478B"/>
<path d="M53.6401 46.2054H51.3887V48.4569H53.6401V46.2054Z" fill="#2B478B"/>
<path d="M55.8921 46.2054H53.6406V48.4569H55.8921V46.2054Z" fill="#2B478B"/>
<path d="M67.1518 46.2055H64.9004V48.457H67.1518V46.2055Z" fill="#2B478B"/>
<path d="M21.9839 46.2053H19.7324V48.4567H21.9839V46.2053Z" fill="#2B478B"/>
<path d="M24.2358 43.9539H21.9844V46.2053H24.2358V43.9539Z" fill="#2B478B"/>
<path d="M26.4878 43.9539H24.2363V46.2053H26.4878V43.9539Z" fill="#2B478B"/>
<path d="M28.7397 43.9539H26.4883V46.2053H28.7397V43.9539Z" fill="#2B478B"/>
<path d="M30.9917 43.9538H28.7402V46.2053H30.9917V43.9538Z" fill="#2B478B"/>
<path d="M33.2437 43.9539H30.9922V46.2053H33.2437V43.9539Z" fill="#2B478B"/>
<path d="M37.7476 43.9539H35.4961V46.2053H37.7476V43.9539Z" fill="#2B478B"/>
<path d="M39.9976 43.9537H37.7461V46.2052H39.9976V43.9537Z" fill="#2B478B"/>
<path d="M51.3902 43.9539H49.0059V46.2053H51.3902V43.9539Z" fill="#2B478B"/>
<path d="M55.8921 43.9539H53.6406V46.2053H55.8921V43.9539Z" fill="#2B478B"/>
<path d="M60.394 43.9539H58.1426V46.2053H60.394V43.9539Z" fill="#2B478B"/>
<path d="M62.644 43.9538H60.3926V46.2053H62.644V43.9538Z" fill="#2B478B"/>
<path d="M69.5348 43.9539H67.1504V46.2053H69.5348V43.9539Z" fill="#2B478B"/>
<path d="M21.9839 43.9539H19.7324V46.2053H21.9839V43.9539Z" fill="#2B478B"/>
<g opacity="0.8">
<path d="M12.2084 48.3876C11.7663 48.3876 11.4082 48.0295 11.4082 47.5874V36.6678C11.4082 36.2256 11.7663 35.8676 12.2084 35.8676H23.227C23.6692 35.8676 24.0272 36.2256 24.0272 36.6678C24.0272 37.1099 23.6692 37.468 23.227 37.468H13.01V47.5874C13.0086 48.0295 12.6506 48.3876 12.2084 48.3876Z" fill="white"/>
<path d="M77.0616 48.4365C76.6194 48.4365 76.2614 48.0785 76.2614 47.6363V37.4193H66.142C65.6998 37.4193 65.3418 37.0612 65.3418 36.6191C65.3418 36.1769 65.6998 35.8188 66.142 35.8188H77.0616C77.5038 35.8188 77.8618 36.1769 77.8618 36.6191V47.6377C77.8632 48.0785 77.5038 48.4365 77.0616 48.4365Z" fill="white"/>
</g>
<g opacity="0.8">
<path d="M77.061 103.312H66.0424C65.6003 103.312 65.2422 102.954 65.2422 102.512C65.2422 102.07 65.6003 101.711 66.0424 101.711H76.2594V91.5912C76.2594 91.1491 76.6175 90.791 77.0597 90.791C77.5018 90.791 77.8599 91.1491 77.8599 91.5912V102.511C77.8626 102.954 77.5032 103.312 77.061 103.312Z" fill="white"/>
<path d="M23.128 103.361H12.2084C11.7663 103.361 11.4082 103.003 11.4082 102.561V91.5424C11.4082 91.1003 11.7663 90.7422 12.2084 90.7422C12.6506 90.7422 13.0086 91.1003 13.0086 91.5424V101.759H23.128C23.5702 101.759 23.9282 102.117 23.9282 102.56C23.9282 103.002 23.5702 103.361 23.128 103.361Z" fill="white"/>
</g>
<path d="M72.9666 118.506V120.037C72.9666 120.872 72.283 121.555 71.4489 121.555H17.8302C16.9947 121.555 16.3125 120.871 16.3125 120.037V118.506C16.3125 117.67 16.9961 116.988 17.8302 116.988H71.4489C72.283 116.988 72.9666 117.67 72.9666 118.506Z" fill="white"/>
<path d="M55.8982 116.988V121.555H17.8322C16.9967 121.555 16.3145 120.871 16.3145 120.037V118.506C16.3145 117.67 16.998 116.988 17.8322 116.988H55.8982Z" fill="#007490"/>
<path d="M47.9698 116.988L43.7584 121.555H35.877L40.0896 116.988H47.9698Z" fill="#6ED1EA"/>
<path d="M55.8994 116.988V121.555H48.5957L52.807 116.988H55.8994Z" fill="#6ED1EA"/>
<path d="M35.2803 116.988L31.0676 121.555H23.1875L27.4002 116.988H35.2803Z" fill="#6ED1EA"/>
<path d="M22.5933 116.988L18.3806 121.555H17.8029C16.9674 121.555 16.2852 120.871 16.2852 120.037V118.506C16.2852 117.67 16.9687 116.988 17.8029 116.988H22.5933Z" fill="#6ED1EA"/>
<path d="M38.8281 114.381L39.1279 114.026C39.3991 114.261 39.6704 114.393 40.0217 114.393C40.3295 114.393 40.5235 114.252 40.5235 114.03C40.5235 113.828 40.4096 113.718 39.8847 113.593C39.2825 113.452 38.942 113.273 38.942 112.744C38.942 112.259 39.3462 111.922 39.9091 111.922C40.3214 111.922 40.6496 112.047 40.9372 112.278L40.67 112.653C40.415 112.463 40.16 112.362 39.9009 112.362C39.6093 112.362 39.4398 112.511 39.4398 112.706C39.4398 112.925 39.57 113.022 40.1112 113.151C40.7107 113.296 41.0213 113.512 41.0213 113.988C41.0213 114.518 40.6049 114.833 40.0095 114.833C39.5768 114.834 39.1672 114.685 38.8281 114.381Z" fill="white"/>
<path d="M41.4805 113.378C41.4805 112.572 42.084 111.913 42.9412 111.913C43.4634 111.913 43.778 112.094 44.0493 112.354L43.7292 112.721C43.5027 112.511 43.2599 112.368 42.9358 112.368C42.3933 112.368 42.0013 112.813 42.0013 113.376C42.0013 113.931 42.3933 114.384 42.9358 114.384C43.2843 114.384 43.5068 114.243 43.7496 114.016L44.0696 114.341C43.774 114.648 43.4512 114.842 42.9209 114.842C42.0949 114.842 41.4805 114.199 41.4805 113.378Z" fill="white"/>
<path d="M45.598 111.941H46.0591L47.3056 114.793H46.7793L46.4918 114.11H45.1531L44.8615 114.793H44.3516L45.598 111.941ZM46.3101 113.669L45.8204 112.537L45.3349 113.669H46.3101Z" fill="white"/>
<path d="M47.7891 111.962H48.2502L49.7679 113.92V111.962H50.2575V114.794H49.8411L48.28 112.778V114.794H47.7904V111.962H47.7891Z" fill="white"/>
<path d="M87.1208 92.0535C89.7331 91.2913 92.683 92.1661 94.5276 94.168C99.0875 99.1212 95.7252 102.939 98.0079 106.406C99.3872 108.5 100.546 112.169 96.2732 114.339C94.2984 115.343 88.4134 120.586 87.209 120.709C74.9982 121.964 74.7785 109.576 78.8948 105.985C84.6781 100.94 79.3926 94.3077 87.1208 92.0535Z" fill="#233862"/>
<path d="M93.4981 111.205C93.4981 111.205 104.642 116.603 106.729 116.512C108.816 116.421 121.864 111.826 121.864 111.826L121.537 114.038C121.537 114.038 111.61 119.747 108.141 120.071C104.724 120.389 93.041 117.004 91.914 116.289C90.7855 115.576 90.2213 111.929 93.4981 111.205Z" fill="#E7CAAD"/>
<path d="M94.726 116.297C93.7156 116.999 92.4501 117.576 90.8606 117.943C84.901 119.319 82.6169 114.283 81.7598 110.826C82.5722 110.361 83.3371 110.259 83.7793 110.206C84.2106 110.156 84.6636 110.122 85.038 110.103C85.7066 109.591 86.7048 107.494 86.9246 104.236L87.2053 104.31L91.9022 105.596C91.9022 105.596 91.6866 107.09 91.5821 108.5C91.5007 109.604 91.4872 110.659 91.6974 110.918C92.0636 110.998 92.2833 111.05 92.2833 111.05C92.2833 111.05 92.2833 111.051 92.286 111.054C92.3471 111.156 93.7088 113.396 94.726 116.297Z" fill="#EAC1A4"/>
<path d="M91.902 105.596C91.902 105.596 91.6863 107.088 91.5819 108.5C88.9208 108.234 87.6866 105.701 87.2051 104.31L91.902 105.596Z" fill="#E7BA9B"/>
<path d="M92.6976 106.997C92.6976 106.997 86.3813 106.649 86.6593 102.719C86.9374 98.7902 86.3094 96.098 90.3525 96.1549C94.397 96.2119 95.0738 97.7662 95.3003 99.1008C95.5268 100.435 94.3468 106.986 92.6976 106.997Z" fill="#EAC1A4"/>
<path d="M95.2685 96.901C94.3788 95.6491 93.6233 95.8553 93.1839 96.1808C89.8718 94.0378 87.4494 96.6812 87.4494 96.6812C86.8255 99.4698 84.6758 100.94 84.6758 100.94C84.6758 100.94 85.7947 101.835 88.4734 101.241C91.9008 100.482 93.0781 97.5086 93.2381 97.0529C93.5989 97.4258 94.0641 97.6632 94.4208 98.4743C94.8453 99.4359 95.1112 99.9947 95.1193 101.575C95.1193 101.576 96.6031 98.7794 95.2685 96.901Z" fill="#233862"/>
<path d="M79.9587 129.138C79.3877 126.222 77.5282 114.574 79.3877 110.825C80.055 109.478 82.6767 109.357 85.5521 109.475C86.4472 110.053 89.8556 112.235 91.2567 111.963C91.2716 111.96 91.2987 111.953 91.3354 111.944C91.9945 111.778 92.2441 111.316 91.6934 110.916C91.6921 110.914 92.9561 111.005 94.7248 111.338C95.7243 111.526 98.4668 113.209 98.4668 113.209C98.4668 113.209 97.2231 115.145 95.2225 115.99C95.563 119.033 95.057 120.376 91.8996 127.404C89.2317 133.346 92.259 138.695 92.259 138.695C92.259 138.695 76.5544 151.321 76.4676 144.892C76.4011 140.055 80.6884 132.865 79.9587 129.138Z" fill="#3E6897"/>
<path d="M93.0405 152.427C93.895 152.33 94.664 151.862 95.1414 151.148C95.2173 151.034 95.2987 150.912 95.3842 150.781C97.1718 148.076 97.8676 139.789 101.888 130.959C102.867 128.809 106.382 128.423 107.341 125.994C107.341 125.994 109.701 118.118 102.825 117.886C95.9484 117.654 84.4117 139.798 84.2299 142.121C84.0536 144.372 79.6836 153.934 93.0405 152.427Z" fill="#092956"/>
<path d="M120.368 152.381H110.582C110.582 152.381 110.216 150.779 110.859 149.688C111.427 148.724 111.21 148.173 110.789 147.376C111.232 147.562 111.806 147.731 112.436 147.695C112.923 147.666 113.44 147.438 113.892 147.17C114.314 147.662 116.116 149.762 116.68 150.177C117.319 150.647 120.171 150.479 120.368 152.381Z" fill="#5572A6"/>
<path d="M107.566 120.163C108.155 124.58 110.457 138.523 114.516 145.326C115.825 147.52 111.219 148.748 111.194 148.743C110.577 148.582 109.548 147.597 109.073 147.17C105.777 144.199 99.088 135.79 99.088 129.048C99.088 125.76 99.0311 119.482 101.421 117.886C102.892 116.902 107.332 118.408 107.566 120.163Z" fill="#092956"/>
<path d="M80.3438 116.291C80.3438 116.291 82.3294 120.331 91.5997 123.185C100.87 126.04 95.5669 118.868 95.5669 118.868L82.6074 114.339L80.3438 116.291Z" fill="#336195"/>
<path d="M88.2608 152.436C88.2608 152.436 88.7572 151.693 89.0718 150.588C89.5981 148.742 89.7853 147.397 90.7957 144.522C91.8577 141.503 93.1163 137.789 94.6896 133.925C95.1752 132.733 95.6906 131.526 96.2399 130.32C97.2192 128.171 99.9141 128.468 100.872 126.038C100.872 126.038 104.612 117.616 97.7359 117.382C90.8608 117.151 77.7955 139.916 77.0455 142.12C76.2222 144.536 73.2696 154.749 88.2608 152.436Z" fill="#163560"/>
<path d="M113.183 152.381H103.397C103.397 152.381 103.031 150.779 103.674 149.688C104.242 148.724 104.025 148.173 103.603 147.376C104.046 147.562 104.62 147.731 105.251 147.695C105.738 147.666 106.255 147.438 106.706 147.17C107.128 147.662 108.931 149.762 109.495 150.177C110.135 150.647 112.986 150.479 113.183 152.381Z" fill="#5572A6"/>
<g opacity="0.5">
<path d="M90.7951 144.523C91.857 141.504 93.1157 137.791 94.689 133.927C94.278 131 93.391 128.438 91.9004 127.406C91.9018 127.407 88.2845 138.61 90.7951 144.523Z" fill="#535353"/>
</g>
<path d="M101.854 119.85C102.443 124.267 103.273 138.523 107.332 145.326C108.641 147.519 104.035 148.748 104.011 148.743C103.394 148.581 102.364 147.597 101.889 147.17C98.5936 144.199 91.9043 135.79 91.9043 129.048C91.9043 125.76 95.763 119.745 98.1528 118.15C99.6244 117.165 101.619 118.096 101.854 119.85Z" fill="#163560"/>
<path d="M123.034 106.133L113.013 105.069C112.721 105.037 112.444 105.207 112.34 105.482L108.754 114.905C108.596 115.318 108.891 115.763 109.333 115.781L119.277 116.182C119.547 116.193 119.795 116.034 119.9 115.786L123.563 107.027C123.73 106.627 123.466 106.179 123.034 106.133Z" fill="#058AAA"/>
<path d="M123.903 106.224L113.882 105.16C113.59 105.128 113.313 105.298 113.209 105.573L109.623 114.995C109.466 115.409 109.76 115.854 110.202 115.872L120.146 116.273C120.416 116.284 120.665 116.125 120.769 115.876L124.432 107.117C124.599 106.718 124.333 106.27 123.903 106.224Z" fill="#007490"/>
<path d="M118.351 110.624C118.473 110.288 118.299 110.015 117.963 110.015C117.626 110.015 117.255 110.288 117.133 110.624C117.011 110.96 117.184 111.233 117.521 111.233C117.857 111.233 118.229 110.96 118.351 110.624Z" fill="#EBF3FA"/>
<path d="M123.605 107.115C123.665 106.95 123.581 106.815 123.416 106.815C123.25 106.815 123.067 106.95 123.007 107.115C122.948 107.281 123.033 107.415 123.197 107.415C123.361 107.415 123.546 107.281 123.605 107.115Z" fill="#EBF3FA"/>
<path d="M81.7575 110.825C81.7575 110.825 95.6474 115.939 97.7334 115.835C99.0829 115.767 110.294 111.826 110.294 111.826L111.3 113.73C111.3 113.73 100.388 120.743 97.3875 120.71C91.4646 120.642 81.47 117.005 80.3429 116.291C79.2158 115.576 78.4807 111.549 81.7575 110.825Z" fill="#EAC1A4"/>
<path d="M110.301 111.826C110.301 111.826 111.307 110.277 112.309 110.231C113.312 110.185 115.042 110.914 115.635 111.028C116.228 111.142 117.912 111.689 117.412 112.509C116.91 113.33 114.587 113.512 113.586 113.33C112.583 113.148 111.309 113.731 111.309 113.731L110.301 111.826Z" fill="#EAC1A4"/>
<path d="M112.033 110.28C112.033 110.28 113.627 109.549 114.083 109.412C114.538 109.275 114.447 109.414 114.31 109.846C114.173 110.277 113.354 110.689 113.354 110.825C113.354 110.96 112.033 110.28 112.033 110.28Z" fill="#E7CAAD"/>
<path d="M122.874 111.007C122.874 111.007 122.238 108.911 121.54 109.57C120.813 110.255 121.254 110.94 121.343 111.814C121.513 113.483 121.85 113.411 122.065 113.337C122.279 113.262 123.11 111.846 122.874 111.007Z" fill="#EAC1A4"/>
<path d="M122.908 111.325C122.908 111.325 123.229 113.109 121.535 114.039L122.037 112.812L122.908 111.325Z" fill="#E7CAAD"/>
<path d="M93.8768 104.738C93.8768 104.738 93.2801 104.502 91.5996 104.637C91.5996 104.637 91.6891 105.292 92.9274 105.357C93.63 105.394 93.8768 104.738 93.8768 104.738Z" fill="white"/>
<path d="M88.9148 113.347C88.9148 113.347 87.6724 117.279 83.4068 118.175C83.4068 118.175 76.3622 116.004 79.8696 111.205C79.8696 111.205 83.3377 108.628 88.9148 113.347Z" fill="#3E6897"/>
<path d="M122.911 111.577C122.911 111.577 123.204 110.596 123.22 110.426C123.237 110.256 123.216 110.171 123.066 110.29C122.915 110.41 122.685 110.724 122.752 111.021C122.82 111.318 122.911 111.577 122.911 111.577Z" fill="#E7CAAD"/>
</svg>
