<svg width="119" height="119" viewBox="0 0 119 119" fill="none" xmlns="http://www.w3.org/2000/svg">
<path d="M74.8605 113.72L77.242 115.247L78.0687 116.461C78.0687 116.461 77.2213 116.885 76.7456 117.004C76.27 117.122 72.4946 116.719 72.4946 116.719L72.3926 114.508L74.8605 113.72Z" fill="#273140"/>
<path d="M62.9589 115.386L64.1366 116.706C64.1366 116.706 65.0948 118.494 64.614 118.468C64.1332 118.441 61.5234 118.581 61.3487 118.282C61.1723 117.982 59.787 116.939 59.6072 116.737C59.4256 116.535 59.6106 114.855 59.6106 114.855L62.9589 115.386Z" fill="#273140"/>
<path d="M69.6878 80.2767L66.7304 98.2597L62.9567 115.388L59.5946 115.196L60.2432 97.1182C60.2432 97.1182 57.8202 80.5033 57.8115 75.5898L69.6878 80.2767Z" fill="#263238"/>
<path d="M77.1068 81.1618L75.7544 114.352L72.2955 114.511L70.4553 97.6488L67.7764 82.7668L74.926 73.5591L77.1068 81.1618Z" fill="#263238"/>
<path d="M75.297 63.6871C73.4828 54.8599 75.7864 50.6054 71.8156 48.1513C71.8156 48.1513 65.3474 46.3751 61.2278 49.3308C61.1707 49.3723 61.1136 49.4138 61.0583 49.4553L59.5606 52.5666L58.4243 66.5286C58.4243 66.5286 55.2456 84.8592 56.9335 85.0062C58.8446 85.174 67.6199 81.0855 69.2854 81.1806C70.9508 81.2775 76.0476 82.1906 80.8589 80.5528C84.9837 79.152 77.1095 72.5143 75.297 63.6871Z" fill="#3E6897"/>
<path d="M67.2525 47.8804L65.9952 47.9288L65.8672 49.1948L70.4883 62.1191L71.5243 56.5191L70.3932 48.3836L67.2525 47.8804Z" fill="white"/>
<path d="M71.0519 67.0864L69.2705 81.1591L73.0252 81.69L75.6228 81.4877L72.3386 69.2794L71.0519 67.0864Z" fill="white"/>
<path d="M68.9583 48.4401C68.0953 48.4764 67.234 48.511 66.371 48.5473C66.2672 47.8677 66.2171 47.1793 66.2223 46.491C65.4786 46.3423 64.607 46.0828 64.3787 45.3599C64.306 45.1316 64.3129 44.8878 64.3216 44.6491C64.3527 43.6616 64.076 42.6602 64.4133 41.6865C64.5257 41.3631 64.4375 40.993 64.5776 40.6817C64.8249 40.1352 65.4112 39.8291 65.9819 39.6458C67.4381 39.1771 69.1105 39.2705 70.4059 40.0851C70.75 40.3012 71.0734 40.5762 71.2619 40.936C71.5542 41.4911 71.4885 42.1604 71.4141 42.783C71.3467 43.3589 71.2792 43.9348 71.2118 44.509C71.134 45.1714 70.9939 45.9307 70.4128 46.2575C70.1049 46.4305 69.7141 46.4478 69.4443 46.6778C68.9721 47.0825 69.1503 47.8469 68.9583 48.4401Z" fill="#E7CAAD"/>
<path d="M72.6645 35.6112C72.4708 35.594 72.2737 35.5697 72.0679 35.5006C71.4228 35.2826 70.9403 34.7759 70.2588 34.5788C68.8787 34.1775 67.2081 34.3937 65.9421 35.0578C64.7297 35.6925 63.0331 36.0419 61.9678 36.8461C61.5233 37.1816 61.1982 37.6555 60.963 38.1622C60.1501 39.9142 60.4562 42.1279 61.7136 43.5927C61.9955 43.9213 62.3189 44.2119 62.6544 44.4869C63.3479 45.0541 64.1815 45.7598 65.0445 45.8843C64.9598 45.1406 63.9567 42.9009 64.4392 42.2126C65.0808 41.3012 66.4817 41.2043 67.4917 41.213C68.6954 41.2234 69.6466 40.7564 70.8434 40.7149C71.4522 40.6941 72.1492 40.7581 72.5815 40.3275C73.0813 39.8294 74.0965 38.2988 74.3127 37.6451C74.503 37.0744 74.2868 36.4085 73.8388 36.0056C73.4566 35.6597 73.0692 35.6493 72.6645 35.6112Z" fill="#263238"/>
<path d="M80.7735 55.0523L72.9391 47.9546L71.0557 49.5422L77.5412 60.3722L80.4691 60.6523C80.4691 60.6523 81.3131 57.6379 81.4861 57.3179L80.7735 55.0523Z" fill="#3E6897"/>
<path d="M62.1451 80.8359C60.644 79.4818 58.8747 78.847 56.8893 78.9491C54.9039 79.0511 53.209 79.864 51.8548 81.3651C50.4989 82.8681 49.8642 84.6373 49.968 86.621C50.07 88.6064 50.8829 90.3013 52.384 91.6555C52.979 92.1916 53.6171 92.6153 54.2934 92.9249C55.3224 93.3953 56.4414 93.6011 57.6399 93.5406C59.627 93.4385 61.3202 92.6257 62.6744 91.1228C64.0268 89.6234 64.6615 87.8541 64.5612 85.8669C64.4592 83.8832 63.6463 82.1884 62.1451 80.8359Z" fill="white"/>
<path d="M64.5626 85.8686C64.4588 83.8814 63.646 82.1883 62.1465 80.8358C61.6623 80.3983 61.1486 80.0386 60.6108 79.7515C61.4323 80.8704 61.8871 82.1623 61.9615 83.6099C62.0618 85.5988 61.4271 87.3663 60.0746 88.8658C58.7205 90.3669 57.0273 91.1798 55.0402 91.2835C53.8416 91.3441 52.7227 91.1383 51.6937 90.6679C51.5674 90.6108 51.4429 90.5468 51.3184 90.4811C51.6245 90.8961 51.9773 91.2905 52.3854 91.6571C52.9804 92.1932 53.6185 92.617 54.2948 92.9265C55.3238 93.397 56.4428 93.6028 57.6413 93.5422C59.6284 93.4402 61.3216 92.6273 62.6758 91.1244C64.0282 89.6267 64.6629 87.8575 64.5626 85.8686Z" fill="#E7E7E7"/>
<path d="M118.777 54.4839C118.227 48.4533 115.197 42.9138 109.773 38.0211C104.35 33.1302 98.5057 30.6622 92.399 30.6847C87.0912 30.7055 82.3092 32.6702 78.1845 36.5269C77.4892 37.1771 77.0949 38.0955 77.1036 39.0467C77.1122 39.9979 77.5221 40.9093 78.2277 41.5475L81.4566 44.4599C82.7451 45.6221 84.6994 45.629 86.0017 44.4755C88.3105 42.4295 90.7162 41.4247 93.3571 41.4057C96.5531 41.3815 99.7509 42.7927 102.862 45.5979C105.963 48.3945 107.644 51.4504 107.86 54.6759C108.071 57.891 106.788 61.0645 104.047 64.1049C100.266 68.2954 96.5203 70.037 92.9091 69.2795C89.1078 68.4805 84.5489 65.6528 79.3501 60.8708L77.9527 59.6101C76.557 58.351 74.3987 58.4634 73.1413 59.8574L62.1627 72.0294C61.5539 72.7056 61.2426 73.5772 61.291 74.4869C61.3377 75.3966 61.7355 76.2319 62.4117 76.8407L65.6873 79.7947C65.952 80.0333 66.2425 80.2218 66.5503 80.3619C67.8682 80.9638 69.4801 80.6767 70.5005 79.5456L77.6103 71.6627C77.6985 71.5641 77.8507 71.5555 77.9493 71.6385C84.2013 76.9808 90.1143 79.8552 95.5224 80.182C101.275 80.5279 106.79 77.8231 111.914 72.1418C117.018 66.4881 119.327 60.5457 118.777 54.4839Z" fill="white"/>
<path d="M118.776 54.484C118.226 48.4533 115.196 42.9138 109.772 38.0212C106.415 34.9929 102.894 32.895 99.252 31.7397C100.968 32.774 102.649 34.033 104.292 35.5134C109.715 40.4061 112.745 45.9439 113.295 51.9762C113.845 58.038 111.536 63.9805 106.433 69.6393C101.308 75.3206 95.7931 78.0255 90.0409 77.6796C88.3789 77.5793 86.6701 77.2386 84.9199 76.6592C88.621 78.802 92.1699 79.985 95.5233 80.1873C101.275 80.5332 106.791 77.8283 111.915 72.147C117.017 66.4882 119.326 60.5457 118.776 54.484Z" fill="#E7E7E7"/>
<path d="M62.5998 48.5474L58.8884 49.6905L50.0059 64.832L50.6112 67.76L62.1173 73.5122L63.7326 70.3836L56.4654 64.832L60.9067 58.7754L62.6223 49.0852L62.5998 48.5474Z" fill="#3E6897"/>
<path d="M72.7861 48.0837L70.9001 46.0576L69.0816 46.5629L68.5781 48.3813L70.1925 48.6841L71.7116 48.9904L72.7861 48.0837Z" fill="#EAC1A4"/>
<path d="M63.574 70.6934L65.3873 71.0654L65.0966 72.1347L66.6676 73.9722L64.5135 74.756L62.4043 72.9583L63.574 70.6934Z" fill="#E7CAAD"/>
</svg>
