<svg width="141" height="254" viewBox="0 0 141 254" fill="none" xmlns="http://www.w3.org/2000/svg">
<g opacity="0.15" clip-path="url(#clip0_1108_822)">
<path d="M67.888 161.269L66.6255 160.931L66.7858 159.636C67.3446 155.229 67.7886 151.366 68.1701 147.969C69.9336 132.39 70.6652 125.945 77.1651 119.972C83.8684 113.82 91.6614 110.915 99.2123 108.101C107.182 105.119 115.422 102.055 122.361 95.0796C129.037 88.3917 131.146 79.5934 127.864 72.1038C123.944 63.1676 113.486 58.1411 99.858 58.6735C91.7332 58.9851 86.1923 60.1601 82.1364 61.0175C70.2318 63.5359 69.7961 62.1437 62.3362 38.9608C61.5639 36.5608 60.7155 33.9226 59.7696 31.0095L59.3608 29.7489L60.5692 29.1862C92.7566 14.1847 126.796 16.011 151.606 34.0594C169.751 47.2582 179.174 66.5967 176.814 85.7952C174.126 107.612 156.598 126.122 127.472 137.884C108.509 145.557 107.036 153.841 106.051 159.317C105.569 161.987 105.122 164.527 102.816 165.993C98.933 168.468 90.4393 167.312 67.888 161.269ZM113.085 57.0229C121.401 59.2509 127.639 64.0643 130.629 70.9003C134.412 79.5353 132.071 89.6089 124.501 97.1929C117.099 104.619 108.543 107.817 100.266 110.903C92.6596 113.749 85.4718 116.427 79.2015 122.181C73.5126 127.392 72.8738 133.084 71.1601 148.303C70.8167 151.384 70.4235 154.825 69.9428 158.709C89.5889 163.927 98.3929 165.259 101.222 163.466C102.364 162.746 102.657 161.362 103.112 158.793C104.21 152.664 105.871 143.388 126.367 135.099C154.448 123.757 171.308 106.111 173.85 85.421C176.068 67.3352 167.097 49.0357 149.834 36.4932C126.234 19.3288 93.8646 17.4213 63.0402 31.3414C63.8231 33.7598 64.5473 35.9914 65.1981 38.0322C68.7617 49.1125 70.7218 55.206 72.7841 57.6095C74.3855 59.4695 76.1684 59.2007 81.5264 58.07C85.6811 57.1923 91.372 55.9798 99.7629 55.6617C104.587 55.4769 109.08 55.9497 113.085 57.0229Z" fill="#268EA8"/>
<path d="M65.5902 226.15C54.0388 223.055 43.562 212.409 47.8587 196.373C52.1437 180.381 66.5323 176.429 78.0837 179.524C90.0704 182.736 100.074 193.986 95.9798 209.267C91.8736 224.592 77.5914 229.366 65.5902 226.15ZM77.3244 182.416C67.1662 179.694 54.5279 183.151 50.7794 197.14C47.0154 211.188 56.228 220.515 66.3863 223.237C76.6171 225.979 89.3318 222.526 93.0958 208.479C96.8297 194.486 87.5407 185.153 77.3244 182.416Z" fill="#268EA8"/>
<path d="M66.0873 167.988L58.962 166.079L59.894 158.77C60.4451 154.391 60.8774 150.572 61.2695 147.193C63.1269 130.8 64.0522 122.586 72.4878 114.846C72.6913 114.667 72.8986 114.473 73.102 114.295L75.0978 116.54L74.5242 117.055C66.918 124.023 66.0424 131.876 64.2595 147.528C63.8819 150.911 63.4418 154.759 62.8907 159.137L62.2977 163.847L66.8834 165.075C91.2922 171.616 99.8403 172.569 104.957 169.32C106.515 168.322 107.67 167.03 108.482 165.334L111.183 166.633C110.121 168.853 108.606 170.562 106.565 171.851C100.495 175.699 91.8022 174.879 66.0873 167.988Z" fill="#268EA8"/>
<path d="M124.281 85.2978L121.483 84.1903C121.685 83.6689 121.868 83.1581 122.008 82.6357C122.572 80.5315 122.581 78.4653 122.043 76.4701C120.616 71.1728 115.241 67.2595 107.609 66.0233L108.092 63.0577C116.949 64.4822 123.211 69.2085 124.942 75.6916C125.621 78.2067 125.611 80.8013 124.911 83.4134C124.743 84.0374 124.543 84.6681 124.281 85.2978Z" fill="#268EA8"/>
<path d="M72.0109 68.4456C63.8117 66.2486 61.6018 59.4039 55.7291 41.0945C54.9568 38.6945 54.1083 36.0563 53.1585 33.1577L50.8367 26.0341L57.6245 22.8757C72.6951 15.8552 88.0037 12.2425 103.104 12.1358L103.122 15.1426C88.4559 15.2567 73.5791 18.7673 58.8977 25.6122L54.5268 27.645L56.0203 32.2292C56.9662 35.1423 57.8147 37.7805 58.587 40.1805C64.2631 57.8306 66.1857 63.774 72.7886 65.5432C74.4429 65.9865 76.2022 66.0379 78.4817 65.7155L78.8982 68.689C76.1986 69.0699 74.0716 68.9977 72.0109 68.4456Z" fill="#268EA8"/>
<path d="M63.9381 232.894L63.793 232.855C48.5411 228.768 35.8546 214.294 41.1428 194.558C42.115 190.93 43.5773 187.621 45.4844 184.741L47.9966 186.394C46.269 189.011 44.9502 192.017 44.0597 195.34C39.2808 213.175 50.77 226.254 64.5852 229.956L63.9381 232.894ZM95.7297 224.303L93.4966 222.305C96.4231 219.045 98.5464 215.01 99.8101 210.294C101.459 204.141 101.265 198.303 99.227 192.966L102.033 191.898C104.298 197.84 104.528 204.294 102.712 211.071C101.314 216.234 98.9683 220.691 95.7297 224.303Z" fill="#268EA8"/>
</g>
<defs>
<clipPath id="clip0_1108_822">
<rect width="144.618" height="223.372" fill="white" transform="translate(57.8125) rotate(15)"/>
</clipPath>
</defs>
</svg>
