<svg width="133" height="137" viewBox="0 0 133 137" fill="none" xmlns="http://www.w3.org/2000/svg">
<path d="M65.5379 136.995C63.309 136.92 61.5483 135.044 61.6179 132.815V132.799C57.6016 131.338 49.9812 128.521 43.6531 125.944L17.867 122.682C16.5104 122.511 15.3545 121.644 14.798 120.419C12.9276 119.311 11.4158 117.944 10.292 116.341C3.62142 106.837 0.373085 77.8906 0.0225639 74.6208C-0.15671 72.9511 0.747687 71.4019 2.18723 70.6982C2.49226 70.5483 2.82138 70.436 3.16655 70.3691L3.25485 70.353C2.98727 69.1195 2.64478 67.5355 2.29961 65.8952C1.25875 63.5165 0.73966 60.889 0.785147 58.2373C0.370409 57.3436 0.295489 56.3456 0.573765 55.3903C0.803878 54.593 1.23467 53.2658 1.82066 52.0992C2.2461 48.1043 3.20401 46.7424 4.20206 45.9503C4.26627 45.6346 4.33852 45.3135 4.42414 44.9924C4.33317 44.7998 4.23417 44.5991 4.13516 44.3931C3.95054 44.0185 3.76859 43.6439 3.60002 43.2639C1.8822 39.3868 1.87952 34.7283 3.59467 30.4793C5.04491 26.8804 7.56813 23.9023 10.6827 22.0373C12.5289 13.2422 20.2404 6.85255 29.4556 6.85255C30.0282 6.85255 30.6008 6.87931 31.1734 6.93015C33.7288 3.81292 37.2206 1.54122 41.0656 0.559228C42.5292 0.189977 44.0544 0 45.5983 0C50.4441 0 55.1962 1.86766 58.6372 5.12135C61.4948 7.82384 63.21 11.0909 64.8716 14.2536C65.4736 15.3988 66.0436 16.4825 66.651 17.5127C67.2102 17.5608 67.5982 17.6063 67.7614 17.625C68.2029 17.6224 69.5755 17.6197 69.7628 17.6197C70.1241 17.2772 70.4906 16.8919 70.8706 16.4959C71.296 16.049 71.7242 15.6049 72.1683 15.1794C76.1284 11.3745 81.4879 9.19114 86.8688 9.19114C89.103 9.19114 91.2597 9.56842 93.2799 10.3176C101.101 13.2074 105.968 21.5798 104.363 29.3742C104.307 29.6498 104.242 29.9281 104.175 30.2063C104.114 30.4686 104.031 30.8191 103.985 31.0786C104.579 31.3917 105.877 31.7074 106.621 31.8894L107.076 32.0018C109.971 32.7215 112.73 34.1584 114.87 36.0314C124.674 36.8769 132.396 45.1316 132.396 55.1495C132.396 62.2563 128.487 68.6405 122.477 71.9558C123.438 75.065 123.454 78.7682 122.531 83.1617C121.916 86.0917 120.754 90.3728 117.779 93.7041C117.573 93.9342 117.359 94.159 117.137 94.3784C118.028 101.041 118.175 108.734 117.53 115.848C116.329 129.096 113.455 130.929 112.374 131.619C111.218 132.36 109.275 133.605 88.014 135.336C79.0289 136.066 70.0384 136.599 67.0095 136.77C66.5921 136.915 66.1426 136.992 65.677 136.992C65.6743 136.997 65.5807 136.997 65.5379 136.995Z" fill="white"/>
<path d="M30.8912 80.0258C29.9841 77.7461 29.7299 74.9794 27.7847 73.4837C25.5424 71.7578 22.3636 72.6596 19.5381 72.8067C14.5987 73.0636 9.60843 70.5029 6.93537 66.3395C4.26232 62.176 4.0108 56.5731 6.30122 52.1875C7.35546 50.17 8.9502 48.2087 8.78163 45.9397C8.67192 44.4707 7.82907 43.1757 7.2297 41.8271C4.25964 35.1244 8.47659 26.257 15.5486 24.3305C20.3756 23.014 26.5779 24.1646 29.5132 20.1082C30.72 18.4412 30.9742 16.2926 31.6083 14.334C33.1468 9.57382 37.2434 5.72612 42.0918 4.48726C46.9402 3.24839 52.38 4.6585 56.0136 8.09682C59.4225 11.3238 61.1002 15.918 63.5271 19.9369C64.1506 20.9671 64.873 22.008 65.9486 22.5511C67.5514 23.3592 69.5448 22.8348 71.0272 21.826C72.5095 20.8146 73.6414 19.3804 74.9338 18.1362C79.3728 13.871 86.212 11.9873 91.9862 14.1226C97.7604 16.2578 101.838 22.6983 100.597 28.7294C100.343 29.9576 99.893 31.2258 100.233 32.4326C100.888 34.7712 103.84 35.3492 106.197 35.9351C110.928 37.1098 115.624 40.7782 115.674 45.6534C115.741 51.7086 108.776 56.937 110.719 62.6711C111.832 65.9595 115.458 67.6506 117.459 70.4922C119.849 73.8824 119.624 78.4472 118.77 82.5062C118.109 85.6583 117.071 88.8477 114.928 91.2505C112.094 94.4213 107.658 95.7859 103.404 95.7752C99.1518 95.7645 95.0044 94.539 90.9507 93.2547C89.6958 92.856 88.398 92.4466 87.0869 92.5831C83.4319 92.9657 81.6445 97.0569 79.3648 99.9386C76.6944 103.313 72.5149 105.445 68.215 105.622C63.9151 105.801 59.5724 104.022 56.6344 100.881C54.7534 98.871 53.4931 96.4067 52.4282 93.8915C51.58 91.8874 51.002 89.4203 49.4099 87.8336C48.1416 86.568 46.5442 86.2951 44.8104 86.4075C41.8778 86.6001 39.3706 87.2022 36.5477 85.9178C34.0138 84.7646 31.9214 82.6213 30.8912 80.0258Z" fill="#00B0DC"/>
<path d="M3.96875 74.3479L29.8805 69.3229L41.3434 119.26C41.3434 119.26 19.8278 123.185 13.5479 114.235C7.26525 105.285 3.96875 74.3479 3.96875 74.3479Z" fill="#FFE9E1"/>
<path d="M29.8771 69.3229C29.8771 69.3229 27.6697 71.7337 23.1985 73.794C21.4218 74.6128 18.722 73.5719 16.2175 74.1151C12.3618 74.9392 9.9804 76.5447 7.896 76.0577C5.23365 75.4369 3.9707 74.3479 3.9707 74.3479L7.75419 73.6148L22.7624 70.6982L29.8771 69.3229Z" fill="black"/>
<path d="M23.1941 73.7941C21.4174 74.6128 19.2688 75.3808 16.767 75.9213C12.9113 76.7454 9.976 76.542 7.8916 76.0577L7.74979 73.6148L7.65881 72.0709C7.65881 72.0709 4.89746 59.6207 4.61383 57.0252C4.58975 56.8165 4.5844 56.6694 4.5951 56.5998C4.71283 55.8747 5.39514 54.3602 5.70285 53.702C5.70285 53.6886 5.7082 53.6779 5.71623 53.6699C5.7965 53.4906 5.85269 53.3809 5.85269 53.3809C5.85269 53.3809 5.85269 53.3675 5.85805 53.3381C5.90086 53.0009 6.20321 50.7105 6.51092 49.7285C6.51628 49.7151 6.5243 49.7044 6.52965 49.6857C6.5912 49.4877 6.65809 49.3486 6.71963 49.2977C6.74906 49.2736 6.78117 49.2549 6.81061 49.2362C6.84004 49.2175 6.8775 49.2041 6.91496 49.188C7.35646 49.0275 8.05215 49.1452 8.05215 49.1452C8.05215 49.1452 8.0575 49.0462 8.08158 48.8857C8.14847 48.19 8.37056 46.2581 8.72643 45.2012C8.72643 45.1878 8.73178 45.1771 8.73981 45.1718C8.8067 44.9737 8.87627 44.8078 8.95387 44.6928C8.96725 44.6607 8.99133 44.6366 9.01541 44.6125C9.03414 44.5884 9.05822 44.5644 9.07695 44.551C9.10103 44.5322 9.11976 44.5189 9.14384 44.5082C9.85024 44.1951 11.2657 44.3557 11.2657 44.3557C11.2657 44.3557 14.5622 36.2669 15.5041 36.1064C16.3951 35.9592 17.4975 37.5646 17.0854 40.1895C17.0613 40.3421 17.0373 40.5026 16.9998 40.6631C16.478 43.074 16.2319 44.3476 16.1569 44.7115C16.1569 44.7249 16.1569 44.7303 16.1516 44.7356C16.1462 44.7918 16.1382 44.8212 16.1382 44.8212L17.2139 47.596L17.2379 47.6575L17.5028 48.3398L18.5678 51.0771C18.5678 51.0824 18.5678 51.0824 18.5678 51.0824L20.7699 56.7603L21.1258 59.2514L21.3853 61.0843L21.8643 64.4236C21.8643 64.429 21.8643 64.429 21.8643 64.437L22.7553 70.6982L23.1941 73.7941Z" fill="#DCA29E"/>
<path d="M15.8223 56.6826C15.8223 56.6826 22.0246 43.3334 23.5177 43.5689C25.0107 43.8043 21.7891 64.9266 21.7891 64.9266L18.1769 67.2036L15.8223 56.6826Z" fill="#DCA29E"/>
<path d="M19.7485 49.3003L19.6549 41.6584H20.2195V40.1921H13.6238V41.6584H14.4426L14.2526 49.5625L8.70312 60.137L9.27841 61.7077L25.6111 60.8702L26.1864 59.3504L19.7485 49.3003Z" fill="white"/>
<path d="M14.3312 48.2809L18.3368 48.3585L24.6168 58.9597L9.85742 60.2146L14.3312 48.2809Z" fill="#058AAA"/>
<path d="M17.2426 47.6573C17.1623 47.743 17.0767 47.8179 16.9777 47.8848C15.7174 48.7758 14.0451 49.0407 14.0451 49.0407H15.2331C15.9502 49.0407 16.5308 49.6508 16.4612 50.3625C16.4184 50.8093 16.2499 51.2883 15.8217 51.6549C14.7274 52.5967 11.5834 52.6503 11.5834 52.6503L13.5153 53.1426C14.1093 53.2924 14.5133 53.8597 14.4357 54.4671C14.3394 55.235 14.0344 56.1929 13.1514 56.5755C11.5834 57.2579 8.86485 57.0492 8.86485 57.0492L6.34966 59.0345L4.61578 57.0224C4.5917 56.8137 4.58635 56.6665 4.59705 56.597C4.74957 55.6551 5.85197 53.3807 5.85197 53.3807C5.85197 53.3807 6.32558 49.6106 6.71891 49.2976C7.10689 48.9845 7.97383 48.8266 7.97383 48.8266C7.97383 48.8266 8.44208 44.8184 9.14847 44.5053C9.85487 44.1923 11.2703 44.3528 11.2703 44.3528L16.1589 44.7087L16.8385 44.7595C17.5931 44.8157 18.1202 45.5328 17.9463 46.2686C17.8312 46.7583 17.6225 47.2747 17.2426 47.6573Z" fill="#DCA29E"/>
<path d="M7.9707 48.8293C7.9707 48.8293 8.3239 44.6819 9.39152 44.4304C10.4618 44.1789 17.1485 44.8291 17.1485 44.8291C17.1485 44.8291 18.7833 45.8994 17.4214 47.3871C16.0594 48.8748 14.256 49.0006 14.256 49.0006" stroke="black" stroke-width="1.1493" stroke-miterlimit="10" stroke-linecap="round" stroke-linejoin="round"/>
<path d="M5.85156 53.3835C5.85156 53.3835 6.14589 49.7552 6.81483 49.2522C7.48643 48.7492 9.07849 48.8535 10.6946 48.8749C12.3081 48.8963 15.8722 49.1693 15.8722 49.1693C15.8722 49.1693 16.9612 50.2583 15.9364 51.4329C14.9089 52.6076 12.5195 52.5434 12.5195 52.5434L11.1789 52.5862L11.1575 52.9206" stroke="black" stroke-width="1.1493" stroke-miterlimit="10" stroke-linecap="round" stroke-linejoin="round"/>
<path d="M4.5293 56.6747C4.5293 56.6747 5.53537 53.2149 6.33274 53.0276C7.13011 52.8377 12.8963 52.9233 13.9238 53.322C14.9513 53.7207 14.3653 55.6713 13.4823 56.383C12.602 57.0948 10.2741 57.0948 10.2741 57.0948L8.13618 56.9476" stroke="black" stroke-width="1.1493" stroke-miterlimit="10" stroke-linecap="round" stroke-linejoin="round"/>
<path d="M17.9961 79.6887L18.4189 78.2465C18.7908 76.9808 19.9306 76.0925 21.2471 76.0417L30.6282 75.6724C31.6905 75.6296 32.6992 76.1407 33.2959 77.021L34.7462 79.1642L17.9961 79.6887Z" fill="#004556"/>
<path d="M85.1496 46.0576L84.4352 63.3348L72.9108 72.7748L63.7812 63.7469L64.402 54.7564L76.0334 49.8812L85.1496 46.0576Z" fill="#DCA29E"/>
<path d="M75.9391 56.2682C75.099 57.384 73.9912 58.2723 72.846 59.075C71.5108 60.0142 70.082 60.8437 68.5595 61.4431C67.3447 61.9193 65.4583 62.5401 63.877 62.3742L64.4041 54.7537L76.0355 49.8785C76.3646 50.1274 76.6482 50.4271 76.8596 50.791C77.1325 51.2699 77.2583 51.8265 77.2824 52.3803C77.3412 53.7798 76.7793 55.1524 75.9391 56.2682Z" fill="black"/>
<path d="M67.4087 21.6524C67.4087 21.6524 53.1443 19.841 50.7683 25.2995C49.0344 29.2809 53.5109 31.8844 53.5109 31.8844C53.5109 31.8844 49.6338 33.6156 51.5148 36.4626C53.3959 39.3096 57.6289 41.683 57.6289 41.683L69.287 23.381L67.4087 21.6524Z" fill="black"/>
<path d="M85.4612 37.3429C85.6432 29.6421 78.3518 23.1535 70.9668 22.6424C63.5737 22.1313 57.1199 27.836 56.2476 35.4993L56.277 36.9736L56.0469 48.0619C55.9934 50.6653 57.0316 53.1565 58.8858 54.8689C60.2692 56.1479 62.0191 56.9078 63.8627 57.0363L77.9665 58.0102L85.1535 46.0551L85.4612 37.3429Z" fill="#DCA29E"/>
<path d="M61.5544 42.02C61.5035 42.7451 60.8747 43.291 60.1496 43.2428C59.4245 43.192 58.8786 42.5632 58.9268 41.8381C58.9776 41.1129 59.6064 40.5671 60.3315 40.6153C61.0567 40.6661 61.6052 41.2949 61.5544 42.02Z" fill="black"/>
<path d="M73.8376 43.1893C73.7867 43.9145 73.1579 44.4603 72.4328 44.4121C71.7077 44.3613 71.1618 43.7325 71.21 43.0074C71.2608 42.2823 71.8896 41.7364 72.6147 41.7846C73.3399 41.8354 73.8884 42.4642 73.8376 43.1893Z" fill="black"/>
<path d="M66.0587 48.9233C65.6279 48.8938 65.2186 48.744 64.8921 48.4791C64.8252 48.4256 64.8145 48.3266 64.868 48.2597C64.9216 48.1928 65.0206 48.1821 65.0874 48.2356C65.5798 48.6316 66.3343 48.7253 66.9685 48.4684C67.5598 48.2303 68.0655 47.6924 68.3224 47.0369C68.3545 46.9566 68.4455 46.9165 68.5258 46.9486C68.606 46.9807 68.6462 47.0717 68.6141 47.1519C68.3224 47.8985 67.7659 48.4871 67.0862 48.7601C66.7544 48.8938 66.4012 48.9474 66.0587 48.9233Z" fill="black"/>
<path d="M65.168 21.7112C65.168 21.7112 65.6469 32.1385 71.7422 36.4759C77.8376 40.8159 80.1815 41.616 80.1815 41.616L82.5897 46.1005L85.4152 42.218C85.4152 42.218 87.7886 41.4233 90.1861 43.7459C90.1861 43.7459 93.6324 27.4346 90.8122 24.2826C87.9946 21.1279 65.168 21.7112 65.168 21.7112Z" fill="black"/>
<path d="M82.1619 45.1747C83.168 43.1465 85.4718 41.5892 87.7595 41.5892C90.3202 41.5892 92.3297 43.8476 91.9899 46.4082C91.5591 49.6459 87.6632 52.8701 84.4416 51.1389C80.3103 48.9207 82.1565 45.1854 82.1619 45.1747Z" fill="#DCA29E"/>
<path d="M84.8314 49.5575C84.8181 49.5575 84.802 49.5548 84.7886 49.5494C84.6923 49.52 84.6388 49.4157 84.6682 49.3193C85.3425 47.1761 86.7285 45.287 88.5694 43.9973C89.3615 43.4434 90.0491 43.1437 90.7314 43.0581C90.8304 43.0447 90.9241 43.117 90.9375 43.216C90.9508 43.3177 90.8786 43.4086 90.7796 43.422C90.1562 43.5023 89.522 43.7806 88.7808 44.297C87.0068 45.5385 85.6689 47.3607 85.0214 49.429C84.9947 49.512 84.9144 49.5655 84.8314 49.5575Z" fill="black"/>
<path d="M57.9459 38.0278C57.8443 38.2793 57.7988 38.5816 57.9326 38.8171C58.0048 38.9455 58.1252 39.0419 58.2537 39.1114C58.4757 39.2292 58.7299 39.2747 58.9788 39.3068C59.9099 39.4272 60.8812 39.3897 61.7508 39.0365C61.9381 38.9589 62.1281 38.8626 62.2566 38.7047C62.3368 38.6057 62.3903 38.4826 62.4198 38.3596C62.5616 37.7789 62.2057 37.1501 61.6759 36.8718C60.5468 36.2752 58.4436 36.8023 57.9459 38.0278Z" fill="black"/>
<path d="M75.5442 38.6031C75.6459 38.8546 75.6914 39.157 75.5576 39.3924C75.4853 39.5209 75.3649 39.6172 75.2365 39.6868C75.0144 39.8045 74.7602 39.85 74.5114 39.8821C73.5802 40.0025 72.6089 39.965 71.7393 39.6118C71.552 39.5342 71.362 39.4379 71.2336 39.28C71.1533 39.181 71.0998 39.058 71.0704 38.9349C70.9286 38.3542 71.2844 37.7254 71.8142 37.4472C72.9461 36.8505 75.0465 37.3776 75.5442 38.6031Z" fill="black"/>
<path d="M64.6758 40.9041C64.3226 41.5757 63.9854 42.2553 63.6697 42.9456C63.56 43.1838 63.4503 43.4273 63.4075 43.6841C63.3138 44.23 63.5198 44.7946 63.8436 45.2441C64.17 45.6936 64.6062 46.0468 65.0397 46.3947" stroke="black" stroke-width="1.1493" stroke-miterlimit="10" stroke-linecap="round" stroke-linejoin="round"/>
<path d="M106.568 120.205C102.803 122.616 65.7361 133.08 65.7361 133.08V128.055L65.6879 128.037L58.22 125.085L46.2648 108.793C46.2648 108.793 41.0311 79.7904 52.023 72.9887C60.4569 67.7657 61.2944 64.4023 62.643 63.9474C63.0497 63.8056 63.2263 63.7762 63.2263 63.7762L63.9594 61.162L70.6568 67.755L84.3726 59.7947L87.0483 63.9474L87.2008 64.1936C87.2008 64.1936 91.1796 72.3599 98.2944 86.8089C105.42 101.255 110.338 117.799 106.568 120.205Z" fill="#BCD0E6"/>
<path d="M62.6439 63.9447C62.5823 64.528 62.5021 65.1247 62.4459 65.7107C62.09 69.4326 61.8813 73.1653 61.7582 76.906C61.611 81.1122 61.5736 85.3265 61.5308 89.5408C61.4639 96.3371 61.3943 103.139 61.3274 109.943C61.3274 110.227 61.3221 110.508 61.3221 110.791C61.3221 111.08 61.3167 111.369 61.3087 111.664C61.2793 114.449 61.1803 117.261 60.5033 119.948C60.0484 121.767 59.2618 123.523 58.2209 125.083L36.8418 116.643C36.8418 116.643 37.9977 78.011 48.9896 71.2093C50.0118 70.5752 50.9643 69.9972 51.8553 69.4674C51.941 69.4192 52.0266 69.3631 52.1149 69.3149C58.4055 65.5876 61.4746 64.3407 62.6439 63.9447Z" fill="#FFE9E1"/>
<path d="M110.335 128.473C106.57 130.883 65.7357 133.08 65.7357 133.08V128.055L65.6875 128.037C65.84 121.917 66.2842 115.747 66.4688 109.684H81.9934C82.2824 94.1912 82.5847 78.7388 87.0505 63.9474L87.2031 64.1936C87.2031 64.1936 92.1425 65.0739 97.7133 68.4935C97.799 68.5416 97.8926 68.5978 97.9782 68.654C102.131 71.2495 106.602 75.2604 109.604 81.3664C116.724 95.8127 114.105 126.067 110.335 128.473Z" fill="#FFE9E1"/>
<path d="M96.2606 70.5271C90.6523 76.5314 85.2634 82.6615 84.4767 83.5552L91.3346 90.1536C91.3908 90.2017 91.3962 90.2767 91.3587 90.3382C91.2972 90.4479 84.9316 101.255 82.5315 109.357C82.5074 109.424 82.4458 109.467 82.3843 109.467C82.3656 109.467 82.3549 109.467 82.3415 109.462C82.2559 109.438 82.213 109.357 82.2371 109.272C84.5195 101.558 90.3687 91.4299 91.0323 90.29L84.161 83.673C84.0994 83.6168 84.0941 83.5258 84.1476 83.4643C84.2091 83.3974 89.9967 76.7856 96.0359 70.3211C96.67 69.6387 97.2292 69.0367 97.7082 68.4935C97.7938 68.5417 97.8875 68.5979 97.9731 68.6541C97.4861 69.2053 96.9135 69.826 96.2606 70.5271Z" fill="black"/>
<path d="M61.4922 111.503C61.4976 111.589 61.436 111.664 61.3504 111.669C61.3504 111.669 61.3451 111.669 61.337 111.669C61.3237 111.669 61.313 111.669 61.3049 111.664C61.238 111.65 61.1872 111.597 61.1818 111.527C60.05 98.0256 53.4329 90.0171 53.3714 89.9448C53.3232 89.8833 53.3232 89.7977 53.3714 89.7415L60.5129 81.4574L51.8516 69.4701C51.9372 69.422 52.0228 69.3658 52.1111 69.3176L60.834 81.3798C60.8768 81.436 60.8768 81.5163 60.8286 81.5698L53.6871 89.8485C54.431 90.7824 59.9349 98.0844 61.3263 109.943C61.3932 110.452 61.4494 110.973 61.4922 111.503Z" fill="black"/>
<path d="M63.9595 61.1593L61.9688 73.3018L70.6328 67.8326L77.8813 76.3387L87.0484 63.9447" stroke="black" stroke-width="1.1493" stroke-miterlimit="10" stroke-linecap="round" stroke-linejoin="round"/>
<path d="M70.5152 67.8325C68.7385 81.7329 67.893 95.3765 68.7038 109.368" stroke="black" stroke-width="1.1493" stroke-miterlimit="10" stroke-linecap="round" stroke-linejoin="round"/>
<path d="M6.16602 78.9021L45.427 78.276L56.8899 123.817L18.4155 118.947L6.16602 78.9021Z" fill="#4D7D88"/>
<path d="M66.3923 110.468C66.3923 110.468 50.6884 100.418 49.669 100.889C48.6495 101.36 53.5943 108.504 53.5943 108.504C53.5943 108.504 34.5939 102.537 33.5718 103.714C32.5523 104.892 36.8683 107.484 36.8683 107.484C36.8683 107.484 31.4499 105.678 30.979 107.642C30.508 109.606 38.5165 112.59 38.5165 112.59C38.5165 112.59 31.763 110.47 31.2144 112.512C30.6659 114.554 43.6994 118.637 43.6994 118.637C43.6994 118.637 35.8488 115.731 35.2976 117.459C34.7491 119.188 65.7367 130.257 65.7367 130.257L66.3923 110.468Z" fill="#DCA29E"/>
<path d="M56.6273 109.526C56.6273 109.526 34.59 102.668 33.5946 103.505C32.5993 104.343 34.6944 106.593 36.8671 107.484L47.7038 111.372" stroke="black" stroke-width="1.1493" stroke-miterlimit="10" stroke-linecap="round" stroke-linejoin="round"/>
<path d="M35.8488 107.091C35.8488 107.091 31.9235 105.756 31.2171 107.326C30.5107 108.897 34.8427 110.917 38.3238 112.509C42.4471 114.393 45.8212 115.611 45.8212 115.611" stroke="black" stroke-width="1.1493" stroke-miterlimit="10" stroke-linecap="round" stroke-linejoin="round"/>
<path d="M39.8511 113.334C39.8511 113.334 32.1958 110.155 31.3315 112.352C30.5743 114.281 44.052 118.752 44.052 118.752" stroke="black" stroke-width="1.1493" stroke-miterlimit="10" stroke-linecap="round" stroke-linejoin="round"/>
<path d="M97.0397 83.1432L88.9804 109.422L66.4695 109.684L65.7363 133.08" stroke="black" stroke-width="1.1493" stroke-miterlimit="10" stroke-linecap="round" stroke-linejoin="round"/>
<path d="M40.3199 36.9965C46.2886 31.0279 46.2886 21.3508 40.3199 15.3822C34.3513 9.41354 24.6742 9.41354 18.7056 15.3822C12.737 21.3508 12.737 31.0279 18.7056 36.9965C24.6742 42.9651 34.3513 42.9651 40.3199 36.9965Z" fill="#058AAA"/>
<path d="M128.243 58.3674C129.94 50.0971 124.614 42.0167 116.345 40.3192C108.076 38.6217 99.9965 43.95 98.2987 52.2202C96.6009 60.4905 101.928 68.5709 110.197 70.2684C118.465 71.9659 126.545 66.6376 128.243 58.3674Z" fill="#058AAA"/>
<path d="M35.3794 42.1641C38.3201 42.1641 40.7041 35.5885 40.7041 27.477C40.7041 19.3656 38.3201 12.7899 35.3794 12.7899C32.4386 12.7899 30.0547 19.3656 30.0547 27.477C30.0547 35.5885 32.4386 42.1641 35.3794 42.1641Z" stroke="black" stroke-width="1.5749" stroke-miterlimit="10"/>
<path d="M39.144 31.2418C44.8796 25.5061 47.8435 19.1708 45.7641 17.0914C43.6847 15.012 37.3494 17.9759 31.6138 23.7116C25.8781 29.4472 22.9142 35.7825 24.9936 37.8619C27.073 39.9413 33.4083 36.9774 39.144 31.2418Z" stroke="black" stroke-width="1.5749" stroke-miterlimit="10"/>
<path d="M32.4646 31.9348C25.6763 27.4957 21.4754 21.9035 23.0861 19.4418C24.6943 16.9801 31.504 18.5802 38.295 23.0192C45.0833 27.4583 49.2842 33.0506 47.6734 35.5122C46.0627 37.9739 39.2529 36.3711 32.4646 31.9348Z" stroke="black" stroke-width="1.5749" stroke-miterlimit="10"/>
<path d="M36.8948 28.9916C37.6723 28.2142 37.6723 26.9538 36.8948 26.1763C36.1174 25.3989 34.857 25.3989 34.0795 26.1763C33.3021 26.9538 33.3021 28.2142 34.0795 28.9916C34.857 29.7691 36.1174 29.7691 36.8948 28.9916Z" fill="black"/>
<path d="M47.3079 17.4163C47.3079 18.1681 46.6978 18.7782 45.9459 18.7782C45.1941 18.7782 44.584 18.1681 44.584 17.4163C44.584 16.6644 45.1941 16.0543 45.9459 16.0543C46.6978 16.0543 47.3079 16.6644 47.3079 17.4163Z" fill="black"/>
<path d="M26.2903 37.9312C26.2903 38.683 25.6802 39.2931 24.9284 39.2931C24.1765 39.2931 23.5664 38.683 23.5664 37.9312C23.5664 37.1793 24.1765 36.5692 24.9284 36.5692C25.6802 36.5692 26.2903 37.1793 26.2903 37.9312Z" fill="black"/>
<path d="M36.9434 49.4315V59.1685" stroke="black" stroke-width="2.2987" stroke-miterlimit="10"/>
<path d="M41.8112 54.2987H32.0742" stroke="black" stroke-width="2.2987" stroke-miterlimit="10"/>
<path d="M102.117 37.653V47.3899" stroke="black" stroke-width="2.2987" stroke-miterlimit="10"/>
<path d="M106.984 42.5228H97.25" stroke="black" stroke-width="2.2987" stroke-miterlimit="10"/>
<path d="M51.8864 58.0768C51.081 57.0895 50.6769 55.8372 50.3558 54.6011C50.3558 54.5904 50.3532 54.577 50.3505 54.5663C50.3505 54.5716 50.3478 54.5743 50.3478 54.5797C50.3478 54.5743 50.3451 54.569 50.3451 54.5636C50.3451 54.5797 50.3451 54.593 50.3451 54.6064C50.1418 55.8667 49.8581 57.151 49.1491 58.2106C48.4293 59.2836 47.1369 60.0301 45.8633 60.2281C48.4293 60.8302 50.5351 62.7834 50.8616 65.3976C50.8669 65.4003 50.8669 65.3976 50.8696 65.3923C50.9498 62.7567 52.8496 60.6188 55.3488 59.7759C54.0617 59.6983 52.7051 59.0776 51.8864 58.0768Z" fill="#FFE9E1"/>
<path d="M108.576 66.7141C107.77 65.7267 107.366 64.4745 107.045 63.2383C107.043 63.2276 107.043 63.2142 107.04 63.2035C107.04 63.2088 107.037 63.2115 107.037 63.2169C107.037 63.2115 107.035 63.2062 107.035 63.2035C107.035 63.2195 107.035 63.2329 107.035 63.2463C106.831 64.5066 106.548 65.7909 105.839 66.8505C105.119 67.9235 103.826 68.67 102.553 68.868C105.119 69.4701 107.225 71.4233 107.551 74.0375C107.556 74.0402 107.556 74.0375 107.559 74.0322C107.639 71.3966 109.539 69.2587 112.038 68.4158C110.751 68.3355 109.395 67.7148 108.576 66.7141Z" fill="#FFE9E1"/>
</svg>
