<svg width="22" height="22" viewBox="0 0 22 22" fill="none" xmlns="http://www.w3.org/2000/svg">
<path fill-rule="evenodd" clip-rule="evenodd" d="M8.89576 4.63742e-07H8.95349C9.37732 4.63742e-07 9.72093 0.3436 9.72093 0.767442C9.72093 1.19129 9.37732 1.53488 8.95349 1.53488C7.00232 1.53488 5.61615 1.53651 4.56459 1.67789C3.5351 1.8163 2.94197 2.07587 2.50892 2.50892C2.07587 2.94197 1.8163 3.5351 1.67789 4.56459C1.53651 5.61615 1.53488 7.00232 1.53488 8.95349C1.53488 9.37732 1.19129 9.72093 0.767442 9.72093C0.3436 9.72093 4.63742e-07 9.37732 4.63742e-07 8.95349V8.89576C-2.00014e-05 7.01526 -3.02972e-05 5.52578 0.156702 4.36007C0.317987 3.16039 0.657831 2.18937 1.42359 1.42359C2.18937 0.657831 3.16039 0.317987 4.36007 0.156702C5.52578 -3.02972e-05 7.01526 -2.00014e-05 8.89576 4.63742e-07ZM17.4355 1.67789C16.3839 1.53651 14.9977 1.53488 13.0465 1.53488C12.6227 1.53488 12.2791 1.19129 12.2791 0.767442C12.2791 0.3436 12.6227 4.63742e-07 13.0465 4.63742e-07H13.1042C14.9848 -2.00014e-05 16.4742 -3.02972e-05 17.6399 0.156702C18.8396 0.317987 19.8106 0.657831 20.5764 1.42359C21.3421 2.18937 21.682 3.16039 21.8433 4.36007C22 5.52578 22 7.01527 22 8.89577V8.95349C22 9.37732 21.6564 9.72093 21.2326 9.72093C20.8087 9.72093 20.4651 9.37732 20.4651 8.95349C20.4651 7.00232 20.4635 5.61615 20.3221 4.56459C20.1837 3.5351 19.9241 2.94197 19.4911 2.50892C19.058 2.07587 18.4649 1.8163 17.4355 1.67789ZM8.43914 5.1469C8.22351 5.11791 7.92267 5.11628 7.41861 5.11628C6.67336 5.11628 6.19163 5.11791 5.83668 5.16563C5.50381 5.21039 5.39948 5.28264 5.34106 5.34106C5.28264 5.39948 5.21039 5.50381 5.16563 5.83668C5.11791 6.19163 5.11628 6.67336 5.11628 7.41861C5.11628 7.92267 5.11791 8.22351 5.1469 8.43914C5.16019 8.53793 5.17583 8.58743 5.185 8.60972C5.18712 8.61487 5.18878 8.61827 5.18981 8.62024L5.19122 8.62273L5.19371 8.62414C5.19568 8.62518 5.19908 8.62683 5.20425 8.62895C5.22654 8.63812 5.27602 8.65377 5.37481 8.66706C5.59045 8.69605 5.89128 8.69767 6.39535 8.69767H7.41861C7.92267 8.69767 8.22351 8.69605 8.43914 8.66706C8.53793 8.65377 8.58743 8.63812 8.60972 8.62895C8.61487 8.62683 8.61827 8.62518 8.62024 8.62414L8.62273 8.62273L8.62414 8.62024C8.62518 8.61827 8.62683 8.61487 8.62895 8.60972C8.63812 8.58743 8.65377 8.53793 8.66706 8.43914C8.69605 8.22351 8.69767 7.92267 8.69767 7.41861V6.39535C8.69767 5.89128 8.69605 5.59045 8.66706 5.37481C8.65377 5.27602 8.63812 5.22654 8.62895 5.20425L8.62715 5.20001C8.62588 5.19715 8.62414 5.19371 8.62414 5.19371L8.62273 5.19122L8.62024 5.18981C8.61827 5.18878 8.61487 5.18712 8.60972 5.185C8.58743 5.17583 8.53793 5.16019 8.43914 5.1469ZM8.64366 3.6257C9.00741 3.6746 9.39185 3.78967 9.70804 4.10588C10.0243 4.42209 10.1393 4.80655 10.1883 5.1703C10.2327 5.50063 10.2327 5.90668 10.2326 6.34957C10.2326 6.36478 10.2326 6.38004 10.2326 6.39535V7.41861C10.2326 7.43391 10.2326 7.44917 10.2326 7.46439C10.2327 7.90727 10.2327 8.31334 10.1883 8.64366C10.1393 9.00741 10.0243 9.39185 9.70804 9.70804C9.39185 10.0243 9.00741 10.1393 8.64366 10.1883C8.31334 10.2327 7.90727 10.2327 7.46439 10.2326C7.44917 10.2326 7.43391 10.2326 7.41861 10.2326H6.39535C6.38004 10.2326 6.36478 10.2326 6.34957 10.2326C5.90668 10.2327 5.50063 10.2327 5.1703 10.1883C4.80655 10.1393 4.42209 10.0243 4.10588 9.70804C3.78967 9.39185 3.6746 9.00741 3.6257 8.64366C3.58129 8.31334 3.58134 7.90728 3.5814 7.4644C3.5814 7.44918 3.5814 7.43391 3.5814 7.41861V7.36808C3.58135 6.68775 3.58132 6.10157 3.64444 5.63216C3.71208 5.12909 3.86459 4.64687 4.25573 4.25573C4.64687 3.86459 5.12909 3.71208 5.63216 3.64444C6.10157 3.58132 6.68775 3.58135 7.36808 3.5814H7.41861C7.43391 3.5814 7.44918 3.5814 7.4644 3.5814C7.90728 3.58134 8.31334 3.58129 8.64366 3.6257ZM14.5357 3.5814H14.6319C15.3122 3.58135 15.8984 3.58132 16.3678 3.64444C16.8709 3.71208 17.3531 3.86459 17.7443 4.25573C18.1354 4.64687 18.2879 5.12909 18.3556 5.63216C18.4187 6.10157 18.4186 6.68777 18.4186 7.36809V7.4644C18.4187 7.90727 18.4187 8.31334 18.3743 8.64366C18.3254 9.00741 18.2104 9.39185 17.8941 9.70804C17.5779 10.0243 17.1935 10.1393 16.8297 10.1883C16.4994 10.2327 16.0934 10.2327 15.6504 10.2326H14.5357C14.0927 10.2327 13.6867 10.2327 13.3564 10.1883C12.9926 10.1393 12.6081 10.0243 12.292 9.70804C11.9757 9.39185 11.8607 9.00741 11.8117 8.64366C11.7673 8.31334 11.7673 7.90727 11.7674 7.46439V6.34957C11.7673 5.90668 11.7673 5.50063 11.8117 5.1703C11.8607 4.80655 11.9757 4.42209 12.292 4.10588C12.6081 3.78967 12.9926 3.6746 13.3564 3.6257C13.6867 3.58129 14.0927 3.58134 14.5357 3.5814ZM13.3798 5.18981L13.3772 5.19122L13.3759 5.19371C13.3749 5.19568 13.3731 5.19908 13.3711 5.20425C13.3619 5.22654 13.3462 5.27602 13.3329 5.37481C13.304 5.59045 13.3023 5.89128 13.3023 6.39535V7.41861C13.3023 7.92267 13.304 8.22351 13.3329 8.43914C13.3462 8.53793 13.3619 8.58743 13.3711 8.60972C13.3731 8.61487 13.3749 8.61827 13.3759 8.62024L13.3772 8.62273L13.3798 8.62414C13.3817 8.62518 13.3851 8.62683 13.3903 8.62895C13.4125 8.63812 13.4621 8.65377 13.5609 8.66706C13.7765 8.69605 14.0773 8.69767 14.5814 8.69767H15.6047C16.1087 8.69767 16.4095 8.69605 16.6251 8.66706C16.724 8.65377 16.7735 8.63812 16.7957 8.62895C16.8009 8.62683 16.8043 8.62518 16.8063 8.62414L16.8088 8.62273L16.8102 8.62024C16.8112 8.61827 16.8129 8.61487 16.815 8.60972C16.8242 8.58743 16.8398 8.53794 16.8531 8.43914C16.8821 8.22351 16.8837 7.92267 16.8837 7.41861C16.8837 6.67336 16.8821 6.19163 16.8344 5.83668C16.7896 5.50381 16.7173 5.39948 16.6589 5.34106C16.6005 5.28264 16.4962 5.21039 16.1633 5.16563C15.8084 5.11791 15.3266 5.11628 14.5814 5.11628C14.0773 5.11628 13.7765 5.11791 13.5609 5.1469C13.4621 5.16019 13.4125 5.17583 13.3903 5.185L13.3855 5.18705C13.383 5.1882 13.3798 5.18981 13.3798 5.18981ZM6.34957 11.7674H7.46439C7.90727 11.7673 8.31334 11.7673 8.64366 11.8117C9.00741 11.8607 9.39185 11.9757 9.70804 12.292C10.0243 12.6081 10.1393 12.9926 10.1883 13.3564C10.2327 13.6867 10.2327 14.0927 10.2326 14.5357V15.6504C10.2327 16.0934 10.2327 16.4994 10.1883 16.8297C10.1393 17.1935 10.0243 17.5779 9.70804 17.8941C9.39185 18.2104 9.00741 18.3254 8.64366 18.3743C8.31334 18.4187 7.90727 18.4187 7.4644 18.4186H7.36809C6.68777 18.4186 6.10157 18.4187 5.63216 18.3556C5.12909 18.2879 4.64687 18.1354 4.25573 17.7443C3.86459 17.3531 3.71208 16.8709 3.64444 16.3678C3.58132 15.8984 3.58135 15.3122 3.5814 14.6319V14.5357C3.58134 14.0927 3.58129 13.6867 3.6257 13.3564C3.6746 12.9926 3.78967 12.6081 4.10588 12.292C4.42209 11.9757 4.80655 11.8607 5.1703 11.8117C5.50063 11.7673 5.90668 11.7673 6.34957 11.7674ZM5.19371 13.3759L5.19122 13.3772L5.18981 13.3798C5.18878 13.3817 5.18712 13.3851 5.185 13.3903C5.17583 13.4125 5.16019 13.4621 5.1469 13.5609C5.11791 13.7765 5.11628 14.0773 5.11628 14.5814C5.11628 15.3266 5.11791 15.8084 5.16563 16.1633C5.21039 16.4962 5.28264 16.6005 5.34106 16.6589C5.39948 16.7173 5.50381 16.7896 5.83668 16.8344C6.19163 16.8821 6.67336 16.8837 7.41861 16.8837C7.92267 16.8837 8.22351 16.8821 8.43914 16.8531C8.53794 16.8398 8.58743 16.8242 8.60972 16.815C8.61487 16.8129 8.61827 16.8112 8.62024 16.8102L8.62273 16.8088L8.62414 16.8063C8.62518 16.8043 8.62683 16.8009 8.62895 16.7957C8.63812 16.7735 8.65377 16.724 8.66706 16.6251C8.69605 16.4095 8.69767 16.1087 8.69767 15.6047V14.5814C8.69767 14.0773 8.69605 13.7765 8.66706 13.5609C8.65377 13.4621 8.63812 13.4125 8.62895 13.3903C8.62683 13.3851 8.62518 13.3817 8.62414 13.3798L8.62273 13.3772L8.62024 13.3759C8.61827 13.3749 8.61487 13.3731 8.60972 13.3711C8.58743 13.3619 8.53793 13.3462 8.43914 13.3329C8.22351 13.304 7.92267 13.3023 7.41861 13.3023H6.39535C5.89128 13.3023 5.59045 13.304 5.37481 13.3329C5.27602 13.3462 5.22654 13.3619 5.20425 13.3711C5.19908 13.3731 5.19568 13.3749 5.19371 13.3759ZM14.5357 11.7674H15.6504C16.0934 11.7673 16.4994 11.7673 16.8297 11.8117C17.1935 11.8607 17.5779 11.9757 17.8941 12.292C18.2104 12.6081 18.3254 12.9926 18.3743 13.3564C18.4187 13.6867 18.4187 14.0927 18.4186 14.5357V14.6319C18.4186 15.3122 18.4187 15.8984 18.3556 16.3678C18.2879 16.8709 18.1354 17.3531 17.7443 17.7443C17.3531 18.1354 16.8709 18.2879 16.3678 18.3556C15.8984 18.4187 15.3122 18.4186 14.6319 18.4186H14.5357C14.0927 18.4187 13.6867 18.4187 13.3564 18.3743C12.9926 18.3254 12.6081 18.2104 12.292 17.8941C11.9757 17.5779 11.8607 17.1935 11.8117 16.8297C11.7673 16.4994 11.7673 16.0934 11.7674 15.6504V14.5357C11.7673 14.0927 11.7673 13.6867 11.8117 13.3564C11.8607 12.9926 11.9757 12.6081 12.292 12.292C12.6081 11.9757 12.9926 11.8607 13.3564 11.8117C13.6867 11.7673 14.0927 11.7673 14.5357 11.7674ZM13.3798 13.3759L13.3774 13.3771L13.3759 13.3798L13.3739 13.3839C13.3739 13.3839 13.3721 13.3878 13.3711 13.3903C13.3619 13.4125 13.3462 13.4621 13.3329 13.5609C13.304 13.7765 13.3023 14.0773 13.3023 14.5814V15.6047C13.3023 16.1087 13.304 16.4095 13.3329 16.6251C13.3462 16.724 13.3619 16.7735 13.3711 16.7957C13.3722 16.7985 13.3741 16.8026 13.3741 16.8026L13.3759 16.8063L13.3772 16.8088L13.3798 16.8102C13.3817 16.8112 13.3851 16.8129 13.3903 16.815C13.4125 16.8242 13.4621 16.8398 13.5609 16.8531C13.7765 16.8821 14.0773 16.8837 14.5814 16.8837C15.3266 16.8837 15.8084 16.8821 16.1633 16.8344C16.4962 16.7896 16.6005 16.7173 16.6589 16.6589C16.7173 16.6005 16.7896 16.4962 16.8344 16.1633C16.8821 15.8084 16.8837 15.3266 16.8837 14.5814C16.8837 14.0773 16.8821 13.7765 16.8531 13.5609C16.8398 13.4621 16.8242 13.4125 16.815 13.3903C16.8129 13.3851 16.8112 13.3817 16.8102 13.3798L16.8088 13.3772L16.8063 13.3759C16.8043 13.3749 16.8009 13.3731 16.7957 13.3711C16.7735 13.3619 16.724 13.3462 16.6251 13.3329C16.4095 13.304 16.1087 13.3023 15.6047 13.3023H14.5814C14.0773 13.3023 13.7765 13.304 13.5609 13.3329C13.4621 13.3462 13.4125 13.3619 13.3903 13.3711C13.3851 13.3731 13.3817 13.3749 13.3798 13.3759ZM0.767442 12.2791C1.19129 12.2791 1.53488 12.6227 1.53488 13.0465C1.53488 14.9977 1.53651 16.3839 1.67789 17.4355C1.8163 18.4649 2.07587 19.058 2.50892 19.4911C2.94197 19.9241 3.5351 20.1837 4.56459 20.3221C5.61615 20.4635 7.00232 20.4651 8.95349 20.4651C9.37732 20.4651 9.72093 20.8087 9.72093 21.2326C9.72093 21.6564 9.37732 22 8.95349 22H8.89577C7.01527 22 5.52578 22 4.36007 21.8433C3.16039 21.682 2.18937 21.3421 1.42359 20.5764C0.657831 19.8106 0.317987 18.8396 0.156702 17.6399C-3.02972e-05 16.4742 -2.00014e-05 14.9848 4.63742e-07 13.1042V13.0465C4.63742e-07 12.6227 0.3436 12.2791 0.767442 12.2791ZM21.2326 12.2791C21.6564 12.2791 22 12.6227 22 13.0465V13.1042C22 14.9848 22 16.4742 21.8433 17.6399C21.682 18.8396 21.3421 19.8106 20.5764 20.5764C19.8106 21.3421 18.8396 21.682 17.6399 21.8433C16.4742 22 14.9848 22 13.1042 22H13.0465C12.6227 22 12.2791 21.6564 12.2791 21.2326C12.2791 20.8087 12.6227 20.4651 13.0465 20.4651C14.9977 20.4651 16.3839 20.4635 17.4355 20.3221C18.4649 20.1837 19.058 19.9241 19.4911 19.4911C19.9241 19.058 20.1837 18.4649 20.3221 17.4355C20.4635 16.3839 20.4651 14.9977 20.4651 13.0465C20.4651 12.6227 20.8087 12.2791 21.2326 12.2791Z" fill="#00B0DC"/>
</svg>
