<svg width="32" height="32" viewBox="0 0 32 32" fill="none" xmlns="http://www.w3.org/2000/svg">
<path d="M16 0C7.16337 0 0 7.16337 0 16C0 24.8366 7.16337 32 16 32C24.8366 32 32 24.8366 32 16C32 7.16337 24.8366 0 16 0Z" fill="#40B3E0"/>
<path d="M23.7857 9.20412L20.9279 23.6125C20.9279 23.6125 20.5283 24.6117 19.4292 24.1321L12.8344 19.0761L10.4364 17.9171L6.39966 16.5581C6.39966 16.5581 5.78016 16.3384 5.72016 15.8587C5.66029 15.3791 6.41966 15.1194 6.41966 15.1194L22.4667 8.82437C22.4667 8.82437 23.7857 8.24487 23.7857 9.20412Z" fill="white"/>
<path d="M12.3267 23.4505C12.3267 23.4505 12.1342 23.4325 11.8943 22.673C11.6545 21.9136 10.4355 17.9168 10.4355 17.9168L20.1277 11.7618C20.1277 11.7618 20.6873 11.4221 20.6673 11.7618C20.6673 11.7618 20.7672 11.8217 20.4674 12.1015C20.1677 12.3813 12.8535 18.956 12.8535 18.956" fill="#D2E5F1"/>
</svg>
