<svg width="56" height="70" viewBox="0 0 56 70" fill="none" xmlns="http://www.w3.org/2000/svg">
<path d="M13.1257 0.935957C16.0872 0.0718123 19.4315 1.06359 21.5227 3.33313C26.6922 8.94853 22.8804 13.2769 25.4682 17.2071C27.032 19.5812 28.3451 23.7405 23.5016 26.2007C21.2628 27.3385 14.5911 33.2829 13.2257 33.4229C-0.617545 34.8452 -0.866648 20.8005 3.80004 16.7304C10.3565 11.0105 4.36435 3.49149 13.1257 0.935957Z" fill="#233862"/>
<path d="M20.3572 22.6475C20.3572 22.6475 32.9903 28.7672 35.3567 28.6642C37.7231 28.5612 52.5151 23.3517 52.5151 23.3517L52.1445 25.8596C52.1445 25.8596 40.8906 32.3314 36.9574 32.6989C33.0841 33.0602 19.839 29.2223 18.5613 28.412C17.282 27.6032 16.6423 23.4686 20.3572 22.6475Z" fill="#E7CAAD"/>
<path d="M21.7485 28.4211C20.603 29.2161 19.1684 29.8711 17.3663 30.2863C10.61 31.847 8.02061 26.1378 7.04883 22.2184C7.96986 21.691 8.83709 21.5757 9.33835 21.5157C9.82732 21.4588 10.3409 21.4204 10.7653 21.3988C11.5233 20.8176 12.655 18.4404 12.9041 14.7471L13.2224 14.8316L18.5472 16.2893C18.5472 16.2893 18.3027 17.9822 18.1843 19.5814C18.092 20.833 18.0767 22.0293 18.315 22.3229C18.7302 22.4137 18.9792 22.4721 18.9792 22.4721C18.9792 22.4721 18.9792 22.4736 18.9823 22.4767C19.0515 22.592 20.5953 25.1322 21.7485 28.4211Z" fill="#EAC1A4"/>
<path d="M18.5474 16.2892C18.5474 16.2892 18.303 17.9806 18.1846 19.5813C15.1678 19.2799 13.7685 16.4076 13.2227 14.8315L18.5474 16.2892Z" fill="#E7BA9B"/>
<path d="M19.4494 17.8773C19.4494 17.8773 12.2886 17.4821 12.6039 13.0276C12.9191 8.57309 12.2071 5.5209 16.7908 5.58548C21.376 5.65006 22.1433 7.41219 22.4001 8.92521C22.6568 10.4382 21.3191 17.865 19.4494 17.8773Z" fill="#EAC1A4"/>
<path d="M22.3624 6.43153C21.3537 5.0123 20.4972 5.24603 19.999 5.61506C16.2441 3.18562 13.498 6.18244 13.498 6.18244C12.7907 9.34379 10.3535 11.0106 10.3535 11.0106C10.3535 11.0106 11.6221 12.0254 14.6589 11.3519C18.5444 10.4909 19.8791 7.12039 20.0605 6.60374C20.4695 7.02659 20.9969 7.29569 21.4013 8.21519C21.8826 9.30536 22.184 9.93886 22.1932 11.7302C22.1932 11.7317 23.8754 8.56114 22.3624 6.43153Z" fill="#233862"/>
<path d="M5.00754 42.9778C4.3602 39.6719 2.25212 26.4668 4.3602 22.2168C5.11671 20.6899 8.08893 20.5531 11.3487 20.6869C12.3635 21.3419 16.2276 23.8159 17.816 23.5069C17.8329 23.5038 17.8636 23.4961 17.9051 23.4853C18.6524 23.2977 18.9353 22.7734 18.3111 22.3198C18.3095 22.3183 19.7426 22.4213 21.7476 22.798C22.8809 23.0118 25.99 24.9199 25.99 24.9199C25.99 24.9199 24.58 27.1141 22.312 28.0721C22.6979 31.5225 22.1244 33.0447 18.5448 41.0127C15.5203 47.749 18.9523 53.8134 18.9523 53.8134C18.9523 53.8134 1.1481 68.1272 1.0497 60.8388C0.974352 55.3541 5.83478 47.2032 5.00754 42.9778Z" fill="#3E6897"/>
<path d="M19.838 69.3804C20.8067 69.2713 21.6785 68.7408 22.2197 67.9305C22.3059 67.8013 22.3981 67.6629 22.495 67.5153C24.5216 64.4477 25.3104 55.0529 29.8679 45.0429C30.978 42.6058 34.9636 42.1676 36.0507 39.4137C36.0507 39.4137 38.7261 30.4847 30.9304 30.2218C23.1346 29.9588 10.0556 55.0636 9.84955 57.6976C9.64966 60.2485 4.69545 71.0887 19.838 69.3804Z" fill="#092956"/>
<path d="M50.8191 69.328H39.7252C39.7252 69.328 39.31 67.512 40.0388 66.2758C40.6831 65.1825 40.4371 64.5583 39.9589 63.6541C40.4617 63.8648 41.1121 64.057 41.8271 64.0155C42.3791 63.9832 42.9649 63.7249 43.477 63.4204C43.9552 63.9786 45.9987 66.3588 46.6383 66.8293C47.3625 67.3629 50.5962 67.1722 50.8191 69.328Z" fill="#5572A6"/>
<path d="M36.3052 32.8034C36.9725 37.8115 39.5819 53.6182 44.184 61.3309C45.6678 63.8173 40.446 65.2104 40.4183 65.2042C39.7187 65.0213 38.5516 63.9049 38.0135 63.4206C34.2771 60.0532 26.6935 50.5199 26.6935 42.8764C26.6935 39.1492 26.6289 32.0315 29.3382 30.2218C31.0065 29.107 36.0392 30.8137 36.3052 32.8034Z" fill="#092956"/>
<path d="M5.44336 28.4133C5.44336 28.4133 7.69444 32.9939 18.2041 36.2291C28.7138 39.4658 22.7016 31.3348 22.7016 31.3348L8.00964 26.2007L5.44336 28.4133Z" fill="#336195"/>
<path d="M14.4184 69.3908C14.4184 69.3908 14.9812 68.5482 15.3379 67.295C15.9345 65.2023 16.1467 63.6785 17.2922 60.4188C18.4962 56.996 19.9231 52.786 21.7067 48.4053C22.2572 47.0538 22.8415 45.6853 23.4643 44.3183C24.5744 41.8812 27.6297 42.2179 28.7152 39.464C28.7152 39.464 32.956 29.9154 25.1603 29.6509C17.366 29.388 2.55411 55.197 1.7038 57.6956C0.770464 60.4341 -2.57693 72.0125 14.4184 69.3908Z" fill="#163560"/>
<path d="M42.6726 69.328H31.5787C31.5787 69.328 31.1635 67.512 31.8924 66.2758C32.5366 65.1825 32.2906 64.5583 31.8124 63.6541C32.3152 63.8648 32.9656 64.057 33.6806 64.0155C34.2326 63.9832 34.8185 63.7249 35.3305 63.4204C35.8087 63.9786 37.8522 66.3588 38.4918 66.8293C39.2176 67.3629 42.4497 67.1722 42.6726 69.328Z" fill="#5572A6"/>
<g opacity="0.5">
<path d="M17.2925 60.4205C18.4965 56.9978 19.9234 52.7878 21.707 48.4071C21.2411 45.0889 20.2355 42.1843 18.5457 41.0142C18.5472 41.0157 14.4464 53.7165 17.2925 60.4205Z" fill="#535353"/>
</g>
<path d="M29.8288 32.4478C30.4962 37.4558 31.4372 53.6178 36.0393 61.3305C37.5231 63.8168 32.3013 65.2099 32.2737 65.2038C31.574 65.0208 30.407 63.9045 29.8688 63.4201C26.1324 60.0527 18.5488 50.5195 18.5488 42.8759C18.5488 39.1487 22.9234 32.3294 25.6327 30.5211C27.301 29.4048 29.5628 30.4596 29.8288 32.4478Z" fill="#163560"/>
<path d="M53.8437 16.8982L42.4822 15.6912C42.1516 15.6558 41.8379 15.848 41.7195 16.1601L37.6541 26.842C37.4757 27.311 37.8094 27.8153 38.3106 27.8353L49.5845 28.2905C49.8905 28.3028 50.1719 28.1229 50.2903 27.8415L54.4434 17.9115C54.6325 17.4579 54.3327 16.9505 53.8437 16.8982Z" fill="#058AAA"/>
<path d="M54.8281 17.0013L43.4666 15.7942C43.136 15.7588 42.8223 15.9511 42.7039 16.2632L38.6384 26.9451C38.4601 27.414 38.7937 27.9184 39.295 27.9384L50.5689 28.3935C50.8749 28.4058 51.1562 28.2259 51.2746 27.943L55.4277 18.013C55.6169 17.561 55.3155 17.0535 54.8281 17.0013Z" fill="#007490"/>
<path d="M48.5325 21.9892C48.6709 21.6079 48.4741 21.2988 48.0927 21.2988C47.7114 21.2988 47.2901 21.6079 47.1517 21.9892C47.0133 22.3706 47.2101 22.6796 47.5915 22.6796C47.9728 22.6796 48.3941 22.3706 48.5325 21.9892Z" fill="#EBF3FA"/>
<path d="M54.4887 18.0117C54.5564 17.8241 54.4611 17.6719 54.2735 17.6719C54.0859 17.6719 53.8783 17.8241 53.8106 18.0117C53.743 18.1993 53.8399 18.3515 54.0259 18.3515C54.212 18.3515 54.4211 18.1993 54.4887 18.0117Z" fill="#EBF3FA"/>
<path d="M7.04683 22.2168C7.04683 22.2168 22.7936 28.0152 25.1585 27.8968C26.6884 27.8199 39.3984 23.3516 39.3984 23.3516L40.5394 25.5104C40.5394 25.5104 28.1676 33.4614 24.7664 33.423C18.0516 33.3461 6.72087 29.2238 5.4431 28.4134C4.16534 27.6031 3.33193 23.0379 7.04683 22.2168Z" fill="#EAC1A4"/>
<path d="M39.4043 23.3516C39.4043 23.3516 40.5452 21.5957 41.6815 21.5434C42.8178 21.4911 44.7798 22.3184 45.4518 22.4475C46.1237 22.5767 48.0334 23.1963 47.466 24.1266C46.8971 25.0569 44.2632 25.2629 43.1284 25.0569C41.9921 24.8508 40.5467 25.512 40.5467 25.512L39.4043 23.3516Z" fill="#EAC1A4"/>
<path d="M41.3691 21.5986C41.3691 21.5986 43.1759 20.7698 43.6925 20.6145C44.2091 20.4592 44.1061 20.6176 43.9508 21.1066C43.7955 21.5955 42.8668 22.063 42.8668 22.2167C42.8668 22.3705 41.3691 21.5986 41.3691 21.5986Z" fill="#E7CAAD"/>
<path d="M53.6604 22.4227C53.6604 22.4227 52.9393 20.0471 52.1474 20.7944C51.3232 21.5709 51.8229 22.3474 51.9244 23.3376C52.1166 25.2304 52.4995 25.1489 52.7425 25.0643C52.9854 24.9798 53.928 23.3745 53.6604 22.4227Z" fill="#EAC1A4"/>
<path d="M53.6987 22.7842C53.6987 22.7842 54.0631 24.8062 52.1426 25.861L52.7115 24.4694L53.6987 22.7842Z" fill="#E7CAAD"/>
<path d="M20.7867 15.3157C20.7867 15.3157 20.1102 15.0482 18.2051 15.2019C18.2051 15.2019 18.3065 15.9446 19.7104 16.0184C20.5069 16.06 20.7867 15.3157 20.7867 15.3157Z" fill="white"/>
<path d="M15.1611 25.0765C15.1611 25.0765 13.7527 29.5341 8.91685 30.5489C8.91685 30.5489 0.930437 28.0887 4.90673 22.6471C4.90673 22.6471 8.83843 19.7256 15.1611 25.0765Z" fill="#3E6897"/>
<path d="M53.7015 23.0701C53.7015 23.0701 54.0337 21.9569 54.0521 21.7647C54.0706 21.5725 54.0475 21.4756 53.8768 21.6109C53.7062 21.7462 53.4447 22.103 53.5216 22.4397C53.5985 22.7764 53.7015 23.0701 53.7015 23.0701Z" fill="#E7CAAD"/>
</svg>
