<svg width="100" height="174" viewBox="0 0 100 174" fill="none" xmlns="http://www.w3.org/2000/svg">
<path d="M89.7372 171.995H10.1868C5.18794 171.995 1.13477 167.942 1.13477 162.943V10.7644C1.13477 5.76558 5.18794 1.7124 10.1868 1.7124H89.7372C94.7361 1.7124 98.7892 5.76558 98.7892 10.7644V162.943C98.7892 167.942 94.7376 171.995 89.7372 171.995Z" fill="#00B0DC"/>
<path d="M89.7388 173.131H10.1883C4.57135 173.131 0 168.562 0 162.943V10.7645C0 5.14753 4.56981 0.576172 10.1883 0.576172H89.7403C95.3573 0.576172 99.9271 5.14599 99.9271 10.7645V162.943C99.9271 168.56 95.3573 173.131 89.7388 173.131ZM10.1883 2.84878C5.82451 2.84878 2.2726 6.39915 2.2726 10.7645V162.943C2.2726 167.308 5.82297 170.859 10.1883 170.859H89.7403C94.1041 170.859 97.656 167.308 97.656 162.943V10.7645C97.656 6.40069 94.1056 2.84878 89.7403 2.84878H10.1883Z" fill="#2B478B"/>
<g opacity="0.9">
<path d="M82.0753 46.521H17.8457V110.751H82.0753V46.521Z" fill="white"/>
</g>
<path d="M26.8376 104.01H24.2852V106.562H26.8376V104.01Z" fill="#2B478B"/>
<path d="M29.3903 104.01H26.8379V106.562H29.3903V104.01Z" fill="#2B478B"/>
<path d="M31.9431 104.01H29.3906V106.562H31.9431V104.01Z" fill="#2B478B"/>
<path d="M34.4939 104.01H31.9414V106.562H34.4939V104.01Z" fill="#2B478B"/>
<path d="M37.0486 104.01H34.4961V106.562H37.0486V104.01Z" fill="#2B478B"/>
<path d="M42.154 104.01H39.6016V106.562H42.154V104.01Z" fill="#2B478B"/>
<path d="M44.7048 104.01H42.1523V106.562H44.7048V104.01Z" fill="#2B478B"/>
<path d="M52.363 104.01H49.8105V106.562H52.363V104.01Z" fill="#2B478B"/>
<path d="M57.6192 104.01H54.916V106.562H57.6192V104.01Z" fill="#2B478B"/>
<path d="M60.1716 104.01H57.6191V106.562H60.1716V104.01Z" fill="#2B478B"/>
<path d="M65.2751 104.01H62.7227V106.562H65.2751V104.01Z" fill="#2B478B"/>
<path d="M67.8298 104.01H65.2773V106.562H67.8298V104.01Z" fill="#2B478B"/>
<path d="M70.3806 104.01H67.8281V106.562H70.3806V104.01Z" fill="#2B478B"/>
<path d="M72.9353 104.01H70.3828V106.562H72.9353V104.01Z" fill="#2B478B"/>
<path d="M75.488 104.01H72.9355V106.562H75.488V104.01Z" fill="#2B478B"/>
<path d="M78.1914 104.01H75.4883V106.562H78.1914V104.01Z" fill="#2B478B"/>
<path d="M24.2829 104.01H21.7305V106.562H24.2829V104.01Z" fill="#2B478B"/>
<path d="M37.0486 101.457H34.4961V104.01H37.0486V101.457Z" fill="#2B478B"/>
<path d="M44.7048 101.457H42.1523V104.01H44.7048V101.457Z" fill="#2B478B"/>
<path d="M49.8103 101.457H47.2578V104.01H49.8103V101.457Z" fill="#2B478B"/>
<path d="M52.363 101.457H49.8105V104.01H52.363V101.457Z" fill="#2B478B"/>
<path d="M54.9157 101.457H52.3633V104.01H54.9157V101.457Z" fill="#2B478B"/>
<path d="M57.6192 101.457H54.916V104.01H57.6192V101.457Z" fill="#2B478B"/>
<path d="M65.2751 101.457H62.7227V104.01H65.2751V101.457Z" fill="#2B478B"/>
<path d="M78.1914 101.457H75.4883V104.01H78.1914V101.457Z" fill="#2B478B"/>
<path d="M24.2829 101.457H21.7305V104.01H24.2829V101.457Z" fill="#2B478B"/>
<path d="M29.3903 98.9048H26.8379V101.457H29.3903V98.9048Z" fill="#2B478B"/>
<path d="M31.9431 98.9048H29.3906V101.457H31.9431V98.9048Z" fill="#2B478B"/>
<path d="M37.0486 98.9048H34.4961V101.457H37.0486V98.9048Z" fill="#2B478B"/>
<path d="M42.154 98.9048H39.6016V101.457H42.154V98.9048Z" fill="#2B478B"/>
<path d="M44.7048 98.9048H42.1523V101.457H44.7048V98.9048Z" fill="#2B478B"/>
<path d="M47.2575 98.9048H44.7051V101.457H47.2575V98.9048Z" fill="#2B478B"/>
<path d="M52.363 98.9048H49.8105V101.457H52.363V98.9048Z" fill="#2B478B"/>
<path d="M54.9157 98.9048H52.3633V101.457H54.9157V98.9048Z" fill="#2B478B"/>
<path d="M57.6192 98.9048H54.916V101.457H57.6192V98.9048Z" fill="#2B478B"/>
<path d="M60.1716 98.9048H57.6191V101.457H60.1716V98.9048Z" fill="#2B478B"/>
<path d="M65.2751 98.9048H62.7227V101.457H65.2751V98.9048Z" fill="#2B478B"/>
<path d="M70.3806 98.9048H67.8281V101.457H70.3806V98.9048Z" fill="#2B478B"/>
<path d="M72.9353 98.9048H70.3828V101.457H72.9353V98.9048Z" fill="#2B478B"/>
<path d="M78.1914 98.9048H75.4883V101.457H78.1914V98.9048Z" fill="#2B478B"/>
<path d="M24.2829 98.9048H21.7305V101.457H24.2829V98.9048Z" fill="#2B478B"/>
<path d="M29.3903 96.3521H26.8379V98.9045H29.3903V96.3521Z" fill="#2B478B"/>
<path d="M31.9431 96.3521H29.3906V98.9045H31.9431V96.3521Z" fill="#2B478B"/>
<path d="M37.0486 96.3521H34.4961V98.9045H37.0486V96.3521Z" fill="#2B478B"/>
<path d="M42.154 96.3521H39.6016V98.9045H42.154V96.3521Z" fill="#2B478B"/>
<path d="M47.2575 96.3521H44.7051V98.9045H47.2575V96.3521Z" fill="#2B478B"/>
<path d="M52.363 96.3521H49.8105V98.9045H52.363V96.3521Z" fill="#2B478B"/>
<path d="M65.2751 96.3521H62.7227V98.9045H65.2751V96.3521Z" fill="#2B478B"/>
<path d="M70.3806 96.3521H67.8281V98.9045H70.3806V96.3521Z" fill="#2B478B"/>
<path d="M72.9353 96.3521H70.3828V98.9045H72.9353V96.3521Z" fill="#2B478B"/>
<path d="M78.1914 96.3521H75.4883V98.9045H78.1914V96.3521Z" fill="#2B478B"/>
<path d="M24.2829 96.3521H21.7305V98.9045H24.2829V96.3521Z" fill="#2B478B"/>
<path d="M37.0486 93.7998H34.4961V96.3523H37.0486V93.7998Z" fill="#2B478B"/>
<path d="M42.154 93.7998H39.6016V96.3523H42.154V93.7998Z" fill="#2B478B"/>
<path d="M44.7048 93.7998H42.1523V96.3523H44.7048V93.7998Z" fill="#2B478B"/>
<path d="M47.2575 93.7998H44.7051V96.3523H47.2575V93.7998Z" fill="#2B478B"/>
<path d="M52.363 93.7998H49.8105V96.3523H52.363V93.7998Z" fill="#2B478B"/>
<path d="M54.9157 93.7998H52.3633V96.3523H54.9157V93.7998Z" fill="#2B478B"/>
<path d="M60.1716 93.7998H57.6191V96.3523H60.1716V93.7998Z" fill="#2B478B"/>
<path d="M65.2751 93.7998H62.7227V96.3523H65.2751V93.7998Z" fill="#2B478B"/>
<path d="M78.1914 93.7998H75.4883V96.3523H78.1914V93.7998Z" fill="#2B478B"/>
<path d="M24.2829 93.7998H21.7305V96.3523H24.2829V93.7998Z" fill="#2B478B"/>
<path d="M26.8376 91.2471H24.2852V93.7995H26.8376V91.2471Z" fill="#2B478B"/>
<path d="M29.3903 91.2471H26.8379V93.7995H29.3903V91.2471Z" fill="#2B478B"/>
<path d="M31.9431 91.2471H29.3906V93.7995H31.9431V91.2471Z" fill="#2B478B"/>
<path d="M34.4939 91.2471H31.9414V93.7995H34.4939V91.2471Z" fill="#2B478B"/>
<path d="M37.0486 91.2471H34.4961V93.7995H37.0486V91.2471Z" fill="#2B478B"/>
<path d="M42.154 91.2471H39.6016V93.7995H42.154V91.2471Z" fill="#2B478B"/>
<path d="M47.2575 91.2471H44.7051V93.7995H47.2575V91.2471Z" fill="#2B478B"/>
<path d="M49.8103 91.2471H47.2578V93.7995H49.8103V91.2471Z" fill="#2B478B"/>
<path d="M54.9157 91.2471H52.3633V93.7995H54.9157V91.2471Z" fill="#2B478B"/>
<path d="M65.2751 91.2471H62.7227V93.7995H65.2751V91.2471Z" fill="#2B478B"/>
<path d="M67.8298 91.2471H65.2773V93.7995H67.8298V91.2471Z" fill="#2B478B"/>
<path d="M70.3806 91.2471H67.8281V93.7995H70.3806V91.2471Z" fill="#2B478B"/>
<path d="M72.9353 91.2471H70.3828V93.7995H72.9353V91.2471Z" fill="#2B478B"/>
<path d="M75.488 91.2471H72.9355V93.7995H75.488V91.2471Z" fill="#2B478B"/>
<path d="M78.1914 91.2471H75.4883V93.7995H78.1914V91.2471Z" fill="#2B478B"/>
<path d="M24.2829 91.2471H21.7305V93.7995H24.2829V91.2471Z" fill="#2B478B"/>
<path d="M49.8103 88.6948H47.2578V91.2473H49.8103V88.6948Z" fill="#2B478B"/>
<path d="M52.363 88.6948H49.8105V91.2473H52.363V88.6948Z" fill="#2B478B"/>
<path d="M54.9157 88.6948H52.3633V91.2473H54.9157V88.6948Z" fill="#2B478B"/>
<path d="M60.1716 88.6948H57.6191V91.2473H60.1716V88.6948Z" fill="#2B478B"/>
<path d="M26.8376 86.1421H24.2852V88.6945H26.8376V86.1421Z" fill="#2B478B"/>
<path d="M29.3903 86.1421H26.8379V88.6945H29.3903V86.1421Z" fill="#2B478B"/>
<path d="M31.9431 86.1421H29.3906V88.6945H31.9431V86.1421Z" fill="#2B478B"/>
<path d="M34.4939 86.1421H31.9414V88.6945H34.4939V86.1421Z" fill="#2B478B"/>
<path d="M42.154 86.1421H39.6016V88.6945H42.154V86.1421Z" fill="#2B478B"/>
<path d="M44.7048 86.1421H42.1523V88.6945H44.7048V86.1421Z" fill="#2B478B"/>
<path d="M47.2575 86.1421H44.7051V88.6945H47.2575V86.1421Z" fill="#2B478B"/>
<path d="M52.363 86.1421H49.8105V88.6945H52.363V86.1421Z" fill="#2B478B"/>
<path d="M54.9157 86.1421H52.3633V88.6945H54.9157V86.1421Z" fill="#2B478B"/>
<path d="M57.6192 86.1421H54.916V88.6945H57.6192V86.1421Z" fill="#2B478B"/>
<path d="M60.1716 86.1421H57.6191V88.6945H60.1716V86.1421Z" fill="#2B478B"/>
<path d="M62.7243 86.1421H60.1719V88.6945H62.7243V86.1421Z" fill="#2B478B"/>
<path d="M65.2751 86.1421H62.7227V88.6945H65.2751V86.1421Z" fill="#2B478B"/>
<path d="M67.8298 86.1421H65.2773V88.6945H67.8298V86.1421Z" fill="#2B478B"/>
<path d="M70.3806 86.1421H67.8281V88.6945H70.3806V86.1421Z" fill="#2B478B"/>
<path d="M75.488 86.1421H72.9355V88.6945H75.488V86.1421Z" fill="#2B478B"/>
<path d="M78.1914 86.1421H75.4883V88.6945H78.1914V86.1421Z" fill="#2B478B"/>
<path d="M29.3903 83.5898H26.8379V86.1423H29.3903V83.5898Z" fill="#2B478B"/>
<path d="M31.9431 83.5898H29.3906V86.1423H31.9431V83.5898Z" fill="#2B478B"/>
<path d="M39.5993 83.5898H37.0469V86.1423H39.5993V83.5898Z" fill="#2B478B"/>
<path d="M42.154 83.5898H39.6016V86.1423H42.154V83.5898Z" fill="#2B478B"/>
<path d="M47.2575 83.5898H44.7051V86.1423H47.2575V83.5898Z" fill="#2B478B"/>
<path d="M54.9157 83.5898H52.3633V86.1423H54.9157V83.5898Z" fill="#2B478B"/>
<path d="M60.1716 83.5898H57.6191V86.1423H60.1716V83.5898Z" fill="#2B478B"/>
<path d="M62.7243 83.5898H60.1719V86.1423H62.7243V83.5898Z" fill="#2B478B"/>
<path d="M67.8298 83.5898H65.2773V86.1423H67.8298V83.5898Z" fill="#2B478B"/>
<path d="M70.3806 83.5898H67.8281V86.1423H70.3806V83.5898Z" fill="#2B478B"/>
<path d="M26.8376 81.0376H24.2852V83.59H26.8376V81.0376Z" fill="#2B478B"/>
<path d="M31.9431 81.0376H29.3906V83.59H31.9431V81.0376Z" fill="#2B478B"/>
<path d="M34.4939 81.0376H31.9414V83.59H34.4939V81.0376Z" fill="#2B478B"/>
<path d="M37.0486 81.0376H34.4961V83.59H37.0486V81.0376Z" fill="#2B478B"/>
<path d="M39.5993 81.0376H37.0469V83.59H39.5993V81.0376Z" fill="#2B478B"/>
<path d="M44.7048 81.0376H42.1523V83.59H44.7048V81.0376Z" fill="#2B478B"/>
<path d="M47.2575 81.0376H44.7051V83.59H47.2575V81.0376Z" fill="#2B478B"/>
<path d="M49.8103 81.0376H47.2578V83.59H49.8103V81.0376Z" fill="#2B478B"/>
<path d="M52.363 81.0376H49.8105V83.59H52.363V81.0376Z" fill="#2B478B"/>
<path d="M54.9157 81.0376H52.3633V83.59H54.9157V81.0376Z" fill="#2B478B"/>
<path d="M57.6192 81.0376H54.916V83.59H57.6192V81.0376Z" fill="#2B478B"/>
<path d="M70.3806 81.0376H67.8281V83.59H70.3806V81.0376Z" fill="#2B478B"/>
<path d="M72.9353 81.0376H70.3828V83.59H72.9353V81.0376Z" fill="#2B478B"/>
<path d="M78.1914 81.0376H75.4883V83.59H78.1914V81.0376Z" fill="#2B478B"/>
<path d="M24.2829 81.0376H21.7305V83.59H24.2829V81.0376Z" fill="#2B478B"/>
<path d="M26.8376 78.4849H24.2852V81.0373H26.8376V78.4849Z" fill="#2B478B"/>
<path d="M29.3903 78.4849H26.8379V81.0373H29.3903V78.4849Z" fill="#2B478B"/>
<path d="M31.9431 78.4849H29.3906V81.0373H31.9431V78.4849Z" fill="#2B478B"/>
<path d="M42.154 78.4849H39.6016V81.0373H42.154V78.4849Z" fill="#2B478B"/>
<path d="M44.7048 78.4849H42.1523V81.0373H44.7048V78.4849Z" fill="#2B478B"/>
<path d="M54.9157 78.4849H52.3633V81.0373H54.9157V78.4849Z" fill="#2B478B"/>
<path d="M62.7243 78.4849H60.1719V81.0373H62.7243V78.4849Z" fill="#2B478B"/>
<path d="M65.2751 78.4849H62.7227V81.0373H65.2751V78.4849Z" fill="#2B478B"/>
<path d="M70.3806 78.4849H67.8281V81.0373H70.3806V78.4849Z" fill="#2B478B"/>
<path d="M72.9353 78.4849H70.3828V81.0373H72.9353V78.4849Z" fill="#2B478B"/>
<path d="M75.488 78.4849H72.9355V81.0373H75.488V78.4849Z" fill="#2B478B"/>
<path d="M78.1914 78.4849H75.4883V81.0373H78.1914V78.4849Z" fill="#2B478B"/>
<path d="M24.2829 78.4849H21.7305V81.0373H24.2829V78.4849Z" fill="#2B478B"/>
<path d="M31.9431 75.9326H29.3906V78.4851H31.9431V75.9326Z" fill="#2B478B"/>
<path d="M34.4939 75.9326H31.9414V78.4851H34.4939V75.9326Z" fill="#2B478B"/>
<path d="M37.0486 75.9326H34.4961V78.4851H37.0486V75.9326Z" fill="#2B478B"/>
<path d="M39.5993 75.9326H37.0469V78.4851H39.5993V75.9326Z" fill="#2B478B"/>
<path d="M42.154 75.9326H39.6016V78.4851H42.154V75.9326Z" fill="#2B478B"/>
<path d="M44.7048 75.9326H42.1523V78.4851H44.7048V75.9326Z" fill="#2B478B"/>
<path d="M52.363 75.9326H49.8105V78.4851H52.363V75.9326Z" fill="#2B478B"/>
<path d="M60.1716 75.9326H57.6191V78.4851H60.1716V75.9326Z" fill="#2B478B"/>
<path d="M62.7243 75.9326H60.1719V78.4851H62.7243V75.9326Z" fill="#2B478B"/>
<path d="M72.9353 75.9326H70.3828V78.4851H72.9353V75.9326Z" fill="#2B478B"/>
<path d="M24.2829 75.9326H21.7305V78.4851H24.2829V75.9326Z" fill="#2B478B"/>
<path d="M26.8376 73.3804H24.2852V75.9328H26.8376V73.3804Z" fill="#2B478B"/>
<path d="M29.3903 73.3804H26.8379V75.9328H29.3903V73.3804Z" fill="#2B478B"/>
<path d="M31.9431 73.3804H29.3906V75.9328H31.9431V73.3804Z" fill="#2B478B"/>
<path d="M34.4939 73.3804H31.9414V75.9328H34.4939V73.3804Z" fill="#2B478B"/>
<path d="M39.5993 73.3804H37.0469V75.9328H39.5993V73.3804Z" fill="#2B478B"/>
<path d="M44.7048 73.3804H42.1523V75.9328H44.7048V73.3804Z" fill="#2B478B"/>
<path d="M47.2575 73.3804H44.7051V75.9328H47.2575V73.3804Z" fill="#2B478B"/>
<path d="M52.363 73.3804H49.8105V75.9328H52.363V73.3804Z" fill="#2B478B"/>
<path d="M54.9157 73.3804H52.3633V75.9328H54.9157V73.3804Z" fill="#2B478B"/>
<path d="M57.6192 73.3804H54.916V75.9328H57.6192V73.3804Z" fill="#2B478B"/>
<path d="M60.1716 73.3804H57.6191V75.9328H60.1716V73.3804Z" fill="#2B478B"/>
<path d="M65.2751 73.3804H62.7227V75.9328H65.2751V73.3804Z" fill="#2B478B"/>
<path d="M67.8298 73.3804H65.2773V75.9328H67.8298V73.3804Z" fill="#2B478B"/>
<path d="M70.3806 73.3804H67.8281V75.9328H70.3806V73.3804Z" fill="#2B478B"/>
<path d="M72.9353 73.3804H70.3828V75.9328H72.9353V73.3804Z" fill="#2B478B"/>
<path d="M78.1914 73.3804H75.4883V75.9328H78.1914V73.3804Z" fill="#2B478B"/>
<path d="M26.8376 70.8262H24.2852V73.3786H26.8376V70.8262Z" fill="#2B478B"/>
<path d="M31.9431 70.8262H29.3906V73.3786H31.9431V70.8262Z" fill="#2B478B"/>
<path d="M37.0486 70.8262H34.4961V73.3786H37.0486V70.8262Z" fill="#2B478B"/>
<path d="M39.5993 70.8262H37.0469V73.3786H39.5993V70.8262Z" fill="#2B478B"/>
<path d="M47.2575 70.8262H44.7051V73.3786H47.2575V70.8262Z" fill="#2B478B"/>
<path d="M49.8103 70.8262H47.2578V73.3786H49.8103V70.8262Z" fill="#2B478B"/>
<path d="M52.363 70.8262H49.8105V73.3786H52.363V70.8262Z" fill="#2B478B"/>
<path d="M57.6192 70.8262H54.916V73.3786H57.6192V70.8262Z" fill="#2B478B"/>
<path d="M60.1716 70.8262H57.6191V73.3786H60.1716V70.8262Z" fill="#2B478B"/>
<path d="M62.7243 70.8262H60.1719V73.3786H62.7243V70.8262Z" fill="#2B478B"/>
<path d="M67.8298 70.8262H65.2773V73.3786H67.8298V70.8262Z" fill="#2B478B"/>
<path d="M72.9353 70.8262H70.3828V73.3786H72.9353V70.8262Z" fill="#2B478B"/>
<path d="M75.488 70.8262H72.9355V73.3786H75.488V70.8262Z" fill="#2B478B"/>
<path d="M78.1914 70.8262H75.4883V73.3786H78.1914V70.8262Z" fill="#2B478B"/>
<path d="M24.2829 70.8262H21.7305V73.3786H24.2829V70.8262Z" fill="#2B478B"/>
<path d="M26.8376 68.2734H24.2852V70.8259H26.8376V68.2734Z" fill="#2B478B"/>
<path d="M37.0486 68.2734H34.4961V70.8259H37.0486V68.2734Z" fill="#2B478B"/>
<path d="M39.5993 68.2734H37.0469V70.8259H39.5993V68.2734Z" fill="#2B478B"/>
<path d="M44.7048 68.2734H42.1523V70.8259H44.7048V68.2734Z" fill="#2B478B"/>
<path d="M47.2575 68.2734H44.7051V70.8259H47.2575V68.2734Z" fill="#2B478B"/>
<path d="M52.363 68.2734H49.8105V70.8259H52.363V68.2734Z" fill="#2B478B"/>
<path d="M54.9157 68.2734H52.3633V70.8259H54.9157V68.2734Z" fill="#2B478B"/>
<path d="M60.1716 68.2734H57.6191V70.8259H60.1716V68.2734Z" fill="#2B478B"/>
<path d="M62.7243 68.2734H60.1719V70.8259H62.7243V68.2734Z" fill="#2B478B"/>
<path d="M65.2751 68.2734H62.7227V70.8259H65.2751V68.2734Z" fill="#2B478B"/>
<path d="M67.8298 68.2734H65.2773V70.8259H67.8298V68.2734Z" fill="#2B478B"/>
<path d="M70.3806 68.2734H67.8281V70.8259H70.3806V68.2734Z" fill="#2B478B"/>
<path d="M72.9353 68.2734H70.3828V70.8259H72.9353V68.2734Z" fill="#2B478B"/>
<path d="M24.2829 68.2734H21.7305V70.8259H24.2829V68.2734Z" fill="#2B478B"/>
<path d="M44.7048 65.7212H42.1523V68.2737H44.7048V65.7212Z" fill="#2B478B"/>
<path d="M49.8103 65.7212H47.2578V68.2737H49.8103V65.7212Z" fill="#2B478B"/>
<path d="M52.363 65.7212H49.8105V68.2737H52.363V65.7212Z" fill="#2B478B"/>
<path d="M57.6192 65.7212H54.916V68.2737H57.6192V65.7212Z" fill="#2B478B"/>
<path d="M60.1716 65.7212H57.6191V68.2737H60.1716V65.7212Z" fill="#2B478B"/>
<path d="M62.7243 65.7212H60.1719V68.2737H62.7243V65.7212Z" fill="#2B478B"/>
<path d="M26.8376 63.1685H24.2852V65.7209H26.8376V63.1685Z" fill="#2B478B"/>
<path d="M29.3903 63.1685H26.8379V65.7209H29.3903V63.1685Z" fill="#2B478B"/>
<path d="M31.9431 63.1685H29.3906V65.7209H31.9431V63.1685Z" fill="#2B478B"/>
<path d="M34.4939 63.1685H31.9414V65.7209H34.4939V63.1685Z" fill="#2B478B"/>
<path d="M37.0486 63.1685H34.4961V65.7209H37.0486V63.1685Z" fill="#2B478B"/>
<path d="M42.154 63.1685H39.6016V65.7209H42.154V63.1685Z" fill="#2B478B"/>
<path d="M44.7048 63.1685H42.1523V65.7209H44.7048V63.1685Z" fill="#2B478B"/>
<path d="M52.363 63.1685H49.8105V65.7209H52.363V63.1685Z" fill="#2B478B"/>
<path d="M62.7243 63.1685H60.1719V65.7209H62.7243V63.1685Z" fill="#2B478B"/>
<path d="M65.2751 63.1685H62.7227V65.7209H65.2751V63.1685Z" fill="#2B478B"/>
<path d="M70.3806 63.1685H67.8281V65.7209H70.3806V63.1685Z" fill="#2B478B"/>
<path d="M78.1914 63.1685H75.4883V65.7209H78.1914V63.1685Z" fill="#2B478B"/>
<path d="M24.2829 63.1685H21.7305V65.7209H24.2829V63.1685Z" fill="#2B478B"/>
<path d="M37.0486 60.6162H34.4961V63.1687H37.0486V60.6162Z" fill="#2B478B"/>
<path d="M57.6192 60.6162H54.916V63.1687H57.6192V60.6162Z" fill="#2B478B"/>
<path d="M60.1716 60.6162H57.6191V63.1687H60.1716V60.6162Z" fill="#2B478B"/>
<path d="M65.2751 60.6162H62.7227V63.1687H65.2751V60.6162Z" fill="#2B478B"/>
<path d="M67.8298 60.6162H65.2773V63.1687H67.8298V60.6162Z" fill="#2B478B"/>
<path d="M72.9353 60.6162H70.3828V63.1687H72.9353V60.6162Z" fill="#2B478B"/>
<path d="M75.488 60.6162H72.9355V63.1687H75.488V60.6162Z" fill="#2B478B"/>
<path d="M78.1914 60.6162H75.4883V63.1687H78.1914V60.6162Z" fill="#2B478B"/>
<path d="M24.2829 60.6162H21.7305V63.1687H24.2829V60.6162Z" fill="#2B478B"/>
<path d="M29.3903 58.064H26.8379V60.6164H29.3903V58.064Z" fill="#2B478B"/>
<path d="M31.9431 58.064H29.3906V60.6164H31.9431V58.064Z" fill="#2B478B"/>
<path d="M37.0486 58.064H34.4961V60.6164H37.0486V58.064Z" fill="#2B478B"/>
<path d="M42.154 58.064H39.6016V60.6164H42.154V58.064Z" fill="#2B478B"/>
<path d="M44.7048 58.064H42.1523V60.6164H44.7048V58.064Z" fill="#2B478B"/>
<path d="M49.8103 58.0635H47.2578V60.6159H49.8103V58.0635Z" fill="#2B478B"/>
<path d="M52.363 58.0635H49.8105V60.6159H52.363V58.0635Z" fill="#2B478B"/>
<path d="M57.6192 58.064H54.916V60.6164H57.6192V58.064Z" fill="#2B478B"/>
<path d="M67.8298 58.064H65.2773V60.6164H67.8298V58.064Z" fill="#2B478B"/>
<path d="M70.3806 58.064H67.8281V60.6164H70.3806V58.064Z" fill="#2B478B"/>
<path d="M72.9353 58.064H70.3828V60.6164H72.9353V58.064Z" fill="#2B478B"/>
<path d="M24.2829 58.0635H21.7305V60.6159H24.2829V58.0635Z" fill="#2B478B"/>
<path d="M29.3903 55.5112H26.8379V58.0637H29.3903V55.5112Z" fill="#2B478B"/>
<path d="M31.9431 55.5112H29.3906V58.0637H31.9431V55.5112Z" fill="#2B478B"/>
<path d="M37.0486 55.5112H34.4961V58.0637H37.0486V55.5112Z" fill="#2B478B"/>
<path d="M42.154 55.5112H39.6016V58.0637H42.154V55.5112Z" fill="#2B478B"/>
<path d="M47.2575 55.5112H44.7051V58.0637H47.2575V55.5112Z" fill="#2B478B"/>
<path d="M49.8103 55.5112H47.2578V58.0637H49.8103V55.5112Z" fill="#2B478B"/>
<path d="M52.363 55.5112H49.8105V58.0637H52.363V55.5112Z" fill="#2B478B"/>
<path d="M54.9157 55.5112H52.3633V58.0637H54.9157V55.5112Z" fill="#2B478B"/>
<path d="M57.6192 55.5112H54.916V58.0637H57.6192V55.5112Z" fill="#2B478B"/>
<path d="M62.7243 55.5112H60.1719V58.0637H62.7243V55.5112Z" fill="#2B478B"/>
<path d="M65.2751 55.5112H62.7227V58.0637H65.2751V55.5112Z" fill="#2B478B"/>
<path d="M67.8298 55.5112H65.2773V58.0637H67.8298V55.5112Z" fill="#2B478B"/>
<path d="M72.9353 55.5112H70.3828V58.0637H72.9353V55.5112Z" fill="#2B478B"/>
<path d="M75.488 55.5112H72.9355V58.0637H75.488V55.5112Z" fill="#2B478B"/>
<path d="M78.1914 55.5112H75.4883V58.0637H78.1914V55.5112Z" fill="#2B478B"/>
<path d="M24.2829 55.5112H21.7305V58.0637H24.2829V55.5112Z" fill="#2B478B"/>
<path d="M37.0486 52.959H34.4961V55.5114H37.0486V52.959Z" fill="#2B478B"/>
<path d="M47.2575 52.959H44.7051V55.5114H47.2575V52.959Z" fill="#2B478B"/>
<path d="M49.8103 52.959H47.2578V55.5114H49.8103V52.959Z" fill="#2B478B"/>
<path d="M54.9157 52.959H52.3633V55.5114H54.9157V52.959Z" fill="#2B478B"/>
<path d="M57.6192 52.959H54.916V55.5114H57.6192V52.959Z" fill="#2B478B"/>
<path d="M60.1716 52.959H57.6191V55.5114H60.1716V52.959Z" fill="#2B478B"/>
<path d="M62.7243 52.959H60.1719V55.5114H62.7243V52.959Z" fill="#2B478B"/>
<path d="M75.488 52.959H72.9355V55.5114H75.488V52.959Z" fill="#2B478B"/>
<path d="M24.2829 52.959H21.7305V55.5114H24.2829V52.959Z" fill="#2B478B"/>
<path d="M26.8376 50.4062H24.2852V52.9587H26.8376V50.4062Z" fill="#2B478B"/>
<path d="M29.3903 50.4062H26.8379V52.9587H29.3903V50.4062Z" fill="#2B478B"/>
<path d="M31.9431 50.4062H29.3906V52.9587H31.9431V50.4062Z" fill="#2B478B"/>
<path d="M34.4939 50.4062H31.9414V52.9587H34.4939V50.4062Z" fill="#2B478B"/>
<path d="M37.0486 50.4062H34.4961V52.9587H37.0486V50.4062Z" fill="#2B478B"/>
<path d="M42.154 50.4062H39.6016V52.9587H42.154V50.4062Z" fill="#2B478B"/>
<path d="M44.7048 50.4062H42.1523V52.9587H44.7048V50.4062Z" fill="#2B478B"/>
<path d="M57.6192 50.4062H54.916V52.9587H57.6192V50.4062Z" fill="#2B478B"/>
<path d="M62.7243 50.4062H60.1719V52.9587H62.7243V50.4062Z" fill="#2B478B"/>
<path d="M67.8298 50.4062H65.2773V52.9587H67.8298V50.4062Z" fill="#2B478B"/>
<path d="M70.3806 50.4062H67.8281V52.9587H70.3806V50.4062Z" fill="#2B478B"/>
<path d="M78.1914 50.4062H75.4883V52.9587H78.1914V50.4062Z" fill="#2B478B"/>
<path d="M24.2829 50.4062H21.7305V52.9587H24.2829V50.4062Z" fill="#2B478B"/>
<g opacity="0.8">
<path d="M13.2021 55.4326C12.7009 55.4326 12.2949 55.0266 12.2949 54.5254V42.146C12.2949 41.6447 12.7009 41.2388 13.2021 41.2388H25.6938C26.195 41.2388 26.601 41.6447 26.601 42.146C26.601 42.6472 26.195 43.0532 25.6938 43.0532H14.1109V54.5254C14.1093 55.0266 13.7034 55.4326 13.2021 55.4326Z" fill="white"/>
<path d="M86.7241 55.4881C86.2228 55.4881 85.8169 55.0822 85.8169 54.5809V42.998H74.3447C73.8434 42.998 73.4375 42.5921 73.4375 42.0908C73.4375 41.5895 73.8434 41.1836 74.3447 41.1836H86.7241C87.2254 41.1836 87.6313 41.5895 87.6313 42.0908V54.5824C87.6328 55.0822 87.2254 55.4881 86.7241 55.4881Z" fill="white"/>
</g>
<g opacity="0.8">
<path d="M86.7231 117.7H74.2314C73.7302 117.7 73.3242 117.294 73.3242 116.793C73.3242 116.292 73.7302 115.884 74.2314 115.884H85.8144V104.412C85.8144 103.911 86.2203 103.505 86.7215 103.505C87.2228 103.505 87.6287 103.911 87.6287 104.412V116.791C87.6318 117.294 87.2243 117.7 86.7231 117.7Z" fill="white"/>
<path d="M25.5815 117.756H13.2021C12.7009 117.756 12.2949 117.35 12.2949 116.849V104.357C12.2949 103.856 12.7009 103.45 13.2021 103.45C13.7034 103.45 14.1093 103.856 14.1093 104.357V115.94H25.5815C26.0828 115.94 26.4887 116.346 26.4887 116.847C26.4887 117.348 26.0828 117.756 25.5815 117.756Z" fill="white"/>
</g>
<path d="M82.0757 134.925V136.661C82.0757 137.608 81.3008 138.381 80.3551 138.381H19.5683C18.6211 138.381 17.8477 137.606 17.8477 136.661V134.925C17.8477 133.978 18.6226 133.204 19.5683 133.204H80.3551C81.3008 133.204 82.0757 133.978 82.0757 134.925Z" fill="white"/>
<path d="M62.7252 133.204V138.381H19.5702C18.623 138.381 17.8496 137.606 17.8496 136.661V134.925C17.8496 133.978 18.6246 133.204 19.5702 133.204H62.7252Z" fill="#007490"/>
<path d="M53.7348 133.204L48.9605 138.381H40.0254L44.8012 133.204H53.7348Z" fill="#6ED1EA"/>
<path d="M62.7254 133.204V138.381H54.4453L59.2196 133.204H62.7254Z" fill="#6ED1EA"/>
<path d="M39.3501 133.204L34.5742 138.381H25.6406L30.4165 133.204H39.3501Z" fill="#6ED1EA"/>
<path d="M24.9659 133.204L20.1901 138.381H19.5351C18.5879 138.381 17.8145 137.606 17.8145 136.661V134.925C17.8145 133.978 18.5894 133.204 19.5351 133.204H24.9659Z" fill="#6ED1EA"/>
<path d="M43.375 130.249L43.7148 129.846C44.0223 130.112 44.3299 130.263 44.7281 130.263C45.0771 130.263 45.297 130.103 45.297 129.85C45.297 129.621 45.1679 129.497 44.5728 129.355C43.8901 129.195 43.5042 128.992 43.5042 128.393C43.5042 127.842 43.9624 127.461 44.6005 127.461C45.0679 127.461 45.44 127.602 45.766 127.864L45.4631 128.29C45.174 128.074 44.8849 127.959 44.5912 127.959C44.2607 127.959 44.0685 128.128 44.0685 128.35C44.0685 128.597 44.2161 128.708 44.8296 128.854C45.5092 129.019 45.8613 129.263 45.8613 129.803C45.8613 130.404 45.3893 130.761 44.7143 130.761C44.2238 130.762 43.7594 130.593 43.375 130.249Z" fill="white"/>
<path d="M46.3828 129.111C46.3828 128.197 47.0671 127.45 48.0388 127.45C48.6308 127.45 48.9875 127.656 49.2951 127.95L48.9322 128.367C48.6754 128.128 48.4002 127.967 48.0327 127.967C47.4176 127.967 46.9733 128.471 46.9733 129.109C46.9733 129.738 47.4176 130.252 48.0327 130.252C48.4278 130.252 48.68 130.092 48.9553 129.835L49.3181 130.203C48.9829 130.552 48.617 130.771 48.0158 130.771C47.0794 130.771 46.3828 130.043 46.3828 129.111Z" fill="white"/>
<path d="M51.0498 127.482H51.5726L52.9857 130.716H52.3891L52.0631 129.941H50.5454L50.2149 130.716H49.6367L51.0498 127.482ZM51.857 129.441L51.302 128.157L50.7515 129.441H51.857Z" fill="white"/>
<path d="M53.5332 127.505H54.056L55.7766 129.726V127.505H56.3317V130.716H55.8596L54.0898 128.431V130.716H53.5347V127.505H53.5332Z" fill="white"/>
</svg>
