<svg width="228" height="303" viewBox="0 0 228 303" fill="none" xmlns="http://www.w3.org/2000/svg">
<g opacity="0.15" clip-path="url(#clip0_133_17371)">
<path d="M154.888 167.269L153.626 166.931L153.786 165.636C154.345 161.229 154.789 157.366 155.17 153.969C156.934 138.39 157.665 131.945 164.165 125.972C170.868 119.82 178.661 116.915 186.212 114.101C194.182 111.119 202.422 108.055 209.361 101.08C216.037 94.3917 218.146 85.5934 214.864 78.1038C210.944 69.1676 200.486 64.1411 186.858 64.6735C178.733 64.9851 173.192 66.1601 169.136 67.0175C157.232 69.5359 156.796 68.1437 149.336 44.9608C148.564 42.5608 147.715 39.9226 146.77 37.0095L146.361 35.7489L147.569 35.1862C179.757 20.1847 213.796 22.011 238.606 40.0594C256.751 53.2582 266.174 72.5967 263.814 91.7952C261.126 113.612 243.598 132.122 214.472 143.884C195.509 151.557 194.036 159.841 193.051 165.317C192.569 167.987 192.122 170.527 189.816 171.993C185.933 174.468 177.439 173.312 154.888 167.269ZM200.085 63.0229C208.401 65.2509 214.639 70.0643 217.629 76.9003C221.412 85.5353 219.071 95.6089 211.501 103.193C204.099 110.619 195.543 113.817 187.266 116.903C179.66 119.749 172.472 122.427 166.202 128.181C160.513 133.392 159.874 139.084 158.16 154.303C157.817 157.384 157.424 160.825 156.943 164.709C176.589 169.927 185.393 171.259 188.222 169.466C189.364 168.746 189.657 167.362 190.112 164.793C191.21 158.664 192.871 149.388 213.367 141.099C241.448 129.757 258.308 112.111 260.85 91.421C263.068 73.3352 254.097 55.0357 236.834 42.4932C213.234 25.3288 180.865 23.4213 150.04 37.3414C150.823 39.7598 151.547 41.9914 152.198 44.0322C155.762 55.1125 157.722 61.206 159.784 63.6095C161.386 65.4695 163.168 65.2007 168.526 64.07C172.681 63.1923 178.372 61.9798 186.763 61.6617C191.587 61.4769 196.08 61.9497 200.085 63.0229Z" fill="#268EA8"/>
<path d="M152.591 232.15C141.04 229.055 130.563 218.409 134.86 202.373C139.145 186.381 153.533 182.429 165.085 185.524C177.071 188.736 187.075 199.986 182.981 215.267C178.875 230.592 164.592 235.366 152.591 232.15ZM164.325 188.416C154.167 185.694 141.529 189.151 137.78 203.14C134.016 217.188 143.229 226.515 153.387 229.237C163.618 231.979 176.333 228.526 180.097 214.479C183.831 200.486 174.542 191.153 164.325 188.416Z" fill="#268EA8"/>
<path d="M153.088 173.988L145.963 172.079L146.895 164.77C147.446 160.391 147.878 156.572 148.27 153.193C150.128 136.8 151.053 128.586 159.489 120.846C159.692 120.667 159.9 120.473 160.103 120.295L162.099 122.54L161.525 123.055C153.919 130.023 153.043 137.876 151.26 153.528C150.883 156.911 150.443 160.759 149.892 165.137L149.299 169.847L153.884 171.075C178.293 177.616 186.841 178.569 191.958 175.32C193.516 174.322 194.671 173.03 195.483 171.334L198.184 172.633C197.122 174.853 195.607 176.562 193.566 177.851C187.496 181.699 178.803 180.879 153.088 173.988Z" fill="#268EA8"/>
<path d="M211.283 91.2978L208.485 90.1903C208.687 89.6689 208.87 89.1581 209.01 88.6357C209.574 86.5315 209.583 84.4653 209.045 82.4701C207.618 77.1728 202.243 73.2595 194.61 72.0233L195.094 69.0577C203.951 70.4822 210.213 75.2085 211.944 81.6916C212.623 84.2067 212.613 86.8013 211.913 89.4134C211.745 90.0374 211.545 90.6681 211.283 91.2978Z" fill="#268EA8"/>
<path d="M159.012 74.4456C150.813 72.2486 148.603 65.4039 142.73 47.0945C141.958 44.6945 141.109 42.0563 140.159 39.1577L137.838 32.0341L144.625 28.8757C159.696 21.8552 175.005 18.2425 190.105 18.1358L190.123 21.1426C175.457 21.2567 160.58 24.7673 145.899 31.6122L141.528 33.645L143.021 38.2292C143.967 41.1423 144.816 43.7805 145.588 46.1805C151.264 63.8306 153.187 69.774 159.79 71.5432C161.444 71.9865 163.203 72.0379 165.483 71.7155L165.899 74.689C163.2 75.0699 161.073 74.9977 159.012 74.4456Z" fill="#268EA8"/>
<path d="M150.939 238.894L150.794 238.855C135.542 234.768 122.856 220.294 128.144 200.558C129.116 196.93 130.578 193.621 132.485 190.741L134.998 192.394C133.27 195.011 131.951 198.017 131.061 201.34C126.282 219.175 137.771 232.254 151.586 235.956L150.939 238.894ZM182.731 230.303L180.498 228.305C183.424 225.045 185.547 221.01 186.811 216.294C188.46 210.141 188.266 204.303 186.228 198.966L189.034 197.898C191.299 203.84 191.529 210.294 189.713 217.071C188.315 222.234 185.969 226.691 182.731 230.303Z" fill="#268EA8"/>
</g>
<g filter="url(#filter0_d_133_17371)">
<path d="M36.9161 100.93C36.9161 100.95 36.9161 100.97 36.9161 100.99C36.9161 101.63 36.7161 102.15 36.3161 102.55C35.9161 102.95 35.3861 103.15 34.7261 103.15C34.0461 103.15 33.4961 102.95 33.0761 102.55C32.6761 102.13 32.4761 101.58 32.4761 100.9V100.84C32.5161 100.22 32.7361 99.72 33.1361 99.34C33.5561 98.96 34.0861 98.77 34.7261 98.77C35.3861 98.77 35.9161 98.97 36.3161 99.37C36.7161 99.77 36.9161 100.29 36.9161 100.93ZM46.7598 100.93C46.7598 100.95 46.7598 100.97 46.7598 100.99C46.7598 101.63 46.5598 102.15 46.1598 102.55C45.7598 102.95 45.2298 103.15 44.5698 103.15C43.8898 103.15 43.3398 102.95 42.9198 102.55C42.5198 102.13 42.3198 101.58 42.3198 100.9V100.84C42.3598 100.22 42.5798 99.72 42.9798 99.34C43.3998 98.96 43.9298 98.77 44.5698 98.77C45.2298 98.77 45.7598 98.97 46.1598 99.37C46.5598 99.77 46.7598 100.29 46.7598 100.93ZM56.6036 100.93C56.6036 100.95 56.6036 100.97 56.6036 100.99C56.6036 101.63 56.4036 102.15 56.0036 102.55C55.6036 102.95 55.0736 103.15 54.4136 103.15C53.7336 103.15 53.1836 102.95 52.7636 102.55C52.3636 102.13 52.1636 101.58 52.1636 100.9V100.84C52.2036 100.22 52.4236 99.72 52.8236 99.34C53.2436 98.96 53.7736 98.77 54.4136 98.77C55.0736 98.77 55.6036 98.97 56.0036 99.37C56.4036 99.77 56.6036 100.29 56.6036 100.93ZM85.6173 99.37H88.3173V103H85.2573C83.7773 103 82.5673 102.61 81.6273 101.83C80.6673 102.61 79.4473 103 77.9673 103H67.2573C65.5573 103 64.2273 102.43 63.2673 101.29C62.4073 100.29 61.9773 99 61.9773 97.42V94.36L65.7273 92.38V97.18C65.7273 97.98 65.8873 98.55 66.2073 98.89C66.5473 99.21 67.0973 99.37 67.8573 99.37H77.6373C78.3973 99.37 78.9373 99.2 79.2573 98.86C79.5773 98.52 79.7373 97.96 79.7373 97.18V85.63L83.4873 83.65V97.21C83.4873 97.99 83.6473 98.55 83.9673 98.89C84.3073 99.21 84.8573 99.37 85.6173 99.37ZM73.5273 88C74.9673 88.24 75.6873 89.09 75.6873 90.55C75.6873 92.19 74.8973 93.01 73.3173 93.01H68.8773L69.8073 91.27H73.1373C73.6773 91.27 73.9473 91 73.9473 90.46C73.9473 89.78 73.4973 89.44 72.5973 89.44C71.9973 89.44 71.4373 89.6 70.9173 89.92V88.42L73.4973 85.57H75.6873L73.5273 88ZM86.5316 103V99.37H89.2316C89.9916 99.37 90.5316 99.21 90.8516 98.89C91.1716 98.55 91.3316 97.99 91.3316 97.21V91.66L95.1116 89.68V97.39C95.1116 99.21 94.5516 100.63 93.4316 101.65C92.4516 102.55 91.1716 103 89.5916 103H86.5316ZM92.8916 109.69C92.2916 109.69 91.8116 109.51 91.4516 109.15C91.0916 108.79 90.9116 108.3 90.9116 107.68C90.9116 107.1 91.0916 106.63 91.4516 106.27C91.8116 105.91 92.2916 105.73 92.8916 105.73C93.4916 105.73 93.9616 105.9 94.3016 106.24C94.6616 106.6 94.8416 107.08 94.8416 107.68C94.8416 109.02 94.1916 109.69 92.8916 109.69ZM113.23 103C111.41 103 110 102.42 109 101.26C108.14 100.26 107.71 98.97 107.71 97.39V85.63L111.49 83.65V97.21C111.49 97.99 111.65 98.55 111.97 98.89C112.29 99.21 112.83 99.37 113.59 99.37H116.29V103H113.23ZM125.161 99.37H127.861V103H124.801C123.341 103 122.131 102.61 121.171 101.83C120.211 102.61 119.001 103 117.541 103H114.481V99.37H117.181C117.941 99.37 118.481 99.21 118.801 98.89C119.121 98.55 119.281 97.99 119.281 97.21V91.66L123.061 89.68V97.21C123.061 97.99 123.221 98.55 123.541 98.89C123.861 99.21 124.401 99.37 125.161 99.37ZM121.351 105.73C121.951 105.73 122.421 105.9 122.761 106.24C123.121 106.6 123.301 107.08 123.301 107.68C123.301 109.02 122.651 109.69 121.351 109.69C120.751 109.69 120.271 109.51 119.911 109.15C119.551 108.79 119.371 108.3 119.371 107.68C119.371 107.1 119.551 106.63 119.911 106.27C120.271 105.91 120.751 105.73 121.351 105.73ZM126.053 103V99.37H130.523C134.043 99.37 136.843 98.32 138.923 96.22C137.563 93.84 135.913 92.65 133.973 92.65C132.373 92.65 130.623 93.52 128.723 95.26V91.93C130.403 90.09 132.303 89.17 134.423 89.17C135.983 89.17 137.503 89.74 138.983 90.88C140.463 92.02 141.773 93.64 142.913 95.74V97.24C141.473 99.08 139.673 100.5 137.513 101.5C135.373 102.5 133.033 103 130.493 103H126.053ZM155.552 99.37H158.252V103H155.192C154.512 103 153.882 102.91 153.302 102.73C153.042 104.65 152.272 106.17 150.992 107.29C149.832 108.29 148.442 108.79 146.822 108.79C145.562 108.79 144.332 108.47 143.132 107.83V104.53C144.172 105.11 145.192 105.4 146.192 105.4C147.292 105.4 148.142 105.04 148.742 104.32C149.362 103.62 149.672 102.64 149.672 101.38V91.66L152.132 90.37L153.422 89.68V89.71L153.452 89.68V97.21C153.452 97.99 153.612 98.55 153.932 98.89C154.252 99.21 154.792 99.37 155.552 99.37ZM161.263 94.72C161.263 92.92 161.823 91.51 162.943 90.49C163.923 89.61 165.183 89.17 166.723 89.17C168.703 89.17 170.243 89.9 171.343 91.36C172.283 92.58 172.753 94.15 172.753 96.07C172.753 98.29 172.163 100.04 170.983 101.32C169.923 102.44 168.573 103 166.933 103C165.333 103 164.023 102.65 163.003 101.95C162.043 102.65 160.883 103 159.523 103H156.463V99.37H159.163C159.923 99.37 160.463 99.21 160.783 98.89C161.103 98.55 161.263 97.99 161.263 97.21V94.72ZM165.043 97.69C165.043 98.81 165.633 99.37 166.813 99.37C168.293 99.37 169.033 98.23 169.033 95.95C169.033 93.77 168.263 92.68 166.723 92.68C165.603 92.68 165.043 93.34 165.043 94.66V97.69ZM51.4588 125.09C51.1788 125.09 50.9548 125.006 50.7868 124.838C50.6188 124.67 50.5348 124.441 50.5348 124.152C50.5348 123.545 50.8428 123.242 51.4588 123.242C51.7388 123.242 51.9581 123.326 52.1168 123.494C52.2848 123.653 52.3688 123.872 52.3688 124.152C52.3688 124.777 52.0654 125.09 51.4588 125.09ZM53.6148 125.09C53.3348 125.09 53.1108 125.006 52.9428 124.838C52.7748 124.67 52.6908 124.441 52.6908 124.152C52.6908 123.545 52.9988 123.242 53.6148 123.242C53.8948 123.242 54.1141 123.326 54.2728 123.494C54.4408 123.653 54.5248 123.872 54.5248 124.152C54.5248 124.777 54.2214 125.09 53.6148 125.09ZM55.9808 131.306H57.2408V133H55.8128C54.9448 133 54.2728 132.711 53.7968 132.132C53.3954 132.44 52.9054 132.594 52.3268 132.594C51.4681 132.594 50.7821 132.272 50.2688 131.628C49.8488 131.096 49.6388 130.457 49.6388 129.71C49.6388 128.786 49.9374 128.035 50.5348 127.456C51.0388 126.971 51.6221 126.728 52.2848 126.728C52.6301 126.728 52.9474 126.793 53.2368 126.924V126.56L54.9868 125.636V130.298C54.9868 130.662 55.0614 130.923 55.2108 131.082C55.3694 131.231 55.6261 131.306 55.9808 131.306ZM53.2368 128.688C52.9941 128.483 52.7188 128.38 52.4108 128.38C52.1028 128.38 51.8508 128.506 51.6548 128.758C51.4681 129.01 51.3748 129.341 51.3748 129.752C51.3748 130.163 51.4681 130.489 51.6548 130.732C51.8414 130.975 52.0981 131.096 52.4248 131.096C52.7794 131.096 53.0548 130.975 53.2508 130.732C53.2414 130.657 53.2368 130.541 53.2368 130.382V128.688ZM63.2743 131.306H67.1243L67.1523 133H63.1063C62.6303 133 62.1823 132.883 61.7623 132.65C61.3236 132.883 60.8756 133 60.4183 133H56.4003V131.306H60.2083C59.7883 131.017 59.4383 130.741 59.1583 130.48C58.9996 130.34 58.757 130.079 58.4303 129.696C58.3276 129.575 58.2436 129.477 58.1783 129.402V128.604C58.589 127.979 59.1163 127.479 59.7603 127.106C60.4136 126.733 61.081 126.546 61.7623 126.546C62.4343 126.546 63.097 126.737 63.7503 127.12C64.4036 127.493 64.945 127.997 65.3743 128.632V129.402C64.749 130.158 64.049 130.793 63.2743 131.306ZM61.7483 130.634C62.4483 130.083 62.9663 129.528 63.3023 128.968C62.7423 128.445 62.215 128.184 61.7203 128.184C61.2443 128.184 60.7496 128.445 60.2363 128.968C60.6003 129.612 61.1043 130.167 61.7483 130.634ZM66.3124 133V131.306H67.5724C67.9271 131.306 68.1791 131.231 68.3284 131.082C68.4778 130.923 68.5524 130.662 68.5524 130.298V127.708L70.3164 126.784V130.382C70.3164 131.231 70.0551 131.894 69.5324 132.37C69.0751 132.79 68.4778 133 67.7404 133H66.3124ZM69.2804 136.122C69.0004 136.122 68.7764 136.038 68.6084 135.87C68.4404 135.702 68.3564 135.473 68.3564 135.184C68.3564 134.913 68.4404 134.694 68.6084 134.526C68.7764 134.358 69.0004 134.274 69.2804 134.274C69.5604 134.274 69.7798 134.353 69.9384 134.512C70.1064 134.68 70.1904 134.904 70.1904 135.184C70.1904 135.809 69.8871 136.122 69.2804 136.122ZM75.4083 133C74.5589 133 73.9009 132.729 73.4343 132.188C73.0329 131.721 72.8323 131.119 72.8323 130.382V124.894L74.5963 123.97V130.298C74.5963 130.662 74.6709 130.923 74.8203 131.082C74.9696 131.231 75.2216 131.306 75.5763 131.306H76.8363V133H75.4083ZM77.3221 125.552C77.0421 125.552 76.8181 125.468 76.6501 125.3C76.4821 125.132 76.3981 124.903 76.3981 124.614C76.3981 124.343 76.4821 124.124 76.6501 123.956C76.8181 123.788 77.0421 123.704 77.3221 123.704C77.6021 123.704 77.8214 123.788 77.9801 123.956C78.1481 124.115 78.2321 124.334 78.2321 124.614C78.2321 125.239 77.9288 125.552 77.3221 125.552ZM79.4641 125.552C79.1841 125.552 78.9601 125.468 78.7921 125.3C78.6241 125.123 78.5401 124.894 78.5401 124.614C78.5401 124.343 78.6241 124.124 78.7921 123.956C78.9694 123.788 79.1934 123.704 79.4641 123.704C79.7441 123.704 79.9634 123.788 80.1221 123.956C80.2901 124.115 80.3741 124.334 80.3741 124.614C80.3741 125.239 80.0708 125.552 79.4641 125.552ZM80.9761 131.306H82.2361V133H80.8081C80.1268 133 79.5621 132.818 79.1141 132.454C78.6661 132.818 78.1014 133 77.4201 133H75.9921V131.306H77.2521C77.6068 131.306 77.8588 131.231 78.0081 131.082C78.1574 130.923 78.2321 130.662 78.2321 130.298V127.708L79.9961 126.784V130.298C79.9961 130.662 80.0708 130.923 80.2201 131.082C80.3694 131.231 80.6214 131.306 80.9761 131.306ZM90.2965 131.306H91.5425V133H90.1145C89.4425 133 88.8918 132.827 88.4625 132.482C87.9585 133.014 87.2958 133.28 86.4745 133.28C85.6345 133.28 84.9718 133.014 84.4865 132.482C84.0385 132.827 83.4832 133 82.8205 133H81.3925V131.306H82.6525C83.0072 131.306 83.2592 131.231 83.4085 131.082C83.5578 130.923 83.6325 130.662 83.6325 130.298V129.892C83.6325 128.8 83.9172 127.951 84.4865 127.344C84.9812 126.812 85.6438 126.546 86.4745 126.546C87.4172 126.546 88.1452 126.891 88.6585 127.582C89.0878 128.17 89.3025 128.94 89.3025 129.892V130.298C89.3025 130.662 89.3772 130.923 89.5265 131.082C89.6852 131.231 89.9418 131.306 90.2965 131.306ZM86.4745 131.586C87.1838 131.586 87.5385 131.007 87.5385 129.85C87.5385 128.739 87.1838 128.184 86.4745 128.184C85.7558 128.184 85.3965 128.739 85.3965 129.85C85.3965 131.007 85.7558 131.586 86.4745 131.586ZM95.519 131.306H96.779V133H95.351C94.623 133 94.0304 132.795 93.573 132.384C93.0597 132.795 92.4297 133 91.683 133H90.703V131.306H91.585C92.0144 131.306 92.3177 131.213 92.495 131.026C92.6817 130.839 92.775 130.522 92.775 130.074V124.908L94.525 123.97V126.798L94.539 126.784V130.298C94.539 130.662 94.6137 130.923 94.763 131.082C94.9124 131.231 95.1644 131.306 95.519 131.306ZM95.9394 133V131.306H96.8214C97.2507 131.306 97.554 131.213 97.7314 131.026C97.918 130.839 98.0114 130.522 98.0114 130.074V124.908L99.7614 123.97V130.088C99.7614 130.993 99.486 131.717 98.9354 132.258C98.4314 132.753 97.7594 133 96.9194 133H95.9394ZM113.261 131.838C113.261 133.033 112.85 133.994 112.029 134.722C111.301 135.357 110.386 135.674 109.285 135.674C107.959 135.674 106.933 135.235 106.205 134.358C105.645 133.686 105.365 132.888 105.365 131.964C105.365 131.236 105.533 130.592 105.869 130.032L107.605 129.64C107.222 130.247 107.031 130.942 107.031 131.726C107.031 132.417 107.231 132.963 107.633 133.364C108.043 133.775 108.594 133.98 109.285 133.98C109.966 133.98 110.507 133.789 110.909 133.406C111.31 133.023 111.511 132.501 111.511 131.838V124.908L113.261 123.97V131.838ZM122.426 131.306V133H120.704C120.638 133.84 120.265 134.512 119.584 135.016C119.024 135.427 118.37 135.632 117.624 135.632C117.036 135.632 116.462 135.473 115.902 135.156V133.63C116.406 133.919 116.91 134.064 117.414 134.064C117.806 134.064 118.151 133.957 118.45 133.742C118.758 133.527 118.926 133.271 118.954 132.972C118.879 132.963 118.762 132.953 118.604 132.944C118.445 132.925 118.324 132.911 118.24 132.902C117.278 132.799 116.536 132.421 116.014 131.768C115.575 131.217 115.356 130.55 115.356 129.766C115.356 128.739 115.636 127.927 116.196 127.33C116.69 126.807 117.344 126.546 118.156 126.546C118.986 126.546 119.635 126.812 120.102 127.344C120.503 127.801 120.704 128.399 120.704 129.136V131.306H122.426ZM118.954 129.108C118.954 128.492 118.688 128.184 118.156 128.184C117.446 128.184 117.092 128.693 117.092 129.71C117.092 130.615 117.502 131.119 118.324 131.222C118.454 131.25 118.664 131.273 118.954 131.292V129.108ZM125.928 125.37C125.648 125.37 125.424 125.286 125.256 125.118C125.088 124.95 125.004 124.721 125.004 124.432C125.004 124.161 125.088 123.942 125.256 123.774C125.424 123.606 125.648 123.522 125.928 123.522C126.208 123.522 126.427 123.606 126.586 123.774C126.754 123.933 126.838 124.152 126.838 124.432C126.838 125.057 126.534 125.37 125.928 125.37ZM121.588 133V131.306H123.674C125.316 131.306 126.623 130.816 127.594 129.836C126.959 128.725 126.189 128.17 125.284 128.17C124.537 128.17 123.72 128.576 122.834 129.388V127.834C123.618 126.975 124.504 126.546 125.494 126.546C126.222 126.546 126.931 126.812 127.622 127.344C128.312 127.876 128.924 128.632 129.456 129.612V130.312C128.784 131.171 127.944 131.833 126.936 132.3C125.937 132.767 124.845 133 123.66 133H121.588ZM130.296 133L131.178 131.306H133.39C133.866 131.306 134.104 131.031 134.104 130.48C134.104 129.444 133.61 128.651 132.62 128.1L133.488 126.616C135.075 127.549 135.868 128.847 135.868 130.508C135.868 132.169 135.15 133 133.712 133H130.296ZM150.047 131.306H151.503V133H149.879C149.599 133 149.291 132.93 148.955 132.79C148.75 133.714 148.269 134.442 147.513 134.974C146.832 135.441 146.025 135.674 145.091 135.674C143.766 135.674 142.739 135.235 142.011 134.358C141.451 133.686 141.171 132.888 141.171 131.964C141.171 131.236 141.339 130.592 141.675 130.032L143.411 129.64C143.029 130.247 142.837 130.942 142.837 131.726C142.837 132.417 143.038 132.963 143.439 133.364C143.85 133.775 144.401 133.98 145.091 133.98C145.773 133.98 146.314 133.789 146.715 133.406C147.117 133.023 147.317 132.501 147.317 131.838V124.908L149.067 123.97V130.298C149.067 130.662 149.142 130.923 149.291 131.082C149.441 131.231 149.693 131.306 150.047 131.306ZM159.796 131.306H160.972V133H159.782C159.045 133 158.452 132.921 158.004 132.762C157.565 132.594 157.155 132.305 156.772 131.894C155.605 132.631 154.261 133 152.74 133H150.668V131.306H152.754C154.397 131.306 155.703 130.816 156.674 129.836C156.039 128.725 155.269 128.17 154.364 128.17C153.617 128.17 152.801 128.576 151.914 129.388V127.834C152.698 126.975 153.585 126.546 154.574 126.546C155.302 126.546 156.011 126.812 156.702 127.344C157.393 127.876 158.004 128.632 158.536 129.612V130.312C158.387 130.508 158.191 130.727 157.948 130.97C158.321 131.194 158.937 131.306 159.796 131.306ZM155.918 134.274C156.198 134.274 156.417 134.353 156.576 134.512C156.744 134.68 156.828 134.904 156.828 135.184C156.828 135.809 156.525 136.122 155.918 136.122C155.638 136.122 155.414 136.038 155.246 135.87C155.078 135.702 154.994 135.473 154.994 135.184C154.994 134.913 155.078 134.694 155.246 134.526C155.414 134.358 155.638 134.274 155.918 134.274ZM160.129 133V131.306H161.613C161.967 131.306 162.219 131.231 162.369 131.082C162.527 130.923 162.607 130.662 162.607 130.298V128.45L164.371 127.526V130.298C164.371 130.662 164.445 130.923 164.595 131.082C164.744 131.231 164.996 131.306 165.351 131.306H166.303C166.657 131.306 166.909 131.231 167.059 131.082C167.208 130.923 167.283 130.662 167.283 130.298V128.086L169.047 127.148V130.298C169.047 130.662 169.121 130.923 169.271 131.082C169.429 131.231 169.686 131.306 170.041 131.306H170.993C171.347 131.306 171.599 131.231 171.749 131.082C171.898 130.923 171.973 130.662 171.973 130.298V127.708L173.737 126.784V130.382C173.737 131.213 173.485 131.866 172.981 132.342C172.542 132.762 171.963 132.981 171.245 133H169.859C169.168 133 168.603 132.795 168.165 132.384C167.763 132.785 167.231 132.991 166.569 133H165.183C164.492 133 163.927 132.795 163.489 132.384C163.05 132.795 162.485 133 161.795 133H160.129Z" fill="#004556"/>
</g>
<defs>
<filter id="filter0_d_133_17371" x="28.4766" y="83.65" width="149.26" height="60.4719" filterUnits="userSpaceOnUse" color-interpolation-filters="sRGB">
<feFlood flood-opacity="0" result="BackgroundImageFix"/>
<feColorMatrix in="SourceAlpha" type="matrix" values="0 0 0 0 0 0 0 0 0 0 0 0 0 0 0 0 0 0 127 0" result="hardAlpha"/>
<feOffset dy="4"/>
<feGaussianBlur stdDeviation="2"/>
<feComposite in2="hardAlpha" operator="out"/>
<feColorMatrix type="matrix" values="0 0 0 0 0 0 0 0 0 0 0 0 0 0 0 0 0 0 0.05 0"/>
<feBlend mode="normal" in2="BackgroundImageFix" result="effect1_dropShadow_133_17371"/>
<feBlend mode="normal" in="SourceGraphic" in2="effect1_dropShadow_133_17371" result="shape"/>
</filter>
<clipPath id="clip0_133_17371">
<rect width="144.618" height="223.372" fill="white" transform="translate(144.813 6) rotate(15)"/>
</clipPath>
</defs>
</svg>
